<?xml version="1.0" encoding="UTF-8"?>
<svg id="Layer_1" data-name="Layer 1" xmlns="http://www.w3.org/2000/svg" viewBox="0 0 89.28 84.24">
  <defs>
    <style>
      .cls-1, .cls-2 {
        stroke-miterlimit: 10;
      }

      .cls-1, .cls-2, .cls-3 {
        stroke: #000;
        stroke-width: 1.5px;
      }

      .cls-1, .cls-3 {
        fill: none;
      }

      .cls-3 {
        stroke-linecap: round;
        stroke-linejoin: round;
      }
    </style>
  </defs>
  <path class="cls-2" d="m41.86,20.28s-8.89-3.81-13.97,8.04c0,0-8.47,14.4-7.62,19.9,0,0,2.96-2.54,8.04,1.69,0,0,3.81-2.96,5.93-14.4l-.42,18.63h24.57l-.86-20.32s3.7,1.51,5.87,5.41c0,0,1.33,10.26,3.44,10.26,0,0,1.27.85,3.81-1.27,0,0,5.85-6.54,7.16-8.99,0,0,.46-2.87-5.89-7.1l-13.97-11.01s-4.66-2.54-8.89-.85v7.2l-6.35.42-.85-7.62Z"/>
  <path class="cls-1" d="m19.84,49.5s-1.69,3.49,0,4.92h9.06s.67-4.5-.6-4.5c0,0-6.77-4.23-8.47-.42Z"/>
  <path class="cls-2" d="m3.33,42.3s-2.96,0-2.54,1.69,7.2,5.5,7.2,5.5c0,0,2.54.85.42-2.96,0,0,0-1.27,1.69-1.27l8.47,6.35,1.27-2.96-8.47-5.93s-.85-1.69,2.12-2.12c0,0,1.69-.42.42-1.69l-5.5-4.66s-2.54-.42-1.69,2.12v1.69s-3.39,2.12-3.39,4.23Z"/>
  <polyline class="cls-1" points="15.61 82.94 16.03 69.82 38.47 70.24 9.31 69.82 9.68 55 84.2 55.42 85.05 69.82 77.82 69.9 78.28 84.21"/>
  <path class="cls-3" d="m72.77,46.53l5.05-6.41s11.89,6.41,10.62,8.95c0,0,0,1.27-4.66-.85,0,0-2.12,0-5.5,1.69l-5.5-3.39Z"/>
  <path class="cls-1" d="m46.29,18.36h-3.89c-.87-.61-1.85-1.39-2.85-2.38-1.1-1.08-1.96-2.15-2.61-3.08v-6.7c0-3.01,2.44-5.46,5.46-5.46h3.89c3.01,0,5.46,2.44,5.46,5.46v6.7c-.52.83-1.24,1.82-2.21,2.83-1.16,1.2-2.31,2.04-3.24,2.63Z"/>
</svg>