<?xml version="1.0" encoding="utf-8"?>
<!-- Generator: Adobe Illustrator 27.1.1, SVG Export Plug-In . SVG Version: 6.00 Build 0)  -->
<svg version="1.1" id="Layer_1" xmlns="http://www.w3.org/2000/svg" xmlns:xlink="http://www.w3.org/1999/xlink" x="0px" y="0px"
	 viewBox="0 0 100 100" style="enable-background:new 0 0 100 100;" xml:space="preserve">
<g>
	<path d="M43.46,62.89c-0.42-0.38-0.84-0.58-1.25-0.8c-0.12-0.07-0.25-0.11-0.32-0.24c-0.62-1.33-1-2.67-0.82-4.19
		c0.17-1.44,0.33-2.88,0.67-4.28c0.42-1.73,0.77-3.47,1.28-5.18c0.53-1.74,1.11-3.46,1.79-5.15c0.32-0.8,0.72-1.56,1.19-2.29
		c0.43-0.67,0.83-1.36,1.37-1.94c0.65-0.71,1.39-1.32,2.38-1.67c-0.48-0.32-0.91-0.58-1.36-0.83c-1.26-0.69-1.18-1.94-0.16-2.82
		c0.27-0.23,0.58-0.41,0.88-0.6c0.24-0.15,0.34-0.36,0.32-0.62c-0.09-1.16,0.54-1.6,1.28-2.03c0.52-0.3,1.15-0.37,1.64-0.74
		c0.26-0.2,0.52-0.41,0.72-0.67c0.92-1.16,2.17-1.6,3.59-1.71c0.71-0.05,1.42-0.17,2.12-0.11c1,0.08,2.06,0.15,2.95,0.58
		c1.69,0.82,2,1.24,2.85,2.9c0.14-0.01,0.19-0.14,0.27-0.22c0.6-0.58,0.97-0.67,1.86-0.25c0.49,0.23,0.94,0.56,1.43,0.81
		c0.38,0.19,0.46,0.46,0.39,0.84c-0.16,0.85-0.38,1.68-0.74,2.47c-0.35,0.79-0.61,1.61-0.85,2.44c-0.16,0.56,0,1.14-0.02,1.71
		c-0.04,1.3,0.23,2.58,0.43,3.87c0.33,2.16,0.91,4.29,0.93,6.49c0,0.23,0.08,0.34,0.33,0.36c1.84,0.13,3.68,0.25,5.52,0.42
		c0.88,0.08,1.75,0.32,2.64,0.35c1.21,0.04,2.36,0.45,3.55,0.57c0.93,0.09,1.28,0.47,1.42,1.41c0.16,1.06-0.1,2.01-0.74,2.86
		c-0.11,0.15-0.28,0.22-0.43,0.16c-0.65-0.25-1.33-0.08-1.99-0.13c-1.64-0.11-3.28-0.1-4.91-0.2c-0.87-0.05-1.71,0.16-2.57,0.08
		c-0.65-0.06-1.31-0.09-1.96-0.14c-0.27-0.02-0.53-0.06-0.73,0.23c-0.12,0.18-0.35,0.26-0.44-0.07c-0.02-0.07-0.02-0.15-0.11-0.15
		c-0.1,0-0.14,0.08-0.17,0.15c-0.13,0.3-0.14,0.61-0.13,0.93c0.03,2.64,0.14,5.28,0.21,7.92c0.11,3.68,0.49,7.35,0.37,11.04
		c-0.05,1.55,0.02,3.09-0.15,4.63c-0.03,0.3,0.17,0.49,0.4,0.62c0.9,0.5,1.81,0.98,2.7,1.48c0.66,0.38,1.38,0.61,2.07,0.9
		c0.54,0.23,0.86,0.57,0.79,1.19c-0.01,0.15,0,0.3,0,0.45c-0.02,0.69-0.42,1.06-1.1,1.02c-1.29-0.08-2.59-0.22-3.88-0.24
		c-1.5-0.02-2.97-0.26-4.41-0.59c-0.65-0.15-1.19-0.11-1.76,0.1c-0.13,0.05-0.27,0.01-0.4-0.03c-0.14-0.04-0.29-0.1-0.44-0.09
		c-1.06,0.05-2.07-0.33-3.1-0.44c-1.17-0.12-2.14-0.78-3.26-1.05c-1.05-0.25-2.07-0.58-3.16-0.66c-0.09-0.01-0.21,0-0.28-0.04
		c-0.51-0.35-1.14-0.41-1.69-0.66c-0.54-0.25-0.86-0.6-0.86-1.2c0-0.78,0.18-1.55,0.28-2.32c0.14-1.14,0.16-2.29,0.28-3.43
		c0.11-0.95,0.19-1.91,0.37-2.85c0.14-0.73,0.2-1.46,0.27-2.2c0.09-0.98,0.15-1.96,0.2-2.95c0.03-0.53-0.55-0.96-1.06-0.84
		c-0.21,0.05-0.22,0.22-0.23,0.39c-0.03,0.51,0.06,1.01,0.06,1.52c-0.01,2.18-0.11,4.35-0.36,6.51c-0.12,1.03-0.14,2.07-0.21,3.11
		c-0.06,0.89-0.13,1.77-0.22,2.66c-0.04,0.41-0.58,0.94-0.97,1.02c-0.29,0.06-0.71-0.3-0.71-0.65c0.01-0.51,0.06-1.01,0.09-1.51
		c0.08-1.37,0.2-2.73,0.22-4.1c0.03-2,0.22-3.99,0.2-5.99c-0.01-0.6,0.09-1.2,0.15-1.8c0.04-0.41-0.1-0.6-0.53-0.71
		c-1.23-0.32-2.42-0.78-3.69-0.97c-0.74-0.12-1.47-0.35-2.23-0.32c-0.08,0-0.19,0-0.24-0.05c-0.41-0.4-1-0.34-1.47-0.57
		c-0.39-0.19-0.52-0.08-0.53,0.36c-0.02,0.81-0.04,1.61-0.07,2.42c-0.11,2.73-0.17,5.47-0.28,8.21c-0.03,0.85-0.15,1.69-0.17,2.54
		c-0.01,0.32-0.09,0.61-0.43,0.78c-0.69,0.35-1.19,0.09-1.21-0.68c-0.02-1,0.06-2,0.14-2.99c0.13-1.46,0.16-2.92,0.18-4.39
		c0.03-1.71,0.14-3.42,0.2-5.12c0.02-0.68-0.02-1.37-0.03-2.05c-0.01-1.37-0.02-2.73-0.02-4.1c0.01-2.44,0.1-4.87,0.11-7.31
		c0.01-1.31-0.06-2.62,0-3.93c0.06-1.26-0.04-2.52,0.11-3.77c0.05-0.45-0.04-0.9-0.04-1.35c0-1.44,0.04-2.87,0.07-4.31
		c0.01-0.56,0.28-1.02,0.53-1.49c0.1-0.19,0.32-0.25,0.53-0.28c0.35-0.05,0.71-0.1,1.06-0.1c1.64-0.03,3.27-0.04,4.91-0.2
		c0.31-0.03,0.63,0,0.94,0.04c0.37,0.04,0.49,0.28,0.31,0.61c-0.15,0.28-0.4,0.4-0.71,0.4c-0.92-0.01-1.82,0.19-2.73,0.22
		c-0.84,0.02-1.69,0.05-2.54,0.02c-0.43-0.02-0.59,0.18-0.61,0.57c-0.01,0.26-0.02,0.52-0.02,0.78c-0.03,2.59-0.02,5.17-0.11,7.76
		c-0.09,2.56,0,5.12-0.07,7.68c-0.03,1.2-0.11,2.41-0.12,3.61c-0.01,1.34,0.03,2.68,0.05,4.02c0,0.25,0.13,0.39,0.35,0.43
		c1.14,0.21,2.24,0.63,3.4,0.77C43.13,62.9,43.25,62.89,43.46,62.89z M63.9,54.16c-0.26-0.01-0.41-0.01-0.55-0.03
		c-0.31-0.04-0.65,0.19-0.86,0.11c-0.55-0.2-1.08-0.09-1.62-0.11c-1.38-0.05-2.75-0.16-4.11-0.44c-1.69-0.35-3.42-0.37-5.14-0.56
		c-0.95-0.1-1.9-0.2-2.84-0.38c-0.57-0.11-0.77-0.27-0.73-0.86c0.03-0.42,0.04-0.85,0-1.27c-0.04-0.37-0.08-0.74-0.05-1.1
		c0.02-0.25-0.02-0.42-0.24-0.54c-0.28-0.16-0.43-0.42-0.3-0.72c0.15-0.34,0.48-0.24,0.76-0.19c0.08,0.01,0.15,0.06,0.22,0.1
		c0.45,0.22,0.9,0.46,1.36,0.67c1.13,0.52,1.73,0.28,2.21-0.87c0.12-0.29,0.24-0.58,0.36-0.87c0.77-1.77,1.18-3.67,1.86-5.47
		c0.38-1.01,0.69-2.05,1.04-3.07c0.19-0.55,0.43-1.09,0.58-1.66c0.05-0.2,0.13-0.41,0-0.59c-0.16-0.22-0.22-0.47-0.29-0.72
		c-0.15-0.55-0.49-1.01-0.64-1.59c-0.17-0.67-0.51-1.31-0.67-2.01c-0.18-0.82-0.19-0.82-0.99-0.59c-0.95,0.27-1.28,0.83-1.06,1.79
		c0.2,0.88,0.43,1.75,0.72,2.61c0.28,0.83,0.58,1.67,0.19,2.55c-0.19,0.42-0.35,0.86-0.54,1.29c-0.82,1.91-1.83,3.73-2.71,5.62
		c-0.19,0.41-0.51,0.58-0.95,0.58c-0.53-0.01-0.73-0.34-0.45-0.79c0.23-0.37,0.4-0.78,0.59-1.17c0.33-0.69,0.65-1.4,1.07-2.03
		c0.77-1.17,1.34-2.44,1.93-3.71c0.07-0.16,0.1-0.31,0.03-0.48c-0.05-0.11-0.11-0.18-0.25-0.14c-0.72,0.17-1.42,0.4-2.03,0.85
		c-1.32,0.99-2.17,2.35-2.87,3.8c-0.91,1.89-1.58,3.88-2.18,5.89c-0.51,1.73-0.9,3.5-1.37,5.24c-0.56,2.1-0.96,4.21-0.77,6.39
		c0.04,0.48,0.2,0.82,0.59,1.1c1.02,0.73,2.14,1.27,3.28,1.76c0.93,0.4,1.85,0.83,2.87,0.96c0.82,0.1,1.6,0.35,2.39,0.56
		c0.24,0.06,0.37,0.2,0.4,0.45c0.2,1.9,0.1,3.81-0.12,5.69c-0.23,2-0.47,3.99-0.55,6c-0.04,1-0.15,1.99-0.36,2.97
		c-0.1,0.49-0.03,0.63,0.47,0.74c0.88,0.2,1.79,0.27,2.66,0.52c0.62,0.18,1.22,0.4,1.87,0.47c0.21,0.02,0.45,0.02,0.55-0.18
		c0.1-0.21,0.12-0.48-0.01-0.67c-0.24-0.34-0.45-0.72-0.85-0.92c-0.22-0.11-0.41-0.29-0.53-0.5c-0.26-0.47-0.52-0.94-0.72-1.45
		c-0.11-0.27-0.14-0.53-0.06-0.8c0.17-0.59,0.3-1.2,0.48-1.78c0.36-1.15,0.51-2.35,0.74-3.52c0.33-1.67,0.59-3.37,0.95-5.04
		c0.2-0.91,0.41-1.81,0.54-2.74c0.04-0.29,0.05-0.54-0.24-0.76c-1.29-0.97-2.65-1.82-4.07-2.59c-1.04-0.57-2.07-1.17-2.99-1.93
		c-0.38-0.32-0.51-0.63-0.34-0.93c0.17-0.3,0.53-0.34,0.99-0.11c0.04,0.02,0.07,0.04,0.11,0.06c0.94,0.48,1.87,0.96,2.78,1.49
		c1.32,0.77,2.71,1.43,3.95,2.35c0.7,0.52,0.98,1.22,0.97,2.06c-0.01,1.53-0.46,3-0.69,4.5c-0.25,1.66-0.59,3.31-0.86,4.97
		c-0.21,1.29-0.46,2.56-0.9,3.79c-0.1,0.28-0.1,0.53,0.04,0.79c0.31,0.62,0.78,1.11,1.31,1.56c1.07,0.92,1.24,1.6,0.7,2.9
		c-0.15,0.35-0.05,0.42,0.27,0.48c0.99,0.18,1.98,0.38,2.97,0.57c1,0.19,1.22,0.04,1.43-0.98c0.01-0.04,0.01-0.08,0.02-0.12
		c0.09-0.31,0.02-0.55-0.23-0.77c-0.36-0.32-0.66-0.7-1.04-0.99c-0.24-0.19-0.5-0.52-0.9-0.27c-0.05,0.03-0.11,0-0.13-0.06
		c-0.01-0.03,0.01-0.09,0.04-0.1c0.44-0.17,0.06-0.28-0.04-0.35c-0.52-0.36-0.68-0.83-0.52-1.43c0.1-0.37,0.21-0.74,0.28-1.11
		c0.23-1.19,0.43-2.39,0.67-3.57c0.34-1.66,0.59-3.34,0.97-5c0.39-1.74,0.79-3.49,0.84-5.3c0.02-0.49-0.13-0.86-0.35-1.26
		c-0.25-0.44-0.61-0.77-0.94-1.13c-0.38-0.42-0.63-0.93-1.01-1.33c-0.54-0.58-0.95-1.23-1.38-1.89c-0.13-0.2-0.19-0.4,0.01-0.59
		c0.19-0.19,0.41-0.27,0.67-0.13c0.16,0.08,0.29,0.2,0.4,0.35c0.52,0.69,1.13,1.3,1.73,1.93c0.7,0.75,1.42,1.48,1.98,2.35
		c0.33,0.51,0.5,1.06,0.45,1.67c-0.09,1.08-0.24,2.15-0.43,3.21c-0.32,1.82-0.75,3.62-0.98,5.45c-0.24,1.86-0.43,3.73-1.1,5.5
		c-0.3,0.79-0.2,1.41,0.57,1.85c0.11,0.06,0.21,0.14,0.28,0.24c0.52,0.73,1.15,0.63,1.85,0.3c0.35-0.17,0.55-0.38,0.55-0.78
		c0-2.4,0.11-4.79,0.15-7.18c0.04-1.91-0.08-3.82-0.21-5.74c-0.09-1.37-0.16-2.76-0.12-4.14c0.05-1.91-0.21-3.82-0.18-5.74
		c0-0.07-0.01-0.14-0.02-0.2c-0.08-0.54-0.4-0.76-0.94-0.63c-0.2,0.05-0.38,0-0.61-0.07C63.26,54.36,63.56,54.41,63.9,54.16z
		 M62.36,48.73c-0.2-0.33-0.43-0.62-0.13-0.94c0.23-0.24,0.55-0.26,0.84-0.13c0.37,0.17,0.74,0.34,1.05,0.62
		c0.48,0.43,1.08,0.69,1.64,0.99c0.56,0.3,1.14,0.01,1.16-0.49c0-0.15-0.14-0.28-0.09-0.43c0.25-0.7,0.06-1.42-0.01-2.11
		c-0.15-1.36-0.42-2.7-0.67-4.05c-0.27-1.5-0.37-3.01-0.21-4.53c0.02-0.15,0.04-0.31-0.06-0.44c-0.29-0.36-0.22-0.76-0.09-1.13
		c0.32-0.9,0.6-1.82,1.02-2.68c0.27-0.55,0.47-1.13,0.57-1.75c0.04-0.27-0.02-0.43-0.28-0.5c-0.29-0.09-0.55-0.23-0.79-0.42
		c-0.19-0.14-0.33-0.12-0.49,0.07c-0.34,0.43-0.47,0.99-0.92,1.35c-0.08,0.07-0.02,0.18-0.01,0.27c0.02,0.5,0.11,1.01,0.04,1.51
		c-0.13,1.02-0.4,2-0.76,2.97c-0.42,1.16-1.21,2.01-2.2,2.67c-0.88,0.6-1.93,0.52-2.94,0.55c-0.86,0.02-1.66-0.26-2.48-0.46
		c-0.22-0.05-0.31,0-0.38,0.22c-0.31,1.03-0.67,2.05-0.96,3.09c-0.46,1.63-1.05,3.22-1.66,4.81c-0.16,0.41-0.14,0.51,0.29,0.5
		c1.23-0.01,2.46,0.15,3.69,0.21c0.97,0.05,1.94,0.02,2.91,0.12C61.05,48.73,61.67,48.85,62.36,48.73z M59.46,39.22
		c1.67,0.15,2.69-0.81,3.28-2.17c0.78-1.8,1.19-3.7,0.8-5.71c-0.16-0.8-0.53-1.45-1.02-2.07c-0.19-0.24-0.35-0.27-0.51,0.05
		c-0.14,0.28-0.26,0.57-0.46,0.82c-0.63,0.82-1.41,1.45-2.35,1.87c-0.48,0.21-0.72,0.56-0.84,1.02c-0.03,0.11-0.06,0.21-0.1,0.31
		c-0.24,0.59-0.67,1.01-1.22,1.27c-0.5,0.24-0.53,0.22-0.12,0.62c0.36,0.36,0.48,0.73,0.31,1.25c-0.17,0.55-0.37,1.08-0.53,1.64
		c-0.1,0.35,0.03,0.56,0.35,0.66C57.84,39.06,58.65,39.15,59.46,39.22z M53.06,30.47c0.27,0.07,0.44-0.04,0.63-0.06
		c1.23-0.14,1.3,0.01,1.57,0.97c0.2,0.71,0.44,1.41,0.76,2.08c0.13,0.28,0.27,0.34,0.52,0.12c0.41-0.36,0.63-0.82,0.74-1.34
		c0.07-0.33,0.22-0.59,0.55-0.72c0.54-0.21,1.04-0.5,1.53-0.79c0.74-0.44,1.35-1.02,1.68-1.84c0.18-0.44,0.09-0.55-0.37-0.64
		c-1.07-0.2-2.14-0.26-3.22-0.16c-1.01,0.09-1.99,0.28-2.73,1.06C54.22,29.64,53.8,30.21,53.06,30.47z M52.1,30.83
		c-0.95,0.28-1.35,0.74-1.38,1.67c-0.02,0.48-0.22,0.8-0.61,1.04c-0.3,0.19-0.61,0.37-0.9,0.58c-0.73,0.53-0.57,1.18-0.06,1.58
		c0.68,0.54,1.46,0.91,2.37,0.91c0.29,0,0.42-0.06,0.28-0.38c-0.39-0.89-0.6-1.84-0.76-2.8c-0.13-0.81-0.22-1.65,0.56-2.25
		C51.76,31.06,51.93,30.95,52.1,30.83z"/>
	<path d="M27.03,72.73c-0.82-0.41-1.32-1.03-1.54-1.87c-0.25-0.98-0.37-1.95-0.05-2.95c0.17-0.53,0.32-1.08,0.46-1.62
		c0.43-1.7,1.85-2.65,3.5-2.8c0.85-0.08,1.7,0.01,2.52,0.24c0.3,0.08,0.55,0.22,0.74,0.49c0.22,0.32,0.59,0.46,0.83,0.78
		c0.61,0.83,0.71,1.8,0.77,2.77c0.08,1.18-0.09,2.35-0.33,3.51c-0.12,0.59-0.49,0.93-1.06,1.14c-0.62,0.23-1.26,0.42-2.04,0.52
		c1.07,0.31,1.99,0.64,2.72,1.35c0.39,0.38,0.57,0.86,0.8,1.32c0.75,1.46,1.46,2.94,2,4.5c0.27,0.77,0.55,1.54,0.85,2.31
		c0.23,0.59,0.58,1,1.16,1.24c0.52,0.21,0.95,0.49,1.08,1.13c0.24,1.25-0.57,2.22-1.84,2.13c-0.66-0.05-1.3,0.15-1.96,0.19
		c-0.96,0.06-1.58-0.32-1.97-1.17c-0.09-0.21-0.2-0.56-0.34-0.55c-0.25,0.02-0.26,0.37-0.34,0.59c-0.41,1.17-1,2.23-1.97,3.02
		c-0.43,0.35-0.85,0.72-1.34,1.01c-0.84,0.49-1.55,1.17-2.34,1.72c-0.9,0.62-1.74,1.33-2.6,1.99c-0.53,0.41-1.16,0.59-1.88,0.31
		c-0.6-0.23-0.95-0.69-1.38-1.09c-0.3-0.27-0.56-0.58-0.82-0.89c-0.15-0.18-0.34-0.19-0.56-0.1c-0.8,0.31-1.16,0.2-1.75-0.42
		c-0.54-0.56-1.14-1.04-1.79-1.47c-0.71-0.48-1.07-0.9-0.46-1.84c0.04-0.07,0.11-0.13,0.13-0.21c0.18-0.75,0.72-0.88,1.39-0.83
		c0.54,0.04,0.94-0.19,1.33-0.58c1.11-1.09,2.3-2.11,3.53-3.06c0.63-0.48,1.17-1.07,1.72-1.65c0.21-0.22,0.28-0.54,0.32-0.83
		c0.09-0.75,0.26-1.48,0.43-2.21c0.05-0.21,0.08-0.42-0.08-0.58c-0.17-0.17-0.37-0.03-0.54,0.03c-1.44,0.57-2.86,0.64-4.3,0
		c-0.29-0.13-0.64-0.13-0.96-0.18c-0.16-0.03-0.22,0.09-0.26,0.21c-0.06,0.17-0.1,0.34-0.15,0.51c-0.34,1.23-1.29,1.73-2.43,1.99
		c-0.04,0.01-0.08,0.01-0.12,0.02c-0.75,0.18-0.79,0.15-0.93-0.61c-0.04-0.23-0.1-0.45-0.31-0.61c-0.49-0.35-0.64-1.11-0.29-1.62
		c0.18-0.27,0.2-0.41-0.06-0.64c-0.46-0.42-0.53-0.94-0.24-1.49c0.32-0.6,0.46-1.21,0.35-1.89c-0.09-0.59,0.21-0.97,0.79-1.17
		c0.24-0.08,0.47-0.12,0.72-0.12c0.79,0.01,1.05,0.24,1.11,1.04c0.01,0.11-0.01,0.29,0.07,0.3c0.56,0.08,0.93,0.74,1.59,0.53
		c0.36-0.11,0.74-0.08,1.1-0.05c0.71,0.06,1.41,0.15,2.12,0.22c0.45,0.05,0.87-0.02,1.26-0.25c1.1-0.64,2.3-1.09,3.45-1.64
		C26.88,72.82,26.92,72.79,27.03,72.73z M32.25,82.7c0-0.31-0.05-0.64,0.13-0.92c0.14-0.22,0.28-0.46,0.59-0.45
		c0.3,0.01,0.48,0.22,0.58,0.46c0.49,1.21,1.09,2.36,1.66,3.53c0.3,0.63,0.43,0.73,1.13,0.54c0.4-0.11,0.8-0.16,1.21-0.2
		c0.2-0.02,0.46,0,0.51-0.25c0.05-0.24-0.09-0.45-0.3-0.59c-0.35-0.23-0.7-0.47-1.07-0.67c-0.22-0.12-0.39-0.26-0.48-0.48
		c-0.34-0.83-0.94-1.54-1.09-2.45c-0.04-0.24-0.1-0.49-0.2-0.71c-0.69-1.56-1.3-3.16-2.15-4.65c-0.53-0.94-1.29-1.56-2.47-1.64
		c-0.89-0.06-1.78,0.04-2.66-0.12c-0.37-0.07-0.77-0.05-1.13,0.11c-1.18,0.51-2.25,1.24-3.45,1.7c-0.37,0.14-0.73,0.21-1.07,0.11
		c-0.7-0.21-1.44-0.1-2.14-0.31c-0.1-0.03-0.19,0.02-0.25,0.1c-0.22,0.3-0.01,0.99,0.34,1.1c0.48,0.15,0.99,0.24,1.46,0.41
		c0.7,0.25,1.38,0.25,2.08,0c0.4-0.14,0.81-0.25,1.19-0.44c0.37-0.18,0.75-0.32,1.16-0.39c0.32-0.06,0.47,0.07,0.51,0.36
		c0.04,0.3,0.09,0.59,0.04,0.9c-0.13,0.88-0.25,1.76-0.35,2.64c-0.12,1.06-0.44,1.99-1.25,2.77c-1.67,1.6-3.54,2.97-5.16,4.63
		c-0.43,0.44-1.09,0.47-1.68,0.57c-0.17,0.03-0.36-0.08-0.47,0.13c-0.11,0.21,0.02,0.36,0.14,0.51c0.46,0.54,1.11,0.84,1.65,1.28
		c0.16,0.14,0.29,0.03,0.4-0.13c0.23-0.32,0.49-0.63,0.71-0.95c0.27-0.38,0.63-0.48,1.08-0.44c0.48,0.05,0.96,0.06,1.43,0.12
		c0.39,0.04,0.68-0.11,0.94-0.39c0.81-0.88,1.53-1.82,2.04-2.91c0.16-0.34,0.39-0.63,0.62-0.91c0.23-0.29,0.56-0.3,0.86-0.17
		c0.33,0.15,0.24,0.45,0.14,0.72c-0.07,0.18-0.15,0.35-0.23,0.53c-0.67,1.39-1.53,2.65-2.56,3.79c-0.43,0.47-0.97,0.84-1.63,0.62
		c-0.47-0.15-0.94-0.12-1.4-0.22c-0.23-0.05-0.43,0.09-0.56,0.27c-0.11,0.15,0,0.29,0.11,0.4c0.67,0.68,1.35,1.36,2.03,2.04
		c0.19,0.18,0.38,0.22,0.61,0.02c0.72-0.62,1.45-1.2,2.23-1.75c0.94-0.67,1.82-1.4,2.78-2.03c0.58-0.38,1.12-0.78,1.6-1.27
		C31.82,86.26,32.2,84.54,32.25,82.7z M32.84,68.23c-0.03-0.66-0.04-1.46-0.43-2.18c-0.32-0.58-0.59-1.24-1.26-1.51
		c-1.11-0.46-3,0.16-3.61,1.21c-0.89,1.55-1.16,3.2-0.57,4.93c0.19,0.55,0.52,0.91,1.18,0.96c0.46,0.04,0.9-0.08,1.35-0.01
		c0.78,0.12,1.55,0.05,2.32-0.09c0.48-0.09,0.67-0.34,0.75-0.78C32.72,69.98,32.81,69.18,32.84,68.23z"/>
	<path d="M76,6.35c1.86-0.12,3.8,0.37,5.72,0.94c1.66,0.5,3.03,1.47,4.08,2.84c0.69,0.9,0.96,1.99,1.12,3.09
		c0.13,0.87,0.22,1.74,0.33,2.61c0.06,0.5-0.1,0.97-0.21,1.45c-0.02,0.08-0.06,0.16-0.12,0.21c-1.1,1.15-2.18,2.31-3.52,3.23
		c-0.97,0.67-1.98,1.25-3.03,1.78c-1.09,0.55-2.26,0.7-3.45,0.84c-1.62,0.19-3.23,0.39-4.87,0.3c-0.41-0.02-0.72,0.23-1.05,0.43
		c-1.27,0.79-2.59,1.47-3.99,2.01c-0.62,0.24-0.89-0.09-1.17-0.56c-0.05-0.08-0.06-0.18-0.02-0.28c0.24-0.5,0.38-1.04,0.7-1.5
		c0.36-0.53,0.67-1.1,1.02-1.63c0.16-0.25,0.09-0.36-0.16-0.46c-0.61-0.22-1.23-0.43-1.87-0.44c-0.76-0.01-1.32-0.42-1.9-0.78
		c-0.58-0.37-0.97-0.94-1.4-1.48c-0.44-0.55-0.51-1.21-0.68-1.83c-0.19-0.66-0.17-1.35-0.2-2.03c-0.05-1.18,0.28-2.27,0.7-3.34
		c0.16-0.42,0.46-0.78,0.73-1.13c0.92-1.16,2.15-1.89,3.5-2.49c2.15-0.96,4.41-1.37,6.71-1.63C73.91,6.36,74.87,6.31,76,6.35z
		 M68.17,23.99c0.27,0.02,0.46-0.1,0.64-0.21c0.64-0.39,1.28-0.79,1.91-1.2c0.27-0.17,0.55-0.26,0.88-0.29
		c0.48-0.04,0.95,0.01,1.43,0.02c1.05,0.03,2.07-0.16,3.1-0.27c1.56-0.16,3.11-0.46,4.46-1.28c1.56-0.94,3.1-1.95,4.41-3.24
		c0.63-0.62,0.91-1.3,0.7-2.18c-0.1-0.42-0.12-0.87-0.21-1.29c-0.15-0.73-0.28-1.48-0.51-2.19c-0.46-1.48-1.57-2.39-2.86-3.13
		c-0.25-0.14-0.45-0.12-0.68,0.04c-0.82,0.55-1.61,1.13-2.4,1.71c-0.98,0.72-1.98,1.42-2.96,2.14c-0.12,0.09-0.38,0.15-0.16,0.39
		c0.53,0.57,1.01,1.18,1.58,1.72c0.47,0.44,0.95,0.86,1.43,1.29c0.53,0.47,0.6,0.94,0.29,1.57c-0.12,0.25-0.23,0.51-0.26,0.77
		c-0.12,0.95-0.74,1.36-1.61,1.52c-0.04,0.01-0.08,0.02-0.12,0.03c-1.07,0.29-2.17,0.47-3.22,0.83c-0.16,0.05-0.31,0.03-0.48-0.02
		c-0.67-0.19-1.18-0.61-1.68-1.06c-0.42-0.37-0.85-0.74-1.34-1c-0.25-0.14-0.46-0.22-0.55-0.52c-0.08-0.29-0.27-0.41-0.55-0.18
		c-0.81,0.69-1.71,1.28-2.48,2.02c-0.25,0.24-0.21,0.34,0.11,0.41c0.69,0.15,1.38,0.34,2.09,0.39c0.47,0.03,0.64,0.34,0.39,0.72
		c-0.35,0.53-0.56,1.13-0.94,1.63C68.42,23.38,68.32,23.68,68.17,23.99z M79.87,8.1c-0.08-0.14-0.19-0.15-0.3-0.18
		c-1.16-0.27-2.34-0.45-3.53-0.48c-1.66-0.05-3.31,0.06-4.93,0.44c-0.91,0.21-1.84,0.32-2.71,0.66c-1.12,0.44-2.18,0.99-3.16,1.72
		c-0.77,0.58-1.32,1.28-1.66,2.13c-0.66,1.63-0.69,3.31-0.26,4.99c0.19,0.76,0.58,1.44,1.16,2c0.19,0.18,0.33,0.21,0.57,0.05
		c0.54-0.36,0.99-0.81,1.5-1.21c0.62-0.49,1.14-1.1,1.82-1.52c0.22-0.14,0.21-0.29,0.03-0.46c-0.27-0.27-0.49-0.61-0.8-0.82
		c-0.59-0.39-0.43-0.95-0.37-1.46c0.06-0.55,0.26-1.09,0.32-1.65c0.05-0.48,0.32-0.74,0.69-0.93c0.22-0.11,0.46-0.18,0.69-0.25
		c1.12-0.31,2.28-0.42,3.38-0.81c0.59-0.21,1.1-0.04,1.5,0.46c0.14,0.18,0.33,0.33,0.48,0.51c0.22,0.25,0.4,0.27,0.69,0.06
		c0.91-0.63,1.79-1.3,2.73-1.89C78.44,9.01,79.14,8.54,79.87,8.1z M72.26,11.25c-0.87,0.38-1.91,0.44-2.89,0.74
		c-0.38,0.11-0.41,0.21-0.12,0.48c0.44,0.42,0.92,0.81,1.38,1.22c0.14,0.13,0.26,0.09,0.32-0.07c0.15-0.48,0.56-0.65,0.96-0.81
		c0.41-0.16,0.83-0.27,1.27-0.32c0.12-0.01,0.27,0,0.32-0.12c0.04-0.11-0.07-0.2-0.14-0.28c-0.25-0.26-0.5-0.51-0.75-0.76
		C72.53,11.26,72.44,11.23,72.26,11.25z M74.11,19.4c-0.02,0.21-0.06,0.38,0.21,0.3c0.89-0.28,1.8-0.44,2.71-0.62
		c0.6-0.12,0.81-0.52,0.98-1.01c0.05-0.15,0.05-0.29-0.17-0.25c-1.11,0.21-2.25,0.26-3.34,0.59c-0.14,0.04-0.24,0.14-0.26,0.28
		C74.19,18.95,74.15,19.2,74.11,19.4z M73.95,16.94c0.25,0.38,0.55,0.5,0.98,0.39c0.7-0.19,1.42-0.28,2.14-0.3
		c0.38-0.01,0.75-0.08,1.1-0.29c-0.62-0.38-1.2-0.75-1.7-1.25c-0.16-0.16-0.18-0.03-0.24,0.09c-0.27,0.53-0.64,0.97-1.2,1.24
		C74.69,16.99,74.32,16.88,73.95,16.94z M68.29,14.42c0,0.02,0.01,0.1,0.05,0.17c0.28,0.42,0.65,0.76,1.02,1.11
		c0.05,0.05,0.11,0.07,0.19,0.03c0.29-0.13,0.54-1.05,0.36-1.31c-0.31-0.44-0.81-0.69-1.17-1.07c-0.1-0.11-0.23-0.1-0.26,0.08
		C68.4,13.74,68.36,14.05,68.29,14.42z M73.25,18.4c-0.1-0.27-0.03-0.58-0.28-0.8c-0.28-0.24-0.55-0.49-0.76-0.8
		c-0.13-0.18-0.28-0.16-0.37,0.04c-0.12,0.27-0.22,0.56-0.32,0.84c-0.05,0.13,0,0.23,0.1,0.33c0.3,0.27,0.57,0.59,0.92,0.8
		c0.17,0.1,0.32,0.38,0.5,0.27C73.25,18.95,73.17,18.63,73.25,18.4z M73.26,15.74c0.43,0.43,1.57,0.43,1.93-0.16
		c0.05-0.08,0.13-0.15,0.07-0.26c-0.04-0.07-0.11-0.08-0.18-0.07C74.47,15.37,73.87,15.52,73.26,15.74z M73.06,14.88
		c0.72-0.18,1.33-0.34,1.94-0.49c0.1-0.03,0.25-0.01,0.23-0.17c-0.01-0.13-0.11-0.23-0.24-0.25c-0.17-0.02-0.35,0-0.53,0.01
		C73.88,14.03,73.54,14.47,73.06,14.88z"/>
</g>
</svg>
