<?xml version="1.0" encoding="utf-8"?>
<!-- Generator: Adobe Illustrator 27.5.0, SVG Export Plug-In . SVG Version: 6.00 Build 0)  -->
<svg version="1.1" id="Capa_1" xmlns="http://www.w3.org/2000/svg" xmlns:xlink="http://www.w3.org/1999/xlink" x="0px" y="0px"
	 viewBox="0 0 16 16" style="enable-background:new 0 0 16 16;" xml:space="preserve">
<style type="text/css">
	.st0{fill:none;stroke:#020203;stroke-width:0.1085;stroke-miterlimit:10;}
	.st1{fill:none;stroke:#020203;stroke-width:0.1639;stroke-miterlimit:10;}
	.st2{fill:#FFFFFF;stroke:#000000;stroke-width:0.1639;stroke-miterlimit:10;}
	.st3{stroke:#020203;stroke-width:0.1638;stroke-linecap:round;stroke-linejoin:round;stroke-miterlimit:10;}
	.st4{fill:#FFFFFF;stroke:#020203;stroke-width:0.1638;stroke-linecap:round;stroke-linejoin:round;stroke-miterlimit:10;}
</style>
<g>
	<path class="st0" d="M9.81,8.25"/>
	<line class="st1" x1="6.56" y1="0.38" x2="9.55" y2="14.29"/>
	<path class="st2" d="M7.83,6.27l2.26-1.42l1.83,2.19l0.18,0.3L12.05,7.9l-0.41,0.06V7.68l-0.15,0.02V7.34l-1.39-1.4l-1.68,1.4
		l0.98,2.82l0.4,2.4l1.43,1.7l-0.91,0.86c0,0-0.32-0.15-0.17-0.38l0.28-0.5l-1.37-1.46c-0.07-0.15-0.97-2.36-0.97-2.36l0.28,2.48
		l1.43,1.7L8.9,15.45c0,0-0.32-0.15-0.17-0.38L9,14.58l-1.37-1.46c-0.07-0.15-0.68-2.07-0.68-2.07L6.24,7.49l-1.73-1.1L3.25,7.57
		v0.42H3.09V8.3l-0.51,0l0.07-0.97l1.76-1.98l1.77,0.6L7.83,6.27z"/>
	<polyline class="st1" points="10.1,5.94 10.08,4.85 8.66,0.38 	"/>
	<polyline class="st1" points="4.51,6.38 4.41,5.35 5.25,0.38 	"/>
	<polyline class="st1" points="10.43,14.24 10.74,13.67 7.66,0.38 	"/>
	<path class="st3" d="M7.39,5.8C7.15,5.89,7.04,5.96,6.87,5.92C6.78,5.89,6.72,5.84,6.68,5.8C6.72,5.74,6.79,5.63,6.8,5.5
		c0.04-0.31-0.21-0.44-0.2-0.77c0.01-0.26,0.16-0.43,0.18-0.46C7.02,3.99,7.39,4,7.45,4.01c0.07,0,0.3,0.02,0.51,0.19
		c0.34,0.27,0.35,0.7,0.35,0.75c0.01,0.02,0.03,0.09,0.11,0.13C8.5,5.13,8.57,5.12,8.59,5.12C8.58,5.16,8.56,5.23,8.51,5.29
		c-0.07,0.09-0.16,0.14-0.2,0.16c-0.21,0.1-0.4,0.17-0.59,0.23"/>
	<path class="st4" d="M7.24,4.52c0,0-0.52,0.22-0.31,1.11c0,0,0.14,0.54,0.65,0.49C8.09,6.07,8.25,5.8,8.26,5.37
		C8.26,5.37,8.25,4.02,7.24,4.52z"/>
</g>
</svg>
