<?xml version="1.0" encoding="UTF-8"?>
<svg id="Layer_1" data-name="Layer 1" xmlns="http://www.w3.org/2000/svg" viewBox="0 0 92.44 75.39">
  <defs>
    <style>
      .cls-1 {
        fill: #fff;
      }
    </style>
  </defs>
  <path d="m44.75,26.9c.61.1,1.16.15,1.67.2.81.15,1.57.3,2.38.51.45.1.96.2,1.42.35.61.25,1.21.61,1.82.91.56.25,1.06.51,1.62.71.3.1.61.2.86.4.61.4,1.21.76,1.82,1.16.45.3.86.66,1.26,1.01.76.66,1.52,1.36,2.27,2.07.4.35.81.66,1.21.96.2.15.45.35.66.51.05.05,0,.2,0,.4.15-.1.25-.2.35-.25.76-.71,1.52-1.47,2.33-2.17.15-.15.3-.2.51-.3.4-.2.86-.4,1.26-.56.2-.1.4-.25.71,0,.15.15.45.05.71.1.35.05.35-.2.51-.4.4-.51.81-1.01,1.21-1.52.1-.15.2-.25.3-.4-.15-.1-.25-.2-.4-.3.1-.05.2-.05.4-.1-.35-.25-.66-.45-.96-.66l.05-.05h.15c-.25-.3-.51-.61-.71-.96-.2-.3-.35-.61-.51-.91-.2-.56-.4-1.11-.51-1.67-.15-.76-.25-1.57-.35-2.33-.05-.2,0-.4.05-.61.05-.45.05-.91.1-1.36.05-.4.15-.81.3-1.21.2-.66.4-1.26.66-1.92.1-.3.35-.56.51-.81.35-.56.61-1.16,1.01-1.67.4-.56.91-1.06,1.42-1.52.61-.56,1.26-1.06,1.92-1.57.35-.3.76-.56,1.16-.81.2-.1.4-.1.61-.15.3-.1.61-.25.96-.3.71-.2,1.42-.4,2.12-.56.56-.1,1.16-.1,1.72-.1.61,0,1.26.1,1.87.15.1,0,.2,0,.3.05.81.35,1.72.51,2.43,1.06.56.45,1.11.86,1.67,1.26.3.2.66.4.96.61q.05.05.1.1c.35.4.76.81,1.11,1.21h.1c.1.05.25.15.25.15-.15.45.2.71.35,1.01.66,1.16,1.47,2.27,1.77,3.64.2.76.3,1.57.15,2.38-.1.45-.05.96-.1,1.47-.05.4-.15.76-.15,1.16,0,.15.05.35.15.51s.3.25.45.35c.81.51,1.26,1.21,1.57,2.07.2.56.15,1.01,0,1.52-.15.61-.3,1.26-.45,1.87-.05.25-.15.51-.3.71-.81,1.01-1.62,2.02-2.48,2.98-.45.51-1.06.91-1.67,1.36-.56.45-1.16.86-1.72,1.26-.2.15-.25.45-.61.3-.05,0-.15.1-.2.15-.56.86-1.11,1.77-1.67,2.63-.56.96-1.06,1.92-1.57,2.83-.1.2-.3.4-.4.61-.4.76-.91,1.47-1.21,2.22-.2.51-.2,1.11-.25,1.67-.05.66-.05,1.26-.1,1.92,0,.4-.05.76-.05,1.16,0,1.42-.2,2.78-.66,4.09-.25.76-.76,1.42-1.52,1.82-.45.25-.81.61-1.26.91-.51.35-1.01.71-1.52.96-1.21.61-2.48,1.11-3.74,1.62-.91.35-1.77.35-2.58-.2-.1-.05-.25-.15-.35-.1-.56.2-1.11.1-1.67.05-.86-.1-1.67-.4-2.43-.91-.25-.15-.51-.35-.76-.56-.76-.56-1.52-1.21-2.33-1.67-.4-.25-.86-.4-1.16-.76-.56-.61-1.36-1.01-1.72-1.82-.05-.15-.3-.2-.45-.3-.25,4.14.05,8.24.3,12.33h7.68c1.36,0,2.73-.05,4.09-.05h1.36c1.16-.05,2.33-.1,3.44-.15.3,0,.56.05.86.05,1.52,0,3.08-.05,4.6-.05,1.26,0,2.53-.05,3.79-.1.45,0,.86-.15,1.31-.25.1,0,.2-.1.25-.05.4.35.91.15,1.31.2.2,0,.45-.05.71-.1.15.15.35.35.51.56.05.05.05.1.05.15v3.84c0,.3.1.61.1.91.05.45,0,.86-.35,1.16-.1.1-.25.15-.4.15h-1.52c-1.16.05-2.27.15-3.44.2-.86.05-1.77,0-2.63,0-1.06,0-2.07.05-3.13.05-.91,0-1.87.05-2.78.05-1.01.05-2.02.05-3.03.05s-1.92.05-2.88.05c-1.16.05-2.38.1-3.54.15-.66.05-1.26.05-1.92.05-1.47.05-2.93.05-4.4.1-.91,0-1.77.05-2.68.05-1.21.05-2.43.05-3.69.05-1.97.05-3.89.1-5.86.15-1.67.05-3.34.1-4.95.15-1.47.05-2.93.1-4.4.15-1.21.05-2.43.05-3.69.1-.4,0-.81.1-1.16.1h-.76c-.86,0-1.67.05-2.53.05h-2.48c-1.26,0-2.58.05-3.84.1-.4,0-.81.1-1.21.15-.61,0-1.21-.05-1.82-.05s-1.21.05-1.82.05c-1.47.05-2.93.05-4.4.1-1.36.05-2.68.1-4.04.15-1.16.05-2.33.05-3.49.1-1.06.05-2.07.15-3.13.1-.51,0-.96-.15-1.31-.25-.05-.51-.1-.86-.1-1.21,0-.76,0-1.47.05-2.22,0-.71.05-1.47.05-2.17,0-.3.05-.71-.45-.71-.05,0-.15-.1-.1-.1.05-.1.05-.25.15-.25.61-.1.51-.61.51-1.01,0-.56.15-1.11.3-1.67.15-.51.61-.3.76-.66h.15c.15.3.4.2.66.2.81-.05,1.57-.1,2.38-.15.1,0,.25-.2.25-.35.05-.51.05-1.01.1-1.52.05-1.26.05-2.53.1-3.84.05-1.52.15-3.08.2-4.6.05-.96.1-1.92.15-2.88.05-1.21.1-2.48.15-3.69.05-.86.1-1.72.15-2.58.05-.61.15-1.26.2-1.87.05-.81.05-1.62.05-2.43,0-.1.05-.25.1-.3.3-.1.3-.35.35-.56.15-.71.56-1.21,1.16-1.62.86-.61,1.82-.71,2.83-.76.25,0,.51,0,.71-.1.76-.2,1.36.1,2.02.35,1.21.45,1.77,1.42,2.07,2.58.25.91.56,1.82.71,2.73.15.76.2,1.57,0,2.33-.05.2-.3.4-.45.45-.56.1-1.11.1-1.67.1-.2,0-.35-.25-.51-.35-.25-.2-.05-.35,0-.56.1-.4.1-.81.05-1.21-.05-.56-.2-1.11-.3-1.67-.1-.51-.4-.91-.81-1.26-.76-.71-1.52-.51-2.33-.2-.45.15-.66.45-.91.86-.45.71-.4,1.47-.45,2.17-.1,1.06-.05,2.12-.1,3.18-.05,1.31-.1,2.58-.15,3.89-.05,1.52-.15,2.98-.2,4.5-.05,1.31-.1,2.63-.15,3.89-.05,1.06-.1,2.07-.15,3.13v1.92c0,.35.15.45.45.45h4.9c.51,0,1.06-.05,1.57-.05.4,0,.86.05,1.26.05.35,0,.66-.05,1.01-.05.25,0,.4.1.35.35,0,.1.05.25.05.35.05.2.1.45.1.66-.05.51,0,.66.56.66.91,0,1.82-.05,2.73-.05h1.26c.3,0,.35-.1.35-.35-.05-.96-.15-1.92.05-2.88.15-.76.1-1.52.2-2.33,0-.25.05-.51.05-.71v-10.11c0-.56.1-1.11.15-1.67,0-.25-.05-.56-.05-.81.05-1.16.1-2.33.1-3.49,0-.15-.05-.3-.1-.45-.1-.35-.15-.71-.25-1.01-.05-.2-.15-.35-.2-.56-.3-1.01-.61-2.07-.96-3.08-.15-.45-.3-.91-.45-1.36-.05-.1,0-.2,0-.35,0-.2.05-.4.05-.61-.25-1.47.35-2.63,1.31-3.69.76-.86,1.57-1.72,2.53-2.33.51-.3,1.01-.51,1.52-.76.45-.25.91-.51,1.36-.76.45-.2.91-.4,1.36-.56.56-.2,1.16-.4,1.77-.61.2-.1.4-.2.61-.3.05,0,.05-.05.1-.05.4.25.61-.05.81-.35,0-.05.1-.05.15-.05.56-.1,1.16-.2,1.72-.3.76-.15,1.47-.4,2.22-.56.91-.2,1.77-.35,2.68-.45.86-.1,1.77-.2,2.63-.25.45,0,.96.1,1.42.15.4.05.76.1,1.16.1-.05.25.05.15.1.15Zm11.93,13.29c.3-.1.56-.1.71-.2.81-.56,1.62-1.16,2.43-1.77.1-.1.2-.3.15-.35-.15-.25-.35-.51-.56-.71-.3-.3-.71-.51-1.01-.81-.91-.91-1.97-1.57-3.03-2.33-.71-.51-1.47-.96-2.17-1.42-.61-.35-1.21-.76-1.87-1.01-.61-.3-1.31-.45-1.97-.71-.45-.15-.86-.3-1.31-.4-.71-.2-1.47-.25-2.17-.51-1.16-.4-2.43-.35-3.64-.76h-2.73c-1.26.05-2.53.25-3.69.71-1.21.51-2.53.91-3.74,1.36-1.01.4-2.02.76-2.98,1.21-1.06.51-2.12,1.01-3.13,1.57-.61.35-1.11.96-1.72,1.42-.56.4-.76,1.01-.81,1.57-.1,1.11.15,2.17.66,3.13.56,1.06,1.11,2.17,1.67,3.23.66,1.26,1.36,2.48,2.07,3.74.66,1.16,1.31,2.33,2.02,3.49.56.91,1.11,1.87,1.77,2.68.91,1.16,1.82,2.38,3.03,3.29.56.4,1.06.76,1.77.51.4-.15.81-.25,1.21-.4.51-.2,1.01-.45,1.52-.66.51-.25,1.01-.51,1.52-.71.66-.3,1.31-.56,1.97-.91,1.01-.51,1.97-1.01,2.98-1.52,1.06-.56,2.07-1.11,3.08-1.67.35-.2.66-.35,1.06-.45.35-.1.66-.15.86-.56.05-.05.15-.1.25-.15.35-.1.71-.25,1.06-.3.61-.1.91-.66,1.47-.86,1.06-.4,2.02-1.06,3.03-1.62.66-.4,1.36-.81,2.02-1.16.66-.35,1.36-.61,2.07-.86.91-.3,1.72-.91,2.73-1.06.15,0,.25-.15.4-.2.35-.15.71-.35,1.11-.4.91-.2,1.87-.3,2.78-.61,1.01-.35,2.02-.76,2.93-1.36.51-.35.86-.81,1.16-1.36.05-.05.05-.2,0-.25-.3-.61-.56-1.26-.91-1.82-.51-.76-1.06-1.52-1.57-2.22-.35-.45-.71-.86-1.31-.91-.66-.05-1.36-.05-1.92.4-.4.35-.86.66-1.26,1.01-.81.76-1.57,1.62-2.38,2.38-.96.86-1.92,1.67-2.93,2.43-.4.3-.91.61-1.42.81-.4.2-.91.25-1.36.35-1.26.3-2.48.61-3.74.91-1.01.25-2.02.45-3.03.71-1.21.35-2.48.71-3.69,1.11-1.26.35-2.53.76-3.79,1.11-.86.25-1.72.56-2.58.81-.91.25-1.87.51-2.78.76-.25.05-.45.2-.71.25-.51.1-.96.4-1.52.25-.15-.05-.3-.1-.35-.2-.15-.25-.3-.51-.45-.76.05-.05.15-.1.2-.15.61-.35,1.26-.71,1.87-1.06.2-.1.2-.2.1-.4-.71-1.16-1.36-2.38-2.02-3.54-.76-1.31-1.52-2.63-2.22-3.89-.3-.51-.61-.96-.81-1.47-.2-.45-.2-1.01-.25-1.52l.1-.1.15.15q.2.4.56.1c.2-.15.66-.15.81.05.3.45.61.91.91,1.36.96,1.57,1.92,3.18,2.88,4.8.66,1.11,1.42,2.12,2.22,3.08.15.15.25.3.4.51h.15c.56-.2,1.11-.45,1.67-.61.91-.3,1.82-.51,2.78-.81.45-.15.96-.3,1.42-.45.71-.2,1.47-.4,2.17-.61,1.42-.4,2.83-.81,4.25-1.21.86-.25,1.72-.4,2.58-.66.1-.05.3-.2.3-.3.05-1.11.1-2.27.15-3.39,0-.05,0-.15-.05-.2-.2-.35-.05-.56.25-.76.4-.25,1.31-.35,1.52,0,.3.56.51,1.11.71,1.72.05.15.1.4,0,.56-.25.51-.1.96-.05,1.57Zm-2.02,10.56c-.15.1-.25.15-.35.2-.45.3-.86.61-1.36.86-2.02,1.06-4.09,2.12-6.12,3.23-1.21.66-2.63.96-3.79,1.77h-.05c-.61.25-1.21.51-1.82.76-1.01.4-1.92,1.01-2.98,1.36-.76.25-1.47.45-2.22.45-1.16,0-2.27-.2-3.18-1.06-.15-.15-.2-.3-.35-.45-.4-.45-.86-.86-1.21-1.31-.45-.56-.86-1.11-1.31-1.62s-.71-1.26-1.42-1.57c-.05,0-.1-.1-.15-.15-.45-.71-.96-1.42-1.42-2.12-.51-.81-1.01-1.62-1.47-2.38h-.1c-.05,1.36-.1,2.68-.15,4.04,0,.15.05.25.05.4-.05.61-.1,1.21-.15,1.82-.05.71-.05,1.42-.1,2.12-.05.91-.05,1.77-.05,2.68v.91c-.05.81-.15,1.62-.2,2.43-.05.51-.1,1.01-.1,1.57-.05.51-.05,1.01-.05,1.52,0,.25.1.56.05.81-.1.35.1.4.35.4.51,0,1.06-.05,1.57-.05,1.72-.05,3.44-.05,5.16-.05.35,0,.71.05,1.01.05,1.01,0,2.02-.05,2.98-.05,2.07-.05,4.14-.05,6.22-.1,1.82,0,3.69-.05,5.51-.05h3.64c.86,0,1.72,0,2.53-.05.35,0,.71,0,1.01-.05.05,0,.15-.15.15-.25.05-.45.1-.96.05-1.42,0-.71-.05-1.42-.05-2.07-.05-2.27-.05-4.6-.05-6.87v-3.29c-.05-.86-.05-1.62-.05-2.43Zm24.21-17.44c.25-.05.61,0,.96-.15.66-.25,1.26-.56,1.87-.86.4-.2.81-.35,1.21-.61.51-.35.96-.86,1.47-1.26.91-.76,1.57-1.72,2.17-2.73.71-1.16,1.31-2.43,1.31-3.89,0-.71.15-1.36.1-2.07-.05-.66-.2-1.36-.3-2.02,0-.05-.05-.05-.05-.1-.56-.96-1.06-1.92-1.67-2.83-.51-.71-1.06-1.31-1.82-1.77-.25-.15-.51-.3-.71-.51-.91-.81-2.02-1.31-3.18-1.57-1.47-.3-2.88,0-4.25.45-1.42.51-2.78,1.26-3.79,2.43-1.16,1.36-2.43,2.68-2.83,4.55-.25,1.06-.56,2.12-.45,3.23.05,1.01.2,2.02.56,2.98.35.91.76,1.72,1.47,2.33.25.2.45.25.76.15.76-.2,1.57-.4,2.38-.45.56-.05,1.16,0,1.67.4.35.3.71.56,1.06.86.56.45,1.16.86,1.47,1.57.2.66.4,1.21.61,1.87Zm-8.79.66c.45.61.86,1.21,1.31,1.82.05.05.1.1.15.15.15.2.4.4.51.66.25.61.51,1.26.76,1.87.15.45.35.86.51,1.31.25.66.25,1.36,0,1.97-.3.81-.86,1.52-1.72,1.92-.96.45-1.97.91-2.98,1.26-.35.15-.35.35-.25.61.05.25.2.45.25.71.1.96.2,1.87.3,2.83.05.76.1,1.52.15,2.27.1,1.42.25,2.83.35,4.3.05.76.15,1.52.2,2.22.1,0,.15.05.2,0,.61-.2,1.16-.45,1.77-.71.71-.3,1.47-.66,2.17-1.01.05,0,.1-.1.1-.15.1-.4.25-.76.3-1.16.15-1.31.35-2.68.3-4.04-.05-.66.05-1.31,0-1.97-.1-1.16-.2-2.38-.1-3.54,0-.15.05-.25.05-.4,0-.25.05-.51.05-.71-.05-.4.1-1.01.35-1.01.35-.05.76.05,1.11.2.4.2.3.71.4,1.11.05.45,0,.96.05,1.42.05.56.1,1.11.15,1.72.05.4.2.81.1,1.21-.15.81-.2,1.62-.15,2.48.05.91-.05,1.82-.05,2.68,0,.15-.1.35-.1.51-.05.2-.1.45-.1.66.4.1.51-.2.61-.4.56-1.36.61-2.83.66-4.25.05-.81.2-1.62.25-2.43.05-.76.1-1.57.1-2.33,0-.91-.1-1.82-.15-2.73-.05-.81-.05-1.62-.05-2.43,0-.51-.05-.96-.1-1.47-.05-.91,0-1.87-.1-2.78-.05-.56-.15-1.11-.25-1.62.2,0,.35-.05.45-.05v-.1c-.3-.1-.61-.2-.96-.35.2-.15.3-.25.45-.35-.15-.51-.2-1.01-.4-1.52-.15-.4-.4-.76-.61-1.16-.05,0-.2.05-.25.05-1.06-.61-2.17-.51-3.18-.05-.81.35-1.52.91-2.02,1.67-.3.4-.45.81-.61,1.11Zm-10.36,19.76c.05.1.1.25.2.35.3.3.66.61,1.01.86,1.57,1.06,3.13,2.12,4.7,3.18.35.25.76.4,1.16-.05.1-.1.25-.15.35-.2.3-.1.3-.35.3-.61-.05-1.06-.1-2.17-.15-3.23-.05-.71-.05-1.42-.1-2.07-.1-1.21-.2-2.43-.3-3.69-.05-.66-.1-1.31-.2-1.97-.1-.51-.35-.61-.81-.45-.1.05-.25.05-.35.1-.96.2-1.97.35-2.88.81-1.57.76-3.13,1.42-4.65,2.17-.56.25-.56.35-.51.96v.1c0,.56-.05,1.11-.05,1.67,0,.15.1.35.2.45.56.51,1.11.96,1.67,1.42.1.15.25.15.4.2Zm19.86-11.37h.1c.4-.66.81-1.31,1.21-2.02.56-.96,1.06-1.97,1.62-2.93.1-.15.25-.3.4-.4.86-.56,1.72-1.16,2.58-1.72,1.21-.81,2.17-1.87,2.98-3.08.2-.25.45-.51.61-.81.25-.61.4-1.21.56-1.87.2-.71.05-1.31-.45-1.82-.4.56-.76,1.11-1.16,1.62-.56.71-1.06,1.42-1.72,2.02-1.01.91-2.02,1.87-3.34,2.43-.2.1-.35.15-.56.25-.71.45-1.47.76-2.27.86-.1,0-.2.1-.25.15-.45.71-.61,1.47-.56,2.27,0,.76.05,1.47.05,2.22v.35c.2.71.2,1.42.2,2.12,0,.15,0,.25,0,.35Zm-4.45,12.28c-.15-.35-.25-.66-.35-.96-.1.56-.05.81.35.96Z"/>
  <path d="m43.03,24.93c-1.01-.1-1.92-.2-2.83-.25-.56-.05-1.11-.1-1.67-.15-.86-.1-1.72-.15-2.53-.45-.71-.25-1.52-.45-1.87-1.26-.15-.3-.2-.66-.25-1.01-.1-.61-.1-1.16-.15-1.77-.05-.71-.15-1.47-.2-2.17-.1-.86-.2-1.77-.3-2.63-.1-.91-.2-1.87-.35-2.78-.05-.51-.15-1.06-.25-1.57-.1-.61-.15-1.26-.2-1.87-.05-1.11-.05-2.22-.1-3.34,0-.35.05-.76-.3-1.06-.1-.1-.05-.45.05-.71.4-1.11,1.26-1.72,2.27-2.27.1-.05.15-.15.25-.25.4-.45.86-.61,1.47-.66.61-.05,1.21-.2,1.82-.35.71-.15,1.42-.35,2.12-.3.4.05.86-.1,1.31-.05.66.05,1.31.15,1.97.2.56.05,1.11.15,1.67.2,1.16.05,2.27.35,3.29.81,1.26.51,2.53,1.16,3.34,2.38.56.81.76,1.67.61,2.58-.05.4,0,.81-.05,1.16-.05.66-.15,1.31-.1,1.97.05.81-.15,1.62-.2,2.38-.05.51-.1,1.06-.1,1.57-.1,1.11-.15,2.17-.3,3.29-.2,1.36-.4,2.78-.66,4.14-.2,1.06-.86,1.87-1.77,2.53-1.01.71-2.12,1.01-3.29,1.21-.76.15-1.47.25-2.22.4-.2.1-.35.1-.45.1Zm-6.92-3.69c.25.1.56.2.81.35.4.2.81.45,1.26.66.96.35,1.87.86,2.93.71h.1c1.06.1,2.12.2,3.13-.1.66-.2,1.31-.35,1.92-.61.56-.25,1.06-.61,1.62-.91.35-.2.56-.45.61-.91.05-.56.2-1.16.3-1.72.15-.66.25-1.36.35-2.02.1-.71.15-1.42.2-2.12.05-.45.05-.91.1-1.36.05-.66.05-1.26.1-1.92.05-.66.15-1.31.15-1.97s-.1-1.31-.2-1.97c-.15-.71-.2-1.47-.56-2.07-.56-1.06-1.52-1.77-2.68-2.07-.71-.2-1.42-.25-2.12-.45-.96-.25-1.87-.35-2.83-.35-.61,0-1.21.25-1.87.3-1.36.15-2.58.61-3.74,1.26-.25.1-.51.35-.61.56-.2.45-.4.91-.4,1.36-.05,1.21-.05,2.43,0,3.64.05,1.16.25,2.27.4,3.44.15,1.11.3,2.22.45,3.39.1.76.15,1.47.25,2.22s.15,1.52.25,2.22c.05.15.05.3.05.45Z"/>
  <path d="m24.28,31.4c.1-.3.15-.56.25-.81,0,0,.25,0,.3.05.05.2-.25.71-.56.76Z"/>
  <path class="cls-1" d="m75.12,54.65c-.4-.15-.51-.4-.35-.96.15.3.25.61.35.96Z"/>
  <path d="m78.87,29.38c-.15-.15-.25-.4-.45-.51-.35-.15-.76-.3-1.16-.35-1.21-.15-2.27-.66-3.34-1.21-.56-.3-.91-.96-1.11-1.62-.1-.3-.25-.56-.35-.81,0-.05-.05-.1-.05-.15-.05-.61-.1-1.21-.05-1.82.05-.61.1-1.21.3-1.77.25-.66.71-1.31,1.06-1.92.15-.2.25-.45.45-.66.35-.45.81-.81,1.36-1.01.61-.25,1.21-.61,1.87-.76.71-.15,1.57-.25,2.22-.05.76.25,1.62.45,2.22,1.16.35.4.76.71,1.16,1.06.86.71,1.21,1.72,1.36,2.73.25,1.62.05,3.18-.96,4.55-.25.3-.51.61-.81.86-.86.66-1.77,1.26-2.83,1.57-.1,0-.2.05-.3,0-.66-.2-.56.1-.56.51,0,.05.05.1.05.2q-.1-.05-.1,0Zm3.13-8.95c-.05-.05-.2-.1-.3-.2-.25-.2-.51-.45-.76-.71-.81-.71-1.67-1.26-2.83-1.01-.25.05-.45.2-.71.2-.66,0-1.16.2-1.57.81-.61.91-1.26,1.77-1.47,2.93-.15.81-.15,1.62.25,2.38.56.96,1.47,1.47,2.48,1.82.3.1.61.15.91.15.81-.05,1.62-.35,2.38-.61.05,0,.1-.05.1-.1.91-.56,1.52-1.36,1.67-2.43.1-.51.25-.96.05-1.52-.15-.35-.15-.81-.2-1.21-.05-.1,0-.3,0-.51Zm-8.09,5.91c-.05.15-.1.35-.05.51,0,.05.25.05.4.1.1.05.15.1.25.15.05.05.1.1.15.1l.1-.1c0-.05-.05-.1-.1-.15-.25-.2-.45-.4-.76-.61Z"/>
  <path class="cls-1" d="m73.91,26.34c.3.25.51.4.76.56.05.05.1.1.1.15,0,0-.05.1-.1.1s-.1-.05-.15-.1c-.1-.05-.15-.1-.25-.15-.15-.05-.4-.05-.4-.1-.05-.1,0-.3.05-.45Z"/>
</svg>