<?xml version="1.0" encoding="UTF-8"?>
<svg id="Layer_1" data-name="Layer 1" xmlns="http://www.w3.org/2000/svg" viewBox="0 0 82.07 86.26">
  <defs>
    <style>
      .cls-1 {
        fill: none;
      }

      .cls-1, .cls-2 {
        stroke: #000;
        stroke-miterlimit: 10;
        stroke-width: 1.5px;
      }
    </style>
  </defs>
  <path class="cls-1" d="m56.55,22.04c-4.37,1.2-7.57,1.97-7.61,1.95-.05-.03-.1-.06-.1-.06,0,0,0,0,0,0-.74-.83-1.74-2.05-2.75-3.64-.87-1.37-1.97-3.16-2.67-5.66-.57-2.06-1-3.58-.56-5.34.68-2.74,3.03-4.26,5.21-5.69,1.29-.85,3.46-2.04,6.47-2.72,2.46,5.56,4.92,11.12,7.38,16.68,0,3.04,2.11,5.68,5.08,6.35,4.23.95,9.86,3.14,11.84,8.12,2.63,6.61,1.79,16.46,1.33,20.27-.15,1.23-.63,2.38-1.41,3.33-1.97,2.39-4.03,3.84-5,4.33-.85.43-2.1.95-3.71,1.26"/>
  <polyline class="cls-1" points="47.59 49.68 43.91 54.78 41.57 66.78"/>
  <path class="cls-1" d="m52.93,49.39l-3.67,5.13v20.14c0,.51-.29.98-.75,1.21l-5.53,2.76c-.44.22-.71.66-.71,1.14v4.48c0,.61.5,1.1,1.11,1.1h15.21c.53,0,.96-.42.96-.95v-25h15.14"/>
  <path class="cls-2" d="m61.05,59.4h18.29c1.09,0,1.98.67,1.98,1.51v4.37c0,.83-.89,1.51-1.98,1.51h-16.94c-1.09,0-1.98-.67-1.98-1.51v-4.37c0-.83.89-1.51,1.98-1.51h1.83"/>
  <path class="cls-1" d="m65.64,66.78v16.2c0,1.29,1.07,2.33,2.38,2.33h0c1.52,0,2.76-1.21,2.76-2.7v-15.78"/>
  <line class="cls-1" x1="24.73" y1="86.26" x2="24.73" y2="50.04"/>
  <polyline class="cls-1" points="41.57 86.26 41.57 49.95 .75 49.95 .75 86.26"/>
  <ellipse class="cls-1" cx="24.73" cy="38.61" rx="3.33" ry="4.13"/>
  <path class="cls-1" d="m22.96,35.11H6.4c-.84,0-1.52.68-1.52,1.52v5.48c0,.76.62,1.38,1.38,1.38h10.89v6.46"/>
  <line class="cls-1" x1="24.73" y1="42.73" x2="24.73" y2="50.04"/>
  <path class="cls-1" d="m72.02,36.37l-5.89,13.03-26.88.29c-5.52-2.6-2.45-5.64-1.03-6.74.35-.27.77-.43,1.21-.46l17-1.21,3.31-10.74"/>
  <line class="cls-1" x1="52.93" y1="32.01" x2="52.93" y2="41.52"/>
  <path class="cls-1" d="m53.23,23.9l-3.93,2.3c-.81.31-1.44.96-1.73,1.77l-2.06,5.81c-.16.44-.48.81-.9,1.02l-9.6,4.88c-.6.31-1.06.85-1.24,1.5-.37,1.33-.39,3.37,3.05,3.12"/>
  <path class="cls-2" d="m32.97,41.52l-2.08,1.68c-.51.41-1.1.69-1.73.83l-3.88.83v4.52l12.44-.59-2.29-4.21-2.45-3.07Z"/>
  <path class="cls-2" d="m15.03,45.46H6.86c-.75,0-1.46.38-1.88,1l-.36.54c-.34.51-.54,1.1-.58,1.71l-.22,3.43.2,3.91c.05.96-.05,1.92-.29,2.86l-.93,2.64c-.27,1.02-.37,2.08-.3,3.14l.41,3.47c.1.88.46,1.71,1.02,2.4l.9.48c.52.28.99.66,1.39,1.09.02.02.04.04.06.06l1.64,2.35c.8,1.15,2.32,1.54,3.57.91l2.72-1.35c.86-.43,1.46-1.24,1.63-2.18l.78-4.44c.13-.73.1-1.48-.09-2.19l-1.32-5.05c-.24-.93-.26-1.91-.06-2.85l.98-4.5c.09-.42.13-.84.1-1.26l-.26-5.29c-.02-.5-.44-.89-.94-.89Z"/>
</svg>