<?xml version="1.0" encoding="utf-8"?>
<!-- Generator: Adobe Illustrator 27.5.0, SVG Export Plug-In . SVG Version: 6.00 Build 0)  -->
<svg version="1.1" id="Capa_1" xmlns="http://www.w3.org/2000/svg" xmlns:xlink="http://www.w3.org/1999/xlink" x="0px" y="0px"
	 viewBox="0 0 16 16" style="enable-background:new 0 0 16 16;" xml:space="preserve">
<style type="text/css">
	.st0{stroke:#020203;stroke-width:0.1282;stroke-linecap:round;stroke-linejoin:round;stroke-miterlimit:10;}
	.st1{fill:none;stroke:#020203;stroke-width:0.3048;stroke-linecap:round;stroke-linejoin:round;stroke-miterlimit:10;}
	.st2{fill:none;stroke:#020203;stroke-width:0.244;stroke-linecap:round;stroke-linejoin:round;stroke-miterlimit:10;}
	.st3{fill:#FFFFFF;stroke:#020203;stroke-width:0.3048;stroke-linecap:round;stroke-linejoin:round;stroke-miterlimit:10;}
</style>
<g>
	<path class="st0" d="M4.03,3.83c-0.4,0.01-0.61,0.04-0.82-0.12c-0.12-0.09-0.18-0.2-0.22-0.28c0.1-0.07,0.25-0.19,0.35-0.37
		C3.56,2.63,3.28,2.3,3.48,1.82C3.63,1.45,3.95,1.27,4,1.24c0.5-0.26,1.03-0.04,1.11,0c0.11,0.05,0.43,0.2,0.64,0.56
		c0.35,0.59,0.13,1.21,0.09,1.3c0,0.03,0,0.15,0.08,0.26C6.02,3.47,6.13,3.5,6.16,3.5C6.12,3.56,6.05,3.65,5.95,3.71
		c-0.15,0.1-0.31,0.11-0.39,0.12C5.19,3.86,4.88,3.85,4.57,3.84"/>
	<path class="st1" d="M11.3,1.65c0,0-0.82,0.34-0.51,1.73c0,0,0.21,0.85,1.01,0.78c0.8-0.07,1.06-0.49,1.08-1.16
		C12.88,2.99,12.89,0.88,11.3,1.65z"/>
	<g>
		<path class="st1" d="M10.49,9.47c-0.3,0.32-0.77,0.44-1.01,0.65C9.3,10.26,9.3,10.67,9.3,10.67l0.01,2.24l-2.57-0.03
			c0,0,0.19-2.46-0.16-2.73C6.36,9.98,5.61,9.8,5.25,9.48c-0.12-0.11-0.2-0.23-0.22-0.35C4.97,8.65,4.86,7.2,4.86,7.2"/>
		<line class="st1" x1="11.2" y1="14.36" x2="11" y2="8.09"/>
		<polyline class="st1" points="11.2,14.36 10.42,14.67 10.42,15.32 11.95,15.29 12.52,11.51 12.82,11.3 13.28,12.46 13.33,15.32 
			14.89,15.29 14.89,14.75 14.18,14.36 		"/>
		<path class="st1" d="M5.03,9.13l0.23,3.03l-3.37-0.11l0.35-5.1c0.02-0.32-0.05-0.65-0.22-0.93C1.56,5.28,0.66,3.47,0.74,1.12
			L1.8,1.14c0,0,0.34,3.66,1.59,3.81s2.46-0.04,2.44,1.99c0,0-0.26,1.93,1.24,2.15c0,0,1.13,0.33,1.77,0.07
			c0.63-0.26,1.05-0.69,1.15-1.8c0.1-1.11-0.07-2.43,1.03-2.49c1.1-0.05,2.3,0.41,2.54-0.48c0,0,0.77-1.58,0.81-3.24l0.93,0.02
			c0,0-0.13,2.29-0.67,3.8c-0.18,0.51-0.31,1.04-0.32,1.59l-0.12,7.8"/>
		<path class="st2" d="M8.11,6.7c0,0-0.71,0.03-0.86,1.16c0,0-0.08,0.69,0.54,0.86c0.62,0.17,0.93-0.07,1.13-0.57
			C8.92,8.14,9.51,6.56,8.11,6.7z"/>
		<path class="st1" d="M11.2,7.02c0,0-0.29,2.08-0.71,2.45"/>
		<polyline class="st1" points="2.18,12.06 2,14.6 1.42,15.06 1.35,15.4 2.82,15.4 2.89,14.6 3.34,12.1 		"/>
		<polyline class="st1" points="4.89,12.15 5.06,14.6 5.64,15.06 5.71,15.4 4.24,15.4 4.17,14.6 3.74,12.18 		"/>
		<polyline class="st1" points="7.09,13 6.97,14.74 6.57,15.06 6.52,15.29 7.53,15.29 7.58,14.74 7.88,13.03 		"/>
		<polyline class="st1" points="8.94,13 9.06,14.74 9.46,15.06 9.51,15.29 8.5,15.29 8.45,14.74 8.15,13.03 		"/>
	</g>
	<path class="st3" d="M4.53,1.88c0,0-0.89,0.03-1.08,1.45c0,0-0.1,0.87,0.68,1.08C4.9,4.61,5.29,4.31,5.54,3.69
		C5.54,3.69,6.28,1.71,4.53,1.88z"/>
</g>
</svg>
