<?xml version="1.0" encoding="utf-8"?>
<!-- Generator: Adobe Illustrator 27.1.1, SVG Export Plug-In . SVG Version: 6.00 Build 0)  -->
<svg version="1.1" id="Layer_1" xmlns="http://www.w3.org/2000/svg" xmlns:xlink="http://www.w3.org/1999/xlink" x="0px" y="0px"
	 viewBox="0 0 100 100" style="enable-background:new 0 0 100 100;" xml:space="preserve">
<style type="text/css">
	.st0{fill:none;stroke:#000000;stroke-miterlimit:10;}
</style>
<path class="st0" d="M63,44.71c-1.24,0.71-1.35,0.77-0.53,1.64c1.13,1.2,2.56,1.97,4.02,2.7c0.75,0.38,1.54,0.86,2.27,1.27
	c1,0.56,1.81,1.99,1.38,2.98c-0.45,1.04-2.05,1.92-3.11,1.49c-2.84-1.16-5.57-2.82-7.72-5.08c-2.39-2.5-2.37-5.45,0.11-7.82
	c2.45-2.33,5.53-3.36,8.77-3.86c3.06-0.48,6.14-0.42,9.17,0.4c0.33,0.09,0.63,0.07,0.95-0.02c5.45-1.59,8.72-6.06,8.64-11.78
	c-0.01-0.64-0.22-0.97-0.8-1.26c-2.56-1.3-4.01-3.43-4.04-6.29c-0.03-2.86,1.34-5.03,3.9-6.36c0.59-0.3,0.77-0.69,0.75-1.3
	c-0.03-1.2-0.02-2.4,0-3.6c0.02-1.04,0.3-1.31,1.35-1.33c0.75-0.02,1.49,0,2.24,0c0.8,0,1.18,0.39,1.18,1.2
	c-0.02,1.3,0.02,2.6-0.01,3.89c-0.01,0.52,0.18,0.81,0.65,1.06c2.73,1.42,4.18,3.67,4.01,6.77c-0.17,2.92-1.71,4.97-4.4,6.13
	c-0.48,0.21-0.56,0.47-0.55,0.96c0.05,2.56-0.34,5.04-1.43,7.38c-1.9,4.09-5.13,6.7-9.27,8.27c-0.87,0.33-1.09,0.69-0.93,1.62
	c1.44,8.4,2.82,16.81,4.22,25.21c0.34,2.01,0.68,4.03,1.02,6.04c0.1,0.61-0.09,0.79-0.68,0.52c-1.18-0.54-2.39-1.02-3.55-1.59
	c-0.75-0.37-1.03-0.29-0.97,0.62c0.27,3.9-0.11,7.77-0.79,11.61c-0.33,1.88-0.71,3.76-1.26,5.6c-0.45,1.5-1.89,1.14-3.28,1.02
	c-1.6-0.14-2.82,0.08-3.06-1.54c-0.09-0.6,0.08-1.16,0.23-1.72c1.08-4.09,1.69-8.26,1.76-12.49c0.03-1.9-0.08-3.82-0.42-5.71
	c-0.04-0.22-0.05-0.47-0.16-0.66c-0.24-0.44-0.72-0.69-1.13-0.63c-0.46,0.06-0.22,0.58-0.21,0.9c0.09,3.73-0.52,7.36-1.55,10.93
	c-1.03,3.6-2.45,7.05-4.21,10.35c-1.24,2.32-4,1.25-5.53-0.73c-0.89-1.14-0.89-1-0.23-2.28c1.6-3.09,2.95-6.28,3.87-9.64
	c1.06-3.89,1.45-7.82,0.89-11.84c-0.09-0.67-0.37-1.05-0.96-1.31c-3-1.31-5.99-2.65-8.99-3.98c-0.37-0.16-0.73-0.25-1.12-0.08
	C52.09,63,51,62.5,50.04,61.43c-2.94-3.27-5.39-6.9-7.67-10.65c-0.5-0.82-0.99-1.65-1.68-2.44c0,0.37,0,0.74,0,1.12
	c0,13.31,0,25.39,0,38.7c0,1.6-0.37,3.2-1.78,4.15c-0.23,0.16-3.74,0.26-4.07,0.1c-1.46-0.7-2.12-1.22-2.19-2.77
	c-0.07-1.39-0.02-2.33-0.02-3.73c0-7.53,0-19.39,0-19.39l-0.01-0.88l-0.55-0.07l-0.55,0.09l-0.02,1.13c0,0,0,13.61,0,21.86
	c0,0.52-0.01,1.04-0.07,1.55c-0.31,2.61-1.91,2.46-4.44,2.29c-2.04-0.13-3.52-0.39-3.52-2.75c0-15.94-0.01-31.87,0.02-47.81
	c0-1.1-0.34-1.45-1.38-1.7c-7.11-1.71-11.5-6.21-13.22-13.3c-0.2-0.83-0.55-1.31-1.32-1.71c-2.44-1.28-3.73-3.37-3.77-6.13
	c-0.04-2.86,1.31-4.98,3.78-6.33c0.68-0.37,0.93-0.76,0.9-1.5c-0.05-1.17,0.01-2.34-0.02-3.5c-0.02-0.92,0.42-1.3,1.3-1.28
	c0.75,0.02,1.49,0.01,2.24,0c0.85-0.01,1.24,0.42,1.24,1.26c-0.01,1.27,0.02,2.53-0.01,3.8c-0.01,0.55,0.19,0.87,0.69,1.15
	c5.05,2.78,5.38,8.91,0.67,12.28c-0.52,0.37-0.61,0.74-0.47,1.32c1.28,5.34,6.22,9.22,11.74,9.2c3.96-0.01,7.92,0.02,11.88-0.02
	c1.68-0.02,2.75,0.65,3.51,2.2c3.23,6.6,6.79,13,11.41,18.76c0.82,1.03,1.93,1.84,2.3,3.22c0.11,0.42,0.43,0.09,0.63-0.01
	c1.7-0.9,2.93-2.24,3.69-4c0.42-0.98,1.32-2.58,1.62-3.6c0.28-0.94,0.2-0.6,0.9-0.11c1.5,1.03,3.13,2.15,4.82,2.83
	c1.98,0.8,3.83-0.58,3.58-2.63c-0.12-0.96-0.69-1.58-1.54-1.98c-1.41-0.67-2.83-1.31-4.13-2.18C63.4,47.21,62.01,46.57,63,44.71z
	 M94.38,19.06c0-1.82-0.8-3.41-2.19-4.32c-0.27-0.18-0.53-0.37-0.89-0.31c-1.41,0.22-2.83,0.23-4.24-0.01
	c-0.32-0.05-0.56,0.09-0.81,0.24c-3.09,1.99-3.07,6.69,0.03,8.71c0.41,0.27,0.66,0.32,1.05-0.11c1.05-1.13,2.39-1.07,3.33,0.13
	c0.35,0.45,0.62,0.45,1.04,0.2C93.4,22.55,94.37,21.09,94.38,19.06z M5.62,18.86c-0.03,2,0.8,3.39,2.24,4.46
	c0.41,0.31,0.69,0.42,1.09-0.13c1.07-1.48,2.86-1.59,4.08-0.23c0.47,0.52,0.73,0.42,1.17,0.06c2.65-2.14,2.4-6.59-0.48-8.38
	c-0.25-0.16-0.5-0.29-0.82-0.21c-1.15,0.28-2.35,0.27-3.48,0.09c-1.35-0.22-2.08,0.46-2.77,1.33C5.93,16.76,5.58,17.83,5.62,18.86z"
	/>
<path class="st0" d="M62.44,14.49c0.28,1.39,0.53,2.52,0.74,3.66c0.2,1.03-0.12,1.34-1.14,1.12c-1.32-0.29-2.64-0.61-4.17-0.96
	c0.47,0.99,1.11,1.62,1.61,2.34c0.2,0.29,0.43,0.57,0.64,0.86c0.58,0.82,0.48,1.18-0.47,1.48c-1.36,0.43-2.73,0.82-4.3,1.29
	c1.59,0.57,2.98,1.06,4.37,1.57c1.01,0.38,1.12,0.76,0.36,1.52c-0.71,0.71-1.51,1.32-2.19,2.09c0.79,0.44,1.44,0.2,2.08,0.14
	c0.26-0.03,0.52-0.03,0.78-0.03c0.37,0,0.77,0.01,0.84,0.46c0.08,0.54-0.37,0.64-0.76,0.68c-1.48,0.15-2.97,0.28-4.45,0.4
	c-0.24,0.02-0.46-0.07-0.57-0.29c-0.15-0.3-0.04-0.57,0.17-0.8c0.77-0.83,1.53-1.68,2.33-2.48c0.52-0.52,0.54-0.79-0.23-1.03
	c-1.42-0.46-2.82-0.98-4.22-1.49c-0.41-0.15-0.99-0.21-0.96-0.8c0.03-0.57,0.6-0.6,1.03-0.73c1.46-0.45,2.91-0.9,4.38-1.32
	c0.54-0.16,0.6-0.35,0.25-0.79c-0.8-1.02-1.58-2.06-2.35-3.1c-0.26-0.35-0.67-0.72-0.39-1.21c0.31-0.54,0.81-0.25,1.23-0.15
	c1.36,0.3,2.72,0.62,4.07,0.95c0.58,0.14,0.84,0.07,0.66-0.63c-0.28-1.13-0.47-2.28-0.69-3.43c-0.09-0.46-0.35-1.01,0.2-1.32
	c0.5-0.29,0.83,0.19,1.16,0.48c1.26,1.07,2.54,2.13,3.76,3.24c0.54,0.49,0.77,0.37,1.03-0.23c0.34-0.77,0.74-1.51,1.13-2.26
	c0.16-0.31,0.31-0.68,0.75-0.66c0.45,0.01,0.56,0.4,0.67,0.73c0.39,1.17,0.76,2.34,1.12,3.52c0.12,0.4,0.27,0.9-0.29,1.07
	c-0.56,0.18-0.71-0.32-0.84-0.72c-0.25-0.73-0.47-1.46-0.74-2.32c-0.63,0.67-0.84,1.43-1.21,2.09c-0.52,0.93-0.84,1.01-1.65,0.33
	C65,16.72,63.82,15.68,62.44,14.49z"/>
<path class="st0" d="M26.27,26.15c-0.16-4.92,3.07-7.44,7.58-5.99c2.67,0.86,3.86,2.6,3.49,5.4c-0.25,1.91-0.03,3.86-0.6,5.74
	c-0.65,2.14-2.42,3.29-5.19,3.23c-2.86-0.06-4.42-1.17-4.91-3.53c-0.15-0.72-0.31-1.46-0.37-2.19
	C26.22,27.93,26.27,27.04,26.27,26.15z"/>
<path class="st0" d="M66.66,29.42c-0.16-4.35,3-6.57,7.42-5.29c2.61,0.76,3.78,2.3,3.42,4.77c-0.25,1.69-0.03,3.41-0.58,5.07
	c-0.63,1.89-2.37,2.9-5.07,2.86c-2.8-0.05-4.32-1.03-4.8-3.12c-0.15-0.64-0.31-1.29-0.36-1.94C66.61,30.99,66.66,30.2,66.66,29.42z"
	/>
</svg>
