<?xml version="1.0" encoding="utf-8"?>
<!-- Generator: Adobe Illustrator 27.5.0, SVG Export Plug-In . SVG Version: 6.00 Build 0)  -->
<svg version="1.1" id="Capa_1" xmlns="http://www.w3.org/2000/svg" xmlns:xlink="http://www.w3.org/1999/xlink" x="0px" y="0px"
	 viewBox="0 0 16 16" style="enable-background:new 0 0 16 16;" xml:space="preserve">
<style type="text/css">
	.st0{fill:none;stroke:#000000;stroke-width:0.25;stroke-linejoin:round;stroke-miterlimit:10;}
	.st1{fill:none;stroke:#000000;stroke-width:0.25;stroke-miterlimit:10;}
	.st2{fill:#FDEB19;stroke:#000000;stroke-width:0.25;stroke-miterlimit:10;}
	.st3{stroke:#000000;stroke-width:0.25;stroke-linejoin:round;stroke-miterlimit:10;}
	.st4{fill:none;stroke:#000000;stroke-width:0.15;stroke-linejoin:round;stroke-miterlimit:10;}
	.st5{fill:none;stroke:#000000;stroke-width:0.2459;stroke-linecap:round;stroke-linejoin:round;stroke-miterlimit:10;}
</style>
<path class="st0" d="M2.82,4.21l1.32-0.26c0.2-0.04,0.4,0.02,0.56,0.15l0,0c0.2,0.18,0.32,0.43,0.34,0.7l0.04,0.52
	c0.02,0.3-0.1,0.6-0.32,0.81l0,0c-0.14,0.13-0.31,0.21-0.5,0.23C3.85,6.41,3.12,6.5,3.1,6.5L2.82,4.21z"/>
<path class="st0" d="M12.38,6.6"/>
<path class="st0" d="M10.73,6.25"/>
<path class="st0" d="M10.73,7.11c0.02,0.49,0.03,1.34,0.24,2.2l-0.13,1.98v2.1l-0.93,0.57v0.52h1.82l0.61-3.61
	c0.13-0.14,0.31-0.35,0.47-0.65c0.28-0.53,0.32-1.01,0.35-1.41c0.11-1.6-0.01-2.21-0.06-2.7c0,0-1.15-1.44-2.37,0.14"/>
<path class="st0" d="M13.22,6.69"/>
<line class="st0" x1="3.81" y1="9.82" x2="4.37" y2="8.51"/>
<path class="st0" d="M3.38,9.63"/>
<path class="st0" d="M3.31,9.49l2,1.16c0.47,0.19,0.69,0.8,0.56,1.37l-0.27,1.46l0.76,0.3l0.03,0.71l-1.93-0.01l-0.01-2.85
	l-1.69-0.01c-0.43,0.02-0.92-0.18-1.08-0.65v0c-0.24-0.7-0.18-1.52,0.15-2.15l1.06-1.93C3.05,6.58,3.33,6.44,3.6,6.51l1.11,0.32
	l0.63,0.99L8.1,7.74c0,0,0.33,0.81-0.42,0.91s-2.3,0.26-2.3,0.26S5,8.96,4.55,8.61C4.44,8.53,4.07,8.17,3.99,8.06"/>
<path class="st1" d="M5.74,13.36"/>
<path class="st2" d="M4.12,14.83"/>
<path class="st3" d="M8.05,7.64L7.34,7.66c-0.13,0-0.24-0.14-0.24-0.32l0-0.26c0-0.18,0.1-0.33,0.23-0.33l0.71-0.02
	c0.13,0,0.24,0.14,0.24,0.32l0,0.26C8.29,7.49,8.18,7.63,8.05,7.64z"/>
<path class="st3" d="M7.36,6.71L7.23,6.86C7.17,6.92,7.07,6.89,7,6.78L6.69,6.27C6.62,6.15,6.61,6.01,6.67,5.94L6.8,5.8
	c0.06-0.07,0.16-0.03,0.23,0.08l0.31,0.51C7.41,6.5,7.41,6.64,7.36,6.71z"/>
<line class="st4" x1="8.11" y1="6.53" x2="8.52" y2="6.39"/>
<line class="st4" x1="7.99" y1="6.34" x2="8.28" y2="5.97"/>
<ellipse transform="matrix(7.610145e-03 -1 1 7.610145e-03 1.0998 14.4127)" class="st4" cx="7.81" cy="6.65" rx="0.27" ry="0.24"/>
<line class="st4" x1="7.85" y1="6.25" x2="7.85" y2="5.7"/>
<path class="st0" d="M1.53,9.93c0,0-0.05,2.29,1.29,3.42"/>
<path class="st5" d="M2.12,12.53H0.49l0.25,2.01h0.59l0.14-0.91l1.3,0.74c0.17,0.08,0.32,0.1,0.46,0.06c0.8-0.2,0.42-2.42,0.46-2.75
	"/>
<polyline class="st0" points="12.22,11.89 12.89,12.53 13.76,12.53 14.81,10.72 15.54,10.85 15.64,10.32 14.44,9.73 13.44,11.16 
	13.07,9.53 "/>
<path class="st0" d="M12.38,7.33l-1.36-0.15c-0.45-0.05-0.85-0.33-1.04-0.74L9.89,6.25C9.62,5.67,9.52,5.41,9.52,4.77L10,4.32
	l0.43,0.04l-0.3,0.6l0.6,1.29l1.56,0.21"/>
<path class="st0" d="M13.03,3.5l-1.17-0.23c-0.18-0.04-0.36,0.01-0.49,0.13v0c-0.18,0.16-0.29,0.38-0.3,0.62l-0.03,0.46
	c-0.02,0.27,0.08,0.53,0.28,0.71v0c0.12,0.11,0.28,0.18,0.44,0.21c0.37,0.05,1.02,0.13,1.03,0.12L13.03,3.5z"/>
<path class="st3" d="M11.2,3.6c0.17,0.18,0.43,0.42,0.78,0.63c0.35,0.21,0.67,0.32,0.91,0.38c0.05-0.37,0.09-0.74,0.14-1.11
	c-0.42-0.08-0.84-0.16-1.25-0.24c-0.06,0-0.21,0.01-0.37,0.11C11.29,3.45,11.23,3.55,11.2,3.6z"/>
<path class="st3" d="M12.45,2.74c0,0.38,0.21,0.69,0.48,0.69s0.48-0.31,0.48-0.69c0-0.38-0.21-0.69-0.48-0.69S12.45,2.36,12.45,2.74
	z"/>
</svg>
