<?xml version="1.0" encoding="UTF-8"?>
<svg id="Layer_3" data-name="Layer 3" xmlns="http://www.w3.org/2000/svg" viewBox="0 0 88.19 71.71">
  <path d="m9.11,19.34c1.17,0,2.09.1,3.02.13.97.04,1.95.03,2.92.04.22,0,.44,0,.67,0,.46.01.91.1,1.3.36.05.03.1.07.16.09,1.09.39,1.67,1.28,2.15,2.24.42.85.75,1.74,1.01,2.66.04.14.08.29.13.42.52,1.47.91,2.97,1.12,4.52.08.56.19,1.12.27,1.68.13.9-.07,1.72-.59,2.46-.4.58-.98.85-1.66.92-.39.04-.78.09-1.18.09-.35,0-.47.09-.55.43-.3,1.29-.53,2.59-.43,3.92.02.22.05.44.1.66.12.49.21.99.29,1.49.31,1.84.71,3.66,1.04,5.49.27,1.47.52,2.94.75,4.41.21,1.33.4,2.66.6,3.99.22,1.43.49,2.85.79,4.26.09.4.15.8.21,1.2.07.46.31.79.71,1.03.77.47,1.56.91,2.35,1.33.49.26.77.62.81,1.19.05.65.06,1.31.04,1.96-.02.48-.33.76-.81.79-.06,0-.13,0-.18,0-.77.23-1.54.03-2.31,0-.73-.03-1.46-.05-2.18-.03-.64.02-1.28-.03-1.92-.09-.37-.03-.74-.05-1.11-.06-.53,0-.74-.17-.84-.7-.07-.39-.09-.78-.16-1.17-.13-.77-.3-1.52-.46-2.28-.19-.89-.37-1.79-.5-2.69-.05-.33-.11-.66-.19-.98-.26-1-.49-2.01-.7-3.03-.05-.24-.09-.49-.12-.73-.22-1.49-.66-2.93-1.01-4.4-.06-.26-.16-.52-.24-.78-.09-.29-.17-.59-.2-.9-.05-.56-.24-1.08-.42-1.61-.2-.57-.41-1.14-.55-1.73-.19-.82-.7-1.37-1.45-1.71-.35-.16-.49-.1-.56.29-.08.42-.14.85-.19,1.28-.07.68-.25,1.33-.3,2.01-.12,1.47-.47,2.9-.67,4.35-.19,1.37-.45,2.73-.57,4.1-.12,1.34-.29,2.67-.47,4-.04.33-.06.66-.09,1-.02.25.06.46.23.64.34.36.74.66,1.15.93.47.3.87.69,1.25,1.09.23.24.34.51.31.84-.04.5-.05,1.01-.11,1.51-.06.57-.54.97-1.12.98-.35,0-.69-.1-1.01-.21-.81-.27-1.65-.42-2.49-.58-.75-.14-1.52-.17-2.28-.26-.6-.07-1.2-.15-1.8-.23-.71-.1-1.1-.57-1.11-1.3,0-.58,0-1.16.01-1.74,0-.33.06-.66.08-.99.11-1.62.13-3.25.23-4.88.05-.78.03-1.56.12-2.33.11-.93.08-1.87.32-2.79.03-.11.04-.22.05-.33.03-.59.08-1.18.07-1.77-.02-1.43.03-2.86.1-4.29.04-.8,0-1.61.07-2.4.09-1.08.11-2.17.25-3.24.07-.5,0-1.01.09-1.51.15-.86.18-1.74.46-2.58.13-.38.02-.67-.3-.9-.21-.15-.4-.33-.58-.51-.42-.44-.67-.97-.69-1.59,0-.3-.05-.59-.08-.88-.11-1.23,0-2.43.38-3.62.29-.9.52-1.83.8-2.73.23-.76.51-1.5.85-2.21.51-1.07,1.24-1.97,2.2-2.65.47-.33,1.04-.51,1.56-.76,1.06-.51,2.19-.64,3.11-.59Zm14.04,46.59c.14,0,.27,0,.41,0,.26-.02.34-.11.36-.37.02-.25-.03-.49-.07-.74-.07-.4-.29-.7-.63-.92-.76-.48-1.52-.96-2.29-1.44-.22-.13-.39-.3-.49-.54-.07-.17-.17-.33-.3-.47-.19-.2-.27-.43-.3-.7-.07-.5-.12-1.01-.24-1.5-.15-.61-.22-1.24-.35-1.85-.12-.57-.11-1.16-.26-1.72-.08-.29-.14-.58-.18-.87-.33-2.12-.61-4.25-.98-6.36-.32-1.81-.76-3.6-1.06-5.41-.09-.55-.31-1.07-.39-1.62-.06-.43-.15-.85-.27-1.27-.1-.34-.15-.68-.11-1.02.07-.66.14-1.32.27-1.98.12-.61.33-1.19.44-1.8.07-.4,0-.51-.4-.58-.3-.05-.61-.07-.91-.14-.47-.1-.94-.22-1.42-.23-.14,0-.27-.05-.39-.12-.19-.1-.37-.1-.57-.05-.75.19-1.51.37-2.26.58-.89.25-1.78.51-2.69.66-.68.11-1.36.23-2.03.41-.64.16-1.27.15-1.89-.07-.26-.09-.52-.16-.79-.21-.28-.05-.39.04-.44.31-.03.18-.06.37-.06.55-.08,1.59-.14,3.18-.24,4.77-.04.7-.03,1.41-.08,2.11-.1,1.5-.18,3.01-.14,4.51.05,2.09-.19,4.16-.4,6.24-.1,1.06-.18,2.11-.27,3.17-.07.91-.06,1.82-.12,2.74-.09,1.36-.13,2.73-.16,4.1,0,.48.07.58.54.67.58.11,1.17.16,1.76.22,1.12.11,2.22.31,3.32.55.37.08.75.17,1.12.23.33.05.45-.06.48-.39.04-.42-.05-.78-.4-1.05-.18-.14-.34-.29-.51-.43-.49-.4-1-.77-1.51-1.13-.52-.36-.69-.81-.61-1.4.01-.09.02-.17.03-.26.09-1.16.3-2.3.42-3.45.05-.52.14-1.03.18-1.54.06-.6.19-1.2.23-1.8.07-.85.21-1.69.34-2.53.16-.96.29-1.93.42-2.89.06-.45.02-.91.11-1.36.22-1.12.45-2.25.67-3.37.06-.32.16-.62.31-.91.27-.53.62-.69,1.15-.44.6.28,1.2.58,1.75.96.41.29.72.67.86,1.17.11.39.26.77.43,1.14.17.38.29.79.37,1.2.08.41.17.82.31,1.22.29.87.49,1.76.72,2.64.47,1.79.88,3.59,1.27,5.41.47,2.22.9,4.45,1.38,6.67.14.66.23,1.34.35,2.01.07.37.17.46.54.49.17.01.34.04.52.05.66.03,1.32.15,1.99.05.29-.04.59-.03.89,0,.76.09,1.53.02,2.29.12ZM2.14,28.76c.04-.07.07-.11.09-.16.33-.6.84-1.06,1.22-1.63.12-.18.28-.31.45-.43.3-.2.62-.27.98-.16.66.2,1.31.43,1.93.74,1.43.71,2.87,1.37,4.33,2.01.26.11.51.16.79.09,1.07-.29,2.17-.44,3.26-.67.69-.14,1.39-.19,2.06-.41.19-.06.37-.08.52.07.15.15.19.35.12.55-.05.16-.11.33-.19.48-.49.96-.85,1.97-1.23,2.97-.17.44-.39.79-.82,1-.13.07-.35.13-.3.32.04.15.24.15.38.18.68.15,1.36.23,2.05.28.61.05,1.23.04,1.85-.05.6-.09.96-.64,1.02-1.09.06-.5.1-1.02,0-1.51-.14-.66-.24-1.33-.38-2-.24-1.17-.48-2.34-.87-3.48-.1-.3-.2-.61-.28-.92-.28-1.21-.73-2.35-1.41-3.4-.37-.57-.93-.86-1.58-.9-.71-.04-1.43-.04-2.15.01-1.46.12-2.91-.01-4.36-.05-.29,0-.59-.05-.89-.03-.98.04-1.94.14-2.84.58-.02.01-.05.02-.07.02-.33.09-.6.27-.84.52-.69.69-1.23,1.48-1.59,2.39-.55,1.39-.95,2.83-1.31,4.28-.03.1-.08.21.05.39Zm-.54,3.64c.02.18.03.4.08.6.16.71.53,1.27,1.22,1.58.42.19.85.31,1.3.41.36.08.71.04,1.06-.05.43-.11.86-.2,1.3-.26,1.29-.18,2.54-.49,3.78-.87.46-.14.91-.32,1.39-.37.96-.1,1.86-.38,2.7-.83.25-.13.5-.27.67-.51.44-.66.82-1.35,1.07-2.1.13-.37.03-.49-.35-.42-.53.1-1.06.23-1.6.31-.5.07-1,.14-1.48.3-.33.11-.67.17-1.01.22-.18.03-.37.06-.54.1-.85.2-1.7.41-2.55.62-.44.11-.89.22-1.31.4-.32.14-.65.23-.99.29-.74.15-1.41.43-1.97.95-.4.37-.7.39-1.18.13-.42-.23-.82-.5-1.18-.83-.07-.07-.14-.16-.25-.13-.12.04-.13.17-.15.28,0,.05,0,.1-.01.17Zm2.02-.54c.21-.01.35-.12.48-.22.67-.54,1.44-.83,2.28-1,.97-.19,1.86-.65,2.85-.78.1-.01.2-.06.2-.18,0-.1-.09-.14-.17-.18-.05-.03-.11-.05-.17-.08-.64-.31-1.29-.62-1.93-.94-.53-.27-1.05-.55-1.58-.82-.47-.25-.93-.17-1.31.22-.12.13-.21.27-.29.43-.09.18-.19.35-.36.46-.51.32-.74.85-1.01,1.34-.08.14-.11.3-.16.45-.09.29,0,.53.2.74.22.22.48.39.77.51.07.03.14.04.19.05Z"/>
  <path d="m67.14,69.6c-.5,0-.91.03-1.32.04-.78.02-1.55-.06-2.29-.34-.24-.09-.47-.22-.68-.37-.61-.42-.85-1.02-.92-1.73-.11-1.14-.17-2.29-.33-3.42-.08-.58-.12-1.18-.16-1.77-.06-.81-.19-1.62-.27-2.43-.05-.59-.1-1.18-.11-1.77,0-.25,0-.5-.04-.74-.05-.34-.18-.42-.51-.33-.28.08-.56.18-.85.27-.44.14-.87.27-1.31.4-.56.18-1.06.47-1.54.8-.35.24-.36.42-.05.71.21.19.44.36.64.57.99,1.02,1.6,2.22,1.58,3.67-.01,1.12-.52,2.01-1.42,2.68-.11.08-.22.16-.33.24-.54.38-1.1.62-1.78.61-.52,0-1.03.1-1.55.13-.86.05-1.71.13-2.58,0-.83-.13-1.64-.37-2.47-.47-.22-.03-.44-.09-.63-.21-.53-.35-1.14-.54-1.71-.8-.67-.3-1.34-.63-2.06-.82-.33-.09-.66-.19-.98-.32-.27-.11-.41-.05-.54.21-.04.08-.07.16-.09.24-.2.75-.56,1.42-.96,2.08-.31.52-.74.84-1.39.8-.35-.02-.69-.02-1.03-.11-.39-.11-.61-.36-.65-.76-.08-.75-.07-1.5-.03-2.26.02-.38.04-.76.04-1.15.01-.91.12-1.82.18-2.73.03-.47.02-.94.1-1.4.03-.17.06-.34.13-.5.15-.4.43-.64.85-.76.66-.19,1.32-.29,2-.38.15-.02.29-.05.44-.07.28-.05.4-.14.43-.43.04-.45.21-.86.31-1.29.1-.43.35-.79.55-1.17.29-.54.6-1.08.94-1.59.38-.57.82-1.08,1.26-1.6,1-1.17,2.17-2.16,3.37-3.1.45-.35.94-.63,1.45-.89,1.61-.81,3.22-1.61,4.83-2.42,1.28-.65,2.64-1.11,4.02-1.49,1.29-.35,2.59-.32,3.89-.08.08.02.17.04.24.08.37.25.8.38,1.2.56.77.36,1.26,1,1.58,1.75.37.88.83,1.71,1.28,2.54.32.6.6,1.22.9,1.83.6,1.24,1.25,2.46,1.95,3.66,1.08,1.85,2.11,3.74,3.31,5.52.41.6.75,1.24,1.09,1.89.18.34.37.67.54,1.01.21.42.52.75.91,1.01,1.16.77,2.33,1.53,3.6,2.13.33.16.66.34.99.5.26.13.49.29.63.55.11.21.29.29.52.29.32,0,.64,0,.96.05.57.09,1.1.3,1.53.7.33.31.72.52,1.14.67.54.2,1.08.43,1.55.78.42.32.73.71.71,1.27-.03.73-.49,1.43-1.39,1.44-.54,0-1.08-.02-1.63-.05-1.01-.06-2.02-.17-3.03-.1-.58.04-1.16.1-1.73.19-.99.15-1.97.05-2.95-.06-.2-.02-.41-.1-.6-.18-.64-.25-1.31-.36-1.98-.46-1.12-.16-1.99-.68-2.51-1.72-.33-.66-.21-1.43.34-1.93.2-.18.43-.33.65-.49.3-.22.33-.33.12-.64-.41-.6-.86-1.17-1.24-1.8-.68-1.12-1.47-2.16-2.23-3.23-.56-.78-1.06-1.61-1.58-2.41-.31-.48-.61-.96-.92-1.43-.05-.07-.1-.14-.15-.21-.07-.08-.13-.2-.26-.16-.11.04-.1.16-.11.25-.09.49-.11.98-.13,1.47-.05,1.41-.2,2.8-.36,4.2-.06.48-.1.96-.1,1.44,0,.38.13.69.41.95.41.38.88.67,1.35.97.29.19.58.37.85.59.4.33.58.75.53,1.27-.02.22-.02.44-.04.66-.04.52-.29.75-.8.79-.55.04-1.1.14-1.56.09Zm-1.21-21.18c0-.23.02-.47,0-.7-.08-.87-.31-1.7-.81-2.43-.37-.54-.89-.82-1.53-.94-.73-.13-1.46-.07-2.18.02-1.34.17-2.62.6-3.86,1.13-1.26.54-2.48,1.17-3.69,1.82-.63.34-1.27.65-1.92.96-.22.11-.44.23-.65.36-.33.2-.36.31-.12.62.18.23.38.46.58.67,1.03,1.05,1.97,2.18,2.95,3.27.37.41.72.84,1.04,1.3.2.29.28.3.59.15.22-.11.43-.23.65-.36.33-.18.67-.29,1.04-.36.78-.14,1.56-.26,2.35-.28.22,0,.35-.12.39-.32.03-.13.04-.27.07-.4.08-.3.29-.5.52-.51.24,0,.42.18.49.52.05.23.08.46.11.69.11.92.16,1.84.3,2.76.03.21.05.42.06.63.08,1.21.14,2.41.3,3.61.1.73.15,1.47.22,2.21.11,1.17.21,2.33.31,3.5.03.34.09.68.17,1.02.11.45.39.77.8.96.53.25,1.1.41,1.68.4.63-.02,1.26-.04,1.89-.06.4-.01.54-.2.53-.59-.02-.48-.31-.76-.67-.99-.61-.39-1.19-.83-1.74-1.32-.46-.41-.69-.91-.68-1.54,0-.46.06-.91.09-1.37.07-1.02.12-2.04.22-3.06.11-1.12.23-2.23.3-3.35.08-1.28.05-2.57.03-3.85,0-.48,0-.96.04-1.44.1-.91.08-1.82.13-2.73Zm-25.84,16.63c0,.36,0,.72,0,1.07,0,.21.01.43.26.52.18.06.38-.05.51-.34.33-.73.71-1.44.92-2.22.07-.26.18-.51.32-.74.12-.19.29-.29.52-.3.33,0,.66,0,.98.12.63.23,1.27.41,1.91.58.38.1.76.21,1.13.36.79.31,1.59.61,2.38.93.57.22,1.18.25,1.77.35.92.15,1.84.26,2.76.17.61-.06,1.23-.04,1.84-.14.16-.03.32-.03.48,0,.28.03.54-.04.79-.16.27-.13.5-.31.73-.5.35-.3.5-.69.53-1.14.05-.76-.23-1.43-.57-2.08-.45-.86-1.16-1.47-1.94-2-1.1-.76-2.32-1.3-3.5-1.93-.31-.17-.64-.32-.96-.49-.24-.12-.33-.28-.29-.46.04-.2.25-.34.51-.34.18,0,.34.05.5.11.41.14.82.28,1.22.43.18.06.34.07.49-.05.47-.37.97-.69,1.41-1.09.24-.22.25-.31.04-.56-.45-.53-.86-1.08-1.33-1.59-1.04-1.14-2.05-2.31-3.07-3.46-.48-.54-.55-.53-1.11-.08-.83.66-1.57,1.42-2.29,2.21-.96,1.05-1.73,2.21-2.41,3.45-.36.65-.57,1.34-.65,2.07-.15,1.21.23,2.22,1.25,2.94.91.63,1.91,1.08,3,1.31.35.07.7.14,1.05.21.86.18,1.72.27,2.6.08.5-.11,1.01-.09,1.5.09.42.15.48.46.14.74-.2.18-.45.26-.72.26-.4.01-.79.06-1.17.15-.25.06-.51.06-.77.04-1.03-.08-2.02-.36-3.01-.61-1.21-.3-2.27-.95-3.25-1.71-.82-.64-1.35-1.49-1.6-2.51-.08-.35-.17-.42-.55-.41-.5.01-.97.18-1.45.26-.34.06-.52.26-.57.59-.02.13-.03.27-.04.4-.03.57-.05,1.13-.1,1.7-.11,1.25-.17,2.51-.21,3.77Zm26.98-12.39c0,.43,0,.95,0,1.47,0,.31.09.57.25.83.52.84,1.14,1.61,1.68,2.43.73,1.09,1.4,2.21,2.15,3.28.79,1.12,1.59,2.23,2.28,3.41.21.36.44.71.71,1.04.48.61.97,1.21,1.46,1.82.2.24.45.36.76.39.83.08,1.66.24,2.5.26.46.01.91.08,1.36.09.36,0,.5-.23.39-.58-.05-.16-.14-.29-.28-.38-.15-.09-.29-.19-.45-.25-.47-.18-.9-.46-1.38-.63-.2-.07-.37-.19-.55-.31-.84-.56-1.68-1.12-2.53-1.67-.23-.15-.42-.34-.55-.58-.26-.47-.53-.94-.79-1.42-.62-1.14-1.26-2.26-1.94-3.37-.47-.77-.98-1.51-1.4-2.31-.12-.23-.24-.46-.37-.69-.98-1.77-1.99-3.52-2.78-5.39-.04-.1-.09-.2-.15-.3-.05-.08-.09-.21-.2-.19-.15.03-.11.17-.12.27-.02.89-.13,1.77-.06,2.74Zm19.55,17.62c.15.01.3-.01.44-.06.21-.07.26-.22.13-.41-.11-.16-.27-.26-.44-.33-.4-.18-.81-.36-1.22-.53-.42-.18-.86-.34-1.17-.69-.45-.52-1.03-.65-1.66-.64-.42,0-.81.07-1.04.5-.07.13-.19.23-.33.28-.3.11-.61.24-.93.23-.84,0-1.68,0-2.52-.04-.7-.04-1.39-.23-2.09-.3-.5-.04-.97-.15-1.35-.53-.15-.15-.34-.14-.52-.03-.24.14-.45.3-.64.51-.21.23-.21.42.01.65.22.24.49.41.8.52.4.14.8.25,1.21.32.74.13,1.47.3,2.22.41,1.35.2,2.71.08,4.06-.02.69-.05,1.38-.08,2.07-.02.98.08,1.97.12,2.95.18Z"/>
  <path d="m61.67,9.16c-.07,1.26-.18,2.51-.59,3.71-.17.5-.35,1-.59,1.47-.37.72-.91,1.32-1.42,1.94-.24.29-.51.57-.77.85-.52.56-1.1,1.03-1.82,1.31-.13.05-.24.13-.35.2-.94.54-1.93,1.01-2.96,1.34-.83.26-1.67.5-2.54.65-1.03.17-2.07.31-3.11.44-.07,0-.15.02-.22.01-1.07-.07-2.14.04-3.21-.13-.33-.05-.67-.05-1-.06-.93-.02-1.83-.23-2.76-.3-.1,0-.2-.02-.3,0-1.15.17-2.29,0-3.43-.13-.97-.11-1.91-.37-2.88-.46-.38-.04-.71-.02-1,.25-.15.14-.33.26-.49.4-.58.5-1.25.69-2.02.69-.67,0-1.3-.14-1.92-.33-.25-.08-.49-.17-.68-.35-.27-.26-.21-.56.13-.7.1-.04.21-.06.32-.08.27-.05.53-.12.77-.25.67-.35,1-.93,1.1-1.66.02-.18-.05-.3-.21-.39-.5-.3-.95-.66-1.31-1.12-.17-.22-.4-.39-.58-.62-.72-.97-1.13-2.07-1.53-3.19-.14-.4-.13-.83-.2-1.24-.13-.82-.25-1.64-.1-2.47.22-1.21.43-2.43.94-3.57.35-.78.81-1.5,1.37-2.14.39-.44.89-.74,1.39-1.03.96-.55,2.01-.89,3.05-1.24.42-.14.87-.19,1.31-.23.64-.06,1.27-.19,1.9-.27.34-.04.69-.09,1.03-.1.84-.02,1.68-.07,2.51-.15.55-.05,1.11-.05,1.66-.08,2.05-.12,4.1-.1,6.14-.08.65,0,1.3.11,1.95.17.43.04.86.09,1.29.11.75.04,1.5.06,2.25.14.97.1,1.87.42,2.75.83,1.51.7,2.84,1.67,4.09,2.78,1.09.96,1.58,2.21,1.86,3.58.1.51.2,1.02.16,1.54Zm-15.65,10.85c.54-.07,1.09-.02,1.63-.07.8-.07,1.59-.18,2.38-.33.83-.16,1.67-.31,2.49-.53.72-.19,1.39-.49,2.06-.8.86-.4,1.63-.97,2.47-1.42.22-.12.42-.27.59-.44.39-.39.79-.78,1.15-1.21.3-.36.56-.75.75-1.18.13-.29.27-.58.43-.86.13-.23.23-.46.3-.71.23-.77.31-1.57.4-2.37.03-.3.08-.61.04-.92-.11-.85-.26-1.68-.5-2.5-.15-.52-.39-.97-.79-1.36-1.27-1.22-2.64-2.31-4.17-3.18-.68-.39-1.43-.6-2.19-.76-.43-.09-.86-.04-1.29-.09-.74-.08-1.48-.09-2.22-.12-.49-.02-.98-.08-1.47-.12-.56-.05-1.11-.05-1.66,0-.16.01-.32.04-.48.01-.28-.05-.57-.05-.85-.05-.95,0-1.9,0-2.84.06-.41.03-.81,0-1.22.03-1.12.06-2.24.16-3.36.22-.77.04-1.54.15-2.31.25-.42.05-.84.06-1.25.14-1.23.23-2.41.63-3.56,1.11-.89.37-1.66.9-2.2,1.74-.7,1.1-1.09,2.32-1.47,3.54-.23.75-.23,1.53-.18,2.31.01.22.07.44.15.65.17.46.32.93.54,1.38.08.16.11.33.11.5,0,.23.06.43.15.64.27.65.68,1.21,1.13,1.73.46.53,1.01.98,1.64,1.31.34.18.46.39.4.79-.16.94-.4,1.84-1.15,2.51-.07.06-.16.13-.13.25.03.12.14.13.24.13.81.05,1.58-.07,2.22-.62.21-.17.42-.34.64-.51.3-.23.63-.34,1-.29.54.07,1.08.11,1.61.22.68.15,1.35.3,2.04.34.39.03.78.18,1.17.03.24-.09.48-.1.73-.08.7.06,1.4.12,2.1.19.6.06,1.2.12,1.8.19.7.09,1.41.04,2.1.14.27.04.54.09.81.07Z"/>
  <path d="m13.81,18.5c-1.16-.02-2.05-.16-2.94-.25-1.27-.13-2.43-.64-3.61-1.06-.49-.18-.93-.5-1.39-.76-.21-.12-.42-.26-.65-.35-.27-.11-.4-.32-.4-.61,0-.16,0-.32.03-.48.18-.81.2-1.64.3-2.45.19-1.65.42-3.31,1.15-4.84.33-.69.68-1.37,1.19-1.96.86-.98,1.9-1.63,3.21-1.8.27-.03.53-.11.79-.18.62-.15,1.25-.19,1.87-.06.92.19,1.82.46,2.67.87,1.69.82,2.75,2.16,3.27,3.95.19.64.26,1.3.31,1.97.06.74-.04,1.44-.13,2.17-.15,1.31-.63,2.51-1.19,3.67-.4.83-1.1,1.35-1.95,1.66-.9.32-1.82.54-2.53.51Zm-.28-1.39c.27,0,.54,0,.81,0,.67-.02,1.26-.24,1.72-.74.13-.14.27-.29.39-.44.36-.46.61-.97.76-1.55.21-.81.43-1.62.54-2.46.09-.66.12-1.33.29-1.97.05-.18.02-.37,0-.55-.1-.7-.32-1.37-.65-1.99-.41-.78-.97-1.43-1.73-1.89-.83-.5-1.75-.73-2.69-.88-.27-.04-.54-.04-.81.02-.45.09-.9.17-1.34.27-.41.09-.82.21-1.13.51-.33.31-.66.63-.97.96-.39.42-.71.89-.92,1.42-.22.57-.43,1.16-.57,1.76-.25,1.05-.43,2.1-.52,3.17-.06.74-.16,1.47-.22,2.21-.04.46.03.54.48.7.56.2,1.12.39,1.68.59,1.58.58,3.21.86,4.89.85Z"/>
  <path d="m78.53,40.16c-.02.84-.19,1.53-.54,2.19-.67,1.27-1.53,2.38-2.6,3.33-.2.18-.4.36-.61.54-.48.4-1.03.68-1.61.88-.21.07-.42.15-.62.23-.21.08-.42.09-.65.08-.65-.02-1.26-.14-1.88-.36-.91-.34-1.69-.86-2.36-1.55-.8-.82-1.4-1.78-1.83-2.84-.16-.41-.47-.69-.8-.95-.39-.3-.75-.63-1.1-.99-.49-.51-.87-1.1-1.16-1.75-.21-.48-.21-.98-.16-1.49.02-.2.13-.37.27-.52.65-.66,1.43-1.07,2.36-1.19.5-.06.98,0,1.46.15.65.2,1.16.58,1.58,1.1.45.56.45.56.99.1.33-.28.66-.55.98-.84.51-.46,1.15-.69,1.81-.77,1.11-.14,2.2,0,3.2.51.83.43,1.61.96,2.31,1.59.38.34.6.78.75,1.25.14.45.16.92.2,1.29Zm-6.51,6.22c.58-.09,1.34-.18,1.9-.8.07-.08.17-.15.25-.21,1.09-.86,1.94-1.92,2.57-3.16.1-.2.21-.39.29-.6.08-.19,0-.29-.2-.28-.1,0-.19.03-.29.05-.29.05-.58.08-.88.04-.63-.09-1.22-.32-1.83-.45-.5-.11-.96-.31-1.34-.67-.19-.18-.41-.26-.67-.24-.89.05-1.75-.09-2.55-.48-.31-.15-.54-.08-.76.16-.34.39-.7.77-1.04,1.15-.2.22-.4.44-.59.66-.16.19-.24.4-.11.65.32.63.66,1.24,1.16,1.75.59.6,1.25,1.12,1.88,1.67.58.51,1.26.77,2.21.76Zm1.2-9.83c-.54-.01-1.07.06-1.54.34-.6.37-1.11.86-1.63,1.33-.23.21-.2.38.1.51.64.28,1.31.5,2.01.37.5-.09.86.04,1.2.38.28.28.63.47,1.02.58.54.15,1.07.29,1.62.38.35.06.69.04,1.02-.06.32-.1.41-.21.4-.53,0-.73-.23-1.4-.75-1.91-.96-.93-2.14-1.32-3.45-1.38Zm-7.67-.03c-.55.04-.97.13-1.12.84-.03.16-.07.31-.09.47-.11,1.08.06,2.04,1.05,2.7.02.01.04.03.06.05.33.28.35.29.64-.06.49-.6,1.05-1.13,1.53-1.75.25-.32.31-.46.13-.83-.46-.92-1.28-1.28-2.2-1.43Z"/>
  <path d="m40.48,11.35c0,.49,0,.85.04,1.2.04.47-.02.94-.14,1.39-.12.43-.03.75.31,1.06.44.4.84.83,1.26,1.25.07.07.14.14.19.22.15.21.15.37.01.54-.15.19-.38.25-.6.15-.22-.1-.38-.28-.52-.47-.45-.58-1.02-1.04-1.51-1.58-.16-.17-.35-.22-.57-.21-.43.01-.86,0-1.29.02-.73.02-1.45-.11-2.17-.18-.51-.05-1.03-.12-1.55-.11-.65.01-.98-.37-1.26-.86-.1-.18-.15-.39-.17-.6-.04-.38-.12-.75-.23-1.12-.16-.54-.21-1.09-.2-1.64,0-.3.08-.59.21-.86.13-.28.36-.44.67-.45.22,0,.44,0,.67,0,.3-.02.36-.17.19-.41-.1-.14-.21-.27-.33-.4-.71-.74-1.42-1.48-2.12-2.22-.07-.07-.14-.14-.2-.22-.07-.09-.09-.2-.03-.31.06-.11.17-.14.28-.14.16,0,.28.08.4.18.27.24.54.47.79.72.37.37.77.7,1.09,1.11.15.19.34.28.59.18.39-.16.8-.12,1.21-.09.52.04,1.03.08,1.55.09.7.01,1.13.05,1.26,1.11,0,.01,0,.02,0,.04.06.76.12.64.76.73.21.03.42.04.62.07.44.07.66.35.74.76.08.39.07.79.07,1.05Zm-3.84-1.95c.08,0,.23,0,.38,0,.15-.01.3-.06.35-.22.06-.16.02-.32-.08-.46-.09-.12-.22-.15-.36-.16-.55-.04-1.1-.08-1.66-.12-.06,0-.12,0-.18.02-.12.04-.19.14-.11.26.18.28.38.56.75.61.28.04.56.1.91.07Z"/>
  <path d="m51.64,13.83c-.06-.32-.05-.69-.06-1.06-.01-.34-.08-.41-.42-.44-.26-.02-.52-.04-.77-.06-.56-.04-.91-.34-1.03-.89-.06-.27-.09-.53-.05-.81.01-.06,0-.12.02-.18.09-.51-.07-.9-.46-1.27-.84-.78-1.64-1.61-2.48-2.39-.1-.09-.19-.19-.27-.3-.09-.12-.1-.25,0-.38.1-.12.23-.14.37-.1.08.03.16.07.23.12.18.13.37.25.53.4.57.56,1.2,1.06,1.75,1.65.07.07.14.14.21.21.26.23.34.23.6,0,.25-.21.53-.35.85-.43.4-.1.43-.15.46-.55.01-.14.03-.27.1-.39.09-.16.2-.29.4-.29.21,0,.34.13.42.31.05.11.09.23.1.35.04.32.18.55.51.66.25.09.45.26.61.47.31.41.59.85.82,1.32.1.21.12.43.04.65-.12.3-.35.35-.56.11-.08-.09-.14-.22-.29-.2-.18.03-.37.02-.54.12-.11.06-.09.2-.07.31.03.14.11.25.27.27.18.03.37.05.55.07.16.02.31.06.46.13.8.33,1.14.96.97,1.81-.02.12-.05.24-.1.36-.13.28-.05.5.16.7.39.38.73.8,1.09,1.21.07.08.15.17.2.26.12.21.07.41-.12.56-.17.14-.35.14-.54-.01-.06-.05-.11-.1-.15-.16-.28-.43-.67-.75-1.01-1.13-.27-.29-.38-.3-.7-.07-.29.21-.55.43-.68.8-.17.47-.71.56-1.05.2-.18-.2-.39-.29-.65-.3-.77-.02-1.36-.38-1.85-.95-.13-.15-.26-.3-.37-.46-.17-.23-.17-.41-.02-.57.16-.18.4-.21.64-.06.2.12.37.28.54.45.26.25.57.38.92.42.33.04.45-.08.44-.46Zm-.22-3.95c0-.09,0-.18-.02-.26-.04-.17.01-.42-.19-.49-.2-.07-.35.14-.51.25-.14.1-.13.23-.03.35.09.11.2.22.3.32.1.09.19.24.34.18.16-.06.08-.24.1-.36Z"/>
  <path d="m43.81,11.56c.4,0,.78.13,1.17.17.18.02.37.04.55.06.16.01.32.05.45.14.13.09.21.21.18.38-.03.16-.13.27-.29.3-.11.02-.22.04-.33.02-.62-.09-1.25-.12-1.86-.27-.11-.02-.22-.06-.31-.11-.15-.08-.25-.21-.23-.39.02-.19.17-.27.33-.29.11-.02.22-.01.33-.02Z"/>
  <path d="m43.74,10.6c.71.1,1.4.14,2.09.16.33.01.53.2.52.42-.01.21-.25.38-.58.33-.63-.1-1.28.03-1.91-.15-.14-.04-.29-.08-.42-.14-.13-.05-.23-.15-.22-.31,0-.18.14-.25.29-.29.08-.02.17-.02.23-.03Z"/>
</svg>