<?xml version="1.0" encoding="UTF-8"?>
<svg id="Layer_1" data-name="Layer 1" xmlns="http://www.w3.org/2000/svg" viewBox="0 0 80.98 81.73">
  <defs>
    <style>
      .cls-1 {
        fill: none;
      }

      .cls-1, .cls-2 {
        stroke: #000;
        stroke-miterlimit: 10;
        stroke-width: 1.5px;
      }
    </style>
  </defs>
  <path class="cls-2" d="m2.4,33.86l3.83.87c.57.13,1.05.52,1.29,1.06l3.07,6.85c.29.65.89,1.1,1.6,1.21l15.57,2.24v19.7H.76v-30.61c0-.86.8-1.51,1.65-1.31Z"/>
  <path class="cls-1" d="m.76,65.78v13.28c0,1.06.86,1.91,1.91,1.91h0c1.22,0,2.21-.99,2.21-2.21v-12.94"/>
  <path class="cls-1" d="m19.25,65.78v13.28c0,1.06.86,1.91,1.91,1.91h0c1.22,0,2.21-.99,2.21-2.21v-12.94"/>
  <rect class="cls-1" x="27.76" y="46.08" width="14.64" height="34.89"/>
  <path class="cls-2" d="m63.67,54.01h14.47c.87,0,1.57.7,1.57,1.57v4.55c0,.87-.7,1.57-1.57,1.57h-13.41c-.87,0-1.57-.7-1.57-1.57v-4.55c0-.87.7-1.57,1.57-1.57h1.45"/>
  <path class="cls-1" d="m64.83,61.69v16.86c0,1.34,1.11,2.43,2.48,2.43h0c1.58,0,2.87-1.26,2.87-2.81v-16.42"/>
  <path class="cls-1" d="m16.98,35.82l4.9,6.1c.31.39.73.69,1.19.87,2.01.76,7.85,2.83,12.56,3.29,3.37.33,3.64-1.09,3.28-2.34-.28-.96-.96-1.76-1.83-2.27l-11.45-6.67c-.59-.35-1.04-.89-1.27-1.53-.7-1.95-2.26-6.21-3.05-7.64-1.04-1.87-7.92-2.02-7.92-2.02H1.68c-.51,0-.93.42-.93.93v10.63"/>
  <line class="cls-1" x1="16.94" y1="30.8" x2="16.94" y2="44.59"/>
  <path class="cls-1" d="m70.79,44.98c-1.04-.06-15.52,1.65-19.68,2.06-2.89.28-3.24,6.69-3.18,10.56.02,1.61,1.34,2.9,2.96,2.9h10.87c.8,0,1.47-.61,1.54-1.41l.26-2.96c.09-.99.89-1.76,1.89-1.8,3.48-.14,11.1-.51,12.48-1.09,1.79-.76,2.44-9.12,2.28-14.34-.16-5.21-4.16-11.49-6.6-14.82-2.44-3.33-5.96-4.21-8.39-4.24-2.77-.03-5.53,3.27-6.88,5.17-.5.7-1.46.86-2.16.36l-2.55-1.83c-.39-.28-.88-.36-1.34-.22l-3.57,1.07c-.24.07-.49.08-.73.04-.94-.18-3.58-.67-6.35-1.08-.15-.02-.3-.04-.44-.07-3.13-.45-6.32-.79-7.31-.44-2.14.74-3.12,1.16-2.57,3.46.46,1.91,4.8,3.59,7.74,3.71.85.03,1.53.72,1.51,1.57l-.02.74c-.03.84.62,1.54,1.45,1.59,3.17.17,10.4.41,11.87-.91"/>
  <path class="cls-1" d="m60.77,30.38s.73,8.92-9.04,8.62c-9.78-.31-12.42-.01-12.69,1.55-.27,1.56-.15,7.06,6.36,4.98"/>
  <path class="cls-1" d="m73.48,33.31l-5.68,11.28s-21.26,4.12-22.09,2.84-.03-8.54-.03-8.54"/>
  <line class="cls-1" x1="40.61" y1="32.94" x2="40.61" y2="23.23"/>
  <line class="cls-1" x1="53.87" y1="29" x2="53.87" y2="38.9"/>
  <line class="cls-1" x1="57.47" y1="25.61" x2="57.47" y2="37.64"/>
  <path class="cls-1" d="m59.89,60.78v19.25c0,.52-.43.94-.96.94h-15.14c-.61,0-1.11-.49-1.11-1.09v-4.46c0-.48.27-.92.71-1.14l5.51-2.75c.46-.23.75-.7.75-1.2v-9.56h10.24Z"/>
  <path class="cls-1" d="m49.24,60l-6.56-1s-.22-11.04,3.97-11.33"/>
  <path class="cls-1" d="m54.89,21.49s-5.79,4.48-8.1-.91-2.05-12.62-2.03-13.34c0-.04,0-.08.01-.12.13-.64,1.45-6.13,8.02-6.07,6,.05,8,2.79,8.44,3.56.07.12.1.25.1.38v16.73"/>
  <path class="cls-2" d="m40.85,22.25c-.33.91-1.99,1.14-3.72.52-1.07-.39-1.91-1.01-2.32-1.65-.25-.39-.34-.78-.21-1.13.33-.91,1.99-1.14,3.72-.52,1.72.62,2.86,1.87,2.53,2.78Z"/>
  <polyline class="cls-2" points="34.98 21.36 34.98 23.8 34.22 25.96 36.7 26.94 37.92 24.5 40.29 22.85"/>
  <polygon class="cls-2" points="33.13 28.67 31.98 31.1 34.25 32.16 35.62 29.64 33.13 28.67"/>
  <line class="cls-1" x1="33.04" y1="31.91" x2="31.61" y2="34.58"/>
  <path class="cls-2" d="m.76,24.54s-.02-2.12.61-5.41c.35-1.85.31-2.94.2-3.53-.14-.78-.13-1.59.15-2.33,1.8-4.73,9.62-3.89,11.8-3.78,2.4.12,7.37,1.03,7.82,5.47.44,4.44-7.53,3.98-7.53,3.98,0,0-2,.17-2.17,2.42-.1,1.33-.09,2.2-.07,2.69.02.4-.05.79-.21,1.15-.52,1.17-1.94,3.45-4.98,2.85-.49-.09-.98-.15-1.47-.16-1.48-.02-4.3-.13-4.15-.55.21-.57,0-2.8,0-2.8Z"/>
  <path class="cls-1" d="m18.4,18.44s1.91,5.69-1.79,5.44"/>
  <circle class="cls-2" cx="64.74" cy="12.45" r="5.44"/>
  <path class="cls-2" d="m62.3,7.22s-.35-6.9-7.45-6.45c-6.81.44-10.3-.13-10.41,8.59,0,.65.58,1.18,1.31,1.18l3.29-.19c.35,0,1.62-.05,1.97-.05,1.4,0,3.69-.07,4.28.73,1.03,1.37,2.68,6.61,2.68,6.61,0,0,2.05,2.44,3.23,1.68s1.38-4.74,1.38-4.74l-.28-7.36Z"/>
</svg>