<?xml version="1.0" encoding="UTF-8" standalone="no"?>
<!-- Created with Inkscape (http://www.inkscape.org/) -->

<svg
   width="100"
   height="100"
   viewBox="0 0 26.458331 26.458335"
   version="1.1"
   id="svg5"
   inkscape:version="1.1.1 (3bf5ae0d25, 2021-09-20)"
   sodipodi:docname="picto4.svg"
   inkscape:export-filename="C:\Users\franc\OneDrive\Escritorio\trabajo janis2.png"
   inkscape:export-xdpi="96"
   inkscape:export-ydpi="96"
   xmlns:inkscape="http://www.inkscape.org/namespaces/inkscape"
   xmlns:sodipodi="http://sodipodi.sourceforge.net/DTD/sodipodi-0.dtd"
   xmlns="http://www.w3.org/2000/svg"
   xmlns:svg="http://www.w3.org/2000/svg">
  <sodipodi:namedview
     id="namedview7"
     pagecolor="#ffffff"
     bordercolor="#666666"
     borderopacity="1.0"
     inkscape:pageshadow="2"
     inkscape:pageopacity="0.0"
     inkscape:pagecheckerboard="0"
     inkscape:document-units="mm"
     showgrid="false"
     units="px"
     inkscape:zoom="3.9408307"
     inkscape:cx="75.872328"
     inkscape:cy="35.144874"
     inkscape:window-width="1920"
     inkscape:window-height="1001"
     inkscape:window-x="-9"
     inkscape:window-y="-9"
     inkscape:window-maximized="1"
     inkscape:current-layer="layer2" />
  <defs
     id="defs2">
    <clipPath
       clipPathUnits="userSpaceOnUse"
       id="clipPath998">
      <path
         d="M 0,1080 H 1080 V 0 H 0 Z"
         id="path996" />
    </clipPath>
    <clipPath
       clipPathUnits="userSpaceOnUse"
       id="clipPath1056">
      <path
         d="M 0,1080 H 1080 V 0 H 0 Z"
         id="path1054" />
    </clipPath>
    <clipPath
       clipPathUnits="userSpaceOnUse"
       id="clipPath998-7">
      <path
         d="M 0,1080 H 1080 V 0 H 0 Z"
         id="path996-8" />
    </clipPath>
    <clipPath
       clipPathUnits="userSpaceOnUse"
       id="clipPath1056-5">
      <path
         d="M 0,1080 H 1080 V 0 H 0 Z"
         id="path1054-9" />
    </clipPath>
  </defs>
  <g
     inkscape:label="Capa 1"
     inkscape:groupmode="layer"
     id="layer1" />
  <g
     inkscape:groupmode="layer"
     id="layer2"
     inkscape:label="Capa 2">
    <path
       class="st10"
       d="M 9.7041599,6.0731834 9.9605072,3.5950486 C 9.9981602,3.2302413 10.248624,2.9227053 10.598134,2.8118912 l 0.829051,-0.2628175 c 0.20653,-0.065516 0.426787,-0.074338 0.637824,-0.025692 l 0.68019,0.1569056 c 0.383633,0.088461 0.676852,0.3987384 0.743343,0.7868854 l 0.418544,2.4387123 c 0.06924,0.4030545 -0.210055,0.782964 -0.615463,0.8372912 L 11.839456,6.9375447 10.213909,6.7200341 C 9.8971535,6.6776649 9.6714075,6.39112 9.7041599,6.073187 Z"
       id="path8321"
       style="stroke:#000000;stroke-width:0.26458333;stroke-miterlimit:10;stroke-dasharray:none" />
    <path
       class="st11"
       d="M 8.6328848,17.464573 7.6371192,16.250509 C 7.4849194,16.076539 7.4666789,15.82294 7.5922027,15.628966 l 0.6129166,-0.947322 c 0.064525,-0.09963 0.1063045,-0.212021 0.1223871,-0.329503 L 9.1096822,8.6901829 C 9.1542037,8.3673468 9.3934859,8.105707 9.7108299,8.0321586 L 12.842676,7.3068592 c 0.211823,-0.049029 0.433846,-0.02883 0.633313,0.05766 l 0.857099,0.371867 c 0.194762,0.084537 0.348529,0.2424213 0.427766,0.4395347 l 0.393443,0.9781123 c 0.04648,0.1157198 0.0761,0.2377144 0.08786,0.3620622 l 0.384026,4.0697516 c 0.01016,0.108267 -0.06179,0.207117 -0.167891,0.230848 l -0.667237,0.148279 c -0.146119,0.03256 -0.286356,-0.07453 -0.293809,-0.223985 L 14.301707,9.7808737"
       id="path8323"
       style="fill:none;stroke:#000000;stroke-width:0.26458333;stroke-miterlimit:10;stroke-dasharray:none" />
    <path
       class="st11"
       d="m 9.5276419,10.572271 -0.3406834,3.590995 c -0.015107,0.160045 -0.035305,0.319305 -0.060408,0.478171 l -0.4460057,2.81627 c -0.025114,0.158083 0.097085,0.30126 0.2573259,0.30126 h 5.1459333"
       id="path8325"
       style="fill:none;stroke:#000000;stroke-width:0.26458333;stroke-miterlimit:10;stroke-dasharray:none" />
    <path
       class="st11"
       d="m 13.949844,7.5700699 -0.350293,1.2226895 c -0.02981,0.1041469 -0.04099,0.2128047 -0.03295,0.3210687 l 0.185542,2.4930449 v 2.460876 l 0.256147,1.526107 c 0.01472,0.08748 0.09042,0.151612 0.179268,0.151612 v 0 0 c 0.163769,0 0.317144,-0.08061 0.409915,-0.215747 v 0 c 0.09885,-0.143766 0.114738,-0.328914 0.04217,-0.487388 v 0 c -0.108848,-0.237519 -0.02432,-0.518969 0.197504,-0.657046 l 0.390108,-0.242811 c 0.179855,-0.111993 0.417175,-0.03432 0.49602,0.162399 l 0.431885,1.077159 c 0.0559,0.363434 0.423253,1.773039 0.139842,2.041349 -0.244578,0.231436 -0.32303,0.335584 -0.650965,0.195739 -0.327736,-0.139841 -0.46758,-0.559172 -0.46758,-0.866905 0,-0.249873 -0.276545,-0.960658 -0.380496,-1.218965 -0.02413,-0.05982 -0.03884,-0.09533 -0.03884,-0.09533"
       id="path8327"
       style="fill:none;stroke:#000000;stroke-width:0.26458333;stroke-miterlimit:10;stroke-dasharray:none" />
    <path
       class="st11"
       d="m 14.271503,16.311115 -0.08395,-0.565647 z"
       id="path8329"
       style="fill:none;stroke:#000000;stroke-width:0.26458333;stroke-miterlimit:10;stroke-dasharray:none" />
    <path
       class="st11"
       d="m 14.637878,15.471273 c 0,0 -0.01004,-0.166711 0.115911,1.049704 0.125916,1.216416 0.0096,1.788143 0.314596,2.118036 0.304987,0.329896 0.712944,0.167693 0.712944,0.167693"
       id="path8331"
       style="fill:none;stroke:#000000;stroke-width:0.26458333;stroke-miterlimit:10;stroke-dasharray:none" />
    <path
       class="st11"
       d="m 14.271503,16.311115 -0.118862,0.98792 c 0,0 -0.216725,1.612604 0.118862,1.696352 0.335583,0.08395 1.321151,0.02099 1.510027,-0.188681 0.188677,-0.209665 0.367354,-0.126504 0.440317,-0.754915 0.07296,-0.628408 0.07296,-0.628408 0.07296,-0.628408"
       id="path8333"
       style="fill:none;stroke:#000000;stroke-width:0.26458333;stroke-miterlimit:10;stroke-dasharray:none" />
    <path
       class="st11"
       d="m 14.637095,8.0276453 -0.295573,0.6709721 c -0.04609,0.1045375 -0.06786,0.2182962 -0.06375,0.3326391 l 0.0563,1.5659255"
       id="path8335"
       style="fill:none;stroke:#000000;stroke-width:0.26458333;stroke-miterlimit:10;stroke-dasharray:none" />
    <polyline
       class="st11"
       points="-727.18,1256.31 -727.18,1308.69 -720.36,1335.42 "
       id="polyline8337"
       style="fill:none;stroke:#000000;stroke-width:13.49001637;stroke-miterlimit:10;stroke-dasharray:none"
       transform="matrix(0.01961327,0,0,0.01961327,28.753549,-11.215323)" />
    <path
       class="st11"
       d="m 8.9378707,17.758967 -0.3365657,2.2467 c -0.022742,0.151218 -0.034128,0.304004 -0.034128,0.456794 v 1.443535 c 0,0.22457 0.1780886,0.408741 0.4026621,0.416192 l 0.2279058,0.0076 5.2077171,0.172986 c 0.257325,0.0086 0.468952,-0.201035 0.462871,-0.458557 l -0.07257,-3.012989"
       id="path8339"
       style="fill:none;stroke:#000000;stroke-width:0.26458333;stroke-miterlimit:10;stroke-dasharray:none" />
    <polyline
       class="st11"
       points="-997.07,1710.33 -991.8,1796.94 -968.27,1858.96 "
       id="polyline8341"
       style="fill:none;stroke:#000000;stroke-width:13.49001637;stroke-miterlimit:10;stroke-dasharray:none"
       transform="matrix(0.01961327,0,0,0.01961327,28.753549,-11.215323)" />
    <line
       class="st11"
       x1="11.568008"
       y1="22.518713"
       x2="11.568008"
       y2="25.496599"
       id="line8343"
       style="fill:none;stroke:#000000;stroke-width:0.26458333;stroke-miterlimit:10;stroke-dasharray:none" />
    <line
       class="st11"
       x1="14.187559"
       y1="22.518713"
       x2="13.222779"
       y2="25.244953"
       id="line8345"
       style="fill:none;stroke:#000000;stroke-width:0.26458333;stroke-miterlimit:10;stroke-dasharray:none" />
    <line
       class="st11"
       x1="12.048533"
       y1="25.098251"
       x2="12.866405"
       y2="25.098251"
       id="line8347"
       style="fill:none;stroke:#000000;stroke-width:0.26458333;stroke-miterlimit:10;stroke-dasharray:none" />
    <line
       class="st11"
       x1="10.014246"
       y1="25.098251"
       x2="11.041785"
       y2="25.098251"
       id="line8349"
       style="fill:none;stroke:#000000;stroke-width:0.26458333;stroke-miterlimit:10;stroke-dasharray:none" />
    <path
       class="st10"
       d="m 15.885088,17.017781 v 0 c 0.06041,-0.01647 0.102184,-0.0712 0.102184,-0.133763 v 0 c 0,-0.09865 -0.09729,-0.167694 -0.190446,-0.135135 l -0.0037,0.0013 c -0.08454,0.02962 -0.119055,0.130624 -0.07041,0.205743 v 0 c 0.03511,0.05354 0.100611,0.07846 0.162398,0.06179 z"
       id="path8351"
       style="stroke:#000000;stroke-width:0.26458333;stroke-miterlimit:10;stroke-dasharray:none" />
    <path
       class="st11"
       d="m 3.4035939,3.8331527 0.1096376,0.8329751 c 0.019606,0.1492573 0.086107,0.2885128 0.1898575,0.3977593 L 3.8919644,5.262765 C 4.0098382,5.3867204 4.1687079,5.4636035 4.339148,5.4787056 l 0.6023231,0.053546 C 5.1903626,5.5544208 5.4369012,5.468314 5.6179319,5.2959113 L 5.9433152,4.9860224 C 6.1251313,4.8130332 6.2279041,4.5731619 6.2279041,4.3221126 V 4.0010437 L 6.1690669,3.9775145 C 5.9444967,3.8876853 5.7815094,3.6891978 5.7369881,3.451487 L 5.7001111,3.2549621 C 5.6650043,3.0676536 5.5096669,2.9264377 5.3198094,2.9091789 L 4.5801944,2.8419024 C 4.3071787,2.817004 4.0582844,2.9988088 3.998661,3.2665293 L 3.9678691,3.4053924 C 3.9153089,3.6419281 3.712114,3.8149183 3.4702822,3.8292338 Z"
       id="path8353"
       style="fill:none;stroke:#000000;stroke-width:0.26458333;stroke-miterlimit:10;stroke-dasharray:none" />
    <path
       class="st11"
       d="M 2.2013017,14.382541 1.8590474,14.299575 C 1.5470017,14.223875 1.3457699,13.921044 1.3967653,13.604289 L 1.7197947,11.5955 c 0.022745,-0.141216 0.037269,-0.283804 0.043546,-0.426785 L 1.9076925,7.8883953 c 0.00922,-0.2114326 0.0408,-0.4214886 0.093752,-0.6264471 L 2.0514594,7.0687579 C 2.1448195,6.7076774 2.4148929,6.4185761 2.7687166,6.3005052 L 3.2168793,6.1510517 C 3.8168494,5.9509951 4.4568302,5.9015708 5.0805322,6.0070896 l 0.081983,0.013931 c 0.4815069,0.08139 0.8751453,0.4287471 1.015969,0.896131 l 1.0004721,3.3195464 0.2137863,0.778645 c 0.073945,0.269292 0.027654,0.557409 -0.1269004,0.790024 l -1.2424999,1.869537 c -0.1323892,0.19927 -0.4038375,0.248107 -0.5976172,0.107868 L 5.3051047,13.6955 C 5.0346385,13.499566 4.9740316,13.121813 5.1693815,12.850954 L 6.0045133,11.69338 C 6.1478861,11.494697 6.2081007,11.247963 6.1725996,11.005542 L 5.7526795,8.1396508"
       id="path8355"
       style="fill:none;stroke:#000000;stroke-width:0.26458333;stroke-miterlimit:10;stroke-dasharray:none" />
    <path
       class="st11"
       d="M 2.6486788,8.0276453 2.5088368,11.942455 2.0267414,13.79434 c -0.024898,0.09591 0.04746,0.189462 0.1465112,0.189462 v 0 h 4.3902355 l 0.1565133,-1.357629"
       id="path8357"
       style="fill:none;stroke:#000000;stroke-width:0.26458333;stroke-miterlimit:10;stroke-dasharray:none" />
    <path
       class="st11"
       d="m 2.1732526,14.165619 -0.2522262,2.874912 c -0.035499,0.405015 0.085514,0.808068 0.3381333,1.126587 l 1.3401744,1.689095"
       id="path8359"
       style="fill:none;stroke:#000000;stroke-width:0.26458333;stroke-miterlimit:10;stroke-dasharray:none" />
    <path
       class="st11"
       d="m 4.0469102,14.382541 -0.5668247,2.327116 c -0.050407,0.207312 -0.065707,0.421684 -0.045115,0.634096 l 0.1645554,1.687724 v 3.667289 c 0,0.223785 0.075314,0.440903 0.2135895,0.616639 l 0.7174515,0.911428 c 0.040992,0.05198 0.1239572,0.03236 0.1372947,-0.03256 l 0.798848,-3.895392 c 0.022937,-0.111799 0.040599,-0.22457 0.052761,-0.337936 l 0.238889,-2.2114 c 0.032954,-0.30577 0.1418054,-0.598595 0.3165592,-0.851803 l 0.093359,-0.135332 c 0.2033886,-0.294787 0.3183236,-0.641353 0.3312679,-0.999298 l 0.064138,-1.779315"
       id="path8361"
       style="fill:none;stroke:#000000;stroke-width:0.26458333;stroke-miterlimit:10;stroke-dasharray:none" />
    <path
       class="st10"
       d="m 3.4628239,4.056745 c 0,0 -0.3963816,-0.0559 -0.3914788,-0.3355841 0.00447,-0.2577185 0.072568,-0.9228034 0.4138395,-1.1185456 0.3412727,-0.1957394 0.5929103,-0.4754262 1.2081777,-0.3914797 0.6152673,0.083945 0.9787034,-0.028045 1.5939708,0.3355842 0.6152672,0.3636277 0,1.8644356 0,1.8644356 0,0 -0.1992712,-0.055899 -0.3634334,-0.4942551 C 5.7597373,3.4785461 5.8693777,3.2153354 5.3792384,3.1327639 4.8891017,3.0499961 4.8332033,3.0205749 4.3018825,3.0633346 3.7705589,3.1060961 3.8792162,3.9449511 3.8792162,3.9449511"
       id="path8363"
       style="stroke:#000000;stroke-width:0.26458333;stroke-miterlimit:10;stroke-dasharray:none" />
    <path
       class="st11"
       d="m 16.630391,2.6587099 -0.621545,1.4806066 c -0.103163,0.2457532 -0.07786,0.5268113 0.06786,0.7500104 l 0.409133,0.6274288 c 0.179268,0.2751734 0.482878,0.4438491 0.811207,0.451105 0.436786,0.0096 1.01224,0.015491 1.179148,-0.014698 0.279685,-0.050799 0.866908,-1.0854001 0.866908,-1.0854001 0,0 -0.335585,0.045307 -0.279686,-0.550543 0.0559,-0.5958518 0.111799,-1.0136125 0.111799,-1.0136125 H 18.89553 L 18.79707,3.6684119 C 18.7396,3.8810204 18.546804,4.028903 18.326351,4.028903 v 0 c -0.0918,0 -0.157299,-0.088652 -0.130429,-0.1765174 0.109054,-0.3553919 0.331661,-1.129333 0.22418,-1.193665 -0.139843,-0.083945 -1.78971,0 -1.78971,0 z"
       id="path8365"
       style="fill:none;stroke:#000000;stroke-width:0.26458333;stroke-miterlimit:10;stroke-dasharray:none" />
    <path
       class="st11"
       d="m 21.663744,8.2233874 1.004395,3.3477886 c 0.05433,0.181228 0.02098,0.377359 -0.09042,0.530342 l -1.55474,2.135296 c -0.191426,0.262818 -0.100612,0.634489 0.190444,0.779434 l 0.391677,0.195151 c 0.283804,0.141411 0.628801,0.03609 0.785316,-0.239676 l 1.48747,-2.6219 c 0.156906,-0.276548 0.187698,-0.607425 0.08433,-0.908094 L 22.388654,6.8600686 C 22.284311,6.5564539 22.044245,6.3189391 21.739455,6.21793 L 20.398295,5.7736887 C 19.950721,5.625413 19.458231,5.7189663 19.095974,6.0206206 l -1.75676,0.9751718 c -0.320089,0.1776959 -0.529363,0.5046494 -0.556623,0.8698473 l 0.196132,1.2876135 c -0.0083,0.112972 -0.01276,0.2263348 -0.01276,0.3397015 l -0.256737,6.7836393 c -0.01315,0.347155 0.231044,0.651162 0.572903,0.712944 l 0.188289,0.03413 c 0.379321,0.06865 0.729026,-0.220846 0.732555,-0.606246 l 0.0062,-0.671951 0.411093,-4.305896 c 0.01569,-0.163577 0.0062,-0.328525 -0.02825,-0.489352 L 18.207879,9.1530607"
       id="path8367"
       style="fill:none;stroke:#000000;stroke-width:0.26458333;stroke-miterlimit:10;stroke-dasharray:none" />
    <path
       class="st11"
       d="m 18.207887,15.885113 2.685447,0.369908 c 0.266153,0.03667 0.537208,-0.0011 0.783354,-0.108848 l 2.11235,-0.92555 v -0.838082 l -0.06825,-1.756368"
       id="path8369"
       style="fill:none;stroke:#000000;stroke-width:0.26458333;stroke-miterlimit:10;stroke-dasharray:none" />
    <path
       class="st11"
       d="m 20.628358,17.999227 -0.344996,4.378467 c -0.01235,0.155927 0.001,0.31303 0.03943,0.464638 l 0.305573,1.207002 v 1.583969 l -1.362536,-3.188532 c -0.04237,-0.09885 -0.0765,-0.201034 -0.10199,-0.305574 l -1.27604,-5.19124"
       id="path8371"
       style="fill:none;stroke:#000000;stroke-width:0.26458333;stroke-miterlimit:10;stroke-dasharray:none" />
    <path
       class="st11"
       d="m 23.789038,15.220617 v 0.922804 3.361518 c 0,0.177499 -0.02353,0.354216 -0.06982,0.525439 l -0.666459,2.462446 c -0.06767,0.23438 -0.0863,0.480133 -0.05473,0.722161 l 0.371671,2.849023"
       id="path8373"
       style="fill:none;stroke:#000000;stroke-width:0.26458333;stroke-miterlimit:10;stroke-dasharray:none" />
    <path
       class="st10"
       d="m 19.97406,4.5959139 c -3.81e-4,-0.00492 0,-0.010014 7.91e-4,-0.014917 0.166713,-0.9928238 0.221826,-1.7473465 -0.0013,-2.0946972 -0.207705,-0.3232256 -1.210727,-0.5391689 -1.353316,-0.5685891 -0.0104,-0.00219 -0.02098,-0.00164 -0.031,0.00137 -0.06649,0.020017 -0.378731,0.092967 -1.16032,-0.00474 -0.894757,-0.111795 -1.564159,-0.1676938 -1.606917,-0.4195276 -0.04296,-0.2516378 -0.119055,0.2237884 -0.164749,0.5313236 -0.0457,0.307536 0.543091,0.9365331 0.849059,0.9228033 0.262818,-0.011756 1.498649,-0.030792 1.841292,-0.035892 0.04373,-5.446e-4 0.07512,0.041384 0.06237,0.08316 l -0.182795,0.5978098 -0.154552,0.5460352 c -5.74e-4,0.00164 -0.0012,0.00374 -0.0017,0.00548 -0.0098,0.025308 -0.0812,0.2263349 0.131408,0.1737721 0.172402,-0.042561 0.260661,-0.083945 0.293219,-0.1012056 0.0094,-0.0051 0.01745,-0.012544 0.02334,-0.021568 l 0.148649,-0.2292853 c 0.0037,-0.00566 0.0065,-0.01178 0.008,-0.018247 l 0.08297,-0.3075361 c 0.0076,-0.028045 0.03315,-0.047661 0.06218,-0.047661 h 0.153179 c 0.04002,0 0.07041,0.035892 0.06335,0.075314 -0.02628,0.1498467 -0.0812,0.4977858 -0.08552,0.8086565 -0.0041,0.2920417 0.133173,0.5130813 0.212607,0.616249 0.01941,0.025117 0.01064,0.055699 -0.0047,0.083552 -0.0045,0.00821 0.05668,0.010195 0.338917,-0.019606 0.494646,-0.051976 0.480133,-0.5009216 0.475622,-0.5621152 z"
       id="path8375"
       style="stroke:#000000;stroke-width:0.26458333;stroke-miterlimit:10;stroke-dasharray:none" />
    <line
       class="st10"
       x1="10.114861"
       y1="1.1335787"
       x2="10.618336"
       y2="1.9875425"
       id="line8377"
       style="stroke:#000000;stroke-width:0.26458333;stroke-miterlimit:10;stroke-dasharray:none" />
    <line
       class="st10"
       x1="11.568008"
       y1="0.47751933"
       x2="11.568008"
       y2="1.9875425"
       id="line8379"
       style="stroke:#000000;stroke-width:0.26458333;stroke-miterlimit:10;stroke-dasharray:none" />
    <line
       class="st10"
       x1="13.222779"
       y1="1.2324334"
       x2="12.687535"
       y2="1.9875425"
       id="line8381"
       style="stroke:#000000;stroke-width:0.26458333;stroke-miterlimit:10;stroke-dasharray:none" />
  </g>
</svg>
