<?xml version="1.0" encoding="UTF-8"?>
<svg id="Layer_1" data-name="Layer 1" xmlns="http://www.w3.org/2000/svg" viewBox="0 0 83.85 73.09">
  <defs>
    <style>
      .cls-1 {
        fill: none;
        stroke: #231f20;
        stroke-miterlimit: 10;
        stroke-width: 1.5px;
      }
    </style>
  </defs>
  <path class="cls-1" d="m13.87,9.5c-1.88.3-4.91.45-7.48-1.29-.22-.15-.43-.31-.63-.47-.02,2.29-.04,4.58-.05,6.87.79,2.46.05,4.75-1.44,5.51-1.2.62-3.05.33-3.43-.53-.4-.9,1.18-1.64,1.82-3.75.67-2.22-.61-3.08-.59-6.21,0-1.6.02-4.08,1.58-5.46,2.36-2.1,7.6-1.11,9.45,1.87.75,1.22.77,2.48.78,3.45.04,3.32-1.58,5.74-2.33,6.72,0,0,0,0,0,0-.85-.04-1.93-.17-3.14-.52-1.09-.31-2-.72-2.7-1.09"/>
  <path class="cls-1" d="m1.7,20.53l-.94,37.41s5.84,1.14,9.87.22c4.03-.92,5.68-.02,5.68-.02-.05-1.18-.1-2.36-.16-3.55"/>
  <path class="cls-1" d="m5.65,16.7c1.23.38,2.94,1.12,4.27,2.68,1.83,2.15,1.83,4.56,2.25,10.07.17,2.25.45,5.58.91,9.69"/>
  <path class="cls-1" d="m4.54,21.74c-.01,5.05-.03,10.11-.04,15.16,0,1.06.03,2.23.74,3.02.72.81,1.9.96,2.95,1.26s2.19,1,2.2,2.08c0,.49-.21,1.04.09,1.42.18.22.48.3.76.35.76.14,1.54.2,2.31.18.25,0,.53-.04.68-.23.12-.15.13-.36.14-.56.02-.93.04-1.85.06-2.78,0-.33.01-.67-.11-.97-.32-.82-1.32-1.07-2.12-1.44-1.78-.83-2.88-2.71-3.31-4.63s-.3-3.91-.26-5.87-.03-3.99-.83-5.79"/>
  <path class="cls-1" d="m4.5,58.42v12.8h11.82c-.18-1.14-.35-2.27-.53-3.41-1.83-.54-3.65-1.08-5.48-1.62-.29-2.61-.57-5.22-.86-7.83"/>
  <path class="cls-1" d="m10.47,44.69l-2.68,1.15.75,3.16c3.59-1.26,7.18-2.52,10.78-3.79-.41-1.01-.83-2.01-1.24-3.02-1.23.39-2.46.79-3.69,1.18"/>
  <path class="cls-1" d="m20.14,47.07c.11.48.29,1.55-.29,2.47-.2.32-.44.52-.63.69-1.77,1.54-4.25,2.02-4.25,2.02-1.97.45-3.75.86-4.94-.15-.39-.33-.61-.72-.73-1l-.74-2.11c-.08.72-.17,2.43.75,4.28.72,1.45,1.72,2.32,2.29,2.75,3.22-1.29,6.43-2.58,9.65-3.87.22-.48.71-1.74.43-3.32-.39-2.2-2-3.38-2.34-3.62.27.62.54,1.24.82,1.86Z"/>
  <path class="cls-1" d="m35.63.84v9.85s6.96,1.61,7.71.86c.75-.75.54-6.43.54-6.43-.25-.68-.66-1.5-1.36-2.25-2.47-2.63-6.36-2.11-6.88-2.03Z"/>
  <path class="cls-1" d="m64.16,12.58s6.41,3.17,7.31,2.61,2-6.13,2-6.13c0,0-.15-5.43-7.56-6.19l-1.75,9.71Z"/>
  <path class="cls-1" d="m42.21,44.07c.84-5.55,1.68-11.1,2.52-16.66.02-2.38-.22-5.59-1.29-9.21-.7-2.39-1.6-4.4-2.45-6l-3.76-.8c-.92.84-2.17,2.15-3.21,4.01-2.09,3.71-1.86,7.12-1.93,11.89-.04,3.21-.22,7.82-.84,13.55"/>
  <path class="cls-1" d="m33.08,54.91c.01,5.44.02,10.87.04,16.31,4.79.02,9.57.05,14.36.07-.1-1.24-.2-2.48-.31-3.72-2.23-.74-4.46-1.49-6.69-2.23-.1-3.45-.2-6.9-.3-10.35"/>
  <rect class="cls-1" x="27.27" y="44.07" width="16.01" height="10.71" rx="2.55" ry="2.55"/>
  <path class="cls-1" d="m27.58,45.18c.36,1.61.72,3.22,1.08,4.83h13.07c.23-1.71.47-3.42.7-5.13"/>
  <rect class="cls-1" x="29.84" y="44.07" width="1.36" height="8.57"/>
  <rect class="cls-1" x="38.56" y="44.16" width="1.36" height="8.47"/>
  <path class="cls-1" d="m37.77,14.02c-1.39,2.6-2.94,6.18-3.86,10.59-1.14,5.47-.89,10.15-.43,13.38,0,1.84,0,3.69,0,5.53,2.15.02,4.29.04,6.44.06,1.55-.95,2.06-2.49,1.49-3.44-.4-.68-1.26-.91-1.57-.97.29-6.67.57-13.34.86-20.01"/>
  <path class="cls-1" d="m33.64,40.85h-5.3c.01,1.3.02,2.61.03,3.91"/>
  <path class="cls-1" d="m64.6,54.41c1.64,5.9,3.28,11.8,4.93,17.69,4.25-1.58,8.5-3.17,12.75-4.75-.7-.9-1.41-1.8-2.11-2.7-2.13-.09-3.58-.12-4.25-.06-.14.01-.52.05-.86-.17-.25-.16-.38-.41-.45-.6-.25-.64-1.45-4.58-3.02-9.99"/>
  <path class="cls-1" d="m72.87,33.98c-.96-5.76-1.91-11.52-2.87-17.28-.65-.71-1.3-1.42-1.95-2.14-.91-.25-2.35-.51-4.07-.22-.42.07-.89.16-1.15.28-1.06.46-2.39,1.74-3.47,8.65-.54,3.47-.6,6.22-.71,11.71-.03,1.25-.03,2.41,0,3.78.09,3.47.39,5.95.43,6.39.25,2.54-1.12,7.18-8.22,16.42-1.18,1.01-2.37,2.01-3.55,3.02l6.06,6.06c2.1.28,4.21.57,6.31.85.14-.83.29-1.67.43-2.5-.88-.57-1.89-1.31-2.93-2.29-1.09-1.02-1.93-2.02-2.57-2.9,1.3-.47,4.86-1.95,7.54-5.74,2.58-3.65,2.85-7.34,2.88-8.74"/>
  <path class="cls-1" d="m63.88,16.01c-.03,2.66.12,5.73.62,9.1.75,5.03,2.06,9.27,3.36,12.59l1.67,1.64c.13.26.37.8.34,1.52-.02.49-.16.88-.27,1.12.81-.03,2.14-.17,3.6-.85,1.2-.56,2.06-1.26,2.59-1.78,0-.4-.05-1.21-.52-2.07-.6-1.09-1.5-1.61-1.86-1.79-1.3-3.48-2.6-6.95-3.9-10.43"/>
  <rect class="cls-1" x="66.43" y="41.56" width="16.01" height="10.71" rx="2.55" ry="2.55" transform="translate(-12.06 30.76) rotate(-21.64)"/>
  <path class="cls-1" d="m65.78,45.75c.91,1.39,1.82,2.77,2.73,4.16,4.05-1.61,8.1-3.21,12.15-4.82-.43-1.78-.86-3.56-1.29-5.34"/>
  <rect class="cls-1" x="68.94" y="43.39" width="1.36" height="8.57" transform="translate(-12.68 29.04) rotate(-21.64)"/>
  <rect class="cls-1" x="77.07" y="40.27" width="1.36" height="8.47" transform="translate(-10.93 31.81) rotate(-21.64)"/>
  <path class="cls-1" d="m66.23,44.89c-.47-1.13-.93-2.25-1.4-3.38,1.64-.65,3.29-1.3,4.93-1.96"/>
  <path d="m42.92,13.22l1.34-.21c.43,1.24.83,2.64,1.14,4.2.57,2.86.68,5.42.62,7.5-.33-2.11-.82-4.46-1.55-6.96-.48-1.63-1-3.14-1.54-4.53Z"/>
  <path d="m70.94,16.63l1.35-.08c.31,1.27.57,2.71.73,4.29.3,2.9.16,5.46-.11,7.52-.13-2.13-.39-4.51-.88-7.08-.32-1.67-.69-3.22-1.1-4.65Z"/>
</svg>