<?xml version="1.0" encoding="UTF-8" standalone="no"?>
<!-- Created with Inkscape (http://www.inkscape.org/) -->

<svg
   width="100"
   height="100"
   viewBox="0 0 26.458331 26.458335"
   version="1.1"
   id="svg5"
   inkscape:version="1.1.1 (3bf5ae0d25, 2021-09-20)"
   sodipodi:docname="picto.svg"
   inkscape:export-filename="C:\Users\franc\OneDrive\Escritorio\trabajo janis2.png"
   inkscape:export-xdpi="96"
   inkscape:export-ydpi="96"
   xmlns:inkscape="http://www.inkscape.org/namespaces/inkscape"
   xmlns:sodipodi="http://sodipodi.sourceforge.net/DTD/sodipodi-0.dtd"
   xmlns="http://www.w3.org/2000/svg"
   xmlns:svg="http://www.w3.org/2000/svg">
  <sodipodi:namedview
     id="namedview7"
     pagecolor="#ffffff"
     bordercolor="#666666"
     borderopacity="1.0"
     inkscape:pageshadow="2"
     inkscape:pageopacity="0.0"
     inkscape:pagecheckerboard="0"
     inkscape:document-units="mm"
     showgrid="false"
     units="px"
     inkscape:zoom="5.5731762"
     inkscape:cx="114.83577"
     inkscape:cy="58.045895"
     inkscape:window-width="1920"
     inkscape:window-height="1001"
     inkscape:window-x="-9"
     inkscape:window-y="-9"
     inkscape:window-maximized="1"
     inkscape:current-layer="layer2" />
  <defs
     id="defs2">
    <clipPath
       clipPathUnits="userSpaceOnUse"
       id="clipPath998">
      <path
         d="M 0,1080 H 1080 V 0 H 0 Z"
         id="path996" />
    </clipPath>
    <clipPath
       clipPathUnits="userSpaceOnUse"
       id="clipPath1056">
      <path
         d="M 0,1080 H 1080 V 0 H 0 Z"
         id="path1054" />
    </clipPath>
  </defs>
  <g
     inkscape:label="Capa 1"
     inkscape:groupmode="layer"
     id="layer1" />
  <g
     inkscape:groupmode="layer"
     id="layer2"
     inkscape:label="Capa 2">
    <g
       id="g29076"
       transform="matrix(0.134581,0,0,0.134581,-6.0644404,-5.6047158)"
       style="stroke-width:1.96597836;stroke-miterlimit:4;stroke-dasharray:none">
      <path
         style="fill:#ffffff;stroke:#000000;stroke-width:1.96597836;stroke-linecap:round;stroke-linejoin:round;stroke-miterlimit:4;stroke-dasharray:none;stroke-opacity:1"
         d="m 159.27642,183.00323 6.87804,3.9691 0.26658,27.98639 13.77032,2.89261 0.89323,-4.23099 -4.83958,-2.51649 0.10666,-28.06023 -5.48793,-2.38176"
         id="path3129"
         sodipodi:nodetypes="cccccccc" />
      <path
         style="fill:#ffffff;stroke:#000000;stroke-width:1.96597836;stroke-linecap:round;stroke-linejoin:round;stroke-miterlimit:4;stroke-dasharray:none;stroke-opacity:1"
         d="m 143.1924,186.77362 -1.91954,42.70278 13.66369,0.0667 -0.0135,-3.43118 -4.74698,-0.0962 3.3124,-41.35794"
         id="path3129-3"
         sodipodi:nodetypes="cccccc" />
      <path
         style="fill:#000000;stroke:#000000;stroke-width:1.96597836;stroke-linecap:round;stroke-linejoin:round;stroke-miterlimit:4;stroke-dasharray:none;stroke-opacity:1"
         d="m 122.01941,162.80803 -5.57814,63.98208 13.66369,0.0667 -0.0135,-3.43117 -4.74697,-0.0962 6.97098,-62.63726"
         id="path3129-3-4-6"
         sodipodi:nodetypes="cccccc" />
      <circle
         style="fill:#ffffff;stroke:#000000;stroke-width:1.96597836;stroke-linecap:round;stroke-linejoin:round;stroke-miterlimit:4;stroke-dasharray:none"
         id="path6029"
         cx="188.38318"
         cy="66.802353"
         r="8.2192707" />
      <path
         style="fill:#ffffff;stroke:#000000;stroke-width:1.96597836;stroke-linecap:butt;stroke-linejoin:miter;stroke-miterlimit:4;stroke-dasharray:none;stroke-opacity:1"
         d="m 162.48116,133.3483 c 0,0 2.61574,1.37904 3.99653,1.20647 1.49923,-0.18734 3.32386,-0.93413 3.88345,-2.33758 0.94179,-2.3621 1.01262,-5.81055 -2.036,-7.35209 -5.98194,-3.02479 -5.80627,-7.16362 -5.80627,-7.16362 0,0 19.68713,-10.60146 22.094,-13.64848 1.39776,-1.76952 5.58007,-26.090525 5.58007,-26.090525 l 2.56381,-8.143871 h -8.82252 l -2.5638,7.238984 c 0,0 -1.21788,18.451681 -2.41301,20.284249 -1.92214,2.947363 -10.5017,7.089643 -17.62674,11.646013 -3.42197,2.18832 -8.57535,2.24371 -11.48761,6.04858 -5.35728,6.99933 -1.971,15.06612 -4.5922,26.04099 -1.59906,6.69517 -6.90955,12.10254 -8.5963,18.77613 -4.18494,16.55776 2.41299,27.52324 2.71462,27.52324 0.30163,0 36.34577,-7.84222 36.34577,-7.84222 0,0 -11.03693,-8.03568 -14.10096,-13.87475 -2.44239,-4.65444 -2.71462,-15.53365 -2.71462,-15.53365"
         id="path870"
         sodipodi:nodetypes="caascsccccsssssscac" />
      <path
         style="fill:#ffffff;stroke:#000000;stroke-width:1.96597836;stroke-linecap:butt;stroke-linejoin:miter;stroke-miterlimit:4;stroke-dasharray:none;stroke-opacity:1"
         d="m 159.21549,121.42366 c 0,0 2.96768,19.70703 4.69216,21.11482 1.38109,1.12744 11.3836,5.20554 17.48904,6.18514 1.61488,0.25911 4.90545,-0.10665 4.90545,-0.10665 l -0.5332,6.50506 c 0,0 -4.01387,0.93375 -5.97187,0.53323 -2.62811,-0.53761 -20.89769,-5.52905 -23.03431,-6.71836 -1.62889,-0.90668 -6.0785,-26.76675 -6.0785,-26.76675"
         id="path5088"
         sodipodi:nodetypes="csaccssc" />
      <path
         style="fill:none;stroke:#000000;stroke-width:1.96597836;stroke-linecap:butt;stroke-linejoin:miter;stroke-miterlimit:4;stroke-dasharray:none;stroke-opacity:1"
         d="M 188.53401,58.432282 V 44.783758"
         id="path6144" />
      <circle
         style="fill:#ffffff;stroke:#000000;stroke-width:1.96597836;stroke-linecap:round;stroke-linejoin:round;stroke-miterlimit:4;stroke-dasharray:none"
         id="path6029-6"
         cx="133.28879"
         cy="67.199203"
         r="8.2192707" />
      <path
         style="fill:none;stroke:#000000;stroke-width:1.96597836;stroke-linecap:butt;stroke-linejoin:miter;stroke-miterlimit:4;stroke-dasharray:none;stroke-opacity:1"
         d="M 133.43973,58.829128 V 45.180605"
         id="path6144-7" />
      <path
         style="fill:#ffffff;stroke:#000000;stroke-width:1.96597836;stroke-linecap:butt;stroke-linejoin:miter;stroke-miterlimit:4;stroke-dasharray:none;stroke-opacity:1"
         d="m 121.23971,113.85957 c 2.37227,-2.30575 7.52548,-7.37902 9.35367,-9.69344 1.39778,-1.76952 5.58008,-26.090534 5.58008,-26.090534 l 2.56381,-8.143869 h -8.82253 l -2.5638,7.238983 c 0,0 -1.21789,18.45168 -2.41301,20.284247 -1.92213,2.947363 -1.62891,4.298133 -7.33436,8.689093 -3.53795,2.72286 -7.35056,2.42798 -10.2628,6.23284 -5.35729,6.99933 -2.55283,12.84499 2.02392,25.40115 2.74906,7.71478 0.82403,19.30751 0.20598,23.62894 -1.7302,12.09822 22.74483,-0.71474 22.74483,-0.71474 0,0 0.4782,-12.05656 -2.46626,-24.03673 -2.76307,-11.24222 -8.97306,-22.44262 -8.60955,-22.79594 z"
         id="path870-3"
         sodipodi:nodetypes="ssccccssscscss" />
      <path
         style="fill:#ffffff;stroke:#000000;stroke-width:1.96597836;stroke-linecap:butt;stroke-linejoin:miter;stroke-miterlimit:4;stroke-dasharray:none;stroke-opacity:1"
         d="m 114.15011,116.78239 c 0,0 -19.503361,20.91352 -17.778876,22.3213 1.3811,1.12746 8.763316,5.49452 13.718736,6.5622 1.59885,0.34448 4.90546,-0.10665 4.90546,-0.10665 l -0.53321,6.50506 c 0,0 -4.01386,0.93376 -5.97187,0.53322 -2.6281,-0.5376 -21.329248,-9.97847 -20.998335,-12.90165 0.320707,-2.83297 18.854265,-25.75565 18.854265,-25.75565"
         id="path5088-9"
         sodipodi:nodetypes="csaccssc" />
      <path
         style="fill:#000000;stroke:#000000;stroke-width:1.96597836;stroke-linecap:butt;stroke-linejoin:miter;stroke-miterlimit:4;stroke-dasharray:none;stroke-opacity:1"
         d="m 132.27783,161.31469 c 1.52359,0.3251 3.41166,1.97404 3.58954,5.51391 0.0997,1.9865 -1.81076,3.58756 -3.54411,4.03426 -1.61684,0.41666 -4.71288,-1.69665 -4.71288,-1.69665"
         id="path11581"
         sodipodi:nodetypes="csac" />
      <path
         style="fill:none;stroke:#ffffff;stroke-width:1.96597836;stroke-linecap:butt;stroke-linejoin:miter;stroke-miterlimit:4;stroke-dasharray:none;stroke-opacity:1"
         d="m 134.95086,160.64707 c 0.83043,1.07159 2.45189,2.10734 2.62977,5.64722 0.0998,1.98648 -0.8991,3.40015 -1.99782,4.70076 -0.6523,0.77219 -2.55341,1.63587 -2.55341,1.63587"
         id="path11581-1"
         sodipodi:nodetypes="csac" />
      <path
         style="fill:#000000;stroke:#000000;stroke-width:1.96597836;stroke-linecap:round;stroke-linejoin:round;stroke-miterlimit:4;stroke-dasharray:none;stroke-opacity:1"
         d="m 116.66106,166.44672 -2.51391,30.32944 -8.6052,29.86755 13.66368,0.0667 -0.0135,-3.43118 -4.74699,-0.0962 9.24427,-25.8959 4.92663,-34.31359"
         id="path3129-3-4"
         sodipodi:nodetypes="cccccccc" />
      <path
         style="fill:#000000;stroke:#000000;stroke-width:1.96597836;stroke-linecap:butt;stroke-linejoin:miter;stroke-miterlimit:4;stroke-dasharray:none;stroke-opacity:1"
         d="m 131.529,117.57736 c 0,0 3.81217,-6.41091 3.55453,-9.81731 -0.42237,-5.58482 -0.81939,-11.217481 3.75073,-13.033476 3.14328,-1.249036 3.83679,2.666933 5.39883,1.622323 1.37777,-0.921393 3.94441,-3.452026 6.30924,-4.483604 2.56837,-1.12032 5.47922,-2.241098 8.23056,-1.70981 1.93987,0.374362 4.2292,2.164733 4.93722,3.279221 2.94735,4.639463 2.59455,13.076476 0.87633,15.832696 -1.56632,2.51272 -12.66152,4.9212 -14.6292,4.53769 -2.36568,-0.46122 -1.7075,-7.29815 -3.77155,-10.32588 -1.31694,-1.93181 -3.08195,-5.514683 -5.25323,-4.647573 -3.65056,1.457873 -0.69681,7.287533 -1.01983,11.748603 -0.49631,6.85334 -8.38361,6.99714 -8.38361,6.99714 z"
         id="path14789"
         sodipodi:nodetypes="csssaasssaascc" />
      <path
         style="fill:#ffffff;stroke:#000000;stroke-width:1.96597836;stroke-linecap:butt;stroke-linejoin:miter;stroke-miterlimit:4;stroke-dasharray:none;stroke-opacity:1"
         d="m 163.7545,93.525469 c 2.94736,4.639388 2.41892,12.951291 0.70113,15.707551 -1.56635,2.51272 -12.66152,4.92117 -14.6292,4.53759 -1.5811,-0.30803 -1.40975,-3.75845 -2.0989,-6.70056 -0.36578,-1.56153 -0.2208,-1.17818 -0.72561,-2.57507 -0.18217,-0.50033 7.65257,-11.227875 16.75309,-10.96953 z"
         id="path14789-5"
         sodipodi:nodetypes="csssscc" />
      <path
         style="fill:#ffffff;stroke:#000000;stroke-width:1.96597836;stroke-linecap:butt;stroke-linejoin:miter;stroke-miterlimit:4;stroke-dasharray:none;stroke-opacity:1"
         d="m 102.83636,107.59703 c 0,0 3.9336,-17.695195 5.92908,-19.048039 2.33039,-1.579958 15.63905,0.783615 16.43687,4.53533 0.42621,2.003975 -1.81203,15.757429 -4.74038,17.451259 -2.56855,1.48568 -17.62553,-2.93853 -17.62553,-2.93853 z"
         id="path20571-6"
         sodipodi:nodetypes="csssc" />
      <path
         style="fill:#000000;stroke:#000000;stroke-width:1.96597836;stroke-linecap:butt;stroke-linejoin:miter;stroke-miterlimit:4;stroke-dasharray:none;stroke-opacity:1"
         d="m 156.52166,85.864319 h 1.14403 l 0.37477,-16.790115 h -1.99218 z"
         id="path22157"
         sodipodi:nodetypes="ccccc" />
      <path
         style="fill:#000000;stroke:#000000;stroke-width:1.96597836;stroke-linecap:butt;stroke-linejoin:miter;stroke-miterlimit:4;stroke-dasharray:none;stroke-opacity:1"
         d="m 160.37745,87.061314 1.10503,0.296081 4.70761,-16.120991 -1.9243,-0.515613 z"
         id="path22157-6"
         sodipodi:nodetypes="ccccc" />
      <path
         style="fill:#000000;stroke:#000000;stroke-width:1.96597836;stroke-linecap:butt;stroke-linejoin:miter;stroke-miterlimit:4;stroke-dasharray:none;stroke-opacity:1"
         d="m 153.70219,87.1643 -1.10503,0.296082 -4.70759,-16.120992 1.92427,-0.515604 z"
         id="path22157-6-3"
         sodipodi:nodetypes="ccccc" />
    </g>
  </g>
</svg>
