<?xml version="1.0" encoding="utf-8"?>
<!-- Generator: Adobe Illustrator 27.5.0, SVG Export Plug-In . SVG Version: 6.00 Build 0)  -->
<svg version="1.1" id="Capa_1" xmlns="http://www.w3.org/2000/svg" xmlns:xlink="http://www.w3.org/1999/xlink" x="0px" y="0px"
	 viewBox="0 0 16 16" style="enable-background:new 0 0 16 16;" xml:space="preserve">
<style type="text/css">
	.st0{fill:none;stroke:#000000;stroke-width:0.2292;stroke-linecap:round;stroke-linejoin:round;stroke-miterlimit:10;}
	.st1{fill:none;stroke:#000000;stroke-width:0.2292;stroke-miterlimit:10;}
</style>
<g>
	<path class="st0" d="M5.07,7.96l0.18-2.6l0.75-0.82c0.29-0.31,0.53-0.65,0.74-1.02v0V1.9c0-0.26-0.09-0.5-0.25-0.7L6.25,0.88H5.69
		L5.5,1.65l0.52,0.22L5.74,3.33L4.36,4.1H3.21c-0.45,0-0.89,0.07-1.32,0.2l0,0C1.66,4.38,1.45,4.53,1.31,4.74l0,0
		C1.17,4.93,1.1,5.16,1.1,5.4v0.71c0,0.27,0.07,0.53,0.2,0.76l0,0c0.14,0.25,0.34,0.45,0.58,0.6l1.29,0.75L3.66,8.1l0.15-0.46
		L2.15,6.53v-1.1"/>
	<path class="st1" d="M2.64,1.3l1.29-0.1C4.12,1.19,4.3,1.26,4.43,1.41l0,0C4.6,1.61,4.69,1.86,4.68,2.12l-0.02,0.5
		C4.64,2.91,4.49,3.18,4.26,3.35l0,0c-0.15,0.11-0.32,0.16-0.5,0.16c-0.4,0-1.11,0.01-1.12,0V1.3z"/>
	<g>
		<g>
			<path class="st1" d="M14.31,7.6l-0.83-0.06c-0.12-0.01-0.25,0.04-0.33,0.13v0c-0.11,0.13-0.17,0.29-0.16,0.45l0.02,0.32
				c0.01,0.19,0.1,0.36,0.25,0.47l0,0c0.09,0.07,0.21,0.1,0.32,0.11c0.26,0,0.71,0,0.72,0L14.31,7.6z"/>
			<path class="st0" d="M13.56,14.97l0.79,0.02l0-2.24l-0.5,0.41c-0.06,0.05-0.11,0.1-0.15,0.16l0,0c-0.08,0.12-0.12,0.26-0.13,0.4
				L13.56,14.97l-1.19,0l-0.16-0.31l0.47-0.4l0.02-1.18c0-0.17,0.04-0.35,0.11-0.5l0,0c0.07-0.16-0.1-0.72-0.1-0.9
				c0.01-0.52,0.25-1.7,0.4-2.25l0.74-0.01c0.15,0,0.3,0.06,0.42,0.16h0c0.1,0.09,0.18,0.21,0.2,0.35l0.3,1.43l-0.56,0.72
				c-0.18,0.23-0.44,0.4-0.72,0.47h0l-0.28-0.2l0.03-0.38l0.56-0.56l0.03-0.72"/>
		</g>
		<line class="st0" x1="14.76" y1="11.39" x2="14.35" y2="12.75"/>
	</g>
	<path class="st0" d="M9.07,10.68l0.92,0.25c0.3,0.08,0.61,0.06,0.89-0.07l0,0l1.25-0.53l0.74-0.33l0.24-0.58l-0.98,0.19L11.02,9.9
		c-0.16,0.04-0.32,0.05-0.48,0.04l0,0c-0.09-0.01-0.19-0.03-0.27-0.06L9.3,9.59C9.15,9.54,8.99,9.53,8.83,9.55l0,0
		C8.55,9.59,8.3,9.74,8.14,9.96v0c-0.38,0.51-0.64,1.1-0.74,1.72l0,0.01C7.3,12.2,7.3,12.72,7.38,13.22l0,0l0,0
		c0.32,0.28,0.71,0.47,1.13,0.54l1.01,0.16"/>
	<path class="st0" d="M9.01,12.41l0.2,0.08c0.5,0.19,0.95,0.47,1.35,0.83l0.13,0.12l0.14,0.26c0.11,0.21,0.13,0.46,0.04,0.67l0,0
		c-0.07,0.16-0.19,0.29-0.34,0.38l0,0c-0.37,0.2-0.8,0.28-1.21,0.21l-0.61-0.1c-0.32-0.06-0.64-0.13-0.96-0.22h0l-0.31,0.37
		l-0.37-0.07l0.53-1.47"/>
	<line class="st0" x1="9.84" y1="10.93" x2="9.39" y2="12.55"/>
	<path class="st0" d="M9.88,7.61l0.91,0.31c0.14,0.05,0.25,0.16,0.29,0.29l0,0c0.06,0.18,0.05,0.38-0.04,0.56l-0.16,0.34
		c-0.09,0.2-0.27,0.34-0.49,0.39h0c-0.13,0.03-0.27,0.02-0.39-0.03C9.73,9.35,9.24,9.15,9.24,9.14L9.88,7.61z"/>
	<polyline class="st0" points="12.5,2.64 10.72,4.42 8.29,4.83 8.49,5.94 7.06,6.82 7.82,9.27 5.86,8.69 5.6,10.63 3.46,10.63 
		4.83,12.99 2.64,11.94 1.05,13.53 	"/>
</g>
</svg>
