<?xml version="1.0" encoding="utf-8"?>
<!-- Generator: Adobe Illustrator 27.1.1, SVG Export Plug-In . SVG Version: 6.00 Build 0)  -->
<svg version="1.1" id="Layer_1" xmlns="http://www.w3.org/2000/svg" xmlns:xlink="http://www.w3.org/1999/xlink" x="0px" y="0px"
	 viewBox="0 0 100 100" style="enable-background:new 0 0 100 100;" xml:space="preserve">
<style type="text/css">
	.st0{fill:none;stroke:#000000;stroke-miterlimit:10;}
	.st1{stroke:#000000;stroke-miterlimit:10;}
	.st2{stroke:#000000;stroke-linecap:round;stroke-linejoin:round;stroke-miterlimit:10;}
	.st3{fill:none;stroke:#FFFFFF;stroke-miterlimit:10;}
	.st4{fill:#FFFFFF;stroke:#010101;stroke-miterlimit:10;}
</style>
<path class="st0" d="M30.73,31.3c-2.75,2.76-4.58,5.83-6.24,9c-2,3.82-3.61,7.81-5.08,11.86c-0.24,0.65-0.45,1.33-0.77,1.94
	c-0.81,1.53-2.63,2.13-4.25,1.47c-1.48-0.61-2.46-2.37-1.94-3.89c2.81-8.13,6-16.08,11.43-22.89c1.85-2.32,3.99-4.33,6.74-5.58
	c2.63-1.2,5.3-1.34,8-0.21c4.5,1.88,8.99,3.75,13.49,5.63c1.36,0.57,2.69,1.2,3.07,2.84c0.07,0.31,0.14,0.63,0.11,0.93
	c-0.85,8.64,0.63,17.01,2.87,25.29c0.37,1.37,0.82,2.72,1.2,4.1c0.17,0.63,0.54,1.01,1.12,1.31c1.82,0.95,3.63,1.94,5.42,2.94
	c1.11,0.61,1.17,0.92,0.56,2.05c-0.61,1.11-1.2,2.23-1.81,3.34c-0.55,1-0.93,1.11-1.9,0.59c-2.37-1.28-4.73-2.56-7.1-3.84
	c-0.43-0.23-0.82-0.48-0.85-1.04c0-0.09-0.03-0.21-0.09-0.26c-2.31-2.22-2.41-5.36-3.26-8.15c-1.23-4.02-1.98-8.16-2.56-12.34
	c-0.33,0.01-0.33,0.28-0.4,0.46c-1.36,3.24-2.69,6.49-4.07,9.71c-0.26,0.61-0.23,1.1,0.04,1.7c1.96,4.36,3.86,8.74,5.82,13.1
	c0.96,2.15,0.74,4.11-0.69,5.96c-3.84,4.95-7.67,9.92-11.52,14.86c-1.94,2.5-5.05,2.93-7.47,1.08c-2.29-1.75-2.69-4.91-0.84-7.36
	c3.02-3.99,6.09-7.93,9.18-11.87c0.52-0.66,0.6-1.18,0.24-1.95c-1.95-4.29-3.84-8.61-5.75-12.92c-0.12-0.26-0.23-0.52-0.36-0.77
	c-0.35-0.67-1.04-0.88-1.67-0.94c-0.58-0.06-0.6,0.65-0.77,1.05c-4.5,10.74-8.97,21.49-13.46,32.23c-1.21,2.9-3.84,4.23-6.55,3.34
	c-2.91-0.96-4.33-4.07-3.12-7c2.11-5.12,4.26-10.22,6.4-15.33c5.51-13.19,11.03-26.39,16.54-39.58
	C30.52,31.94,30.58,31.74,30.73,31.3z M57.49,67.5c0.01,0.37,0.3,0.46,0.54,0.59c1.28,0.69,2.58,1.35,3.83,2.09
	c0.57,0.33,0.84,0.18,1.1-0.34c0.43-0.85,0.87-1.69,1.36-2.5c0.31-0.51,0.19-0.76-0.32-1.02c-1.07-0.54-2.12-1.13-3.18-1.7
	c-1.44-0.77-1.22-1.07-2.11,0.62C58.31,66,57.9,66.75,57.49,67.5z"/>
<path class="st0" d="M83.21,31.4c0.04-0.91-0.18-1.83-0.02-2.74c0.39-2.2-0.22-3.78-2.19-4.07c-1.86-0.27-3.37,1.11-3.63,3.27
	c-0.57,4.71,0.02,9.27,1.67,13.7c0.77,2.05,1.65,4.52,2.99,6.25c2.28,2.97,3.74,5.92,5.41,9.22c0.54,1.07,1.04,2.17,1.6,3.23
	c0.3,0.57,0.16,0.85-0.43,1.04c-3.58,1.17-7.15,2.36-10.72,3.55c-0.5,0.17-0.99,0.11-1.49-0.02c-3.65-1.02-7.3-2.05-10.97-3.02
	c-0.88-0.23-1.01-0.56-0.64-1.38c2.32-5.2,4.63-10.4,6.86-15.64c1.24-2.9,1.96-5.94,1.8-9.14c-0.09-1.84,0.13-3.61-0.11-5.42
	c-0.44-3.34,0.24-5.89,2.92-7.7c2.26-1.53,4.75-1.48,7.1-0.14c1.92,1.09,2.98,2.99,3.94,4.89c1.26,2.49,1.77,4.53,1.08,7.3
	c-0.37,1.47-1.14,2.81-2.51,3.56c-0.71,0.39-1.14,0.76-1.38-0.11C83.87,35.81,83.11,33.68,83.21,31.4z"/>
<path class="st0" d="M82.02,77.09c0,4.15,0.02,8.29-0.01,12.44c-0.01,1.8-0.87,3.17-2.54,3.9c-1.6,0.7-3.11,0.39-4.43-0.71
	c-1.01-0.84-1.45-2-1.45-3.28c-0.02-8.13-0.01-16.27-0.02-24.4c0-0.63,0.17-1.07,0.86-0.75c2.1,0.97,4.11,0.59,6.11-0.3
	c0.2-0.09,0.43-0.13,0.63-0.21c0.62-0.27,0.86-0.07,0.86,0.61c-0.02,1.93-0.01,3.86-0.01,5.79C82.02,72.47,82.02,74.78,82.02,77.09z
	"/>
<path class="st0" d="M77.17,31.29c0.07-1.39,0.01-2.68,0.27-4.16c0.31-1.74,1.9-2.85,3.47-2.66c1.64,0.2,2.63,1.6,2.42,3.4
	c-0.83,7.14,3.13,17.38,7.69,22.08c0.34,0.35,0.7,0.68,1.03,1.04c1.15,1.26,1.17,2.91,0.06,4.04c-1.11,1.14-2.76,1.16-4.03-0.02
	c-4.02-3.75-7.18-8.18-9-13.38C77.91,38.29,77.09,34.85,77.17,31.29z"/>
<path class="st0" d="M43.99,13.07c2.28-5.69,7.22-6.94,11.63-3.02c2.61,2.32,3.09,4.89,1.27,7.9c-1.24,2.05-1.96,4.38-3.55,6.23
	c-1.81,2.12-4.4,2.53-7.52,1.09c-3.23-1.5-4.45-3.54-3.82-6.48c0.19-0.9,0.37-1.81,0.68-2.68C43.04,15.07,43.55,14.08,43.99,13.07z"
	/>
<path class="st0" d="M76.28,11.27c0.58-5.02,4.8-6.98,9.93-4.68c3.04,1.36,4.18,3.34,3.3,6.11c-0.59,1.89-0.64,3.9-1.6,5.71
	c-1.1,2.05-3.39,2.89-6.66,2.33c-3.39-0.58-5.07-1.99-5.28-4.48c-0.06-0.76-0.15-1.53-0.09-2.29
	C75.95,13.06,76.14,12.17,76.28,11.27z"/>
<rect x="59.01" y="64.93" transform="matrix(0.8831 0.4691 -0.4691 0.8831 37.8986 -21.9093)" class="st0" width="7.83" height="0.36"/>
<rect x="55.84" y="69.39" transform="matrix(0.8831 0.4691 -0.4691 0.8831 39.7057 -20.0566)" class="st0" width="8.53" height="0.56"/>
<rect x="61.94" y="68.43" transform="matrix(-0.5 0.866 -0.866 -0.5 156.6731 47.8889)" class="st1" width="5.13" height="1.49"/>
<rect x="54.17" y="64.5" transform="matrix(-0.5 0.866 -0.866 -0.5 142.3979 48.2682)" class="st2" width="6.19" height="1.49"/>
<circle class="st3" cx="57.54" cy="65.05" r="0.06"/>
<path class="st4" d="M62.07,20.41c1.23,0.16,2.23-0.27,3.03-1.22c1.24-1.47,1.85-3.23,2.38-5.03c0.52-1.76,1.17-3.46,2.28-4.95
	c1.29-1.73,3-2.71,5.14-2.95c0.87-0.1,0.91,0.21,0.96,1.07c0.13,2.37-1.59,3.92-2.28,5.91c-0.69,2-1.35,4.04-2.47,5.86
	c-1.83,2.98-5.47,4.34-8.34,3.14c-0.43-0.18-0.84-0.42-1.2-0.7c-0.32-0.25-0.76-0.56-0.53-1.04C61.28,20.02,61.71,20.34,62.07,20.41
	z"/>
</svg>
