<?xml version="1.0" encoding="utf-8"?>
<!-- Generator: Adobe Illustrator 27.5.0, SVG Export Plug-In . SVG Version: 6.00 Build 0)  -->
<svg version="1.1" id="Capa_1" xmlns="http://www.w3.org/2000/svg" xmlns:xlink="http://www.w3.org/1999/xlink" x="0px" y="0px"
	 viewBox="0 0 16 16" style="enable-background:new 0 0 16 16;" xml:space="preserve">
<style type="text/css">
	.st0{fill:none;stroke:#000000;stroke-width:0.25;stroke-linecap:round;stroke-linejoin:round;stroke-miterlimit:10;}
	.st1{fill:#FFFFFF;stroke:#000000;stroke-width:0.25;stroke-linecap:round;stroke-linejoin:round;stroke-miterlimit:10;}
	.st2{stroke:#000000;stroke-width:0.25;stroke-linecap:round;stroke-linejoin:round;stroke-miterlimit:10;}
</style>
<g>
	<path class="st0" d="M4.21,2.91l2.51-0.19C7.09,2.7,7.46,2.85,7.71,3.13l0,0C8.04,3.51,8.21,4,8.19,4.51L8.14,5.48
		C8.11,6.05,7.83,6.57,7.37,6.9l0,0C7.09,7.11,6.75,7.22,6.4,7.22c-0.79,0-2.16,0.01-2.19,0V2.91z"/>
	<polyline class="st1" points="8.79,10.53 8.61,13.45 2.58,13.45 	"/>
	<path class="st1" d="M7.28,10.1l0,1.21l-1.05,2.15H4.71l0.72-3.35c0,0,0.5-1.57,1.59-1.54c0.52,0.01,5.57,0.01,6.08,0
		c1.09-0.03,1.59,1.54,1.59,1.54l0.39,3.35h-1.68l-0.62-2.79l-0.33,0.35l0.33,2.44H7.61"/>
	<path class="st1" d="M12.31,7.53l-0.34,0.32C11.69,8.06,11.35,8.17,11,8.17c-0.79,0-2.16,0.01-2.19,0.01v-4.3l2.51-0.21
		c0.38-0.03,0.74,0.12,0.99,0.41l0,0c0.2,0.23,0.28,0.96,0.35,1.25"/>
	<path class="st0" d="M3.43,9.73l-0.04,1.12l-0.82,2.6H0.69l0.72-4.44c0.06-0.17,0.28-0.79,0.94-1.19C2.88,7.5,3.4,7.51,3.6,7.52
		c1.74,0,3.48,0,5.21,0"/>
	<line class="st0" x1="7.91" y1="6.29" x2="8.79" y2="5.98"/>
	<path class="st0" d="M12.73,5.35l1.46,0.21c0.06,0.05,0.44,0.35,0.45,0.84c0.01,0.5-0.36,0.97-0.92,1.13h-3.53L8.8,7.24V6.65
		c0.01-0.43,0.35-0.78,0.78-0.79l0.96-0.03c0,0,0.48,0.23,0.6,0.66c0.13,0.46-0.44,0.74-0.96,1.05"/>
	<line class="st1" x1="10.55" y1="5.83" x2="12.73" y2="5.35"/>
	<path class="st2" d="M7.36,2.86C7.18,3.31,6.85,3.98,6.22,4.65c-0.75,0.8-1.56,1.2-2.04,1.39c0-1.04,0-2.08,0-3.12
		C4.19,2.91,7.05,2.56,7.36,2.86z"/>
	<circle class="st2" cx="3.03" cy="4.14" r="1.16"/>
</g>
</svg>
