<?xml version="1.0" encoding="UTF-8" standalone="no"?>
<!-- Created with Inkscape (http://www.inkscape.org/) -->

<svg
   width="100"
   height="100"
   viewBox="0 0 26.458331 26.458335"
   version="1.1"
   id="svg5"
   inkscape:version="1.1.1 (3bf5ae0d25, 2021-09-20)"
   sodipodi:docname="picto3.svg"
   inkscape:export-filename="C:\Users\franc\OneDrive\Escritorio\trabajo janis2.png"
   inkscape:export-xdpi="96"
   inkscape:export-ydpi="96"
   xmlns:inkscape="http://www.inkscape.org/namespaces/inkscape"
   xmlns:sodipodi="http://sodipodi.sourceforge.net/DTD/sodipodi-0.dtd"
   xmlns="http://www.w3.org/2000/svg"
   xmlns:svg="http://www.w3.org/2000/svg">
  <sodipodi:namedview
     id="namedview7"
     pagecolor="#ffffff"
     bordercolor="#666666"
     borderopacity="1.0"
     inkscape:pageshadow="2"
     inkscape:pageopacity="0.0"
     inkscape:pagecheckerboard="0"
     inkscape:document-units="mm"
     showgrid="false"
     units="px"
     inkscape:zoom="3.9408307"
     inkscape:cx="68.25972"
     inkscape:cy="59.251467"
     inkscape:window-width="1920"
     inkscape:window-height="1001"
     inkscape:window-x="-9"
     inkscape:window-y="-9"
     inkscape:window-maximized="1"
     inkscape:current-layer="layer2" />
  <defs
     id="defs2">
    <clipPath
       clipPathUnits="userSpaceOnUse"
       id="clipPath998">
      <path
         d="M 0,1080 H 1080 V 0 H 0 Z"
         id="path996" />
    </clipPath>
    <clipPath
       clipPathUnits="userSpaceOnUse"
       id="clipPath1056">
      <path
         d="M 0,1080 H 1080 V 0 H 0 Z"
         id="path1054" />
    </clipPath>
    <clipPath
       clipPathUnits="userSpaceOnUse"
       id="clipPath998-7">
      <path
         d="M 0,1080 H 1080 V 0 H 0 Z"
         id="path996-8" />
    </clipPath>
    <clipPath
       clipPathUnits="userSpaceOnUse"
       id="clipPath1056-5">
      <path
         d="M 0,1080 H 1080 V 0 H 0 Z"
         id="path1054-9" />
    </clipPath>
  </defs>
  <g
     inkscape:label="Capa 1"
     inkscape:groupmode="layer"
     id="layer1" />
  <g
     inkscape:groupmode="layer"
     id="layer2"
     inkscape:label="Capa 2">
    <g
       id="g992"
       transform="matrix(0.02730167,0,0,-0.02730167,-1.0909696,28.949401)"
       style="stroke-width:9.69110437;stroke-miterlimit:4;stroke-dasharray:none">
      <g
         id="g994"
         clip-path="url(#clipPath998-7)"
         style="stroke-width:9.69110437;stroke-miterlimit:4;stroke-dasharray:none">
        <g
           id="g1000"
           transform="translate(398.3379,682.1274)"
           style="stroke-width:9.69110437;stroke-miterlimit:4;stroke-dasharray:none">
          <path
             d="m 0,0 c 0,62.684 50.816,113.5 113.5,113.5 65.997,0 84.431,-42.553 129.89,-67 C 297.177,17.575 339,6 339,6 339,6 306.296,2.125 257.757,-27.75 209.217,-57.625 187.397,-114.078 113.5,-113.5 50.816,-113.5 0,-62.685 0,0 Z"
             style="fill:none;stroke:#000000;stroke-width:9.69110437;stroke-linecap:butt;stroke-linejoin:miter;stroke-miterlimit:4;stroke-dasharray:none;stroke-opacity:1"
             id="path1002" />
        </g>
        <g
           id="g1004"
           transform="translate(691.6367,380.4678)"
           style="stroke-width:9.69110437;stroke-miterlimit:4;stroke-dasharray:none">
          <path
             d="M 0,0 C 0,48.877 39.623,88.5 88.5,88.5 137.377,88.5 177,48.877 177,0 177,-48.877 137.377,-88.5 88.5,-88.5 39.623,-88.5 0,-48.877 0,0 Z"
             style="fill:none;stroke:#000000;stroke-width:9.69110437;stroke-linecap:butt;stroke-linejoin:miter;stroke-miterlimit:4;stroke-dasharray:none;stroke-opacity:1"
             id="path1006" />
        </g>
        <g
           id="g1008"
           transform="translate(691.6367,380.4678)"
           style="stroke-width:9.69110437;stroke-miterlimit:4;stroke-dasharray:none">
          <path
             d="M 0,0 C 0,48.877 39.623,88.5 88.5,88.5 137.377,88.5 177,48.877 177,0 177,-48.877 137.377,-88.5 88.5,-88.5 39.623,-88.5 0,-48.877 0,0 Z"
             style="fill:none;stroke:#000000;stroke-width:9.69110437;stroke-linecap:butt;stroke-linejoin:miter;stroke-miterlimit:4;stroke-dasharray:none;stroke-opacity:1"
             id="path1010" />
        </g>
        <g
           id="g1012"
           transform="translate(626.0742,630.7388)"
           style="stroke-width:9.69110437;stroke-miterlimit:4;stroke-dasharray:none">
          <path
             d="M 0,0 V -236.433"
             style="fill:none;stroke:#000000;stroke-width:9.69110437;stroke-linecap:butt;stroke-linejoin:miter;stroke-miterlimit:4;stroke-dasharray:none;stroke-opacity:1"
             id="path1014" />
        </g>
        <g
           id="g1016"
           transform="translate(916.7559,615.2119)"
           style="stroke-width:9.69110437;stroke-miterlimit:4;stroke-dasharray:none">
          <path
             d="M 0,0 -82.476,214.913 H -290.682 V 123.125"
             style="fill:none;stroke:#000000;stroke-width:9.69110437;stroke-linecap:butt;stroke-linejoin:miter;stroke-miterlimit:4;stroke-dasharray:none;stroke-opacity:1"
             id="path1018" />
        </g>
        <g
           id="g1020"
           transform="translate(692.7139,394.3057)"
           style="stroke-width:9.69110437;stroke-miterlimit:4;stroke-dasharray:none">
          <path
             d="M 0,0 H -354.144"
             style="fill:none;stroke:#000000;stroke-width:9.69110437;stroke-linecap:butt;stroke-linejoin:miter;stroke-miterlimit:4;stroke-dasharray:none;stroke-opacity:1"
             id="path1022" />
        </g>
        <g
           id="g1024"
           transform="translate(916.7559,615.2119)"
           style="stroke-width:9.69110437;stroke-miterlimit:4;stroke-dasharray:none">
          <path
             d="m 0,0 77.18,-37.087 v -1.281 -182.538 H -49.197"
             style="fill:none;stroke:#000000;stroke-width:9.69110437;stroke-linecap:butt;stroke-linejoin:miter;stroke-miterlimit:4;stroke-dasharray:none;stroke-opacity:1"
             id="path1026" />
        </g>
        <g
           id="g1028"
           transform="translate(626.0742,497.1826)"
           style="stroke-width:9.69110437;stroke-miterlimit:4;stroke-dasharray:none">
          <path
             d="m 0,0 h -560.99 v -102.877 h 96.86"
             style="fill:none;stroke:#000000;stroke-width:9.69110437;stroke-linecap:butt;stroke-linejoin:miter;stroke-miterlimit:4;stroke-dasharray:none;stroke-opacity:1"
             id="path1030" />
        </g>
        <g
           id="g1032"
           transform="translate(714.4727,695.751)"
           style="stroke-width:9.69110437;stroke-miterlimit:4;stroke-dasharray:none">
          <path
             d="M 0,0 V 92.945 H 135.75"
             style="fill:none;stroke:#000000;stroke-width:9.69110437;stroke-linecap:butt;stroke-linejoin:miter;stroke-miterlimit:4;stroke-dasharray:none;stroke-opacity:1"
             id="path1034" />
        </g>
        <g
           id="g1036"
           transform="translate(714.4727,625.6504)"
           style="stroke-width:9.69110437;stroke-miterlimit:4;stroke-dasharray:none">
          <path
             d="M 0,0 V 56.475"
             style="fill:none;stroke:#000000;stroke-width:9.69110437;stroke-linecap:butt;stroke-linejoin:miter;stroke-miterlimit:4;stroke-dasharray:none;stroke-opacity:1"
             id="path1038" />
        </g>
        <g
           id="g1040"
           transform="translate(916.7559,615.2119)"
           style="stroke-width:9.69110437;stroke-miterlimit:4;stroke-dasharray:none">
          <path
             d="M 0,0 H -89.072"
             style="fill:none;stroke:#000000;stroke-width:9.69110437;stroke-linecap:butt;stroke-linejoin:miter;stroke-miterlimit:4;stroke-dasharray:none;stroke-opacity:1"
             id="path1042" />
        </g>
        <g
           id="g1044"
           transform="translate(160.8779,380.4678)"
           style="stroke-width:9.69110437;stroke-miterlimit:4;stroke-dasharray:none">
          <path
             d="m 0,0 c 0,49.362 40.017,89.379 89.379,89.379 49.363,0 89.379,-40.017 89.379,-89.379 0,-49.363 -40.016,-89.379 -89.379,-89.379 C 40.017,-89.379 0,-49.363 0,0 Z"
             style="fill:none;stroke:#000000;stroke-width:9.69110437;stroke-linecap:butt;stroke-linejoin:miter;stroke-miterlimit:4;stroke-dasharray:none;stroke-opacity:1"
             id="path1046" />
        </g>
        <path
           d="m 929.015,471.506 h 64.921 v 33.253 h -64.921 z"
           style="fill:none;stroke:#000000;stroke-width:9.69110437;stroke-linecap:butt;stroke-linejoin:miter;stroke-miterlimit:4;stroke-dasharray:none;stroke-opacity:1"
           id="path1048" />
      </g>
    </g>
    <g
       id="g1050"
       transform="matrix(0.02730167,0,0,-0.02730167,-1.0909696,28.949401)"
       style="stroke-width:9.69110437;stroke-miterlimit:4;stroke-dasharray:none">
      <g
         id="g1052"
         clip-path="url(#clipPath1056-5)"
         style="stroke-width:9.69110437;stroke-miterlimit:4;stroke-dasharray:none">
        <g
           id="g1058"
           transform="translate(827.8096,725.1206)"
           style="stroke-width:9.69110437;stroke-miterlimit:4;stroke-dasharray:none">
          <path
             d="m 0,0 c 0,-21.559 -14.563,-39.036 -32.53,-39.036 -17.966,0 -32.53,17.477 -32.53,39.036 0,21.559 14.564,39.036 32.53,39.036 C -14.563,39.036 0,21.559 0,0 Z"
             style="fill:none;stroke:#000000;stroke-width:9.69110437;stroke-linecap:butt;stroke-linejoin:miter;stroke-miterlimit:4;stroke-dasharray:none;stroke-opacity:1"
             id="path1060" />
        </g>
        <g
           id="g1062"
           transform="translate(774.1816,694.4155)"
           style="stroke-width:9.69110437;stroke-miterlimit:4;stroke-dasharray:none">
          <path
             d="m 0,0 c 0,0 -67.688,-55.726 -59.709,-79.204 7.939,-23.359 92.288,-21.079 92.288,-21.079 0,0 17.097,-13.367 24.794,-8.868 5.911,3.455 11.665,15.879 8.036,21.686 -11.066,17.712 -85.949,18.845 -85.949,18.845 l 28.379,31.228"
             style="fill:none;stroke:#000000;stroke-width:9.69110437;stroke-linecap:butt;stroke-linejoin:miter;stroke-miterlimit:4;stroke-dasharray:none;stroke-opacity:1"
             id="path1064" />
        </g>
        <g
           id="g1066"
           transform="translate(843.4248,615.2119)"
           style="stroke-width:9.69110437;stroke-miterlimit:4;stroke-dasharray:none">
          <path
             d="m 0,0 c 0,0 -14.546,29.242 -19.519,38.342 -4.901,8.969 -19.977,33.936 -19.977,33.936"
             style="fill:none;stroke:#000000;stroke-width:9.69110437;stroke-linecap:butt;stroke-linejoin:miter;stroke-miterlimit:4;stroke-dasharray:none;stroke-opacity:1"
             id="path1068" />
        </g>
        <g
           id="g1070"
           transform="translate(456.7246,632.7607)"
           style="stroke-width:9.69110437;stroke-miterlimit:4;stroke-dasharray:none">
          <path
             d="m 0,0 c 0,0 -7.271,60.417 9.537,67.521 10.535,4.451 31.28,1.144 31.28,1.144 0,0 -1.169,18.636 4.959,27.847 10.769,16.187 73.624,-5.722 73.624,-5.722 0,0 -6.552,-65.903 -34.713,-85.449 C 60.724,-11.291 0,0 0,0"
             style="fill:#000000;fill-opacity:1;fill-rule:nonzero;stroke:none;stroke-width:9.69110437;stroke-miterlimit:4;stroke-dasharray:none"
             id="path1072" />
        </g>
        <g
           id="g1074"
           transform="translate(456.7246,632.7607)"
           style="stroke-width:9.69110437;stroke-miterlimit:4;stroke-dasharray:none">
          <path
             d="m 0,0 c 0,0 -7.271,60.417 9.537,67.521 10.535,4.451 31.28,1.144 31.28,1.144 0,0 -1.169,18.636 4.959,27.847 10.769,16.187 73.624,-5.722 73.624,-5.722 0,0 -6.552,-65.903 -34.713,-85.449 C 60.724,-11.291 0,0 0,0 Z"
             style="fill:none;stroke:#000000;stroke-width:9.69110437;stroke-linecap:butt;stroke-linejoin:miter;stroke-miterlimit:4;stroke-dasharray:none;stroke-opacity:1"
             id="path1076" />
        </g>
        <g
           id="g1078"
           transform="translate(492.7256,661.0571)"
           style="stroke-width:9.69110437;stroke-miterlimit:4;stroke-dasharray:none">
          <path
             d="m 0,0 c 0,0 7.601,19.364 18.884,28.45 11.09,8.93 32.419,8.639 32.419,8.639 0,0 -12.69,-18.374 -21.444,-24.703 C 21.513,6.352 0,0 0,0"
             style="fill:#ffffff;fill-opacity:1;fill-rule:nonzero;stroke:none;stroke-width:9.69110437;stroke-miterlimit:4;stroke-dasharray:none"
             id="path1080" />
        </g>
        <g
           id="g1082"
           transform="translate(492.7256,661.0571)"
           style="stroke-width:9.69110437;stroke-miterlimit:4;stroke-dasharray:none">
          <path
             d="m 0,0 c 0,0 7.601,19.364 18.884,28.45 11.09,8.93 32.419,8.639 32.419,8.639 0,0 -12.69,-18.374 -21.444,-24.703 C 21.513,6.352 0,0 0,0 Z"
             style="fill:none;stroke:#ffffff;stroke-width:9.69110437;stroke-linecap:butt;stroke-linejoin:miter;stroke-miterlimit:4;stroke-dasharray:none;stroke-opacity:1"
             id="path1084" />
        </g>
        <g
           id="g1086"
           transform="translate(809.4893,706.2056)"
           style="stroke-width:9.69110437;stroke-miterlimit:4;stroke-dasharray:none">
          <path
             d="m 0,0 c -0.172,-1.909 -6.947,-7.649 -14.605,-6.96 -7.66,0.689 -13.301,7.546 -13.13,9.455 0.172,1.908 6.092,-1.855 13.751,-2.544 C -6.325,-0.738 0.172,1.909 0,0"
             style="fill:#ffffff;fill-opacity:1;fill-rule:nonzero;stroke:none;stroke-width:9.69110437;stroke-miterlimit:4;stroke-dasharray:none"
             id="path1088" />
        </g>
        <g
           id="g1090"
           transform="translate(809.4893,706.2056)"
           style="stroke-width:9.69110437;stroke-miterlimit:4;stroke-dasharray:none">
          <path
             d="m 0,0 c -0.172,-1.909 -6.947,-7.649 -14.605,-6.96 -7.66,0.689 -13.301,7.546 -13.13,9.455 0.172,1.908 6.092,-1.855 13.751,-2.544 C -6.325,-0.738 0.172,1.909 0,0 Z"
             style="fill:none;stroke:#000000;stroke-width:9.69110437;stroke-linecap:butt;stroke-linejoin:miter;stroke-miterlimit:4;stroke-dasharray:none;stroke-opacity:1"
             id="path1092" />
        </g>
      </g>
    </g>
  </g>
</svg>
