<?xml version="1.0" encoding="utf-8"?>
<!-- Generator: Adobe Illustrator 27.1.1, SVG Export Plug-In . SVG Version: 6.00 Build 0)  -->
<svg version="1.1" id="Layer_1" xmlns="http://www.w3.org/2000/svg" xmlns:xlink="http://www.w3.org/1999/xlink" x="0px" y="0px"
	 viewBox="0 0 300 300" style="enable-background:new 0 0 300 300;" xml:space="preserve">
<g>
	<path d="M95.66,199.37c-17.04,0.07-37.56,3.01-49.16,16.6c-9.28,19.1-14.87,39.69-21.52,59.79c-2.4,4.83-2.63,17.1-6.7,19.35
		c-1.79,0.51-2.38-1.02-1.93-2.53c4.18-21.51,12.19-42.03,19.13-62.73c3.17-7.81,5.91-16.39,12.58-21.92
		c14.74-10.55,32.95-13.66,50.72-12.85c8.79,0.37,19.06,1.32,25.24,8.28c4.14,1.83,9.26,2.35,13.38,4.93
		c2.83,1.46,1.04-3.33,0.95-4.67c-2.65-11.5-3.16-24.75-10.13-34.59c-17-17.35-36.26-33.23-49.53-53.74
		c-1.7-5.11,1.21-10.62,2.25-15.63c3.96-13.49,17.02-49.79,18.12-54.77c0.11-5.12,0.33-10.45,3.19-14.87
		c2.37-3.41,7.57-3.5,11.2-5.01c4.72-3.08-18.26-12.04-20.91-14.48C86.05,6.11,92.71-0.25,98.7,1c10.09,1.77,19.15,7.56,26.35,14.65
		c1.06,1.04,1.46,1.06,2.45-0.08c7.83-9.66,21.49-8.09,32.56-7.17c12.63,1.22,26.79,5.21,34.01,16.48c2.38,2.37,7.54-1.41,9.44,2.58
		c6.94,17.95,7.29,15.9-10.17,21c-14.65,5.69-13.08-4.04-16.87-14.4c-1.15-2.26-0.41-3.92,2.01-4.61c0.43-0.12,0.99-0.13,1.13-0.66
		c-8.04-7.07-20.79-10.74-31.76-9.85c-18.13,2.3-8.33,1.07-8.75,19.49c2.56,6.64,9.35,11.69,8.86,19.71
		c0.73,9.76-10.89,15.68-19.46,13.81c-11.29-4.85-5.8-12.15-11.91,8.8c-1.54,6.13-2.67,12.34-3.79,18.56
		c-0.05,4.92,6.61,7.41,9.31,11.13c9.65,9.33,21.88,21.8,36.33,17.15c-14.24-7.46-18.35-24.24-20.49-39.21
		c-2.47-14.81,9.51-23.51,23.05-24.82c9.19-1.54,19.31-2.15,26.54,4.92c7.48,7.05,7.15,17.97,8.16,27.44
		c-0.12,7.32,2.51,14.89,2.2,21.96c-0.87,4-14.06,7.95-11.86,9.02c22.75-2.69,36.67-1.24,56.71,10.91
		c12.5,7.03,25.6,13.92,36.61,23.07c3.82,7.47,5.09,32.08,4.39,43.94c-0.21,3.63-2.52,6.32-4.95,9.52
		c-5.35,7.01-11.39,6.38-13.9,6.53c-8.44,0.53-27.92,1.43-27.46-8.33c0.64-13.47-0.67-13.83,12.05-18.38
		c3.36-1.53,1.24-6.04,1.02-9.41c-0.25-3.74-30.11-11.22-29.72-7.71c3.04,15.54,7.75,30.63,11.6,45.93
		c1.84,7.3,3.88,14.55,6.22,21.7c1.24,2.1-1.4,6.26-3.44,3.62c-8.35-23.63-14-48.31-19.65-72.74c-1.52-6.87,6.61-4.68,10.46-3.56
		c9.03,2.18,18.05,4.36,26.91,7.17c3.81,2.42,2.34,8.57,2.81,12.08c0.97,7.22-7.52,8.08-12.29,10.27c-2.57,1.78-1.12,6.65-1.32,9.11
		c-0.58,6.97,6.9,4.88,11.07,5.19c5.79,0.43,16.12,0.49,16.12,0.49l9.97-13.03c0,0,0.11-38.57-5.62-42.14
		c-24.8-13.71-49.85-36.09-80.1-30.12c-49.78,1.97-48.8,9.82-84.97-27.78c-1.03-14.53,6.56-29.81,8.9-44.34
		c0.83-2.16,0.04-4.56,0.58-6.82c0.11-0.97,0.49-2.74-1.08-2.34c-1.64,0.57-3.98,1.06-4.5-1.17c-0.24-4.36,11.16-4.68,14.44-6.53
		c12.62-2.49,8.24-5.38,7.8-15.78c-0.9-4.39-13.01,1.37-16.38,1.42c-4.4,2.18-12.19,1.21-13.88,6.57
		c-1.25,5.1-1.49,10.36-1.32,15.57c-3.24,9.3-18.83,50.34-20.55,62.07c0.25,5.87,6.35,9.85,9.58,14.38
		c13.01,15.17,28.16,28.2,41.8,42.76c5.65,13.16,8.33,28.13,9.27,42.4c6.65,9.81,28.56,19.9,18.92,34.28
		c-11.07,17.31-22.53,34.5-34.75,51.01c-0.9,2.18-6.34,3.66-5.19-0.01c1.43-2.56,3.65-4.62,5.04-7.19
		c7-10.61,31.99-43.42,32.24-50.94c0.28-8.6-21.51-27.17-29.92-28.7c2.34,7.01,9.78,15.06,6.79,22.9
		c-3.59,4.44-9.72,3.76-14.32,5.72c-19.62,20.21-48.6,2.6-72.33,9.18c-11.01,5.41-5.41-3.87,6.94-4.89c1.57-0.32,1.69-0.36,1.86-2
		c1.1-12.89,10.23-24.75,21.88-30.08c33.81-13.43,30.56,26.88,47.51,22.73c1.98-0.64,6.35-0.9,5.42-3.92
		c-2.33-8.89-6.82-17.12-13.01-23.91c-6.28-5.96-16.44-6.02-24.65-6.26C95.66,199.35,95.66,199.36,95.66,199.37z M171.02,66.75
		c-12.27,0.56-32.21,2.71-29.65,19.45c1.76,22.02,13.07,46.1,39.2,37.7c17.88-6.49,12.7-4.35,11.46-21.13
		C191.12,88.07,190.94,66.44,171.02,66.75z M92.3,244.53c8.68,0.2,17.41-1.7,24.02-7.63c1.13-0.84,1.15-1.51,0.17-2.48
		c-3.31-3.52-5.47-7.91-7.85-12.05c-12.29-18.45-32.19-10.41-41.49,6.44c-1.46,2.61-6.52,12.4-2.98,13.84
		C73.56,243.14,82.88,244.24,92.3,244.53z M186.03,46.1c2.72-0.63,19.82-3.4,17.97-6.81c-1.22-3.28-0.95-9.95-5.57-9.94
		c-2.87,0.85-19.95,1.77-17.91,5.64C181.72,38.52,181.43,45.53,186.03,46.1z M127.5,52.98c-0.47,4.52,3,12.48,8.43,9.39
		c3.68-4.23-1.88-11.91-4.7-15.67C128.69,44.37,127.28,51.35,127.5,52.98z"/>
	<path d="M193.13,39.79c0.2-1.59-0.41-2.36-0.35-3.77c-0.42-2.91,4.78-4.76,6.36-2.71c0.85,2.6-4.12,2.13-2.77,4.87
		c1.29,3.08-0.54,5.81-2.86,2.53c1,1.41-2.17,3.51-3.6,1.36c-1.06-2.29-1.8-4.96-4.9-3.96c-4.42-1.81,4.63-5.53,5.83-2.58
		C191.76,36.99,192.03,38.26,193.13,39.79z"/>
</g>
</svg>
