<?xml version="1.0" encoding="utf-8"?>
<!-- Generator: Adobe Illustrator 27.5.0, SVG Export Plug-In . SVG Version: 6.00 Build 0)  -->
<svg version="1.1" id="Capa_1" xmlns="http://www.w3.org/2000/svg" xmlns:xlink="http://www.w3.org/1999/xlink" x="0px" y="0px"
	 viewBox="0 0 16 16" style="enable-background:new 0 0 16 16;" xml:space="preserve">
<style type="text/css">
	.st0{fill:none;stroke:#000000;stroke-width:0.2482;stroke-linecap:round;stroke-linejoin:round;stroke-miterlimit:10;}
</style>
<g>
	<path class="st0" d="M10.53,4.4L9.3,5.05c-0.19,0.1-0.31,0.28-0.35,0.49v0C8.91,5.82,8.98,6.1,9.14,6.33l0.31,0.44
		c0.18,0.26,0.47,0.42,0.78,0.44h0c0.19,0.01,0.39-0.04,0.55-0.14c0.37-0.23,1.02-0.64,1.03-0.65L10.53,4.4z"/>
	<path class="st0" d="M7.86,9.08l1.02,0.95c0.15,0.14,0.23,0.35,0.21,0.56v0c-0.03,0.28-0.17,0.53-0.38,0.72L8.3,11.65
		c-0.24,0.2-0.56,0.28-0.87,0.22h0c-0.19-0.04-0.36-0.14-0.5-0.28c-0.3-0.32-0.82-0.88-0.82-0.89L7.86,9.08z"/>
	<path class="st0" d="M12.78,10.36"/>
	<g>
		<path class="st0" d="M13.49,12.49c-0.04-1.32-0.26-2.68-0.38-3.42l1.5-1.26l0.57-0.78v-2.5c-0.02-0.06-0.14-0.54-0.61-0.76
			C14.22,3.6,13.9,3.68,13.8,3.7l-0.2,1.06l0.79,0.24"/>
	</g>
	<path class="st0" d="M6.37,4.94C6.29,4.9,5.99,4.75,5.67,4.8C5.26,4.87,5.02,5.2,5,5.24C4.88,5.55,4.92,6.06,4.84,6.39
		C4.4,6.22,3.8,5.99,3.35,5.83c-0.5,0.24-0.99,0.48-1.49,0.72C1.8,6.17,1.73,5.78,1.67,5.4C1.23,5.37,0.8,5.33,0.36,5.29
		C0.6,4.9,0.84,4.5,1.08,4.11C1.12,4.07,1.12,4.05,1.1,4.02c-0.08-0.11-0.42-0.56-0.5-0.67c0-0.01-0.11-0.15-0.12-0.16
		c0.59-0.13,1.08-0.34,1.5-0.58C1.99,2.6,2.01,2.59,2.02,2.59c0-0.01,0-0.03,0.01-0.04C2.1,2.18,2.26,1.76,2.62,1.32
		c0.4,0.18,0.79,0.36,1.19,0.53C4.3,1.61,4.79,1.37,5.29,1.12c0.05,0.32,0.11,0.65,0.16,0.97c0,0,0,0.01,0,0.01
		c0.02,0.21,0.84,0.31,1.51,0.36C6.64,2.84,6.33,3.22,6.02,3.6c0.66,0.45,1.32,0.9,1.98,1.35C7.44,4.95,6.93,4.95,6.37,4.94z"/>
	<g>
		<path d="M4.08,4.26C3.91,4.47,3.6,4.4,3.47,4.15C3.38,3.97,3.39,3.76,3.51,3.63c0.1-0.11,0.22-0.15,0.36-0.11
			c0.02,0,0.04,0,0.05,0c0.07-0.04,0.14-0.01,0.16,0.07c0.04,0.14,0.08,0.29,0.11,0.43C4.2,4.05,4.21,4.1,4.25,4.1
			c0.05,0,0.09-0.03,0.1-0.07c0.02-0.07,0.03-0.15,0.02-0.22C4.35,3.55,4.09,3.36,3.81,3.36c-0.32,0.01-0.58,0.29-0.56,0.6
			c0.02,0.33,0.3,0.58,0.62,0.55c0.03,0,0.05-0.01,0.08-0.01c0.06-0.01,0.11,0.02,0.13,0.08C4.09,4.63,4.06,4.68,4,4.7
			c-0.34,0.08-0.72-0.1-0.87-0.42c-0.2-0.42-0.01-0.9,0.43-1.07c0.41-0.16,0.91,0.08,1.01,0.51c0.02,0.11,0.02,0.22,0,0.32
			C4.52,4.2,4.39,4.32,4.25,4.31C4.2,4.3,4.14,4.27,4.08,4.26z M3.97,3.9c0,0-0.01,0-0.01,0C3.94,3.86,3.92,3.82,3.9,3.79
			C3.87,3.74,3.82,3.7,3.76,3.71c-0.06,0.01-0.1,0.05-0.13,0.11C3.58,3.93,3.64,4.1,3.75,4.16C3.83,4.2,3.91,4.18,3.94,4.09
			C3.96,4.03,3.96,3.96,3.97,3.9z"/>
		<path d="M1.96,4.08C1.96,3.96,1.95,3.84,1.95,3.73c0-0.08,0.05-0.13,0.12-0.12C2.11,3.62,2.14,3.65,2.14,3.7
			c0.01,0.1,0.01,0.19,0.02,0.29c0,0.01,0,0.02,0,0.03C2.23,4,2.3,3.99,2.37,3.97C2.36,3.85,2.36,3.74,2.35,3.62
			c0-0.07,0.03-0.12,0.09-0.12c0.06,0,0.1,0.04,0.11,0.11c0.01,0.1,0.01,0.2,0.02,0.31C2.6,3.91,2.63,3.9,2.67,3.89
			C2.73,3.88,2.79,3.9,2.8,3.96c0.01,0.06-0.02,0.11-0.08,0.12C2.69,4.1,2.67,4.1,2.65,4.11C2.63,4.11,2.61,4.12,2.58,4.13
			c0,0.09,0.01,0.17,0.01,0.27c0.04-0.01,0.07-0.02,0.1-0.03c0.07-0.02,0.12,0.01,0.14,0.07c0.01,0.06-0.02,0.11-0.08,0.13
			C2.7,4.58,2.63,4.58,2.61,4.61c-0.02,0.03,0,0.09,0,0.14c0,0.07,0.01,0.14,0.01,0.21c0,0.07-0.04,0.12-0.1,0.12
			c-0.05,0-0.1-0.04-0.1-0.11c-0.01-0.1-0.01-0.2-0.02-0.3c0-0.01,0-0.01,0-0.02C2.34,4.67,2.28,4.68,2.22,4.7
			C2.21,4.7,2.2,4.73,2.2,4.74c0,0.11,0.01,0.22,0.01,0.33c0,0.07-0.04,0.11-0.1,0.11c-0.06,0-0.1-0.04-0.1-0.11
			C2.01,4.97,2,4.87,2,4.76C1.96,4.77,1.93,4.78,1.89,4.78C1.83,4.8,1.78,4.77,1.76,4.71C1.75,4.66,1.78,4.61,1.84,4.59
			c0.04-0.01,0.08-0.02,0.11-0.03c0.01,0,0.03-0.02,0.03-0.03c0-0.08-0.01-0.16-0.01-0.24C1.95,4.29,1.93,4.3,1.91,4.3
			c-0.1,0.03-0.15,0.01-0.17-0.06C1.72,4.17,1.76,4.13,1.86,4.1C1.89,4.09,1.93,4.09,1.96,4.08z M2.38,4.18
			C2.31,4.2,2.24,4.22,2.17,4.24c0,0.09,0.01,0.17,0.01,0.26c0.06-0.02,0.12-0.03,0.18-0.05c0.01,0,0.02-0.02,0.02-0.02
			C2.39,4.35,2.38,4.27,2.38,4.18z"/>
		<path d="M5.34,4.2c0-0.01,0-0.04,0.01-0.06c0.06-0.21,0.12-0.42,0.18-0.64c0.01-0.03,0-0.05-0.02-0.07
			c-0.16-0.15-0.31-0.3-0.47-0.46C5,2.95,4.99,2.91,5.01,2.86C5.02,2.82,5.05,2.8,5.1,2.8c0.03,0,0.06,0.01,0.08,0.03
			C5.35,3,5.53,3.18,5.72,3.36c0.03,0.03,0.04,0.07,0.03,0.11c-0.07,0.25-0.14,0.5-0.21,0.75C5.52,4.27,5.48,4.3,5.44,4.29
			C5.39,4.29,5.35,4.26,5.34,4.2z"/>
		<path d="M4.74,3.5C4.7,3.35,4.66,3.2,4.63,3.05C4.61,2.99,4.63,2.94,4.68,2.93C4.74,2.91,4.8,2.93,4.82,3
			C4.85,3.1,4.87,3.2,4.9,3.31C4.95,3.5,5,3.7,5.05,3.9c0.01,0.05,0,0.08-0.04,0.12C4.99,4.04,4.95,4.04,4.91,4.02
			C4.89,4,4.87,3.97,4.86,3.94C4.82,3.79,4.78,3.65,4.74,3.5z"/>
		<path d="M4.96,4.34C4.95,4.28,4.98,4.23,5.04,4.22c0.05-0.01,0.11,0.02,0.12,0.07C5.17,4.34,5.14,4.4,5.09,4.41
			C5.03,4.43,4.98,4.4,4.96,4.34z"/>
	</g>
	<path class="st0" d="M13.91,4.93l-0.15,1.63l-1.17,0.95h-1.37L9.67,7.8c-0.03,0.02-1.4,0-1.4,0l-1.86-2L6.37,4.94
		c-0.35-0.2-0.77-0.2-1.08,0c-0.26,0.17-0.36,0.42-0.4,0.52v0.62l2.1,2.56L7.8,9.01"/>
	<path class="st0" d="M8.88,13.79c-0.01,0.15-0.63,1.09-1.15,1.41c-0.24,0.15-0.57,0.22-1.24,0.07c-0.55-0.12-0.98-0.79-2.16-1.87
		l0.56-0.91"/>
	<path class="st0" d="M7.99,12.96l0.3-0.35l0.4-0.59l0.71,0.17l-0.08,0.44L8.98,12.8l-1.58,0.26l-0.83-0.49l-0.4,0.62l0.35,0.43
		l0.41,0.09l0.51,0.03c2.03,0.19,3.49-0.16,3.61-0.73c0.11-0.51-0.82-1.35-2.1-1.94"/>
	<polyline class="st0" points="6.52,13.61 7.17,14.27 7.53,13.74 	"/>
	<path class="st0" d="M6.11,10.7c-0.39,0.05-1.73,0.29-2.81,1.46c-0.92,1-1.13,2.12-1.19,2.54"/>
</g>
</svg>
