<?xml version="1.0" encoding="UTF-8"?>
<svg id="Layer_2" data-name="Layer 2" xmlns="http://www.w3.org/2000/svg" viewBox="0 0 61.6 85.84">
  <defs>
    <style>
      .cls-1, .cls-2 {
        stroke-miterlimit: 10;
      }

      .cls-1, .cls-2, .cls-3, .cls-4 {
        stroke: #010101;
        stroke-width: 1.5px;
      }

      .cls-1, .cls-4 {
        fill: none;
        stroke-linecap: round;
      }

      .cls-2 {
        fill: #fff;
      }

      .cls-3 {
        fill: #010101;
        stroke-linecap: square;
      }

      .cls-3, .cls-4 {
        stroke-linejoin: round;
      }
    </style>
  </defs>
  <circle class="cls-3" cx="3.54" cy="18.38" r="1.8"/>
  <circle class="cls-3" cx="5.34" cy="26.41" r=".98"/>
  <g>
    <circle class="cls-3" cx="8.29" cy="35.59" r=".98"/>
    <circle class="cls-3" cx="10.75" cy="21.66" r=".49"/>
    <circle class="cls-3" cx="19.72" cy="17.1" r=".49"/>
    <circle class="cls-3" cx="14.84" cy="27.39" r=".98"/>
    <circle class="cls-3" cx="9.99" cy="12.41" r=".06"/>
    <path class="cls-3" d="m20.74,31.98l-8.69,8.58-8.69-.38s-2.29.63,0,1.95c0,0-.33,5.91,5.24,5.91,0,0,5.57,1.64,6.56-5.57,0,0,1.97-.66,0-1.97l7.16-7.21-1.58-1.31Z"/>
    <polygon class="cls-3" points="1.08 48.04 .75 55.25 5.67 55.58 5.67 84.51 9.44 84.51 9.6 79.83 27.63 80.16 27.63 85.09 31.66 85.09 31.94 56.51 34.84 56.24 34.84 49.34 1.08 48.04"/>
    <polygon class="cls-2" points="10.58 55.91 10.26 74.59 27.95 75.25 27.95 56.33 10.58 55.91"/>
    <path class="cls-4" d="m25.33,41.81s-4.67-.18-5.61,1.88v4.35l10.86.66s1.31-1.64.66-3.61c0,0-4.26-3.28-5.9-3.28Z"/>
    <path class="cls-4" d="m47.62,69.67v9.8c-1.31.89-2.62,1.77-3.93,2.66l-.66,2.62h10.42l.4-16.39h1.5l-.99-35.07s-.66-5.24-4.68-5.9c0,0-7.63-1.31-9.27,9.51,0,0-.33,2.95-4.59,2.29,0,0-8.58-1.48-8.71.9l-.62,2.03s8.67,5.92,12.93,5.27c0,0,7.21-4.59,10.16-8.52"/>
    <path class="cls-4" d="m40.92,46.39s-1.82,20.67-.51,21.65l2.29.66v10.22l-6.88,3.55-.98,2.14,8.19.15"/>
    <path class="cls-4" d="m44.14,29.07c-2.23-.59-4.85-1.13-7.79-1.45-3.41-.38-6.47-.38-9.05-.22-2.76-.03-4.55,1.2-4.59,2.29-.04.99,1.36,1.81,1.64,1.97,5.43,1.31,10.87,2.62,16.3,3.93"/>
    <path class="cls-1" d="m51.88,15.59l.66,8.52s-14.09,2.29-8.85-8.85l9.51.33.66-4.92"/>
    <path class="cls-1" d="m53.67,11.99c2.87.88,5.8-.49,6.8-2.76,1.18-2.7-.48-6.44-4-7.4-1.46-.36-3.08-.67-4.83-.86-5.15-.56-9.59.07-12.86.86-2.13,1.14-3.13,3.65-2.39,5.9.77,2.33,3.21,3.76,5.67,3.28.11,1.42.22,2.84.33,4.26h1.31"/>
  </g>
</svg>