<?xml version="1.0" encoding="utf-8"?>
<!-- Generator: Adobe Illustrator 27.5.0, SVG Export Plug-In . SVG Version: 6.00 Build 0)  -->
<svg version="1.1" id="Capa_1" xmlns="http://www.w3.org/2000/svg" xmlns:xlink="http://www.w3.org/1999/xlink" x="0px" y="0px"
	 viewBox="0 0 16 16" style="enable-background:new 0 0 16 16;" xml:space="preserve">
<style type="text/css">
	.st0{fill:none;stroke:#000000;stroke-width:0.251;stroke-miterlimit:10;}
	.st1{fill:none;stroke:#000000;stroke-width:0.251;stroke-linecap:round;stroke-linejoin:round;stroke-miterlimit:10;}
	.st2{fill:none;stroke:#000000;stroke-width:0.2869;stroke-miterlimit:10;}
</style>
<g>
	<path class="st0" d="M5.91,9.6l-2.54,4.09c0,0-0.23,0.18-0.12,0.4c0.11,0.21,0.44,0.8,0.44,0.8l1.64-0.06l-0.02-0.54l-0.6-0.21
		c0,0-0.4-0.2-0.24-0.35l2.97-2.51l0.11-0.11"/>
	<g>
		<path class="st0" d="M7.22,6.41c0,0,0.46,0.02,1,0.04C8.77,6.47,9.4,6.48,9.67,6.48c0.54,0,0.64-0.46,0.64-0.46l0.86-1.98
			l0.82-0.47l-0.18-0.75l-1.45,0.45l-0.79,1.5C9.29,4.39,7.76,4.11,7.76,4.11C6.19,3.82,5.4,4.54,5.4,4.54
			C4.63,5.2,5.55,8.63,5.55,8.63s0.72,2.28,2.14,2.54l0.15,3.72l2.1-0.05l-0.02-0.51l-0.92-0.4l0.28-3.03c0,0,0.05-0.32-0.12-0.51
			c-0.17-0.18-0.89-1.06-0.89-1.06S8.12,8.7,8.16,8.06s0.02-1.52,0.02-1.52"/>
		<path class="st1" d="M10.68,3.17c-0.14,0.14-0.35,0.19-0.53,0.11C9.98,3.21,9.87,3.05,9.85,2.87c0.29-0.11,0.58-0.22,0.87-0.33
			c0,0,0.24-0.09,0.52-0.18c0,0,0.61-0.18,0.71-0.01l0.43,1.1c0,0,0.15,0.29-0.06,0.6s-0.35,0.45-0.35,0.45s0.06,0.16-0.08,0.24
			l0.12,0.44L11.32,5.5l-0.1-0.26l0.22-0.26c0,0,0.05-0.04,0.07-0.1c0.02-0.07,0-0.14-0.01-0.18c-0.04-0.12-0.12-0.35-0.23-0.64"/>
		<path class="st2" d="M5.09,1.46l1.56-0.42c0.23-0.06,0.48-0.01,0.68,0.14l0,0c0.26,0.2,0.42,0.49,0.47,0.81l0.09,0.62
			c0.05,0.36-0.06,0.72-0.31,0.99l0,0C7.41,3.76,7.21,3.87,6.99,3.91c-0.5,0.1-1.36,0.27-1.38,0.26L5.09,1.46z"/>
		<path class="st0" d="M11.74,0.78l-0.83-0.02c-0.12,0-0.24,0.05-0.32,0.15l0,0c-0.1,0.13-0.15,0.3-0.13,0.46L10.5,1.7
			c0.02,0.19,0.12,0.35,0.28,0.45v0c0.1,0.06,0.21,0.09,0.33,0.09c0.26-0.01,0.71-0.04,0.72-0.04L11.74,0.78z"/>
	</g>
</g>
</svg>
