<?xml version="1.0" encoding="utf-8"?>
<!-- Generator: Adobe Illustrator 27.5.0, SVG Export Plug-In . SVG Version: 6.00 Build 0)  -->
<svg version="1.1" id="Capa_1" xmlns="http://www.w3.org/2000/svg" xmlns:xlink="http://www.w3.org/1999/xlink" x="0px" y="0px"
	 viewBox="0 0 16 16" style="enable-background:new 0 0 16 16;" xml:space="preserve">
<style type="text/css">
	.st0{fill:none;stroke:#000000;stroke-width:0.2677;stroke-linecap:round;stroke-linejoin:round;stroke-miterlimit:10;}
	.st1{fill:#FFFFFF;stroke:#020203;stroke-width:0.3015;stroke-linecap:round;stroke-linejoin:round;stroke-miterlimit:10;}
	.st2{fill:none;stroke:#020203;stroke-width:0.3015;stroke-linecap:round;stroke-linejoin:round;stroke-miterlimit:10;}
	.st3{fill:none;stroke:#020203;stroke-width:0.3162;stroke-linecap:round;stroke-linejoin:round;stroke-miterlimit:10;}
	.st4{stroke:#000000;stroke-width:0.2677;stroke-linecap:round;stroke-linejoin:round;stroke-miterlimit:10;}
	.st5{stroke:#000000;stroke-width:0.194;stroke-linecap:round;stroke-linejoin:round;stroke-miterlimit:10;}
</style>
<g>
	<path class="st0" d="M10.64,1.02L9.18,0.73C8.96,0.68,8.73,0.75,8.56,0.9l0,0C8.34,1.1,8.2,1.38,8.18,1.67L8.14,2.25
		c-0.02,0.34,0.1,0.66,0.35,0.89v0C8.64,3.29,8.83,3.38,9.04,3.4c0.46,0.06,1.27,0.16,1.29,0.16L10.64,1.02z"/>
	<path class="st1" d="M6.99,0.57c0,0-1.02,0.06-1.19,1.69c0,0-0.08,1,0.81,1.22s1.33-0.14,1.6-0.87C8.21,2.61,9,0.32,6.99,0.57z"/>
	<path class="st2" d="M4.89,6.17C4.86,7.05,4.36,9.6,4.32,10.48c0,0-0.86,0.98-0.86-1.1c0,0,0.37-2.84,0.48-4.46l0,0
		C4.2,4.16,4.77,3.62,5.41,3.57c0.31-0.03,0.58,0.06,0.76,0.15c0.59,0.34,1.05,0.39,1.37,0.37c0.55-0.03,0.94-0.27,1.8-0.25
		c0.37,0.01,0.46,0.08,0.55,0.1c0.76,0.23,0.45,1.35,0.45,1.35S9.67,7.77,8.52,7.84C7.37,7.91,6.65,7.88,6.65,7.88
		s-0.3-0.52-0.1-0.78C6.61,7.03,6.68,7,6.72,6.99C7.2,6.82,8.74,6.46,8.88,6.43"/>
	<path class="st2" d="M8.3,9.18l-0.31,2.88l2.95-0.08c0.15-1.21,0.22-1.29,0.07-2.92c-0.07-0.82-0.19-1.58-0.33-2.27
		c-0.11-0.41-0.22-0.83-0.33-1.24l0.08-0.9c0,0,0.51-0.16,0.57,0.06c0.06,0.22,0.29,0.54,0.06,0.73c-0.23,0.19-0.63,0.41-0.63,0.41"
		/>
	<polyline class="st2" points="4.35,10.18 4.3,14.06 3.52,14.43 3.52,15.25 4.94,15.25 6.05,11.11 6.46,10.55 6.58,12.42 6.7,15.25 
		8.31,15.28 8.31,14.71 7.54,14.15 8.11,10.71 	"/>
	<line class="st2" x1="8.31" y1="7.94" x2="8.3" y2="9.18"/>
	<line class="st2" x1="8.37" y1="5.73" x2="8.36" y2="6.53"/>
	<polyline class="st3" points="10.9,11.99 11.08,14.53 11.68,15.01 11.75,15.37 10.23,15.37 10.15,14.53 9.71,12.02 	"/>
	<path class="st4" d="M8.43,1.04c0.67,0.44,1.39,0.83,2.05,1.28l0.16-1.29c-0.49-0.1-0.98-0.2-1.46-0.29
		C9.11,0.72,8.95,0.7,8.78,0.77C8.62,0.83,8.47,0.98,8.43,1.04z"/>
	<path class="st5" d="M11.9,1.8c0.13,0.33-0.31,0.63-0.69,0.63s-0.69-0.25-0.69-0.63s0.31-0.69,0.69-0.69S11.75,1.45,11.9,1.8z"/>
	<polyline class="st2" points="9.03,12.07 8.97,15.28 8.31,15.28 	"/>
	<line class="st2" x1="7.78" y1="14.28" x2="7.98" y2="12.07"/>
</g>
</svg>
