<?xml version="1.0" encoding="UTF-8"?>
<svg id="Layer_2" data-name="Layer 2" xmlns="http://www.w3.org/2000/svg" viewBox="0 0 56.37 90.5">
  <path d="m15.68,61.96c-.07.71.03,1.51.14,2.31.11.77.17,1.56.16,2.34,0,1.21.08,2.42.21,3.63,0,.04,0,.08,0,.12-.01,1.24.15,2.47.16,3.71.02,1.46.17,2.91.19,4.37,0,.58.07,1.17.06,1.76,0,.2.08.34.24.46.96.71,1.89,1.48,2.92,2.09.51.31.93.75,1.46,1.05.21.12.28.33.32.56.12.69.09,1.38,0,2.06-.07.55-.2,1.1-.32,1.65-.16.72-.51.98-1.24.98-.32,0-.62-.07-.92-.15-.65-.16-1.3-.28-1.96-.33-.51-.04-1-.15-1.51-.22-.72-.1-1.46-.08-2.18-.21-.63-.11-1.24-.31-1.82-.57-.31-.14-.62-.27-.96-.32-.49-.06-.79-.36-.97-.81-.26-.65-.35-1.33-.46-2.01-.19-1.24-.26-2.49-.46-3.72-.19-1.14-.37-2.29-.52-3.44-.18-1.35-.32-2.72-.51-4.07-.2-1.48-.33-2.98-.57-4.46-.15-.91-.21-1.84-.36-2.75-.23-1.42-.29-2.85-.43-4.27-.12-1.2-.24-2.41-.36-3.61-.1-1.06-.24-2.12-.35-3.18-.05-.43-.08-.85-.09-1.29-.04-1.22-.12-2.45-.15-3.67-.03-1.05-.15-2.12.05-3.16.22-1.12.54-2.23,1.09-3.25.06-.1.12-.21.19-.29.15-.19.35-.23.52-.14.16.09.21.22.14.48-.13.52-.27,1.03-.4,1.55-.19.75-.28,1.51-.27,2.28.02.95,0,1.9,0,2.86.01,1.25.1,2.5.2,3.74.11,1.51.34,3,.44,4.51.09,1.34.28,2.67.42,4,.04.39.07.78.09,1.17.05,1.04.26,2.07.37,3.1.13,1.23.32,2.45.44,3.69.11,1.1.28,2.2.41,3.3.22,1.9.46,3.8.78,5.69.31,1.85.43,3.73.82,5.57.04.18.09.35.15.52.13.33.35.58.67.73,1.1.5,2.21.92,3.44.94.85.02,1.68.18,2.52.32.59.1,1.18.18,1.78.27.09.01.18.02.27.02.38,0,.48-.1.54-.46.11-.64.29-1.27.25-1.93,0-.13,0-.26,0-.39-.01-.45-.19-.76-.61-1-1.18-.67-2.29-1.44-3.35-2.29-.27-.21-.45-.47-.49-.81-.02-.18-.1-.31-.24-.43-.21-.18-.3-.42-.33-.69-.05-.43-.08-.86-.07-1.29.01-.82-.05-1.64-.13-2.46,0-.03,0-.05,0-.08.05-1.58-.13-3.15-.19-4.72-.04-.98-.12-1.95-.18-2.93-.01-.18-.03-.36-.03-.55,0-1.25-.11-2.5-.29-3.74-.11-.76-.06-1.54,0-2.3.06-.87.14-1.74.19-2.61.03-.45-.07-.54-.52-.61-.21-.03-.41-.07-.62-.09-.71-.07-1.36-.34-1.98-.68-.4-.22-.59-.53-.63-.97-.02-.22-.02-.44-.05-.66-.28-2.54-.33-5.1-.26-7.65.02-.55.09-1.09.16-1.63.04-.37-.1-.61-.38-.87-.85-.78-1.78-1.49-2.53-2.38-.28-.34-.29-.44-.09-.84.17-.31.39-.58.6-.87.29-.4.67-.55,1.16-.49.34.04.68.03,1.02.04.38.01.72-.1,1.02-.33.47-.35.94-.7,1.41-1.05.15-.11.29-.22.45-.31.17-.1.36-.15.56-.11.4.08.52.42.26.73-.05.06-.11.11-.17.16-.62.49-1.27.96-1.93,1.4-.58.38-1.24.34-1.9.28-.14-.01-.28-.04-.43-.05-.22-.02-.4.07-.55.24-.36.42-.35.64.04,1.04.58.58,1.25,1.07,1.81,1.67.15.16.34.18.54.17.38-.03.75-.13,1.1-.25.64-.22,1.28-.45,1.94-.61.76-.19,1.43-.63,2.13-.96.78-.37,1.3-.97,1.67-1.74.39-.82.83-1.63,1.19-2.46.02-.04.04-.07.05-.11.05-.14.16-.3.03-.44-.12-.13-.28-.02-.4.03-.63.27-1.27.21-1.92.13-1.56-.18-3.1-.43-4.62-.81-.56-.14-1.09-.34-1.64-.53-.41-.14-.81-.3-1.22-.43-.66-.22-1.31-.42-1.95-.7-.41-.18-.53-.14-.8.22-.55.73-1.08,1.47-1.65,2.19-.58.74-1.29,1.32-2.18,1.66-.49.19-.97.38-1.47.53-.36.11-.43.21-.46.59,0,.1,0,.21,0,.31-.01.3.13.5.4.61.73.3,1.49.47,2.29.4.41-.03.77-.24,1.15-.38.44-.17.87-.36,1.3-.53.16-.06.32-.12.49-.11.15,0,.29.05.35.2.06.15,0,.28-.11.39-.11.11-.25.19-.39.25-.81.36-1.65.65-2.49.94-.49.17-.98.1-1.47.04-.87-.11-1.66-.44-2.44-.8C.17,42.79,0,42.53,0,42.17c0-.39,0-.78.02-1.17,0-.36.2-.58.53-.69.11-.04.22-.08.34-.09.69-.07,1.3-.36,1.93-.61.63-.25,1.1-.69,1.52-1.2.61-.75,1.19-1.51,1.84-2.23.07-.08.13-.16.19-.25.08-.12.07-.25-.03-.36-.05-.06-.11-.11-.17-.16-.68-.56-.95-1.32-1.06-2.15-.06-.42-.07-.46-.49-.52-.6-.09-1.06-.44-1.46-.86-.29-.31-.54-.67-.79-1.02-.22-.31-.36-.66-.45-1.04-.07-.31-.01-.49.26-.67.15-.1.32-.18.48-.25.76-.31,1.52-.62,2.31-.85.73-.22,1.32-.66,1.89-1.15.13-.11.23-.25.33-.39.12-.16.09-.32-.06-.45-.1-.08-.2-.17-.31-.23-.59-.34-.99-.84-1.22-1.47-.19-.49-.41-.96-.62-1.43-.37-.84-.61-1.72-.45-2.66.03-.17.07-.33.13-.49.56-1.45,1.4-2.7,2.61-3.69.35-.29.78-.42,1.19-.57.78-.29,1.58-.41,2.42-.27.6.1,1.12.33,1.6.69.59.44,1.07.99,1.56,1.53.06.07.11.14.18.21.17.17.25.19.44.04.31-.24.65-.44.96-.67.72-.55,1.56-.78,2.45-.82.97-.05,1.92.07,2.87.3.63.15,1.28.27,1.91.43,1.34.35,2.66.76,3.92,1.32.47.2.94.39,1.42.56.13.05.28.09.39.17.89.61,1.84,1.14,2.68,1.83.31.26.61.53.91.8.26.23.44.5.61.81.42.79.87,1.57,1.29,2.37.69,1.3,1.37,2.6,1.95,3.96.02.05.04.1.07.14.18.37.27.42.64.27.7-.29.81-.11,1.1-.96.02-.07.08-.14.12-.2.39-.62.65-1.29.82-2.01.32-1.41.79-2.78,1.28-4.14.14-.39.35-.76.55-1.12.14-.25.12-.47-.05-.68-.35-.44-.66-.91-1.03-1.33-.92-1.03-1.76-2.14-2.52-3.29-.4-.6-.68-1.26-.93-1.93-.2-.54-.08-1.07.22-1.53.38-.58.89-1.06,1.46-1.46.53-.37,1.09-.71,1.61-1.1.27-.2.57-.36.9-.46.4-.12.75-.04,1.04.26.1.1.21.2.29.31.58.75,1.22,1.46,1.83,2.19.33.4.62.84.85,1.31.32.66.67,1.29,1.08,1.9.26.38.47.78.63,1.21.21.58.15,1.15-.22,1.64-.83,1.11-1.85,2.01-3.05,2.7-.18.1-.38.17-.58.24-.28.09-.47.26-.57.54-.03.1-.08.19-.11.29-.42,1.43-.83,2.85-1.26,4.28-.11.38-.16.75-.03,1.15.1.33.12.69.17,1.04.1.7.37,1.36.56,2.03.23.79.44,1.58.65,2.38.06.24.14.48.26.7.07.13.18.12.23,0,.05-.12.08-.25.09-.38.21-1.42.49-2.82.71-4.24.2-1.33.54-2.63.83-3.94.2-.89.64-1.67,1.1-2.45.57-.95,1.12-1.91,1.88-2.73.4-.43.44-.9.22-1.41-.32-.73-.52-1.5-.84-2.23-.09-.2-.14-.42-.17-.64-.03-.25.08-.47.27-.56.2-.1.37-.03.54.1.23.18.41.4.52.67.1.25.21.51.28.77.16.55.33,1.1.53,1.64.1.27.18.55.17.84-.01.4-.13.77-.41,1.07-.55.6-1.06,1.22-1.51,1.89-.35.53-.68,1.07-.95,1.66-.43.94-.54,1.95-.75,2.94-.25,1.15-.32,2.32-.56,3.47-.01.06-.02.13-.02.19,0,.28.02.31.27.21.28-.12.51-.04.71.16.37.35.69.74,1.02,1.13.55.66,1.03,1.38,1.62,2.01.05.06.1.12.14.19,1.25,1.91,2.52,3.8,3.76,5.72.94,1.46,1.73,3,2.49,4.56.44.89.88,1.77,1.31,2.67.47.97.81,1.98,1.04,3.03.14.63.08,1.27.05,1.91,0,.2-.1.38-.18.56-.16.35-.37.66-.55.99-.41.76-1.02,1.3-1.77,1.72-.53.3-1.04.65-1.55.98-.63.4-1.3.67-2.02.9-1.27.4-2.58.53-3.88.7-.98.13-1.98.15-2.97.11-.91-.04-1.72-.36-2.34-1.02-.46-.49-.73-1.1-.94-1.74-.18-.56-.26-1.14-.36-1.72-.19-1.2-.41-2.39-.62-3.58-.13-.73-.2-1.47-.27-2.21-.08-.79-.13-.86-.89-1.06-.2-.05-.41-.09-.61-.14-1.02-.27-1.51-1-1.65-2.04-.13-1.06-.02-2.11.11-3.15.05-.4.09-.8.13-1.2.03-.23.12-.43.34-.54.24-.12.48-.23.74-.06.25.15.25.41.22.66-.07.66-.17,1.32-.21,1.98-.05.78-.1,1.56.03,2.34.04.25.13.48.26.69.2.34.51.52.89.57.27.04.36-.04.39-.31.01-.12,0-.23,0-.35-.04-.94-.15-1.87-.27-2.8-.12-1.01-.2-2.02-.29-3.03-.08-.9-.17-1.79-.19-2.69-.04-1.28-.29-2.54-.29-3.82,0-.51-.04-1.01-.05-1.52,0-.07,0-.13-.01-.2-.01-.14-.02-.31-.17-.37-.18-.07-.29.08-.39.19-.49.54-.73,1.21-.86,1.9-.13.76-.27,1.51-.41,2.27-.2,1.02-.3,2.06-.4,3.1-.07.71-.2,1.42-.32,2.12-.1.64-.23,1.28-.33,1.93-.16.96-.43,1.88-.77,2.79-.42,1.11-.69,2.27-.97,3.42-.24.96-.46,1.93-.62,2.9-.17,1.01-.26,2.01-.14,3.03,0,.06.01.13.01.2-.03.83.35,1.46.9,2.05,1,1.07,2.23,1.68,3.61,2.07,1.05.29,2.11.48,3.2.42.51-.03,1.01-.07,1.52-.12.18-.02.36-.03.54.02.15.05.26.13.29.28.04.17-.05.3-.17.41-.15.12-.33.16-.51.18-.89.1-1.79.12-2.69.08-1.32-.05-2.56-.47-3.8-.85-1.46-.45-2.59-1.37-3.55-2.52-.39-.46-.57-1.02-.65-1.61-.16-1.14-.17-2.28.02-3.43.17-1,.31-2.01.56-3,.37-1.44.73-2.88,1.21-4.29.42-1.24.73-2.5.9-3.8.08-.57.18-1.13.27-1.7.01-.08.03-.15.04-.23.08-.47-.02-.84-.41-1.17-.75-.63-1.49-1.27-2.23-1.9-.49-.41-1.02-.77-1.46-1.24-.13-.14-.2-.12-.29.05-.01.02-.02.05-.03.07-.47,1.48-1.05,2.92-1.42,4.43-.27,1.09-.43,2.2-.54,3.31-.12,1.19-.04,2.37.06,3.55.01.16.02.31.01.47-.03.97.16,1.92.29,2.87.17,1.31.45,2.59.64,3.89.3,2.04.59,4.08.98,6.09.45,2.31.88,4.63,1.49,6.92.51,1.91.89,3.86,1.25,5.81.32,1.7.68,3.4,1.02,5.1.06.32.17.63.34.91.23.38.38.8.5,1.23.24.84.56,1.65.85,2.48.22.62.7,1.07,1.13,1.53.78.84,1.67,1.57,2.56,2.3.24.2.48.4.72.61.36.31.53.7.51,1.18-.03.85-.06,1.69-.18,2.53-.04.26-.07.52-.11.77-.04.22-.13.42-.27.6-.21.25-.47.37-.8.29-.54-.14-1.09-.26-1.62-.45-.73-.25-1.48-.44-2.23-.59-1.57-.33-3.11-.79-4.62-1.31-.34-.12-.64-.29-.87-.57-.12-.16-.29-.26-.47-.34-.53-.25-.88-.65-1.13-1.19-.83-1.82-1.35-3.75-1.97-5.64-.31-.93-.61-1.86-.97-2.76-.35-.88-.64-1.79-.93-2.7-.3-.97-.6-1.94-.94-2.9-.51-1.47-.89-2.97-1.28-4.47-.52-2-.98-4.03-1.65-5.99-.17-.48-.23-.99-.31-1.49-.04-.3-.1-.59-.2-.87-.09-.25-.26-.37-.53-.37-.78.01-1.56,0-2.35.02-.45,0-.58.13-.62.58-.04.45-.07.91-.08,1.36-.01.35,0,.7,0,1.16Zm28.92-45.75h0c-.05-.32-.19-.62-.36-.9-.44-.73-.87-1.45-1.31-2.18-.1-.17-.19-.34-.32-.49-.7-.82-1.4-1.65-2.09-2.48-.29-.35-.47-.37-.84-.1-.49.35-.97.7-1.44,1.08-.37.3-.74.62-.96,1.07-.18.36-.22.71,0,1.08.09.14.13.31.19.47.07.2.13.4.24.57.4.66.84,1.29,1.29,1.91.79,1.07,1.77,1.98,2.49,3.11.3.47.68.51,1.14.2.78-.52,1.43-1.18,2.05-1.86.33-.36.34-.73.11-1.15-.06-.11-.15-.22-.22-.32ZM11.84,49.74c-.05,1.14.06,2.32.09,3.5.02.99.16,1.97.2,2.96.02.5.3.79.72.98.38.17.79.27,1.21.31.58.05,1.17.09,1.74.22.28.06.56.11.85.1.6,0,1.2,0,1.8,0,.28,0,.55-.05.77-.24.21-.18.43-.18.64,0,.19.16.42.19.66.19.5,0,.99-.08,1.48-.14.5-.07,1-.21,1.5-.26,1.31-.14,2.58-.52,3.87-.78.31-.06.41-.21.38-.53-.02-.21-.03-.42-.08-.62-.27-1.14-.45-2.3-.63-3.46-.23-1.45-.55-2.89-.69-4.36-.03-.36-.08-.73-.06-1.09.02-.43,0-.86-.05-1.29-.07-.61-.12-1.22-.16-1.83-.07-.98.1-1.95.18-2.92.05-.64.11-1.28.28-1.89.31-1.1.61-2.21,1.02-3.28.5-1.31.9-2.63,1.13-4.02.15-.91.19-1.84.33-2.75.06-.4-.03-.51-.41-.64-.65-.23-1.31-.43-1.96-.66-.92-.32-1.85-.62-2.8-.85-.61-.15-1.2-.34-1.79-.56-.57-.22-1.14-.44-1.76-.52-.3-.04-.49-.23-.58-.51-.06-.18-.07-.36-.07-.54,0-.39-.02-.79-.12-1.16-.26-.95-.3-1.93-.43-2.9-.1-.75-.17-1.5-.26-2.25-.06-.47-.16-.54-.64-.54-1.08.02-2.08.29-2.97.93-.24.17-.29.32-.16.56.26.49.48,1.02.78,1.49.24.36.37.77.52,1.18.2.54.23,1.04-.26,1.46,0,0-.02.02-.02.03-.11.16-.09.23.09.28.12.03.26.05.38.06.47.04.88.23,1.26.5.36.26.69.56.97.91.78,1,1.18,2.17,1.52,3.36.18.64.28,1.3.44,1.94.12.48.27.55.73.42.53-.14.81-.03,1.06.46.18.35.27.73.34,1.12.08.42.14.85.26,1.26.16.52.21,1.04.27,1.58.08.73-.19,1.29-.75,1.75-.41.34-.82.69-1.27.97-.23.15-.39.33-.45.61-.27,1.24-.69,2.43-1.23,3.58-.29.62-.61,1.2-1.16,1.65-.93.76-1.96,1.34-3.09,1.72-1.02.35-2.06.65-3.1.97-.38.12-.44.19-.46.58-.05.98-.09,1.95-.07,2.98Zm32-18.99c-.13.11-.14.23-.16.34-.25,1.42-.5,2.85-.68,4.28-.05.42-.13.87.02,1.28.43,1.24.86,2.49,1.49,3.65.17.32.36.63.58.93.5.66.99.79,1.74.45.33-.15.65-.33.95-.54.2-.15.43-.25.69-.23.15.01.28.07.35.22.07.15.02.28-.08.4-.07.08-.15.15-.24.2-.83.56-1.73.96-2.74,1.07-.32.04-.62,0-.91-.15-.5-.27-.92-.62-1.21-1.13-.44-.78-.87-1.58-1.18-2.42-.5-1.38-1.04-2.75-1.53-4.14-.52-1.49-1.02-2.98-1.3-4.54-.08-.44-.19-.87-.28-1.3-.02-.09-.05-.19-.17-.19-.09,0-.14.07-.17.14-.04.08-.08.17-.08.26-.03.4-.13.8-.08,1.21.12.91.02,1.82.13,2.73.11.84.15,1.68.22,2.53.1,1.3.23,2.59.35,3.89.06.65.09,1.3.18,1.94.14.98.2,1.97.27,2.96.09,1.2.22,2.39.39,3.57.24,1.77.58,3.52.89,5.28.1.58.28,1.14.56,1.66.45.83,1.14,1.27,2.08,1.31.6.02,1.2,0,1.8-.02.32-.01.65-.04.97-.11.59-.12,1.18-.18,1.78-.28,1.01-.16,1.99-.41,2.85-1.01.46-.32.95-.59,1.43-.89.5-.31.99-.64,1.33-1.13.21-.31.41-.64.62-.95.27-.4.38-.84.31-1.3-.08-.54-.14-1.08-.27-1.62-.25-.96-.68-1.86-1.08-2.76-.63-1.42-1.37-2.78-2.1-4.15-.54-1.01-1.11-2.01-1.72-2.98-.71-1.11-1.46-2.19-2.2-3.28-.25-.37-.52-.72-.8-1.06-.37-.45-.78-.88-1.16-1.33-.6-.71-1.02-1.54-1.49-2.34-.09-.15-.15-.33-.31-.46Zm-5.2,56.34c.08-.63-.21-1.1-.69-1.44-.52-.37-1.01-.79-1.49-1.2-1.2-1.04-2.28-2.17-2.94-3.65-.12-.27-.24-.55-.36-.83-.12-.29-.22-.59-.38-.86-.29-.48-.42-1-.55-1.54-.2-.85-.37-1.71-.54-2.56-.34-1.74-.73-3.47-1.03-5.21-.33-1.89-.79-3.75-1.26-5.6-.33-1.3-.61-2.61-.88-3.93-.16-.75-.3-1.51-.45-2.26-.08-.42-.22-.53-.61-.46-.5.09-1,.18-1.5.28-1.66.35-3.31.71-5,.88-.37.04-.47.16-.42.55.05.36.15.71.25,1.06.22.75.54,1.47.73,2.23.3,1.19.65,2.36.97,3.54.32,1.18.67,2.36.98,3.54.16.59.39,1.16.56,1.75.45,1.59.94,3.17,1.49,4.74.8,2.3,1.61,4.6,2.34,6.93.26.85.64,1.65.95,2.48.09.25.23.47.44.63.29.22.6.41.82.72.05.07.15.11.23.14.63.21,1.24.48,1.88.65.61.15,1.22.28,1.81.48.23.08.48.14.72.17.74.1,1.46.28,2.17.51.33.11.67.2,1.02.27.39.08.51-.01.6-.41.12-.53.06-1.07.14-1.59Zm-20.5-49.36c.32,0,.63,0,.93-.12,1.12-.48,2.18-1.06,3.1-1.87.24-.21.34-.45.28-.76-.05-.3-.11-.6-.27-.85-.26-.4-.33-.84-.36-1.3-.02-.26-.06-.52-.15-.76-.09-.25-.19-.3-.45-.24-.33.08-.65.19-.93.38-.37.25-.73.5-1.08.77-.18.15-.37.29-.61.34-.33.07-.54-.15-.44-.48.06-.19.2-.33.36-.45.24-.18.48-.36.73-.52.32-.2.45-.49.47-.85,0-.21-.01-.41-.03-.62-.08-.73-.27-1.43-.47-2.13-.31-1.06-.73-2.07-1.47-2.91-.49-.56-1.06-1.06-1.86-1.12-.25-.02-.5-.01-.74-.03-.33-.03-.6.08-.85.3-.83.75-1.77,1.33-2.77,1.82-.82.41-1.69.63-2.61.43-.46-.1-.76.02-1.05.37-.7.86-1.59,1.45-2.66,1.77-.51.15-1.02.33-1.52.52-.44.16-.49.34-.26.74.26.44.57.84.93,1.2.5.52,1.08.61,1.71.34.52-.22,1-.5,1.43-.87.41-.36.83-.72,1.24-1.08.19-.16.39-.31.63-.39.14-.05.29-.06.39.07.12.15.06.3-.04.43-.07.09-.15.18-.24.25-.38.33-.78.65-1.15,1-.54.51-1.13.92-1.81,1.21-.12.05-.24.11-.35.17-.19.09-.27.24-.24.45.08.47.24.9.6,1.24.54.51,1.18.86,1.87,1.1,1.68.6,3.37,1.16,5.09,1.65,1.52.43,3.09.62,4.66.78ZM6.2,20.03c-.03.98.16,1.83.35,2.68.13.58.55,1.03.84,1.54.4.7.99,1.07,1.73,1.28.76.21,1.52.24,2.25-.1,1.23-.57,2.29-1.39,3.25-2.34.15-.15.25-.33.32-.53.16-.47.09-.92-.11-1.36-.29-.63-.68-1.2-1.01-1.8-.65-1.18-1.51-2.14-2.61-2.91-.25-.17-.52-.3-.83-.32-.63-.06-1.25,0-1.84.24-.21.08-.39.21-.49.42-.09.21-.26.36-.46.46-.2.1-.36.24-.51.41-.6.7-.97,1.48-.88,2.33Zm23.14,1.68c0-.26.06-.55-.17-.74-.42-.35-.81-.74-1.35-.91-.83-.27-1.64-.59-2.44-.94-1.51-.66-3.13-.99-4.73-1.34-.31-.07-.39.01-.38.36.01.86.07,1.72.21,2.57.17,1.05.32,2.11.48,3.17.06.39.23.61.58.74.74.26,1.46.55,2.23.73,1.47.35,2.91.8,4.33,1.33.18.07.36.15.55.21.35.1.46.02.45-.34,0-.33-.08-.65-.07-.97.02-1.04.14-2.08.24-3.11.02-.25.08-.49.08-.74Zm.5,10.31c-.02.35.02.43.31.51.27.08.5.22.72.39.99.72,1.91,1.53,2.82,2.35.29.26.42.22.5-.15.1-.48.19-.97.28-1.46.09-.49.19-.97.26-1.46.07-.5.27-.95.48-1.4.16-.33.15-.65-.03-.97-.12-.2-.21-.42-.3-.64-.34-.83-.68-1.66-1.1-2.46-.5-.96-.9-1.96-1.34-2.95-.1-.22-.22-.41-.41-.56-.11-.09-.21-.19-.32-.29-.32-.28-.64-.58-.97-.84-.23-.18-.38-.1-.42.19-.01.1-.02.21,0,.31.06.69,0,1.38,0,2.07-.01.48.05.96.06,1.44.02.79.02,1.59-.05,2.38-.06.7-.11,1.4-.22,2.1-.07.5-.18,1-.26,1.44Z"/>
  <path d="m27.39,16.46c-.72.08-1.48-.17-2.24-.34-1.13-.26-2.21-.68-3.28-1.14-.66-.29-1.32-.56-1.94-.92-.25-.14-.53-.21-.81-.27-1.04-.2-2.05-.49-3-.97-.51-.26-.92-.64-1.29-1.06-.11-.13-.18-.29-.23-.45-.24-.69-.31-1.4-.26-2.12.04-.53.25-1.01.56-1.44.21-.3.44-.58.65-.88.6-.87,1.47-1.19,2.49-1.23.73-.03,1.38.19,2.02.52.49.26.51.24.65-.28.11-.4.22-.8.35-1.2.12-.36.27-.7.5-1.01.14-.2.25-.43.37-.64C23.05,1.04,24.72-.01,27.02,0c.65,0,1.3.01,1.95.07,1.85.16,3.44.87,4.79,2.14.25.24.41.54.52.86.48,1.32.72,2.69.71,4.1,0,.89-.18,1.76-.39,2.62-.33,1.37-.79,2.7-1.52,3.92-.83,1.39-2.03,2.29-3.65,2.57-.66.11-1.31.21-2.05.19Zm6.57-10.06h0c0-.2-.01-.39,0-.59.06-.88-.15-1.7-.59-2.47-.16-.28-.36-.51-.64-.67-.19-.1-.29-.07-.37.13-.07.15-.11.32-.17.48-.32.81-.76,1.53-1.5,2.04-.71.48-1.43.9-2.3,1-.26.03-.47.13-.6.38-.33.61-.78,1.14-1.21,1.68-.37.46-.77.88-1.23,1.25-.34.27-.72.45-1.17.5-.64.08-1.27.09-1.91,0-.27-.03-.54-.07-.81-.1-.21-.02-.35.07-.4.28-.18.71-.46,1.38-.61,2.1-.16.74-.12.83.53,1.18,1.19.64,2.44,1.13,3.72,1.52,1.27.39,2.56.55,3.89.38,1.1-.14,2.02-.56,2.75-1.4.48-.55.88-1.18,1.18-1.84.62-1.38,1.06-2.83,1.4-4.3.04-.16.05-.34.05-.5,0-.35,0-.7,0-1.06ZM27.44.98c-1.57-.04-2.61.49-3.44,1.44-.69.79-1.17,1.72-1.56,2.69-.48,1.16-.61,2.42-1.03,3.6,0,.01,0,.03,0,.04-.04.25.03.37.27.43.16.04.33.06.5.08.3.04.59.09.89.1.63.02,1.13-.28,1.56-.69.76-.72,1.39-1.56,1.9-2.47.24-.42.55-.59,1.01-.68,1.63-.31,2.87-1.17,3.59-2.71.1-.21.19-.43.23-.66.03-.2-.02-.36-.21-.46-.5-.25-1.02-.49-1.58-.56-.8-.1-1.61-.12-2.13-.16Zm-11.83,8.82c.01.14.05.36.05.58,0,.74.36,1.24.98,1.62.57.35,1.2.49,1.83.67.38.11.49.04.59-.34.1-.38.18-.76.28-1.14.25-.9.5-1.81.74-2.72.13-.48.12-.88-.17-1.32-.25-.38-.55-.58-.97-.64-.48-.06-.96-.02-1.43.11-.28.08-.54.21-.74.42-.71.74-1.14,1.61-1.15,2.74Z"/>
  <path d="m13.66,36.03c-.56.02-.9-.14-1.23-.29-.51-.23-.98-.53-1.29-1.04-.3-.49-.27-.84.12-1.18.21-.18.4-.37.61-.55.48-.41.85-.91,1.14-1.47.43-.83.74-1.72,1.14-2.57.08-.16.15-.33.25-.49.14-.22.32-.3.49-.25.18.06.27.24.26.52,0,.14-.03.29-.06.42-.24,1.04-.67,2-1.18,2.92-.32.58-.78,1.04-1.25,1.49-.45.43-.45.68.04,1.07.23.19.48.35.76.47.28.11.54.08.77-.1.92-.72,1.61-1.63,2.01-2.73.09-.24.17-.49.28-.73.13-.25.34-.39.61-.45.32-.07.54.1.57.42.01.13-.02.26-.07.38-.63,1.43-1.48,2.69-2.76,3.62-.42.31-.88.5-1.22.52Z"/>
  <path d="m44.6,16.21c0,.46-.21.82-.56,1.11-.46.39-.97.71-1.4,1.13-.09.09-.22.14-.33.2-.55.27-.97.18-1.33-.32-.25-.35-.51-.7-.73-1.07-.23-.38-.48-.75-.73-1.11-.59-.86-1.14-1.74-1.83-2.54-.24-.28-.28-.57-.16-.91.14-.41.37-.75.76-.96.43-.23.81-.52,1.16-.85.41-.39.87-.36,1.26.07.17.19.31.42.48.61,1.07,1.27,2.08,2.58,2.92,4.01.13.22.3.43.49.61,0,0,0,0,0,0Z"/>
</svg>