<?xml version="1.0" encoding="utf-8"?>
<!-- Generator: Adobe Illustrator 27.5.0, SVG Export Plug-In . SVG Version: 6.00 Build 0)  -->
<svg version="1.1" id="Capa_1" xmlns="http://www.w3.org/2000/svg" xmlns:xlink="http://www.w3.org/1999/xlink" x="0px" y="0px"
	 viewBox="0 0 15 16" style="enable-background:new 0 0 15 16;" xml:space="preserve">
<style type="text/css">
	.st0{fill:none;stroke:#000000;stroke-width:0.2085;stroke-linecap:round;stroke-linejoin:round;stroke-miterlimit:10;}
	.st1{fill:none;stroke:#000000;stroke-width:0.1855;stroke-linecap:round;stroke-linejoin:round;stroke-miterlimit:10;}
	.st2{fill:none;stroke:#000000;stroke-width:0.1085;stroke-miterlimit:10;}
	.st3{fill:none;stroke:#000000;stroke-width:0.1085;stroke-linecap:round;stroke-linejoin:round;stroke-miterlimit:10;}
</style>
<g>
	<g>
		<path class="st0" d="M5.24,7.06l-0.8,0.36C4.32,7.47,4.23,7.58,4.2,7.71v0c-0.04,0.17-0.01,0.35,0.08,0.5L4.46,8.5
			c0.1,0.17,0.28,0.28,0.47,0.31l0,0C5.06,8.83,5.18,8.8,5.29,8.75c0.24-0.13,0.67-0.36,0.67-0.37L5.24,7.06z"/>
		<path class="st1" d="M6.86,11.18c0.16,0.65-0.61,1.52-0.61,1.52l-0.45,2.66H4.47v-0.39l0.68-0.42v-1.55l0.1-1.46
			c-0.16-0.63-0.2-1.16-0.21-1.52C5.01,9.16,5.16,8.97,5.24,8.9C5.5,8.64,5.93,8.65,6.21,8.74c0.49,0.15,0.7,0.6,0.8,0.82
			c0.06,0.12,0.31,0.66,0.09,1.24c-0.07,0.19-0.17,0.33-0.25,0.42l-1.23,0.87L5.59,11.6l0.77-0.86L6.28,9.55"/>
		<path class="st1" d="M6.9,9.62"/>
		<polygon class="st1" points="6.72,12.02 6.72,13.63 6.92,15.35 5.82,15.35 5.9,14.88 6.12,14.79 6.02,14.18 6.25,12.71 		"/>
	</g>
	<g>
		<path class="st2" d="M5.72,4.87l0.45-0.42c0.07-0.06,0.16-0.09,0.25-0.07h0c0.12,0.02,0.23,0.09,0.3,0.19l0.14,0.19
			c0.08,0.11,0.11,0.25,0.07,0.39h0C6.9,5.23,6.86,5.3,6.79,5.36C6.64,5.48,6.38,5.69,6.37,5.69L5.72,4.87z"/>
		<path class="st2" d="M9.26,1.85L8.71,2.13C8.63,2.17,8.57,2.25,8.56,2.34v0c-0.02,0.12,0,0.24,0.07,0.35l0.13,0.2
			c0.08,0.11,0.2,0.19,0.34,0.2l0,0c0.08,0.01,0.17-0.01,0.24-0.06c0.16-0.1,0.47-0.32,0.47-0.32L9.26,1.85z"/>
		<path class="st3" d="M7.78,6.94L7.16,6.54C6.91,6.37,6.61,6.2,6.49,5.93L6.48,5.88C6.47,5.86,6.45,5.81,6.46,5.75
			C6.48,5.7,6.51,5.66,6.53,5.64C6.68,5.5,6.98,5.37,7.1,5.2c0.12-0.17,0.09-0.42,0.02-0.57C7,4.37,6.77,4.38,6.51,4.12
			C6.39,4,6.23,3.8,6.13,3.46v0L6.29,3.2h0.28l0.1,0.5l0.67,0.39C7.39,4.12,7.43,4.16,7.47,4.2v0C7.52,4.26,7.6,4.36,7.65,4.5
			c0.06,0.15,0.07,0.27,0.08,0.34c0.02,0.2-0.02,0.37-0.06,0.5l0.36,0.31c0.23,0.2,0.41,0.44,0.54,0.72
			c0.03,0.08,0.06,0.15,0.09,0.23"/>
		<path class="st3" d="M10.13,4.76L9.69,3.57l0.57-0.55l0.23,0.42l-0.27,0.3l0.33,0.23l0.34-0.23l-0.03-0.34
			c-0.02-0.22-0.07-0.44-0.16-0.65l-0.09-0.21l-0.38-0.11l-0.15,0.09C9.88,2.63,9.69,2.79,9.5,2.92"/>
		<polyline class="st3" points="8.55,2.34 8.27,1.86 8.32,1.05 		"/>
		<path class="st3" d="M8.67,4.94l-0.4-1.12L7.95,2.73L7.81,2.47c-0.07-0.12-0.1-0.26-0.09-0.4l0.01-0.75"/>
		<polygon class="st3" points="7.99,0.87 8.19,0.59 8.32,1.06 8.07,1.28 7.84,1.21 7.72,1.06 7.84,0.97 		"/>
		<path class="st3" d="M6.28,3.22L6.06,3.07L5.8,3.17V3.4c0,0.29,0.09,0.57,0.25,0.81l0.19,0.2"/>
		<path class="st3" d="M8.08,0.75L7.91,0.93L6.46,1.84c0,0,0.53,0.17,0.79-0.08C7.5,1.5,7.73,1.32,7.73,1.32L7.58,1.15"/>
		<circle class="st3" cx="8.12" cy="3.74" r="3.39"/>
		<polyline class="st3" points="5.48,5.86 5.48,6.7 6.47,6.7 		"/>
	</g>
</g>
</svg>
