<?xml version="1.0" encoding="utf-8"?>
<!-- Generator: Adobe Illustrator 27.1.1, SVG Export Plug-In . SVG Version: 6.00 Build 0)  -->
<svg version="1.1" id="Layer_1" xmlns="http://www.w3.org/2000/svg" xmlns:xlink="http://www.w3.org/1999/xlink" x="0px" y="0px"
	 viewBox="0 0 100 100" style="enable-background:new 0 0 100 100;" xml:space="preserve">
<style type="text/css">
	.st0{fill:#FFFFFF;stroke:#000000;stroke-miterlimit:10;}
</style>
<path class="st0" d="M32.29,42.35c-0.17,0.19-0.12,0.33-0.05,0.44c1.89,2.98,1.14,10.3,1.14,10.3l-0.23,0.14l-1.52,1.31l-1.34,1.31
	l0.61,0.66c0,0,3.55,2.9,5.34,4.33c0.49,0.39,0.63,0.77,0.45,1.39c-0.61,2.12-1.37,4.17-2.86,5.85c-0.43,0.49-0.43,1.03-0.43,1.6
	c0,4.37-1.36,15.38,0,22.66c0.12,0.62,0.45,2.3-0.47,3.32c-0.51,0.56-1.19,0.7-2.11,0.89c-1.01,0.2-2.81,0.61-4.03-0.28
	c-0.94-0.68-1.56-1.85-1.56-3.33C25.23,83.72,25,74.2,25,65c0-0.3,0.01-0.61,0-0.91c-0.02-0.42,0.11-0.96-0.55-0.99
	c-0.58-0.03-1.22-0.2-1.54,0.58c-1.22,2.89-2.46,5.76-3.72,8.63c-0.24,0.56-0.04,0.96,0.29,1.38c1.46,1.85,2.9,3.72,4.38,5.56
	C24.3,79.81,25,81.1,25,81.1l0.31,9.51c0,0-0.65,4.26,1.52,5.83c-1.91,0.36-5.81,0.39-5.69-1.53c0.13-2.13,0.43-5.1-0.76-6.59
	c-3.08-3.84-6.06-7.75-9.14-11.59c-1.35-1.68-1.61-3.38-0.72-5.35c1.29-2.86,2.5-5.75,3.73-8.63c0.15-0.34,0.46-0.68,0.2-1.17
	c-0.07,0.39-0.14,0.78-0.2,1.17c-0.64,1.24-1.6,3.72-1.6,3.72l-0.38,0.76c0,0-1.06-0.82-1.19-1.12c-0.39-0.86-0.32-1.8-0.34-2.69
	c-0.18-6.29-0.43-12.6,0.74-18.84c0.45-2.39,1.06-4.74,2.43-6.8c1.21-1.8,2.81-2.78,5.08-2.72c3.47,0.09,6.95,0.12,10.42,0
	c3.75-0.13,6.27,1.68,8.06,4.75c1.66,2.84,2.26,6.01,2.88,9.2c0.59,3.03-0.43,5.41-2.37,7.58c-0.67,0.75-1.32,1.53-1.92,2.34
	c-0.36,0.47-0.65,1.26-1.14,0.84c-0.98-0.83-1.97-1.64-2.99-2.41c-0.57-0.43-1.83-1.22-1.4-1.73c0.89-1.06,3.01-2.4,3.89-3.46
	c0.26-0.31,0.43-0.64,0.5-1.01c0,0,0.05-0.28,0.01-0.57C34.84,49.92,33.81,46.7,32.29,42.35z"/>
<path class="st0" d="M76.78,49.71c-0.65-1.37-0.88-2.66-1.28-3.9c-0.47-1.43-1.13-2.19-2.35-2.28c-1.74-0.13-3.03,1.14-2.95,2.93
	c0.04,0.89,0.71,2.19,0.95,3.03c0.15,0.51,0.32,1.05-0.22,0.85c-0.03-0.01-0.72-0.36-0.75-0.36c-2.41-0.7-2.41-1.19-2.44-3.72
	c-0.01-0.53,0-1.05-0.1-1.6c-0.73,1.12-1.05,2.38-1.45,3.61c-0.16,0.48,0.25,0.54,0.57,0.65c1.06,0.35,2.1,0.75,3.17,1.03
	c0.94,0.25,1.62,0.74,1.87,1.72c0.63,2.41,1.39,4.79,2.1,7.18c0.08,0.26,0.15,0.52,0.25,0.77c0.45,1.18,1.1,1.92,2.38,1.98
	c1.28,0.06,2.2-0.59,2.71-1.74c0.66-1.51,1.27-3.05,1.89-4.58c0.21-0.51,0.35-1.08,1.12-0.64c0.62,0.35,1.17,0.61,0.68,1.53
	c-2.07,3.86-4.07,7.76-6.12,11.63c-0.61,1.15-1.36,1.44-2.61,1.02c-5.32-1.82-10.64-3.64-15.96-5.49c-1.35-0.47-1.72-1.11-1.46-2.56
	c0.75-4.24,1.53-8.48,2.28-12.72c0.15-0.85,0.56-1.13,1.41-0.89c1.2,0.34,2.42,0.59,3.61,0.95c0.55,0.16,0.81,0.04,0.99-0.48
	c0.32-0.96,0.63-1.92,1.03-2.85c2.07-4.81,8.64-5.75,11.87-1.73c0.44,0.55,0.7,0.98,0.01,1.6c-0.77,0.7-0.79,1.69-0.55,2.64
	C77.61,48.1,77.28,48.8,76.78,49.71z"/>
<path class="st0" d="M75.42,77.88c-5.89,0.09-11.3-0.52-16.66-1.58c-1-0.2-1.22-0.57-0.99-1.56c1.01-4.43,1.81-8.06,2.37-9.99
	c0.26-0.9,0.65-0.58,1.52-0.26c3.9,1.39,7.83,2.72,11.75,4.06c1.85,0.63,2.74,0.32,3.64-1.43c0.43-0.84,0.72-0.69,1.3-0.15
	c2.62,2.46,4.31,5.38,4.87,8.97c0.25,1.58,0.3,1.62-1.34,1.72C79.59,77.8,77.3,77.98,75.42,77.88z"/>
<path class="st0" d="M61.94,96.13c-0.65,1.18-4.68,1.08-5.88-0.82c-0.26-0.41-1.06-1.39,0.06-3.47c1.6-2.96,3.23-5.91,4.85-8.86
	c0.92-1.68,1.86-3.36,2.76-5.05c0.29-0.55,0.61-0.74,1.27-0.66c1.87,0.22,3.75,0.35,5.63,0.45c0.72,0.04,0.92,0.23,0.55,0.9
	c-0.91,1.66-10.04,12.87-9.19,16.73C62.02,95.49,62.11,95.83,61.94,96.13z"/>
<path class="st0" d="M80.19,77.73c0.87-0.2,1.14,0.29,1.28,1.02c1.63,8.59,1.88,12.98,2.75,14.46c0.35,0.59,0.91,1.39,0.66,2.22
	c-0.33,1.12-1.97,1.76-3.27,1.75c-2.2-0.02-3.87-1.83-4.01-2.4c-0.51-2.05-0.86-4.15-1.26-6.22c-0.6-3.07-1.18-6.14-1.78-9.2
	c-0.26-1.34-0.23-1.38,1.1-1.41C77.18,77.9,78.7,78,80.19,77.73z"/>
<path class="st0" d="M77.44,52.09c0.73-1.81,1.26-3.49,0.78-5.49c-0.3-1.25,0.55-2.34,1.72-2.69c1.17-0.35,2.41,0.17,3.08,1.32
	c0.68,1.18,0.66,2.49,0.42,3.75c-0.83,4.33-2.52,8.36-4.34,12.35c-0.45,0.98-1.32,1.47-2.39,1.4c-1.11-0.07-1.94-0.69-2.27-1.77
	c-1.41-4.65-2.81-9.31-4.15-13.98c-0.46-1.59,0.3-3.04,1.76-3.45c1.33-0.37,2.93,0.54,3.43,2.09
	C76.18,47.76,76.79,49.93,77.44,52.09z"/>
<path class="st0" d="M59.37,43.73c0.98,0.04,1.74-0.37,2.3-1.18c0.87-1.25,1.23-2.68,1.52-4.14c0.28-1.43,0.68-2.81,1.44-4.06
	c0.89-1.46,2.17-2.35,3.85-2.7c0.68-0.14,0.73,0.1,0.83,0.77c0.27,1.86-0.97,3.2-1.37,4.82c-0.4,1.63-0.77,3.28-1.53,4.8
	c-1.23,2.48-4.01,3.81-6.35,3.07c-0.35-0.11-0.69-0.27-1-0.47c-0.27-0.17-0.64-0.39-0.49-0.78C58.71,43.48,59.08,43.7,59.37,43.73z"
	/>
<path d="M91.28,20.08c1.09-1.05,1.61-2.13,1-3.46c-0.48-1.04-1.35-1.64-2.49-1.59c-1.55,0.06-2.39,1.03-2.69,2.54
	c-0.36-0.25-0.33-0.52-0.32-0.79c0.02-0.97-0.23-1.16-1.16-0.86c-1.82,0.58-2.42,2.88-1.12,4.26c0.39,0.42,0.73,0.61,1.06-0.07
	c0.17-0.36,0.38-0.79,0.91-0.43c0.48,0.32,0.16,0.66-0.02,0.95c-0.87,1.44-1.75,2.88-2.64,4.31c-0.16,0.26-0.32,0.72-0.75,0.42
	c-0.34-0.24-0.05-0.55,0.08-0.8c0.42-0.81,0.85-1.61,1.31-2.39c0.25-0.43,0.24-0.65-0.22-0.97c-1.58-1.09-2.09-2.63-1.46-4.2
	c0.6-1.51,2.04-2.32,3.85-2.07c0.51,0.07,0.8-0.06,1.14-0.39c1.36-1.31,3.22-1.46,4.59-0.41c1.45,1.11,1.82,2.87,0.9,4.59
	c-0.23,0.43-0.25,0.76-0.06,1.22c0.65,1.6,0.19,3.31-1.09,4.27c-1.32,1-3.05,1.01-4.39-0.07c-0.52-0.42-0.83-0.39-1.27,0.05
	c-0.59,0.6-1.22,1.16-1.85,1.73c-0.2,0.18-0.42,0.41-0.69,0.15c-0.27-0.27-0.04-0.5,0.14-0.69c1.25-1.32,2.51-2.63,3.77-3.95
	c0.23-0.24,0.46-0.4,0.78-0.12c0.33,0.3,0.25,0.55-0.01,0.86c-0.62,0.76-0.52,1.06,0.4,1.34c1.85,0.58,3.55-0.78,3.38-2.7
	C92.3,20.07,92.26,20.05,91.28,20.08z"/>
<path class="st0" d="M44.46,9.03c0,0.38-0.25,0.53-0.44,0.7c-3.56,3.14-7.13,6.28-10.7,9.42c-0.26,0.23-0.55,0.46-0.88,0.16
	c-0.44-0.4-0.01-0.68,0.21-0.92c2.44-2.56,4.9-5.1,7.35-7.66c0.79-0.83,1.58-1.66,2.37-2.49c0.89-0.93,0.93-0.93,1.69,0.15
	C44.21,8.62,44.35,8.85,44.46,9.03z"/>
<path class="st0" d="M35.07,22.25c-0.48,0.07-0.75,0.03-0.83-0.29c-0.13-0.5,0.3-0.53,0.6-0.62c2.5-0.79,5-1.58,7.51-2.36
	c1.89-0.59,3.79-1.17,5.68-1.77c0.5-0.16,0.87-0.17,1.2,0.36c0.42,0.67,0.34,0.99-0.46,1.19c-4.53,1.14-9.05,2.31-13.58,3.47
	C35.09,22.25,34.99,22.26,35.07,22.25z"/>
<path class="st0" d="M34.15,2.55c0.71-0.04,0.95,0.21,0.73,0.9c-1.43,4.48-2.85,8.97-4.27,13.45c-0.11,0.36-0.24,0.78-0.72,0.66
	c-0.58-0.14-0.28-0.62-0.21-0.92c1.15-4.42,2.31-8.84,3.47-13.25C33.29,2.84,33.51,2.42,34.15,2.55z"/>
<path class="st0" d="M90.44,33.87c1.54-0.01,2.69,0.39,3.67,1.24c0.53,0.46,0.87,1.03,0.81,1.76c-0.04,0.61-0.32,1.11-0.88,1.37
	c-0.54,0.25-0.97-0.06-1.35-0.41c-1.11-1.02-2.08-2.19-3.3-3.09c-0.54-0.4-0.32-0.67,0.2-0.78C89.94,33.87,90.31,33.88,90.44,33.87z
	"/>
<path class="st0" d="M87.74,31.42c-0.75,0.15-0.75-0.13-0.54-0.58c0.49-1.02,2.31-2.07,3.45-1.96c0.6,0.06,1.1,0.3,1.37,0.88
	c0.34,0.74,0.1,1.24-0.7,1.42C90.11,31.46,88.85,31.29,87.74,31.42z"/>
<path class="st0" d="M89.58,39.49c-0.07,0.43-0.28,0.84-0.77,1.03c-0.48,0.19-0.76-0.15-1.01-0.47c-0.61-0.8-1.2-1.62-1.81-2.43
	c-0.19-0.25-0.27-0.47,0.11-0.63C87.23,36.54,89.63,38.22,89.58,39.49z"/>
<path class="st0" d="M17.39,26.46c-0.88-4.98,2.51-8.06,7.95-7.31c3.23,0.44,4.85,2.01,4.82,4.92C30.14,26.05,30.67,28,30.28,30
	c-0.45,2.28-2.34,3.73-5.56,4.13c-3.33,0.41-5.3-0.47-6.2-2.79c-0.28-0.71-0.57-1.43-0.74-2.17C17.58,28.28,17.51,27.37,17.39,26.46
	z"/>
<path class="st0" d="M70.97,30.49c1.1-4.55,5.12-5.9,9.46-3.25c2.57,1.57,3.37,3.51,2.26,5.97c-0.75,1.67-1.02,3.52-2.1,5.07
	c-1.23,1.77-3.38,2.29-6.25,1.43c-2.98-0.89-4.32-2.37-4.22-4.67c0.03-0.71,0.05-1.42,0.18-2.11
	C70.46,32.11,70.75,31.31,70.97,30.49z"/>
<path class="st0" d="M74.98,36.11c-0.3,0-0.6-0.02-0.9,0.01c-0.24,0.02-0.49,0.12-0.47,0.42c0.02,0.3,0.24,0.36,0.51,0.34
	c1.76-0.15,3.39,0.19,4.82,1.29c0.24,0.19,0.5,0.26,0.69-0.03c0.19-0.29-0.1-0.42-0.27-0.56C78.09,36.5,76.58,36.15,74.98,36.11z"/>
<path class="st0" d="M83.36,97.05"/>
</svg>
