<?xml version="1.0" encoding="utf-8"?>
<!-- Generator: Adobe Illustrator 27.1.1, SVG Export Plug-In . SVG Version: 6.00 Build 0)  -->
<svg version="1.1" id="Layer_1" xmlns="http://www.w3.org/2000/svg" xmlns:xlink="http://www.w3.org/1999/xlink" x="0px" y="0px"
	 viewBox="0 0 300 300" style="enable-background:new 0 0 300 300;" xml:space="preserve">
<g>
	<g>
		<path d="M186.45,19.13c4.29,1.32,4.09,7.22,5.96,10.76c6.08,11.2,4.55,23.79,3.72,36.02c-1.77,13.31,3.45,37.02-14.17,40.48
			c-14.31,1.83-28.73,1.52-43.14,2.03c-3.12,0.47-10.72-1.31-12.53,1.09c-6.41,10.21-16.42,18.81-28.35,21.51
			c-1.66,0.71-2.88-1.15-1.41-2.37c5.29-5.48,7.92-13.07,8.98-20.53c0.23-2.89-4.36-1.63-6.16-2.79c-9.39-5.03-4.45-22.4-6.65-31.53
			c-4.76-35.73,9.23-33.53,39.16-35.32c8.28-0.22,16.56-0.94,24.82-1.18c3.84-1.49,5.62-6.29,7.8-9.61
			c4.78-8.38,7.3,7.07,11.42,5.79c2.65-4.99,7.6-8.97,9.16-14.36C185.52,19.13,185.99,19.13,186.45,19.13z M157.74,66.68
			c0.47,0.02,1,0.05,1.26-0.4c-2.89-7.94-13.44-3.72-19.95-3.6c-3.11,0.36-3.8,4-5.19,6.2c-3.37,3.97-5.35,5.41-0.41,9.17
			C138.49,83.04,135.7,64.04,157.74,66.68z M179.4,74.67c4.52,0.8,1.99-7.43,2.75-10.24c-0.27-4.56-0.22-9.14-0.61-13.69
			c-0.05-2.09-2.19-1.42-4.26-1.8C174.49,48.42,176.91,74.72,179.4,74.67z M128.99,50.86c-5.07,0,1.22,4.43,2.34,5.98
			c6.67,8.86,4.9-1.69,10.41-3.02c2.75-0.74,6.13,0.46,7.85,2.79c0.17,0.51,1.32,1.22,1.02,0.2
			C145.61,48.06,137.14,51.41,128.99,50.86z M148.45,74.11c0.75,3.43,2.65,4.67,4.96,4.95c3.86,0.45,8.89-1.79,11.68-1.09
			c8.92,2.25,2.21-3.86-0.95-7.21c-1.16-1.23-4.17,0.39-4.53,1.96C158.62,76.38,151.66,74.76,148.45,74.11z M159.41,83.03
			c2.62-0.41,6.92,0.9,8.71-1.37c0.52-1.1,0.71-1.88-1.09-1.81c-4.08,0.04-8.08,0.65-12.07,1.45c-1.34-0.17-2.73,1.35-3.79,0.01
			c-2.54-2.6-4.87-5.41-7.49-7.93c-5.92-0.42,5.03,8.97,6.51,9.86C153.26,83.92,156.26,82.95,159.41,83.03z M130.78,67.25
			c-0.02-0.95-9.45-11.81-8.62-7.32C123.59,60.86,130.3,71.37,130.78,67.25z M147.2,86.59c2.79-0.68-2.17-3.72-2.93-4.81
			c-1.56-0.98-2.74-3.56-4.43-3.78C138.57,79.05,145.93,86.34,147.2,86.59z M128,70.99c-6.67-10.07-13.1-11.24-1.49-0.09
			C126.92,71.28,127.9,72.01,128,70.99z M125.28,54.79c-2.52,1.23,5.5,7.16,6.53,8.76c0.84,0.95,1.87-0.28,0.9-1.04
			C130.11,60.1,127.9,57.04,125.28,54.79z M178.27,85.98c-0.17,5.37,4.8,1.09,2.41-1.77C179.14,82.91,177.98,84.31,178.27,85.98z
			 M153.19,70.33c-4.13,0.02,1.29,3.63,2.25,1.34C155.53,70.49,154.17,70.27,153.19,70.33z M159.89,88.26
			c-1.87-0.27-12.4,0.04-16.02-0.55C147.03,90.11,160.27,89.04,159.89,88.26z M147.68,58.54c-0.8-0.83-6.55-2.25-5.53,0.55
			C143.18,61.91,149.93,61.27,147.68,58.54z M143.33,87.3c-0.47-0.83-0.95-1.63-1.97-1.87C141.84,86.23,142.54,86.82,143.33,87.3z"
			/>
		<path d="M63.36,97.94c20.94-0.16,35.74,8.79,29.44,31.6c-2.63,10.68-1.97,24.52-14.34,28.82c-0.81,0.44-3.96,1.06-2.32,2.23
			c18.41,7.33,34.25,19.33,43.07,37.37c1.51,2.68,3.92-1.53,5.39-2.49c6.07-5.81,12.5-11.26,18.8-16.83
			c3.75-3.3,1.23-13.23,7.49-13.48c10.83,2.81,20.13-2.54,28.5-8.94c1.01-0.84,2.1-1.24,3.42-0.53c2.5,0.99,5.45,0.53,7.9,1.77
			c7.69,5.09-7.11,13.91-9.58,18.91c-10.56,11.02-21.59,21.62-30.74,33.89c-27.07,32.11-17.93,33.99-57.18,12.7
			c-2.68-1.92-2.81,7.59-4.9,9.35c-5.18,6.71-13.49,11.68-14.17,21.02c-0.9,5.08-0.12,10.11,0.32,15.17
			c-6.19,11.63-5.81-19.89-2.57-22.45c3.97-8.73,14.7-12.94,15.16-23.42c1.53-4.68-5.22-5.6-7.66-8.54
			c-2.84-2.62,0.95-4.7,3.23-2.47c11.65,7.63,24.03,14.22,36.72,19.97c7.45,4.42,8.82-1.05,13.09-6.03
			c16.79-22.93,37.16-42.69,55.7-64.04c0.14-2.13-4.46-1.51-6.03-1.5c-4.53,2.53-8.98,5.37-13.5,7.98
			c-4.73,3.19-10.64,1.75-15.96,1.39c-3.04,0.1-2.77,5.45-3.79,7.71c-4.56,9.49-15.72,14.54-22.59,22.47
			c-11.35,14.7-11.05-10.95-28.28-22.28c-10.57-7.4-22.24-13.23-34.43-17.4c-2.64-1.11-4.07,8.27-10.03,9.9
			c-6.5,4.04-13.56,7.2-20.42,10.54c-5.51,0.24-0.07-13.31-0.53-16.89c-2.1-4.8-13.07,21.12-14.08,24.04
			c-6.32,17.31-9.29,35.6-11.89,53.77c-1.51,3.87,1.31,13.36-3.64,14.23c-2.02-2.46-0.52-6.82-0.7-9.9
			c1.56-11.65,2.97-23.38,5.67-34.84c4.01-20.25,11.03-41.68,25.94-55.94C37.45,134.2,34.07,97.8,63.36,97.94z M88.71,125.99
			c-0.01-1.26,0.22-2.25-1.42-2.16c-15.84-0.39-18.48,18.77-23.61,30.09c-0.42,1.12-0.24,1.5,0.86,2c5.14,3.26,10.36,1.58,15.1-1.57
			C86.83,147.36,86.84,135.38,88.71,125.99z"/>
		<path d="M217.03,141.74c15.6,4.42,32.57,4.92,47.43,12.12c20.56,12.18,25.43,38.64,30.41,60.21c0.12,2.78,2.88,6.79,0.21,8.82
			c-3.86,1.41-3.22-5.81-4.29-8.11c-15.97-75.51-33.94-54.33-90.84-72.93c4.76-10.37,12.46-19.61,18.58-29.36
			c1.76-3.75,7.49-7.21,6.08-11.64c-5.62-7.85,0.07-17.75,1.91-26.19c1.03-2.67-1.53-4.73-2.25-7.16c-0.19-0.33-0.35-0.75-0.81-0.72
			c-5.9,10.28-10.68,21.79-15.3,32.89c-9.61,10.86-22.12,19.45-31.89,30.41c-2.83,3.81-8.7,7.13-9.06,11.99
			c0.1,4.5,8.97,15.85,3.66,17.95c-3.72-0.85-5.92-12.09-7.7-15.72c-3.41-7.7,10.65-16.38,14.95-22.16
			c8.07-8.16,16.84-15.56,25.39-23.22c5.59-12.18,11.06-24.67,17.05-36.76c5.04-5.96,7.46,3.39,9.32,7.05
			c3.89,4.75-1.93,11.97-2.08,17.64c-0.99,2.21,6.49,1.29,8.13,2.18c18.39,3.62,17.53,33.33,11.65,46.95
			C240.94,146.15,226.81,141.91,217.03,141.74z M231.65,138.42c4.02-0.45,11.18,0.23,12.78-4.69c2.6-7.3,2.98-15.07,1.94-22.71
			c-0.82-5.46-2.33-11.38-5.85-15.69c-2.5-2.12-17.16-7.12-13.88,0.26c8.05,9.34-5.3,18.19-9.22,26.5
			c-1.02,2.89-9.43,10.71-5.96,12.67C217.76,137.85,224.63,137.89,231.65,138.42z M213.44,140.82c-1.32-1.21-3.06-1.52-4.33-2.81
			c-1.03-0.91-1.4-0.85-2.19,0.31C204.38,141.03,211.98,141.12,213.44,140.82z"/>
		<path d="M287.96,69.39c1.5,10.74,3.25,24.59-11.85,14.92c-0.03-0.02-0.05-0.04-0.07-0.06c-3.93-4.2,1.52-11.1,6.61-8.39
			c2.31,1.28,1.61-2.03,1.43-3.3c-0.39-5.24-1.81-10.41-2.29-15.59c-0.01-0.08,0.02-0.16,0.06-0.22c4.02-5.71,12.22,5.83,14.23,9.54
			c0.01,0.01,0.01,0.02,0.01,0.03c1.08,2.71,3.68,7.58,0.5,9.63c-0.84,0.46-1.49,0.28-1.95-0.55
			C294.58,73.61,288.64,65.15,287.96,69.39z"/>
		<path d="M207.66,249.98c-4.62,13.05-10.98-26.16-12.73-29.25c-2.75-10.49-6.01-20.83-8.37-31.42c-0.1-2.31-2.4-5.88-0.03-7.48
			c5.27-2.23,5.39,14.82,7.39,18.3C198.44,216.78,202.67,233.53,207.66,249.98z"/>
		<path d="M271.63,196.32c-0.26,11.8-2.02,24.02-0.6,35.69c0.89,5.18,10.96,19.85,8.57,22.51c-4.24,4.27-12.52-21.28-13.36-24.7
			c-0.03-10.14,0.39-20.3,1.02-30.41c0.33-2.12-0.68-5.19,1.64-6.39C271.25,191.93,271.92,194.45,271.63,196.32z"/>
		<path d="M258.18,107.82c-1.97,0.35-4.28-2.46-1.97-3.52c3.12-0.83,6.44-1.47,8.76-3.95c1.74-1.48,0.18-3.19-0.2-4.92
			c-1.2-5.48,7.98-9.54,12.03-7.38c2.72,3.6-4.64,3.6-6.48,5.15C264.62,96.87,278.41,103.56,258.18,107.82z"/>
	</g>
</g>
</svg>
