<?xml version="1.0" encoding="utf-8"?>
<!-- Generator: Adobe Illustrator 27.1.1, SVG Export Plug-In . SVG Version: 6.00 Build 0)  -->
<svg version="1.1" id="Layer_1" xmlns="http://www.w3.org/2000/svg" xmlns:xlink="http://www.w3.org/1999/xlink" x="0px" y="0px"
	 viewBox="0 0 300 300" style="enable-background:new 0 0 300 300;" xml:space="preserve">
<g>
	<g>
		<path d="M143.69,222.64c8.46,7.92,25.12,19.35,16.4,32.39c-8.84,12.98-17.81,25.85-25.33,39.63
			c-17.46,11.07,23.6-42.82,23.94-46.81c3.63-4.06-26.04-30.32-22.21-22.54c5.73,9.78,11.43,20.66-5.53,20.22
			c-1.45-0.05-2.65,0.3-3.88,1.15c-8.9,6.02-19.57,9.08-30.21,9.95c-10.8,0.56-21.43-3.12-32.26-2.46c-2.82-0.15-5.55,0.43-8.3,0.93
			c-4.23-0.73,1.28-3.56,3.03-3.63c2.32-1.25,9.36,0.77,9.03-2.72c-1.54-13.39,9.68-23.79,21.43-27.84
			c38.41-8.98,16.77,24.42,45.1,20.42c1.56-0.22,4.89-0.35,3.75-2.71c-2.26-4.83-4.85-9.52-7.91-13.91
			c-3.66-4.83-6.67-12.4-13.43-13.13c-19.19-2.17-38.78-0.92-56.17,8.2c-14.23,4.79-20.86,46.76-25.55,61.14
			c-1.53,5.76-2.55,11.64-3.7,17.46c-0.56,2.14-4.59,2.42-4.21-0.33c5.19-26.23,10.12-54.18,23.97-77.28
			c19.67-14.35,46.89-17.58,70.19-12.17c3.29,0.69,5.15,3.38,7.11,5.76c3.34,3.41,8.63,4.28,12.7,6.95
			c-8.34-7.65-9.89-19.58-5.52-29.79c0.22-0.89,0-1.72-0.7-2.36c-5.6-5.45-10.4-11.62-15.48-17.55
			c-10.87-14.46-25.78-26.02-34.24-42.14c-0.35-10.41,4.31-20.84,6.24-31.1c1.87-12.2,10.06-23.28,9.82-35.64
			c0.79-7.9-3.64-18.01,8.08-18.44c4.66-1.96,11.75-0.17,15.06-4.21c0.99-3.88,6.67-7.43,4.62-11.49c-0.64-0.88-0.89-1.95-0.95-3.03
			c-2.36-24.94,47.42-38.29,30.81-3.31c-11.45,22.44-22.07,4.15-19.15,37c-1.06,4.64-8.96,1.5-10.76,5.72
			c-7.87,15.82-7.6,34.45-10.61,51.69c-0.44,5.91,34.42,32.74,40.96,30.45c2.68,0.16,1.77,3.71,2.33,5.55
			c1.1,7.8,7.33,14.72,15.42,15.25c9.73,0.54,14.57-9.81,14.15-18.28c-0.35-5.88,6.44-5.53,10.61-5.33
			c8.74-0.54,17.78-0.13,25.66,4.19c12.06,6.53,23.34,14.42,35.73,20.35c12.3,7.72,14.92,9,14.35,24.33
			c-0.72,9.3,1.27,19.38-0.56,28.24c-4.4,4.21-7.29,10.86-13.05,13.19c-9.03,0.99-18.16-2.1-27.16-2.97
			c-4.09-1.79-2.78-8.19-4.11-11.88c-0.94-7.22,8.1-7.3,12.58-10.06c2.52-2.27,0.09-7.11,0.17-10.21
			c-2.5-3.52-12.02-3.81-16.41-5.31c-1.91,0.15-9.22-3.35-9.08-0.25c2.12,8.09,3.83,16.31,6.01,24.4
			c2.53,9.77,4.84,19.65,7.47,29.34c-3.66,8.61-6.9-7.58-7.71-10.49c-2.48-10.43-5.09-20.83-7.81-31.2
			c0.04-4.13-7.42-18.24-0.52-18.4c10.12,1.65,20.05,4.37,30.07,6.55c2.46,0.16,2.16,2.74,2.4,4.58c0.13,4.45,2.06,9.41-1.22,13.18
			c-7.13,5.74-14.39,1.43-10.55,13.9c0.29,1.43,0.57,1.73,1.98,1.95c6.92,0.93,13.79,2.22,20.73,2.98c4.42,0.15,6.04-5.74,9.22-8.13
			c1.26-1.76,3.51-3.34,3.23-5.73c-0.28-11.74,0.02-23.57-0.91-35.32c-2.59-5.04-9.49-7.44-14.15-10.54
			c-12.6-5.94-23.76-14.68-36.49-20.3c-2.57-1.8-26.5-4.76-26.53-1.02c-0.07,26.5-33.94,29.93-37.29,3.14
			c-0.12-1.4-0.3-1.6-1.7-1.72c-16.22-4.52-29.23-17.58-41.02-29.08c-1.08-1.26-1.52-2.75-1.25-4.47c1.23-9.73,2.4-19.5,3.76-29.19
			c-0.63-1.36-1.65,1.33-2.02,1.85c-1.58,4.07-8.71,8.7-11.08,2.91c-0.21-10.34,5.23-21.69,11.64-29.43
			c17.37-7.94,20.49,0.19,18.62-17.02c0.77-4.72-12.78,0.36-15.89-0.02c-2.94,1.13-13.92,0.94-13.32,4.67
			c1.34,13.27-2.1,25.52-7.25,37.63c-2.74,9.25-4.92,18.68-7.38,28c-5.99,13.68,7.4,23.17,15.47,32.4
			c10.25,11.27,19.37,23.58,29.88,34.54c0.76,0.56,1.1,0.5,1.61-0.27c0.95-1.52,2.3-4.92,4.6-3.83c1.07,6.19-4.38,12.95-4.59,19.56
			C134.87,216.24,153.74,219.71,143.69,222.64z M94.47,252.64c3.82,0.63,28.61-4.34,26.63-8.18c-12.39-10.49-3.87-25.22-28.58-19.9
			c-10.73,3.08-22.9,11.84-20.99,24.36C71.06,251.57,91.22,252.03,94.47,252.64z M158.16,9.24c-0.62-14.5-26.13,3.6-25.15,13.05
			c-1.49,3.7,2.75,6.77,1.04,10.13c-1.1,2.76-4.16,5.25-4.41,8.06c1.55,0.99,3.81-0.52,5.64,0.05c2.02,0.2,2.6-2.47,3.47-3.84
			c0.78-1.91,2.28-2.92,4.27-3.33C152.5,29.62,157.66,19.31,158.16,9.24z M108.85,90.13c0.56,7.07,13.43-21.3,15.05-23.3
			c0.41-2.49-3.97,0.36-5.23,0.4C113.55,73.18,110.2,82.23,108.85,90.13z"/>
		<path d="M171.78,142.16c3.02,0.1,28.27-2.8,25.75-6.83c-1.8-10.91-3.68-21.8-5.78-32.64c-1.17-4.82-1.02-10.76-5.12-14.16
			c-9.86-8.33-39.61-1.56-40.54,12.64c-1.39,3.11,4.21,18.02-2.56,14.41c-5.26-16.21,0.43-27.66,16.87-32.61
			c9.18-2.8,21.91-5.11,29.16,2.77c0.66,0.81,1.35,1.08,2.36,0.73c10.54-0.63,26.26,6.75,25.81,18.96
			c-1.04,7.83-9.93,13.09-17.34,10.87c-3.12-1.43,1.77,16.42,1.77,18.84c2.64,9.15-13.26,8.12-18.92,10.27
			c-18.24,4.08-31.06,0.59-36.39-18.22c-4.49-1.75-4.39-9.33-0.95-6.55c3.84,5.02,11.81,6.43,14.89-0.11
			c1.58-2.78,5.49-1.67,8.12-2.59c4.23-0.92,5.56,10.4,15.26,2.75c1.28-1.07,1.39-2.73,2.08-4.13c2.53-2.79,3.46,2.63,2.15,4.23
			c-3.34,7.07-13.7,9.61-18.47,2.57c-1.3-1.83-3.95-0.2-5.79-0.22c-3.57,2.01-5.55,6.71-10.48,6.62c-1.63,0.26-1.74,0.51-1.13,2.1
			C155.7,139.05,164.14,142.79,171.78,142.16z M205.73,112.7c4.46,0.05,8.72-3.41,7.68-8.14c-1.74-8.23-10.18-12.01-17.57-13.93
			c-1.68-0.42-2.07-0.07-1.69,1.6C196.73,99.59,195.09,112.33,205.73,112.7z"/>
		<path d="M151.5,8.74c8.79,2.2-7.15,3.56-8.93,15.33c-0.51,1.65,0.67,4.82-1.65,5.12C131.68,26.63,144.56,8.21,151.5,8.74z"/>
	</g>
</g>
</svg>
