<?xml version="1.0" encoding="UTF-8"?>
<svg id="Layer_2" data-name="Layer 2" xmlns="http://www.w3.org/2000/svg" viewBox="0 0 87.27 79.05">
  <defs>
    <style>
      .cls-1 {
        fill: #010101;
      }

      .cls-1, .cls-2, .cls-3 {
        stroke: #010101;
        stroke-miterlimit: 10;
        stroke-width: 1.5px;
      }

      .cls-2 {
        fill: #fff;
      }

      .cls-3 {
        fill: none;
      }
    </style>
  </defs>
  <path class="cls-3" d="m13.36,72.94c1.72-9.3.72-8.51,2.27-17.13.1-.54.56-.94,1.11-.95l1.27-.03c.63-.01,1.15.47,1.18,1.1l1,21.87s0,0,0,0c3.31-.04,6.62-.07,9.93-.11-.15-.82-.29-1.64-.44-2.45-1.42-.48-2.84-.95-4.25-1.43.93-15.18,1.85-30.35,2.78-45.53,2.35,1.15,4.7,2.3,7.06,3.45.87.43,1.88.43,2.77.04,1.66-.73,3.67-1.82,5.72-3.44,2.51-1.98,4.22-4.07,5.31-5.64l-7.7-.09c-2.14,2.59-3.9,3.09-5.08,3.11-4.23.06-5.34-6.18-10.87-7.12-2.82-.48-3.02,1.06-7.69.73-3.57-.25-4.38-1.21-6.71-.67-2.24.52-3.62,1.9-5.68,3.95-2.93,2.92-4.74,4.72-4.55,6.98.23,2.7,3.23,5.1,7.23,6.17v42.46c3.15.02,6.3.03,9.45.05-.19-.81-.38-1.61-.57-2.42-1.31-.43-2.62-.87-3.93-1.3.14-.54.28-1.08.41-1.63Z"/>
  <path class="cls-3" d="m39.19,37.61h31.46c3.29,0,5.95,2.67,5.95,5.95v4.19c0,3.26-2.64,5.9-5.9,5.9h-31.51c-3.26,0-5.9-2.64-5.9-5.9v-4.24c0-3.26,2.64-5.9,5.9-5.9Z"/>
  <line class="cls-2" x1="40.72" y1="21.14" x2="61.14" y2="21.14"/>
  <path class="cls-3" d="m52.43,19.43c-.11-.3-2.21-6.39.37-8.88.29-.28,1.11-1.06,2.25-1.07,1.44,0,2.45,1.24,2.57,1.39,2.2,2.8.11,8.56.11,8.56h-5.29Z"/>
  <line class="cls-2" x1="55.07" y1="3.6" x2="55.05" y2="9.49"/>
  <rect class="cls-3" x="43.49" y="7.88" width="4.6" height="11.55"/>
  <path class="cls-3" d="m42.76,8.15c-2.08-.2-3.79,1.07-4.05,2.47-.3,1.65,1.35,3.83,3.95,3.84"/>
  <path class="cls-3" d="m13.35,36.65v10.81c0,1.83,1.48,3.31,3.31,3.31h11.13"/>
  <line class="cls-3" x1="75.1" y1="53.66" x2="75.1" y2="77.51"/>
  <line class="cls-3" x1="34.49" y1="53.32" x2="34.49" y2="77.17"/>
  <line class="cls-3" x1="64.09" y1="78.8" x2="64.09" y2="59.54"/>
  <line class="cls-3" x1="86.55" y1="78.8" x2="81.3" y2="59.54"/>
  <line class="cls-3" x1="83.93" y1="72.91" x2="64.95" y2="72.91"/>
  <rect class="cls-1" x="63.02" y="58.79" width="19.04" height="6.18" rx="2" ry="2"/>
  <path class="cls-3" d="m83.93,35.48s-7.06,11.66-1.82,24.38"/>
  <path class="cls-3" d="m15.04,7.91s.02,1.22-.08,4.64c-.02.63-.06,1.56-.17,2.7,2.53.3,4.52.61,5.84.84,2.12.37,3.54.68,4.38-.14.22-.22.39-.49.62-1.65.21-1.05.88-4.57-.26-7.26-.3-.7-.62-1.12-.84-1.37-.22-.25-.6-.61-1.37-1.05-.89-.51-2.17-1.23-3.89-1.17-1.21.05-2.03.46-2.21.55-1.1.51-1.76,1.35-1.89,2.57-.05.44-.11.89-.12,1.34Z"/>
  <path class="cls-1" d="m2.14,7.97c1.16.19,2.74.25,4.26-.5,3.34-1.66,3.29-5.8,5.92-6.6.99-.3,2.53-.18,4.91,1.73,3.68-1.26,7.12-.34,8.34,1.79.23.41.7,1.4.43,3.03-.68-.92-1.39-1.46-1.89-1.77-2.62-1.64-6.37-1.39-8.61.54-.53.46-.88.93-1.09,1.24-.25-3.11-.8-4.02-1.35-4.13-1.61-.31-3.08,6.5-6.61,6.93-1.61.2-3.13-.99-4.3-2.27Z"/>
</svg>