<?xml version="1.0" encoding="UTF-8"?>
<svg id="Layer_1" data-name="Layer 1" xmlns="http://www.w3.org/2000/svg" viewBox="0 0 80.2 87.59">
  <defs>
    <style>
      .cls-1 {
        fill: none;
      }

      .cls-1, .cls-2, .cls-3 {
        stroke: #000;
        stroke-miterlimit: 10;
        stroke-width: 1.5px;
      }

      .cls-3 {
        fill: #221f1f;
      }
    </style>
  </defs>
  <line class="cls-1" y1="61.4" x2="80.2" y2="61.4"/>
  <line class="cls-1" x1="4.42" y1="61.4" x2="4.42" y2="87.59"/>
  <line class="cls-1" x1="75.58" y1="61.4" x2="75.58" y2="87.59"/>
  <path class="cls-1" d="m56.08,60.04v-21.93c0-.49.24-.95.64-1.23,2.56-1.77,11.88-8.55,12.15-13.29.31-5.5.57-17.97-1.74-19.48-2.31-1.5-6.8-4.25-7.87-3.08s-3.18,4.49-1.24,6.1,5.96,3.22,5.96,3.22"/>
  <path class="cls-1" d="m61.76,9.4v9.71c0,.23-.06.46-.18.66-.88,1.46-5.19,7.4-17.51,7.92-14.05.59-18.23,1.11-20.65,5.13-2.42,4.02-7.33,19.96,2.23,23.37,8.02,2.86,11.92,4.59,12.96,5.08.2.09.42.13.64.11l3.84-.3c.62-.05,1.12-.53,1.18-1.15.13-1.33-.03-3.56-2.31-4.61-2.83-1.31-10.04-5.29-12.25-6.52-.41-.23-.66-.66-.66-1.13v-6.84"/>
  <path class="cls-1" d="m41.21,4.11s-5.08.18-7.18,7.19-6.42,12.32,7.22,12.32"/>
  <path class="cls-1" d="m41.07,4.11s5.08.18,7.18,7.19c2.09,7.01,6.42,12.32-7.22,12.32"/>
  <line class="cls-1" x1="46.78" y1="27.37" x2="32.01" y2="49.44"/>
  <polygon class="cls-2" points="40.28 53.87 60.1 22.34 52.2 26.12 35.28 51.83 40.28 53.87"/>
  <line class="cls-3" x1="35.57" y1="27.77" x2="40.1" y2="37.08"/>
  <polygon class="cls-2" points="5.23 60.4 6.73 57.59 11.22 57.59 12.83 60.4 5.23 60.4"/>
  <path class="cls-2" d="m8.56,57.59l.59-21.21.36-3.53s2.59-3.95,3.64-3.79,3.29,1.44,2.17,3.16-5.57,4.82-5.57,4.82v20.54"/>
  <line class="cls-1" x1="29.05" y1="57.59" x2="29.05" y2="60.95"/>
</svg>