<?xml version="1.0" encoding="UTF-8"?>
<svg id="Layer_2" data-name="Layer 2" xmlns="http://www.w3.org/2000/svg" viewBox="0 0 82.37 86.47">
  <defs>
    <style>
      .cls-1, .cls-2 {
        fill: none;
      }

      .cls-1, .cls-2, .cls-3 {
        stroke: #010101;
      }

      .cls-1, .cls-2, .cls-3, .cls-4 {
        stroke-width: 2px;
      }

      .cls-1, .cls-3 {
        stroke-miterlimit: 10;
      }

      .cls-1, .cls-3, .cls-4 {
        stroke-linecap: square;
      }

      .cls-2 {
        stroke-linecap: round;
      }

      .cls-2, .cls-4 {
        stroke-linejoin: round;
      }

      .cls-3, .cls-4 {
        fill: #010101;
      }

      .cls-4 {
        stroke: #1d1d1b;
      }
    </style>
  </defs>
  <path class="cls-2" d="m14.52,30.69c7.13,8.64,10.14,6.38,10.14,6.38,6.76-1.5,13.52-8.7,13.52-8.7,5.26-7.95,0-8.57,0-8.57-3-1.88-5.26,5.63-5.26,5.63-1.88,1.88-8.64,2.63-8.64,2.63-1.5-1.88-9.39-10.89-9.39-10.89,0,0-4.13-2.63-7.88.75s-.38,16.14-.38,16.14c.58,3.1,1.04,6.65,1.18,10.58.08,2.24.05,4.35-.06,6.31-.39,7.28-.97,12.57-1.62,18.5-.37,3.39-.87,8.24-1.39,14.17,4.38.13,8.76.25,13.14.38"/>
  <path class="cls-2" d="m19.02,47.59s-3,24.78-6.01,29.66c1.5,1.63,3,3.25,4.51,4.88"/>
  <path class="cls-2" d="m17.9,84.01c-.5-4.26-1-8.51-1.5-12.77-.1-1.6-.2-3.19-.3-4.79"/>
  <path class="cls-2" d="m24.65,37.08c-.42,1.96-.78,4.16-.99,6.57-.36,4.24-.16,7.99.23,11.08.32,2.95.51,6.23.47,9.81-.05,4.94-.53,9.36-1.17,13.15,3.11,1.11,6.22,2.22,9.33,3.33.63,1.13,1.25,2.25,1.88,3.38-5.51-.06-11.01-.11-16.52-.17"/>
  <path class="cls-2" d="m1,3.29l6.01,13.89s10.51-4.13,8.64-11.26c0,0-1.13-9.01-14.64-2.63Z"/>
  <path class="cls-2" d="m19.17,21.48s3.99-8.06,6.99-6.93c0,0,4.13-.75-1.5,12.77"/>
  <path class="cls-4" d="m24.65,13.8s-.38-1.88.75-2.25l.26-10.55h2.37v10.17s8.63-5.63,8.63-5.63l1.12,1.86-9,5.65s.29,2.04-1.17,1.39"/>
  <path class="cls-2" d="m34.04,21.31l-1.13-1.88s7.51-4.88,10.14-1.88c0,0,7.3,8.26-2.54,13.14l-.83.37-1.13-1.88"/>
  <path class="cls-2" d="m41.71,30.79s7.62-.84,9.37,1.03c0,0,8.88,14.27,14.13,15.77.69.07,1.42.12,2.18.14,1.66.06,3.2,0,4.58-.14.61,0,1.43.11,2.28.51,2.67,1.25,3.28,4.33,3.36,4.75,0,0,4.13,18.77,3.75,22.53"/>
  <path class="cls-2" d="m27.62,36.48s-1.46,12.62,3.05,12.99"/>
  <path class="cls-2" d="m31.41,38.58s-1.88,18.02,4.51,13.52"/>
  <path class="cls-1" d="m66.89,54.91l-14.27-.38-8.86-17.46h-7.54s-5.38,38.11,29.54,31.35"/>
  <line class="cls-1" x1="55.98" y1="69.23" x2="55.98" y2="81.02"/>
  <path class="cls-3" d="m55.98,81.58s-6.37.47-7.21,3.89h15.71s-1.57-4.06-8.5-3.89Z"/>
</svg>