<?xml version="1.0" encoding="utf-8"?>
<!-- Generator: Adobe Illustrator 27.5.0, SVG Export Plug-In . SVG Version: 6.00 Build 0)  -->
<svg version="1.1" id="Capa_1" xmlns="http://www.w3.org/2000/svg" xmlns:xlink="http://www.w3.org/1999/xlink" x="0px" y="0px"
	 viewBox="0 0 16 16" style="enable-background:new 0 0 16 16;" xml:space="preserve">
<style type="text/css">
	.st0{fill:none;stroke:#000000;stroke-width:0.25;stroke-linecap:round;stroke-linejoin:round;stroke-miterlimit:10;}
	.st1{fill:#FFFFFF;}
	.st2{fill:#FFFFFF;stroke:#000000;stroke-width:0.25;stroke-linecap:round;stroke-linejoin:round;stroke-miterlimit:10;}
	.st3{stroke:#000000;stroke-width:0.25;stroke-linecap:round;stroke-linejoin:round;stroke-miterlimit:10;}
</style>
<g>
	<g>
		<path class="st0" d="M1.87,1.23l1.41-0.38c0.21-0.06,0.44-0.01,0.61,0.12l0,0C4.12,1.15,4.27,1.41,4.31,1.7l0.08,0.56
			c0.05,0.33-0.06,0.65-0.28,0.89l0,0C3.97,3.31,3.79,3.41,3.59,3.45C3.14,3.54,2.35,3.69,2.34,3.69L1.87,1.23z"/>
		<path class="st0" d="M12.66,2.62L11.4,2.28c-0.19-0.05-0.39-0.01-0.55,0.11l0,0c-0.21,0.16-0.34,0.4-0.38,0.66l-0.07,0.5
			c-0.04,0.29,0.05,0.58,0.25,0.8l0,0c0.12,0.13,0.29,0.22,0.47,0.26c0.4,0.08,1.1,0.22,1.12,0.21L12.66,2.62z"/>
		<g>
			<path class="st1" d="M2.11,3.07c-0.08,0-0.15-0.02-0.22-0.05C1.73,2.93,1.64,2.76,1.64,2.54c0-0.1,0.03-0.17,0.11-0.35l0.17-0.39
				c0.02-0.04,0.06-0.07,0.1-0.07c0,0,0.01,0,0.01,0c0.04,0,0.08,0.02,0.1,0.06c0.1,0.15,0.18,0.28,0.24,0.38
				C2.49,2.33,2.53,2.4,2.55,2.51C2.56,2.6,2.58,2.79,2.44,2.94C2.36,3.02,2.24,3.07,2.11,3.07z"/>
			<path d="M2.04,1.84c0.1,0.15,0.18,0.28,0.24,0.38c0.1,0.17,0.13,0.23,0.14,0.32C2.43,2.6,2.45,2.75,2.35,2.85
				C2.29,2.91,2.2,2.94,2.11,2.94C2.06,2.94,2,2.93,1.95,2.91c-0.19-0.1-0.18-0.33-0.18-0.37c0-0.08,0.02-0.12,0.1-0.31
				C1.91,2.15,1.97,2.01,2.04,1.84 M2.04,1.59c-0.01,0-0.02,0-0.02,0C1.93,1.6,1.85,1.66,1.81,1.74L1.64,2.13
				c-0.09,0.2-0.12,0.28-0.12,0.4c0,0.27,0.12,0.49,0.32,0.59c0.08,0.04,0.18,0.07,0.28,0.07c0.16,0,0.31-0.06,0.42-0.17
				C2.72,2.84,2.68,2.59,2.67,2.5C2.65,2.36,2.6,2.26,2.49,2.09C2.43,1.98,2.35,1.85,2.25,1.7C2.2,1.63,2.12,1.59,2.04,1.59
				L2.04,1.59z"/>
		</g>
		<line class="st2" x1="9.85" y1="3.72" x2="9.54" y2="3.59"/>
		<line class="st2" x1="9.85" y1="4.14" x2="9.52" y2="4.22"/>
		<line class="st2" x1="10.1" y1="4.47" x2="9.97" y2="4.77"/>
		<path class="st0" d="M4.08,14.38l0.71,0.43l0.01,0.54l-1.72-0.01l-0.12-3.48l-0.21-0.77C2.46,9.04,2.17,7.6,1.92,6.49
			C1.8,5.98,1.57,5.06,2.06,4.49C2.3,4.2,2.65,4.08,2.93,3.99C3.66,3.74,4.3,3.83,4.64,3.91l0.84,0.45c0,0,1-0.22,1.42-0.39
			C7.33,3.8,8.33,2.93,8.33,2.93l0.07,0.89L7.38,4.64l-2.5,1.24l0.53,1.09l0.56,3.57l0.14,0.65l-0.13,3.29l0.64,0.4v0.45l-1.58,0.02
			l-0.23-4.53l-0.4,0.01L4.08,14.38z"/>
		<polygon class="st0" points="13.9,15.32 12.23,15.35 12.24,14.85 12.87,14.51 13.13,14.14 11.86,12.34 11.63,11.63 12.66,10.36 
			13.33,11.88 14.51,14.53 		"/>
		<path class="st0" d="M10.48,9.81l-0.74,1.4c-0.47,1.12,0.1,2.88,0.1,2.88l-0.41,0.35l-0.8,0.45v0.47l2.29,0.02l0.07-2.98
			c0,0,0.78-0.89,1.41-1.7c0,0,1.23-1.33,0.71-2.23c-0.43-1.05-0.65-2.92-0.65-2.92c-0.61-0.65-1.49-0.71-1.96-0.3
			c-0.43,0.37-0.37,1.02-0.37,1.1L10.48,9.81z"/>
		<path class="st0" d="M2.14,7.54C2.27,7.58,2.96,7.3,3.79,6.85C3.88,6.8,4.68,6.34,4.85,5.4C4.93,5,4.88,4.55,4.83,4.36L4.37,4.18
			L3.98,4.66l0.06,0.86L2.8,5.96L2.35,5.31"/>
		<polyline class="st0" points="11.87,7.3 11.02,7.66 8.05,6.6 8.05,5.61 8.72,5.5 8.74,5.96 11.28,6.58 11.63,5.95 		"/>
	</g>
	<path class="st3" d="M10.6,2.69c0.18,0.19,0.57,0.42,0.94,0.63c0.36,0.21,0.66,0.36,0.91,0.42c0.05-0.38,0.17-0.74,0.22-1.12
		c-0.43-0.08-0.94-0.28-1.37-0.36c-0.06,0-0.25,0.01-0.41,0.12C10.76,2.46,10.62,2.63,10.6,2.69z"/>
	<path class="st3" d="M12.02,1.78c0,0.4,0.22,0.72,0.49,0.72s0.49-0.32,0.49-0.72c0-0.4-0.22-0.72-0.49-0.72S12.02,1.39,12.02,1.78z
		"/>
</g>
</svg>
