<?xml version="1.0" encoding="UTF-8"?>
<svg id="Layer_1" data-name="Layer 1" xmlns="http://www.w3.org/2000/svg" viewBox="0 0 83.88 83.3">
  <defs>
    <style>
      .cls-1 {
        fill: none;
      }

      .cls-1, .cls-2, .cls-3 {
        stroke: #000;
        stroke-miterlimit: 10;
        stroke-width: 1.5px;
      }

      .cls-2 {
        fill: #fff;
      }
    </style>
  </defs>
  <path class="cls-1" d="m.75,49.4l33.22-3.83v-28.21C33.97,8.04,26.3.55,16.99.75h0C7.96.96.75,8.33.75,17.36v32.04Z"/>
  <polyline class="cls-1" points=".75 46.31 7.17 37.54 12.85 43.6 18.9 35.2 23.97 41.62 28.29 36.06 33.97 41.99"/>
  <line class="cls-1" x1="50.88" y1="34.7" x2="23.1" y2="25.94"/>
  <line class="cls-1" x1="14.45" y1="12.77" x2="14.45" y2="19.1"/>
  <path class="cls-1" d="m33.97,34.13c1.03.8,3.31,2.37,5.27,2.84,5.47,1.32,9.93.24,11.26-.42"/>
  <path class="cls-1" d="m33.98,29.37l15.53.4c1.3.03,2.77-.62,3.62-1.6l6.86-6.59"/>
  <path class="cls-1" d="m59.86,21.66c.79-.47,1.7-.72,2.62-.72h7.32c1.6,0,3.16.46,4.5,1.31h0c3.11,1.98,5.14,5.27,5.51,8.93l.02.19.31,5.74c.02.12.13,1.03-.33,1.61-.41.52-1.48.65-2.26.64-8.75.15-15.74-.06-21.07.21-1.54.08-4.54.25-5.6-1.48-.7-1.14-.38-2.45.37-3.54,1.19-1.72,3.44-2.02,5.52-2.22,3.18-.32,7.69-.6,13.38-.41"/>
  <path class="cls-1" d="m71.94,49.4l10.97,24.86-7.33,8.29h-8.89l.07-1.49c.16-3.38,2.16-6.39,5.21-7.85l.89-.43-7.83-14.99"/>
  <path class="cls-3" d="m20.32,28.21l6.21-5.09c.66-.54.56-1.58-.2-1.98-3.78-2-13.02-6.88-13.17-6.88s-7.15,5.11-10.27,7.39c-.68.5-.6,1.53.14,1.93l9.97,5.34c2.36,1.26,5.25.98,7.32-.71Z"/>
  <path class="cls-2" d="m24.99,22.52c0,1.61-4.61,2.92-10.29,2.92s-10.29-1.31-10.29-2.92.33-9.43,10.04-9.76c9.01-.31,10.54,8.14,10.54,9.76Z"/>
  <path class="cls-1" d="m72.78,39.34v4.97c0,4.11-1.75,8.02-4.8,10.77l-5.58,5.01c-1.14,1.02-1.79,2.48-1.79,4,0,.67,0,1.35,0,2.02-.02,5.48-.04,10.96-.06,16.44h-17.78l.59-4.65,9.8-3.25c-.11-4.1-.22-8.19-.33-12.29-.11-.92-.17-2.2.08-3.7.22-1.31.61-2.37.97-3.15,1.4-2.04,2.81-4.08,4.21-6.11l-.06-10.06"/>
  <path class="cls-3" d="m67.68,10.03c-.22-1.19,6.83-5.35,11.61-2.72,2.66,1.47,4.34,4.9,3.7,5.6-.39.42-1.58-.23-3.05-.82-6.85-2.76-12.08-1.05-12.27-2.06Z"/>
  <path class="cls-3" d="m54.58,9.89c-.43-1.72,1.83-3.7,3.26-4.54,4.37-2.58,9.77.21,10.75.78.91.54,2.39,2.07,2.34,3.8,0,0,.27.68-.25,1.38-2.32,3.15-15.17,2.24-16.1-1.43Z"/>
  <path class="cls-1" d="m66.74,6.63c.93,2.91,1.86,5.81,2.8,8.72,0,0-8.95,5.33-10.32,4.62-1.37-.71-3.6-8.68-3.6-8.68.3-1.24.59-2.49.89-3.73l10.23-.93Z"/>
</svg>