<?xml version="1.0" encoding="utf-8"?>
<!-- Generator: Adobe Illustrator 27.1.1, SVG Export Plug-In . SVG Version: 6.00 Build 0)  -->
<svg version="1.1" id="Layer_2" xmlns="http://www.w3.org/2000/svg" xmlns:xlink="http://www.w3.org/1999/xlink" x="0px" y="0px"
	 viewBox="0 0 100 100" style="enable-background:new 0 0 100 100;" xml:space="preserve">
<g>
	<path d="M53.48,78.76c0.12-2.82,0.21-5.65,0.35-8.47c0.12-2.51,0.34-5.01,0.43-7.51c0.06-1.74,0.02-3.49,0.18-5.23
		c0.22-2.51,0.29-5.06,1.24-7.45c0.32-0.8,0.69-1.6,0.9-2.43c0.54-2.14,1.1-4.28,1.34-6.49c0.27-2.55,0.8-5.05,1.6-7.5
		c0.65-1.99,2.43-3.14,4.33-3.15c1.43-0.01,2.85-0.01,4.28,0.19c1.79,0.25,3.27,1.03,4.54,2.3c0.98,0.97,2.01,1.9,3.01,2.84
		c0.11,0.1,0.22,0.25,0.38,0.2c0.2-0.07,0.15-0.29,0.13-0.44c-0.17-1-0.2-2.02-0.48-3c-0.27-0.92-0.35-1.86-0.32-2.82
		c0.03-0.79,0.98-1.56,1.75-1.42c0.56,0.1,0.77,0.52,0.87,1.03c0.03,0.16,0,0.39,0.18,0.43c0.22,0.05,0.26-0.22,0.37-0.35
		c0.17-0.21,0.31-0.44,0.49-0.63c0.43-0.44,0.92-0.44,1.34,0.02c0.92,1.03,1.93,1.97,2.81,3.05c0.54,0.67,0.86,1.37,0.65,2.25
		c-0.14,0.6-0.21,1.21-0.33,1.82c-0.21,0.97-0.66,1.8-1.37,2.5c-0.78,0.77-1.43,1.67-2.34,2.31c-0.34,0.24-0.18,0.65-0.12,0.98
		c0.21,1.15,0.52,2.27,0.92,3.37c0.01,0.02,0.01,0.03,0.02,0.05c0.18,0.96,0.73,1.68,1.36,2.42c1.35,1.6,1.29,1.76,0.4,3.41
		c-0.38,0.72-0.42,1.36-0.3,2.09c0.39,2.31,0.91,4.6,1.36,6.9c0.61,3.15,1.08,6.33,1.71,9.48c0.17,0.83,0.25,1.66,0.63,2.45
		c0.2,0.42,0.41,0.49,0.81,0.39c1.48-0.39,2.94-0.85,4.46-1.08c0.47-0.07,0.89,0.02,1.16,0.41c0.36,0.52,0.65,1.1,0.72,1.73
		c0.05,0.52,0.17,1.01,0.35,1.5c0.33,0.87,0.61,1.76,0.86,2.66c0.14,0.51,0,0.87-0.46,1.14c-0.43,0.25-0.88,0.45-1.38,0.57
		c-0.84,0.21-1.67,0.44-2.5,0.69c-0.47,0.14-0.85,0.08-1.15-0.32c-0.09-0.12-0.2-0.23-0.3-0.33c-0.08-0.08-0.17-0.17-0.3-0.09
		c-0.1,0.06-0.12,0.17-0.1,0.26c0.27,1.15-0.53,1.5-1.36,1.8c-1.02,0.37-2.05,0.7-3.16,0.66c-0.6-0.02-1.19,0.13-1.77,0.3
		c-1.6,0.48-2.45-0.66-2.68-1.76c-0.27-1.32-0.47-2.65-0.88-3.94c-0.21-0.66,0.17-1.24,0.94-1.59c1.09-0.5,2.25-0.82,3.37-1.24
		c0.95-0.35,1.03-0.52,0.86-1.52c-0.33-1.9-0.62-3.81-0.99-5.7c-0.16-0.85-0.36-1.69-0.51-2.54c-0.45-2.76-0.95-5.5-1.52-8.24
		c-0.17-0.81-0.34-1.63-0.49-2.45c-0.2-1.05-1.01-1.61-1.74-2.22c-0.33-0.28-0.73-0.47-1.05-0.76c-1-0.92-2.23-1.29-3.51-1.56
		c-1.56-0.33-3.13-0.64-4.7-0.95c-0.59-0.12-0.74,0.03-0.68,0.64c0.21,2.17,0.53,4.32,0.97,6.46c0.51,2.46,0.75,4.97,1.2,7.44
		c0.4,2.19,0.95,4.36,1.35,6.55c0.4,2.21,0.99,4.38,1.49,6.57c0.11,0.48,0.44,0.77,0.83,1.01c0.84,0.54,1.74,0.98,2.56,1.56
		c1.14,0.8,1.24,2.01,0.23,2.97c-0.02,0.02-0.06,0.04-0.07,0.07c-0.37,0.92-1.12,0.86-1.92,0.8c-1.56-0.11-3.13-0.13-4.67-0.4
		c-0.44-0.08-0.88-0.2-1.31-0.33c-0.68-0.21-0.91-0.73-1.09-1.4c-0.62-2.42-1.14-4.86-1.77-7.27c-0.45-1.72-0.69-3.49-1.06-5.23
		c-0.27-1.25-0.59-2.49-0.88-3.74c-0.06-0.26-0.21-0.41-0.48-0.41c-0.58,0-1.17,0.01-1.75,0.01c-0.32,0-0.42,0.21-0.46,0.49
		c-0.2,1.16-0.39,2.33-0.62,3.49c-0.42,2.22-0.87,4.44-1.3,6.66c-0.14,0.75-0.15,1.52-0.33,2.27c-0.09,0.35,0.17,0.51,0.4,0.67
		c1.07,0.74,2.14,1.47,3.19,2.22c0.6,0.43,0.93,1.58,0.72,2.29c-0.14,0.5-0.63,0.56-0.97,0.79c-0.87,0.6-1.82,0.56-2.82,0.42
		c-1.61-0.24-3.22-0.48-4.81-0.82c-1.05-0.23-1.16-0.36-1.17-1.44c0-0.45,0-0.9,0-1.35C53.51,78.76,53.49,78.76,53.48,78.76z
		 M63.57,31.42c-0.83,0.11-1.62,0.6-2.21,1.43c-0.4,0.57-0.57,1.24-0.76,1.89c-0.44,1.52-0.91,3.04-1.11,4.61
		c-0.25,1.93-0.49,3.86-0.95,5.75c-0.33,1.38-0.27,1.46,1.13,1.79c0.46,0.11,0.71-0.04,0.88-0.48c0.47-1.23,0.95-2.45,1.48-3.65
		c0.17-0.39,0.14-0.69-0.1-1.01c-0.37-0.53-0.73-1.07-1.09-1.61c-0.16-0.24-0.24-0.51,0.02-0.72c0.26-0.21,0.47-0.01,0.65,0.17
		c0.6,0.62,1.16,1.28,1.71,1.95c1.1,1.36,2.26,2.67,3.53,3.87c0.53,0.5,1.11,0.9,1.84,1.05c1.69,0.35,3.39,0.7,5.08,1.08
		c1.5,0.34,2.95,0.73,4.17,1.79c0.83,0.71,1.75,1.32,2.55,2.08c0.19,0.17,0.39,0.33,0.67,0.2c0.57-0.27,0.99-1.56,0.68-2.11
		c-0.75-1.33-1.86-2.33-3.08-3.22c-0.2-0.14-0.42-0.2-0.66-0.2c-0.72,0-1.43-0.06-2.13-0.2c-1.12-0.23-2.29-0.27-3.35-0.77
		c-0.48-0.23-0.88-0.59-1.41-0.72c-0.45-0.11-0.79-0.41-1.1-0.74c-0.98-1.04-1.99-2.06-2.87-3.18c-0.89-1.14-1.65-2.31-1.88-3.79
		c-0.24-1.58-0.62-3.13-0.92-4.7C64.28,31.61,64.14,31.38,63.57,31.42z M61.18,81.32c0.15-0.01,0.3-0.01,0.45-0.03
		c0.22-0.03,0.52,0.12,0.62-0.17c0.12-0.33,0.11-0.69-0.11-1c-0.09-0.12-0.21-0.21-0.33-0.3c-1.05-0.76-2.1-1.52-3.16-2.27
		c-0.39-0.27-0.6-0.61-0.71-1.09c-0.27-1.17,0.05-2.29,0.25-3.41c0.54-3.04,1.18-6.07,1.78-9.1c0.17-0.89,0.12-0.96-0.77-1.22
		c-0.18-0.05-0.35-0.1-0.52-0.18c-0.64-0.28-0.79-0.57-0.68-1.26c0.27-1.62,0.45-3.26,0.68-4.89c0.31-2.24,0.65-4.47,1.01-6.7
		c0.22-1.37,0.17-1.44-1.21-1.72c-0.42-0.09-0.67,0.03-0.74,0.49c-0.1,0.63-0.25,1.26-0.59,1.79c-0.49,0.76-0.66,1.59-0.81,2.44
		c-0.51,2.96-0.69,5.94-0.78,8.94c-0.05,1.8-0.14,3.59-0.26,5.38c-0.24,3.42-0.44,6.84-0.55,10.26c-0.03,0.76,0.03,1.52-0.18,2.28
		c-0.15,0.54,0.02,0.77,0.58,0.89c0.7,0.15,1.4,0.3,2.11,0.39C58.57,81.03,59.86,81.31,61.18,81.32z M67.4,62.94
		c-0.6,0-1.2,0.03-1.79,0.11c-0.51,0.07-0.62,0.2-0.49,0.68c0.62,2.41,1.2,4.84,1.71,7.28c0.57,2.72,1.37,5.38,1.96,8.09
		c0.22,0.98,0.29,1.02,1.27,1.16c0.15,0.02,0.3,0.02,0.45,0.03c0.58,0.03,1.17,0,1.73,0.09c1.07,0.17,2.15,0.17,3.23,0.2
		c0.8,0.03,0.83-0.51,0.67-1.09c-0.07-0.25-0.3-0.39-0.52-0.52c-0.53-0.32-1.08-0.6-1.59-0.94c-0.94-0.62-1.83-1.32-2.2-2.43
		c-0.33-0.99-0.58-2.01-0.81-3.03c-0.67-3.02-1.3-6.04-1.94-9.06c-0.08-0.38-0.28-0.58-0.69-0.57
		C68.07,62.95,67.74,62.94,67.4,62.94z M86.78,78.38c0-0.35,0.01-0.58,0-0.81c-0.02-0.34,0.05-0.64,0.4-0.78
		c0.35-0.15,0.55,0.11,0.76,0.32c0.51,0.5,1.02,1,1.52,1.52c0.32,0.33,0.65,0.39,1.08,0.25c0.58-0.2,1.18-0.35,1.77-0.53
		c0.7-0.21,0.7-0.21,0.46-0.92c-0.04-0.11-0.06-0.22-0.09-0.34c-0.2-0.72-0.38-1.45-0.59-2.16c-0.08-0.28-0.22-0.52-0.61-0.44
		c-1.03,0.21-2.06,0.38-3.08,0.61c-1.2,0.27-2.35,0.72-3.51,1.13c-1.55,0.55-3.05,1.24-4.68,1.54c-0.44,0.08-0.56,0.36-0.42,0.78
		c0.25,0.76,0.53,1.51,0.85,2.24c0.25,0.57,0.48,0.68,1.11,0.53c0.84-0.19,1.7-0.32,2.57-0.34c0.72-0.02,1.41-0.18,2.08-0.46
		c0.35-0.15,0.53-0.37,0.49-0.76C86.83,79.26,86.81,78.77,86.78,78.38z M83.01,33.88c0-0.23-0.03-0.43-0.19-0.61
		c-0.95-1.09-1.9-2.18-2.85-3.27c-0.33-0.37-0.48-0.34-0.65,0.12c-0.31,0.85-0.6,1.7-0.9,2.54c-0.15,0.42-0.14,0.82,0.13,1.19
		c0.31,0.42,0.63,0.82,0.93,1.24c0.33,0.46,0.23,0.78-0.3,0.93c-0.34,0.09-0.47,0.24-0.4,0.6c0.17,0.85,0.31,1.7,0.48,2.55
		c0.03,0.16,0.04,0.36,0.22,0.42c0.21,0.07,0.33-0.11,0.46-0.24c0.46-0.48,0.91-0.98,1.38-1.45C82.43,36.78,82.7,35.32,83.01,33.88z
		 M71.21,34.03c0.35,1.82,0.59,3.73,0.71,5.66c0.01,0.2,0.12,0.34,0.3,0.43c1.48,0.73,3.01,1.33,4.61,1.73
		c0.64,0.16,0.75-0.01,0.53-0.63c-0.31-0.91-0.61-1.83-0.71-2.79c-0.04-0.35-0.12-0.65-0.56-0.68c-0.24-0.02-0.4-0.23-0.56-0.39
		c-1.27-1.22-2.64-2.34-3.85-3.61c-0.09-0.09-0.2-0.22-0.34-0.17C71.17,33.62,71.23,33.81,71.21,34.03z M68.17,36.85
		c0,0.01,0,0.02,0,0.03c0.45-0.03,0.89-0.05,1.34-0.1c0.3-0.03,0.51-0.21,0.44-0.54c-0.28-1.23-0.41-2.49-0.74-3.71
		c-0.09-0.33-0.29-0.54-0.63-0.63c-0.84-0.21-1.69-0.34-2.55-0.42c-0.55-0.05-0.67,0.1-0.55,0.63c0.28,1.3,0.55,2.6,0.85,3.89
		c0.17,0.73,0.29,0.82,1.05,0.85C67.64,36.86,67.91,36.85,68.17,36.85z M77.55,44.92c0.54,0.03,0.67-0.11,0.58-0.59
		c-0.05-0.29-0.13-0.59-0.18-0.88c-0.07-0.35-0.24-0.53-0.62-0.48c-0.39,0.05-0.75-0.05-1.13-0.16c-1.33-0.41-2.53-1.09-3.78-1.67
		c-0.41-0.19-0.57-0.1-0.69,0.29c-0.1,0.33-0.21,0.66-0.41,0.96c-0.15,0.24-0.08,0.45,0.14,0.6c0.23,0.16,0.49,0.27,0.77,0.36
		c0.65,0.2,1.31,0.41,1.91,0.73C75.23,44.66,76.43,44.74,77.55,44.92z"/>
	<path d="M28.29,72.49c-0.26,0.42-0.27,0.81-0.29,1.18c-0.07,1.51,0.06,3.03,0.12,4.54c0.06,1.71,0.17,3.42,0.26,5.13
		c0.02,0.36-0.1,0.64-0.35,0.89c-1.21,1.23-2.61,2.16-4.22,2.77c-0.39,0.15-0.76,0.33-1.14,0.5c-0.57,0.26-1.12,0.18-1.55-0.27
		c-0.22-0.23-0.41-0.48-0.61-0.72c-0.7-0.85-0.7-0.86-0.16-1.84c0.19-0.33,0.35-0.68,0.52-1.02c0.15-0.3,0.07-0.5-0.29-0.49
		c-1.45,0.03-2.89-0.15-4.32-0.4c-0.39-0.07-0.75,0.05-1.07,0.31c-0.51,0.42-1.09,0.68-1.75,0.81c-0.44,0.09-0.86,0.26-1.29,0.39
		c-0.78,0.24-1.55,0.5-2.38,0.49c-0.57-0.01-1.12,0.16-1.66,0.31c-0.46,0.12-0.71-0.01-0.72-0.48c-0.02-0.77-0.34-1.45-0.52-2.18
		c-0.06-0.25-0.21-0.43-0.41-0.54c-0.45-0.26-0.6-0.66-0.59-1.13c0.04-1.7-0.1-3.39-0.06-5.09c0.06-2.89,0.02-5.79,0.07-8.68
		c0.02-1.14,0.11-2.29,0.48-3.4c0.29-0.87,0.7-1.65,1.38-2.27c0.32-0.29,0.43-0.62,0.34-1.07c-0.14-0.7-0.2-1.42-0.29-2.13
		c-0.08-0.61,0.07-1.14,0.63-1.46c0.67-0.38,0.9-0.91,0.85-1.69c-0.07-1.01,0.49-1.7,1.46-1.99c0.51-0.16,1.04-0.24,1.58-0.15
		c0.64,0.11,1.28,0.22,1.91,0.33c0.36,0.06,0.61,0.24,0.68,0.63c0.06,0.34,0.26,0.47,0.57,0.28c1.07-0.67,2.27-1.13,3.07-2.19
		c0.18-0.24,0.34-0.49,0.42-0.78c0.78-3.05,1.57-6.09,2.22-9.17c0.22-1.04,0.42-2.08,0.82-3.08c0.52-1.31,1.43-2.05,2.84-2.16
		c1.47-0.12,1.47-0.11,1.95-1.49c0.76-2.17,2.62-3.65,5.05-3.53c0.78,0.04,1.55-0.02,2.32,0.21c1.24,0.36,2.2,1.06,3.02,2.02
		c0.38,0.44,0.58,0.97,0.68,1.54c0.08,0.44,0.29,0.63,0.76,0.68c2.1,0.2,4.22,0.2,6.32,0.45c1.29,0.15,2.38,0.7,3.35,1.53
		c0.3,0.26,0.43,0.58,0.47,0.96c0.18,1.41,0.02,2.83-0.05,4.24c-0.06,1.21-0.18,2.42-0.26,3.63c-0.12,1.86-0.32,3.71-0.61,5.55
		c-0.37,2.3-0.79,4.59-1.19,6.88c-0.01,0.07-0.02,0.13-0.04,0.2c-0.81,2.14-0.51,4.34-0.23,6.51c0.16,1.24,0.25,2.48,0.34,3.72
		c0.27,3.6,0.42,7.21,0.31,10.82c-0.03,0.91-0.09,1.83-0.5,2.68c-0.12,0.25-0.23,0.49-0.53,0.55c-1.57,0.3-3.12,0.69-4.73,0.73
		c-2.23,0.05-4.44,0.33-6.66,0.47c-1.35,0.09-2.7,0.01-4.03-0.19c-1.01-0.15-1.88-1.23-1.93-2.26c-0.17-3.01-0.18-6.02-0.22-9.03
		C28.43,73.21,28.41,72.9,28.29,72.49z M7.21,75.84c-0.15,1.38-0.05,2.76-0.02,4.14c0.02,0.8,0.82,1.37,1.48,0.94
		c0.89-0.56,1.63-1.31,1.79-2.46c0.11-0.81,0.05-1.63,0.13-2.44c0.25-2.49,0.19-4.99,0.14-7.48c-0.04-1.54,0.39-2.81,1.59-3.79
		c0.1-0.08,0.21-0.17,0.28-0.28c0.48-0.73,1.22-1.12,1.99-1.44c1.37-0.56,2.74-1.12,4.03-1.86c0.9-0.51,1.88-1.04,2.24-2.05
		c0.61-1.67,1.32-3.31,1.76-5.04c0.24-0.93,0.41-1.89,0.77-2.79c0.12-0.31,0.31-0.61,0.69-0.51c0.39,0.1,0.3,0.46,0.27,0.76
		c0,0.05-0.02,0.1-0.03,0.15c-0.34,2.38-1.05,4.66-1.83,6.94c-0.46,1.36-1.33,2.24-2.55,2.92c-1.66,0.92-3.4,1.68-5.12,2.48
		c-0.91,0.42-1.73,1.01-2.26,1.9c-0.43,0.71-0.48,1.52-0.47,2.32c0.03,3.16-0.08,6.32-0.33,9.48c-0.06,0.73-0.01,1.5-0.59,2.11
		c-0.88,0.93-1.72,1.9-2.62,2.81c-0.37,0.38-0.22,0.73-0.09,1.09c0.13,0.37,0.44,0.31,0.75,0.3c1.36-0.04,2.58-0.61,3.86-0.96
		c1.22-0.33,1.3-0.48,1.37-1.73c0.01-0.13,0.02-0.27,0.04-0.4c0.3-1.94,0.46-3.9,0.66-5.85c0.18-1.73,0.26-3.48,0.95-5.12
		c0.3-0.7,0.7-1.26,1.4-1.54c1.58-0.62,3.06-1.46,4.63-2.12c1.12-0.47,1.29-0.38,0.53-1.56c-0.01-0.01-0.02-0.03-0.03-0.04
		c-0.12-0.22-0.17-0.45,0.05-0.63c0.21-0.18,0.45-0.12,0.64,0.05c0.57,0.51,1.11,1.05,1.52,1.71c0.27,0.44,0.29,0.87,0.01,1.31
		c-0.39,0.6-0.77,1.21-1.17,1.8c-0.58,0.83-1.03,1.7-1.14,2.73c-0.12,1.09,0.01,2.16,0.08,3.24c0.12,1.84,0.48,3.66,0.51,5.51
		c0.01,0.93-0.23,1.74-0.63,2.52c-0.36,0.69-0.76,1.37-1.14,2.05c-0.13,0.23-0.22,0.46,0,0.69c0.27,0.27,0.54,0.55,0.81,0.82
		c0.15,0.15,0.32,0.15,0.51,0.08c1.39-0.5,2.69-1.16,3.85-2.08c0.45-0.36,0.68-0.79,0.64-1.38c-0.08-1.11-0.16-2.22-0.2-3.34
		c-0.06-1.56-0.01-3.13-0.15-4.69c-0.14-1.61,0.27-2.99,1.32-4.2c0.3-0.35,0.4-0.75,0.4-1.2c-0.01-1.36,0.22-2.69,0.49-4.01
		c0.1-0.48,0.03-0.73-0.46-0.91c-0.61-0.22-0.7-0.54-0.39-1.13c0.05-0.1,0.11-0.21,0.17-0.3c0.55-0.8,0.94-1.69,1.34-2.56
		c0.23-0.52,0.55-0.83,1.07-0.92c1.04-0.19,2.02-0.54,3.03-0.84c0.66-0.2,0.72-0.25,0.64-0.94c-0.11-0.93-0.33-1.83-0.52-2.75
		c-0.17-0.85-0.3-1.7-0.43-2.56c-0.05-0.32,0.04-0.62,0.41-0.7c0.34-0.07,0.45,0.21,0.55,0.47c0.05,0.14,0.1,0.28,0.14,0.43
		c0.47,1.7,0.87,3.42,1.22,5.15c0.16,0.78,0.04,1.02-0.69,1.33c-1.13,0.49-2.3,0.87-3.51,1.11c-0.41,0.08-0.67,0.3-0.9,0.64
		c-0.5,0.75-0.82,1.6-1.22,2.4c-0.14,0.28-0.04,0.44,0.23,0.55c0.56,0.21,1.12,0.42,1.68,0.64c0.27,0.11,0.47,0.05,0.57-0.21
		c0.5-1.28,1.53-1.63,2.79-1.7c1.01-0.05,2.02-0.17,2.99-0.51c0.83-0.28,1.26-0.85,1.38-1.67c0.12-0.89,0.13-1.81-0.05-2.68
		c-0.66-3.23-1.62-6.38-2.92-9.42c-0.16-0.36-0.39-0.64-0.73-0.86c-1.25-0.81-2.65-1.14-4.08-1.38c-1.44-0.24-2.91-0.29-4.33-0.69
		c-1.35-0.39-2.37,0.08-3.16,1.19c-0.73,1.03-1.48,2.05-2.22,3.08c-0.88,1.21-1.61,2.55-2.85,3.44c-1.07,0.76-2.2,1.43-3.38,2.02
		c-0.29,0.14-0.42,0.33-0.37,0.62c0.18,1.21,0.02,2.43,0.09,3.64c0.04,0.64-0.25,1.09-0.77,1.41c-0.36,0.21-0.72,0.43-1.11,0.56
		c-1.1,0.38-2.18,0.39-3.22-0.21c-0.5-0.29-0.96-0.21-1.33,0.25c-0.46,0.56-0.77,1.2-0.95,1.9c-0.38,1.43-0.46,2.9-0.49,4.36
		C7.17,70.58,7.21,73.21,7.21,75.84z M29.87,74.11c0,1.95,0,3.89,0,5.84c0,0.9,0.1,1.79,0.18,2.69c0.05,0.54,0.31,0.76,0.79,0.86
		c0.89,0.18,1.79,0.11,2.69,0.12c2.42,0.02,4.81-0.31,7.22-0.45c1.43-0.08,2.86-0.18,4.25-0.54c0.34-0.09,0.57-0.24,0.61-0.62
		c0.23-1.96,0.16-3.92,0.08-5.88c-0.07-1.69-0.22-3.39-0.25-5.08c-0.03-1.59-0.16-3.16-0.41-4.72c-0.28-1.75-0.29-3.48-0.01-5.21
		c0.29-1.79,0.64-3.57,0.96-5.35c0.49-2.7,0.93-5.41,1.17-8.15c0.12-1.44,0.21-2.89,0.38-4.32c0.13-1.12,0.25-2.25,0.3-3.38
		c0.02-0.53-0.2-0.86-0.62-1.15c-0.87-0.6-1.88-0.75-2.88-0.88c-1.93-0.24-3.89-0.15-5.81-0.48c-0.26-0.04-0.42,0.04-0.45,0.32
		c-0.09,0.78-0.2,1.55-0.29,2.33c-0.14,1.12-0.13,2.26-0.41,3.36c-0.17,0.67-0.56,1.09-1.25,1.18c-0.59,0.07-1.19,0.16-1.79,0.13
		c-1.5-0.07-2.99-0.19-4.47-0.44c-1.7-0.29-2.89-1.2-3.5-2.82c-0.41-1.07-0.34-2.19-0.24-3.31c0.05-0.59-0.02-0.68-0.59-0.7
		c-1.06-0.02-1.78,0.47-2.16,1.44c-0.28,0.71-0.53,1.44-0.67,2.19c-0.28,1.49-0.62,2.96-1,4.43c-0.18,0.71-0.35,1.42-0.51,2.13
		c-0.03,0.13-0.14,0.32,0.05,0.4c0.17,0.07,0.25-0.12,0.34-0.23c0.17-0.22,0.35-0.44,0.5-0.68c1.33-2.11,3.05-2.91,5.5-2.52
		c1.27,0.2,2.53,0.4,3.8,0.53c1.06,0.11,2.1,0.32,3.12,0.65c1.44,0.47,2.4,1.45,3.02,2.79c1.02,2.2,1.61,4.54,2.25,6.87
		c0.43,1.55,0.68,3.12,0.61,4.73c-0.06,1.37-0.66,2.34-1.95,2.86c-0.87,0.35-1.76,0.59-2.71,0.62c-0.46,0.02-0.92,0.1-1.39,0.16
		c-0.47,0.05-0.74,0.34-0.92,0.74c-0.59,1.33-1.13,1.57-2.51,1.09c-0.7-0.24-0.88-0.13-0.91,0.6C29.88,68.89,29.76,71.5,29.87,74.11
		z M36.63,37.12c0.21-1.54-0.25-2.92-1.69-3.92c-0.87-0.61-1.81-0.75-2.84-0.71c-1.7,0.06-2.89,0.82-3.62,2.36
		c-0.81,1.71-1.12,3.51-0.98,5.39c0.11,1.49,1.2,3,2.96,3.22c0.33,0.04,0.66,0.1,0.99,0.14c1.18,0.11,2.35,0.22,3.53,0.24
		c0.28,0,0.6-0.02,0.68-0.3c0.24-0.77,0.72-1.43,0.7-2.31C36.32,39.89,36.74,38.59,36.63,37.12z M20.04,82c0.3,0,0.6,0,0.9,0
		c0.84,0,0.89-0.04,0.91-0.9c0.07-2.24-0.39-4.43-0.57-6.65c-0.16-1.96-0.11-3.85,1.24-5.48c0.45-0.55,0.8-1.18,1.19-1.78
		c0.09-0.14,0.19-0.3,0.04-0.46c-0.13-0.13-0.28-0.05-0.42,0.01c-1.84,0.82-3.59,1.81-5.45,2.6c-0.32,0.14-0.55,0.36-0.64,0.71
		c-0.15,0.58-0.29,1.16-0.37,1.75c-0.3,2.07-0.42,4.17-0.67,6.25c-0.12,1.01-0.23,2.01-0.34,3.02c-0.05,0.47,0.14,0.7,0.63,0.74
		C17.68,81.92,18.86,81.98,20.04,82z M9.63,59.98c-0.03-0.29-0.05-0.5-0.07-0.72c-0.06-0.56-0.12-1.12-0.19-1.68
		c-0.02-0.15-0.04-0.33-0.23-0.33c-0.18,0-0.24,0.16-0.28,0.3c-0.03,0.09-0.04,0.2-0.03,0.29c0.12,0.7,0.25,1.4,0.39,2.1
		c0.03,0.14,0.07,0.33,0.27,0.29C9.65,60.21,9.63,60.04,9.63,59.98z"/>
	<path d="M76.64,20.82c-0.11,1.41-0.47,2.96-0.98,4.48c-0.15,0.44-0.25,0.89-0.38,1.33c-0.35,1.21-1.47,2.91-3.25,3.08
		c-1.66,0.15-3.29,0.01-4.91-0.26c-1.09-0.18-2.2-0.32-3.26-0.71c-1.78-0.66-3.24-1.73-4.39-3.23c-0.29-0.38-0.27-0.84-0.28-1.29
		c-0.04-2.03,1.85-3.61,3.35-3.69c0.35-0.02,0.7,0.01,1.04,0.08c0.45,0.09,0.64-0.1,0.76-0.5c0.12-0.4,0.3-0.77,0.45-1.16
		c0.49-1.26,1.37-2.24,2.36-3.12c0.82-0.73,1.87-0.92,2.93-0.96c1.92-0.08,3.6,0.47,4.96,1.89C76.09,17.84,76.61,19.12,76.64,20.82z
		 M60.54,24.3c-0.08,0.72,0.32,1.23,0.88,1.65c0.68,0.51,1.44,0.89,2.23,1.22c0.27,0.11,0.52,0.1,0.76-0.07
		c1.34-0.98,2.12-2.33,2.55-3.88c0.22-0.81,0.45-1.08,1.29-1.16c0.27-0.02,0.53-0.05,0.79-0.08c2.19-0.21,4.04-1.14,5.59-2.68
		c0.37-0.37,0.39-0.74,0.12-1.21c-1.06-1.78-3.02-2.64-5.19-2.23c-0.48,0.09-0.96,0.21-1.32,0.55c-0.82,0.8-1.64,1.6-2.08,2.7
		c-0.27,0.66-0.53,1.33-0.76,2c-0.22,0.67-0.65,0.89-1.31,0.7c-0.2-0.06-0.39-0.18-0.59-0.27c-0.59-0.27-1.21-0.27-1.69,0.16
		C61.07,22.38,60.53,23.2,60.54,24.3z M70.57,28.42c0.53-0.03,1.06-0.05,1.59-0.1c1.19-0.11,2.32-1.84,2.4-2.95
		c0.06-0.82,0.28-1.6,0.43-2.4c0.13-0.68,0.3-1.36,0.31-2.07c0-0.19,0.09-0.44-0.13-0.54c-0.19-0.09-0.31,0.14-0.45,0.25
		c-1.47,1.08-2.96,2.1-4.86,2.26c-0.38,0.03-0.76,0.08-1.14,0.13c-0.3,0.04-0.48,0.2-0.57,0.49c-0.43,1.38-1.06,2.65-1.99,3.77
		c-0.34,0.4-0.27,0.55,0.26,0.64C67.8,28.14,69.17,28.4,70.57,28.42z"/>
</g>
</svg>
