<?xml version="1.0" encoding="utf-8"?>
<!-- Generator: Adobe Illustrator 27.1.1, SVG Export Plug-In . SVG Version: 6.00 Build 0)  -->
<svg version="1.1" id="Layer_1" xmlns="http://www.w3.org/2000/svg" xmlns:xlink="http://www.w3.org/1999/xlink" x="0px" y="0px"
	 viewBox="0 0 100 100" style="enable-background:new 0 0 100 100;" xml:space="preserve">
<g>
	<g>
		<path d="M79.16,73.24c-0.29,0.42-0.38,0.88-0.56,1.31c-1.05,2.5-2.16,4.98-3.04,7.54c-0.6,1.75-1.23,3.48-1.87,5.21
			c-0.48,1.31-1.06,2.58-1.43,3.93c-0.12,0.44-0.44,0.7-0.93,0.64c-1.86-0.2-3.69,0.1-5.52,0.34c-0.55,0.07-1.09,0.14-1.64,0.15
			c-1.81,0.04-3.59,0.37-5.4,0.44c-0.96,0.04-1.4-0.33-1.52-1.29c-0.1-0.82-0.23-1.63-0.39-2.44c-0.08-0.4,0.02-0.66,0.37-0.83
			c1.13-0.55,2.16-1.27,3.24-1.9c0.53-0.31,1.06-0.6,1.64-0.81c0.5-0.19,0.77-0.52,0.92-1.05c1.08-3.62,1.85-7.32,2.87-10.95
			c0.58-2.06,1.22-4.11,1.5-6.24c0.25-1.89,0.35-3.8,0.73-5.67c0.28-1.37,0.32-2.77,0.56-4.15c0.06-0.37-0.03-0.7-0.25-1
			c-0.95-1.25-1.92-2.49-2.84-3.77c-1.02-1.42-1.99-2.87-2.99-4.31c-0.11-0.16-0.14-0.42-0.37-0.42c-0.26,0-0.32,0.27-0.41,0.45
			c-0.56,1.09-1.24,2.09-2.15,2.93c-0.64,0.59-1.32,0.69-2.02,0.2c-1.37-0.95-2.73-1.92-4.08-2.91c-0.41-0.3-0.52-0.23-0.51,0.26
			c0.02,0.73-0.05,1.46-0.18,2.17c-0.05,0.29,0.04,0.44,0.3,0.55c1.68,0.68,3.03,1.74,3.86,3.38c0.13,0.26,0.36,0.27,0.6,0.27
			c2.56,0.01,5.12,0.02,7.67,0.02c1.13,0,1.65,0.55,1.59,1.67c-0.03,0.49,0.05,0.98,0.05,1.47c-0.01,0.92-0.41,1.17-1.24,0.85
			c-0.16-0.06-0.35-0.07-0.52-0.07c-2.16,0-4.33,0.01-6.49,0c-0.46,0-0.65,0.09-0.6,0.64c0.25,2.67-0.18,5.24-1.48,7.58
			c-0.41,0.75-0.48,1.45-0.48,2.23c-0.01,1.27-0.43,2.47-0.71,3.7c-0.4,1.78-0.75,3.58-1.38,5.3c-0.25,0.68-0.35,1.39-0.18,2.14
			c0.16,0.71,0.13,1.44,0.12,2.17c-0.01,1.4-0.31,1.41-1.39,1.65c-1.22,0.27-2.52,0.34-3.81,0.25c-2.33-0.15-4.66,0.23-7,0.04
			c-0.01,0.05-0.01,0.1-0.02,0.15c0.58,0.2,1.17,0.38,1.74,0.59c2.3,0.86,2.32,1.02,2.35,3.32c0.01,0.45,0.01,0.91-0.03,1.36
			c-0.04,0.5-0.3,0.78-0.85,0.77c-0.41-0.01-0.82,0.06-1.23,0.1c-0.1,0.01-0.24,0.01-0.28,0.07c-0.55,0.86-1.46,0.54-2.2,0.61
			c-2.58,0.22-5.18,0.31-7.76,0.57c-0.48,0.05-0.98-0.03-1.47-0.05c-1.14-0.05-2.28,0.06-3.42,0.08c-0.65,0.01-1.3-0.05-1.94-0.11
			c-0.63-0.06-0.91-0.37-1.07-1.14c-0.17-0.86-0.16-1.73-0.06-2.59c0.23-1.94,0.14-3.89,0.31-5.83c0.23-2.55,0.2-5.1,0.27-7.66
			c0.03-1.29,0.05-2.6,0.27-3.88c0.08-0.48-0.07-0.66-0.55-0.63c-0.8,0.05-1.61,0.12-2.41,0.12c-1.97,0-3.92-0.23-5.88-0.41
			c-1.54-0.15-3.1-0.27-4.65-0.25c-3.22,0.06-5.67-3.22-5.58-5.86c0.07-2.14,0.56-4.2,1-6.28c0.62-2.94,1.41-5.85,2.25-8.73
			c0.75-2.55,1.22-5.16,1.98-7.7c0.48-1.61,1.42-3.01,2.27-4.45c1.06-1.82,2.69-2.64,4.62-3.05c2.51-0.53,4.64,0.07,6.19,2.23
			c0.39,0.54,0.81,1.06,1.07,1.69c0.13,0.31,0.36,0.56,0.67,0.71c1.18,0.59,2.36,1.18,3.52,1.79c0.41,0.21,0.59,0,0.73-0.31
			c0.55-1.15,1.1-2.31,1.64-3.46c0.37-0.78,0.75-1.55,1.14-2.32c0.47-0.93,0.57-2,0.88-2.99c0.06-0.21,0.15-0.41,0.17-0.62
			c0.12-1.01,0.81-1.36,1.69-1.5c0.78-0.12,1.56-0.25,2.35-0.14c0.76,0.11,1.49,0.01,2.23-0.11c0.48-0.07,0.94-0.02,1.39,0.15
			c0.44,0.16,0.65,0.65,0.33,0.94c-1.05,0.92-0.74,2.22-1.01,3.34c-0.21,0.88-0.39,1.73-1.11,2.34c-0.19,0.16-0.28,0.39-0.29,0.63
			c-0.1,1.9-0.81,3.68-1.18,5.52c-0.43,2.18-0.97,4.33-1.43,6.51c-0.34,1.62-0.88,2-2.53,1.93c-1.57-0.07-2.92-0.76-4.31-1.34
			c-1.18-0.49-2.27-1.17-3.48-1.6c-0.57-0.2-0.66-0.15-0.7,0.44c-0.04,0.61-0.06,1.22-0.11,1.82c-0.03,0.45,0.15,0.63,0.61,0.65
			c1.16,0.06,2.31,0.14,3.46,0.33c0.52,0.08,0.87,0.29,1.12,0.73c0.55,0.96,0.93,2,1.27,3.04c0.18,0.56,0.47,0.78,1.07,0.74
			c0.92-0.05,1.85-0.02,2.77-0.01c0.33,0,0.53-0.11,0.7-0.42c0.74-1.35,1.81-2.38,3.22-2.99c0.58-0.25,0.7-0.62,0.6-1.16
			c-0.18-0.91-0.35-1.82-0.31-2.75c0.06-1.69,0.68-3,2.36-3.73c1.13-0.49,2.27-0.72,3.53-0.78c-0.18-0.52-0.61-0.68-1-0.87
			c-1.03-0.5-1.86-1.22-2.58-2.11c-0.48-0.59-0.52-1.2-0.38-1.88c0.25-1.14,0.79-2.15,1.53-3.03c0.4-0.49,0.61-1,0.65-1.6
			c0.02-0.34,0.07-0.67,0.19-0.98c0.19-0.53,0.56-0.64,0.92-0.22c0.47,0.53,1.02,0.97,1.49,1.5c1.49,1.68,3.14,3.2,4.85,4.65
			c0.5,0.42,1.06,0.75,1.61,1.08c0.39,0.23,0.66,0.16,0.83-0.27c0.4-0.98,0.72-1.99,1.11-2.98c0.24-0.6,0.03-1.31,0.07-1.97
			c0.14-2.63,1.36-4.58,3.56-5.97c0.94-0.59,1.93-1.06,3-1.35c1.13-0.31,2.18,0.07,3.22,0.44c1.61,0.57,2.82,1.66,3.94,2.91
			c1.46,1.64,2.48,3.58,3.82,5.31c2.2,2.82,4.32,5.7,6.57,8.48c1.31,1.62,2.63,3.23,3.89,4.89c1.24,1.65,1.96,3.57,2.66,5.5
			c0.75,2.07,1.04,4.23,1.28,6.4c0.21,1.91,0.49,3.82,0.75,5.73c0.77,5.57,1.83,11.09,2.5,16.68c0.27,2.28,0.44,4.58,0.66,6.87
			c0.03,0.3,0.04,0.6-0.3,0.76c-0.34,0.15-0.61,0.05-0.81-0.25c-0.13-0.2-0.33-0.2-0.53-0.19c-2.85,0.05-5.71-0.19-8.53,0.37
			c-0.75,0.15-1.5,0.31-2.27,0.34c-0.77,0.03-0.95-0.11-1.07-0.86c-0.09-0.58-0.14-1.17-0.2-1.76c-0.04-0.41,0.22-0.64,0.51-0.86
			c1.21-0.91,2.4-1.84,3.62-2.74c0.29-0.22,0.39-0.4,0.24-0.78c-1.38-3.34-2.37-6.83-3.81-10.16
			C79.54,74.04,79.52,73.59,79.16,73.24z M58.41,33.98c0.69-0.89,1.36-1.76,2.2-2.49c0.66-0.57,1.32-1.12,2.24-1.21
			c2.4-0.23,4.48,2.03,4.42,4.14c-0.06,2.05-0.73,3.94-1.38,5.82c-0.71,2.04-1.74,3.95-2.83,5.82c-0.2,0.34-0.16,0.59,0.06,0.91
			c1.96,2.83,3.86,5.7,6.03,8.37c0.72,0.89,0.85,1.82,0.73,2.91c-0.22,2.05-0.72,4.07-0.88,6.13c-0.19,2.42-0.64,4.79-1.27,7.12
			c-0.55,2.01-1.22,3.99-1.62,6.03c-0.56,2.88-1.58,5.64-2.22,8.5c-0.09,0.4-0.35,0.71-0.79,0.65c-0.45-0.06-0.82,0.08-1.18,0.27
			c-0.97,0.52-1.95,1.03-2.89,1.6c-1.08,0.66-1.01,0.4-0.74,1.64c0.06,0.29,0.12,0.58,0.15,0.87c0.03,0.38,0.22,0.5,0.59,0.47
			c1.96-0.16,3.9-0.45,5.87-0.53c1.88-0.08,3.75-0.41,5.64-0.41c0.43,0,0.64-0.17,0.77-0.56c0.48-1.5,1.17-2.91,1.65-4.41
			c1.3-4.06,2.9-8.01,4.52-11.96c0.31-0.76,0.61-1.54,0.91-2.3c0.66-1.68,1.51-3.28,2.24-4.93c0.47-1.06,0.96-2.11,1.49-3.15
			c0.99-1.93,1.86-3.91,2.1-6.09c0.17-1.59,0.27-3.19-0.7-4.62c-0.15-0.23-0.32-0.45-0.48-0.67c-0.11-0.15-0.18-0.31-0.06-0.49
			c0.12-0.19,0.31-0.22,0.52-0.17c0.22,0.05,0.4,0.15,0.56,0.31c0.63,0.64,1.14,1.37,1.3,2.27c0.33,1.85,0.25,3.7-0.23,5.5
			c-0.44,1.63-1.14,3.17-1.89,4.69c-1.07,2.17-2.04,4.38-3.1,6.56c-0.29,0.6-0.33,1.13-0.07,1.74c0.59,1.35,1.14,2.72,1.69,4.08
			c1.16,2.84,1.88,5.84,3.28,8.59c0.15,0.3,0.12,0.57-0.2,0.76c-1.46,0.83-2.68,1.99-4.04,2.95c-0.5,0.35-0.59,0.8-0.4,1.28
			c0.19,0.46,0.65,0.26,0.99,0.19c1.65-0.31,3.29-0.54,4.97-0.53c1.49,0.01,2.99-0.07,4.48-0.08c0.53,0,0.69-0.21,0.64-0.71
			c-0.13-1.15-0.13-2.32-0.28-3.46c-0.68-4.93-1.41-9.85-2.17-14.76c-0.55-3.56-1-7.12-1.47-10.69c-0.5-3.77-1.51-7.34-4.06-10.37
			c-2.18-2.6-4.28-5.28-6.33-7.99c-2.24-2.96-4.49-5.92-6.6-8.98c-1.27-1.84-2.86-3.36-5.12-3.95c-0.6-0.16-1.22-0.46-1.84-0.25
			c-1.47,0.5-2.86,1.16-3.91,2.33C58.91,31.65,58.4,32.72,58.41,33.98z M11.13,51.73C9.97,55.7,8.87,59.68,8.47,63.8
			c-0.14,1.48,0.36,2.82,1.5,3.88c0.98,0.9,2.16,1.16,3.42,1.21c1.22,0.04,2.44,0.06,3.65,0.13c2.9,0.17,5.78,0.69,8.7,0.24
			c0.37-0.06,0.69-0.08,0.86-0.47c0.08-0.19,0.28-0.28,0.5-0.24c0.23,0.04,0.39,0.19,0.44,0.42c0.04,0.17,0.03,0.35,0.03,0.53
			c0.01,1.87-0.13,3.73-0.23,5.59c-0.11,2.02,0.02,4.05-0.12,6.07c-0.14,2-0.24,4-0.33,6c-0.05,1.12-0.2,2.23-0.13,3.36
			c0.03,0.57,0.22,0.83,0.86,0.8c1.33-0.06,2.67-0.2,4.01-0.15c0.75,0.03,1.51,0.08,2.24-0.02c2.5-0.35,5.02-0.29,7.52-0.55
			c0.39-0.04,0.72-0.11,0.74-0.57c0.02-0.46,0.15-0.97-0.46-1.2c-2.34-0.85-4.51-2.05-6.67-3.26c-1.19-0.67-1.3-0.96-0.91-2.28
			c0.25-0.85,0.52-1.69,0.66-2.57c0.48-2.93,1.29-5.79,1.83-8.71c0.5-2.69,0.93-5.39,0.73-8.14c-0.08-1.13-0.62-1.98-1.66-2.54
			c-2.01-1.07-4.2-1.48-6.42-1.6c-2.9-0.15-5.8-0.41-8.72-0.42c-1.02,0-2.04-0.12-3.06-0.2c-0.29-0.02-0.5-0.17-0.5-0.48
			c0-0.27,0.13-0.51,0.42-0.57c0.25-0.06,0.51-0.09,0.76-0.09c2.18,0.03,4.37,0.01,6.54,0.2c0.48,0.04,0.62-0.17,0.58-0.56
			c-0.04-0.39,0.28-0.95-0.51-1c-1.57-0.11-3.15-0.19-4.71-0.1c-2.09,0.12-4.11-0.13-6.11-0.72c-0.9-0.27-1.56-0.79-2.02-1.6
			C11.47,53.44,11.42,52.56,11.13,51.73z M26.37,44.57c-0.03-1.52,0-2.62-0.14-3.71c-0.3-2.26-1.39-4.01-3.26-5.29
			c-0.66-0.45-1.43-0.36-2.16-0.43c-1.71-0.15-3.19,0.42-4.25,1.69c-0.92,1.09-1.65,2.34-2.24,3.66c-1.02,2.27-1.5,4.67-1.71,7.13
			c-0.16,1.9-0.56,3.81,0.22,5.71c0.27,0.64,0.58,1.11,1.22,1.32c1.58,0.51,3.22,0.78,4.88,0.74c1.86-0.05,3.72-0.24,5.59,0.01
			c0.42,0.06,0.87,0.03,1.29-0.01c0.79-0.07,1.57-0.04,2.36-0.04c1.39-0.01,2.79-0.03,4.18-0.04c0.28,0,0.43-0.13,0.32-0.4
			c-0.31-0.85-0.55-1.72-1.02-2.51c-0.21-0.35-0.5-0.53-0.9-0.57c-2.29-0.2-4.58-0.36-6.86-0.72c-1.38-0.22-2.78-0.26-4.15-0.48
			c-1.08-0.17-1.26-0.46-1.15-1.53c0.28-2.94,0.76-5.85,1.51-8.7c0.09-0.35,0.28-0.58,0.66-0.53c0.38,0.05,0.42,0.36,0.43,0.67
			c0.03,0.58-0.17,1.12-0.29,1.68c-0.48,2.21-0.82,4.44-1.02,6.7c-0.04,0.52,0.14,0.75,0.7,0.73c1.6-0.03,3.18,0.2,4.75,0.45
			c0.51,0.08,0.74-0.06,0.78-0.58C26.23,47.72,26.41,45.94,26.37,44.57z M47.08,34.33c-0.15,0.95-0.16,0.95-0.77,1.73
			c-0.29,0.37-0.58,0.75-0.81,1.16c-1.14,2.07-0.98,2.6,0.87,3.7c1.47,0.87,2.68,1.98,3.84,3.17c2.36,2.42,4.99,4.49,7.79,6.36
			c0.4,0.26,0.66,0.23,0.97-0.08c0.65-0.66,1.21-1.39,1.62-2.23c0.36-0.74,0.7-1.5,1.1-2.21c0.75-1.33,1.52-2.66,2.17-4.05
			c0.98-2.09,1.69-4.28,2.18-6.52c0.37-1.68-0.38-3.08-1.89-3.8c-0.55-0.26-1.17-0.45-1.74-0.07c-0.52,0.34-1.04,0.7-1.47,1.17
			c-1.9,2.14-3.2,4.61-3.93,7.37c-0.29,1.1-0.52,0.95,0.65,1.66c0.34,0.2,0.59,0.46,0.36,0.86c-0.23,0.4-0.6,0.33-0.92,0.13
			c-0.45-0.28-0.89-0.57-1.31-0.9c-0.89-0.69-1.93-1.13-2.81-1.84c-1.87-1.51-3.61-3.15-5.16-4.98
			C47.62,34.74,47.42,34.49,47.08,34.33z M41.72,30.32c-1.4,0.24-2.63,0.02-3.86,0.14c-1,0.09-1.17,0.21-1.38,1.21
			c-0.36,1.72-0.9,3.37-1.78,4.91c-0.25,0.44-0.45,0.92-0.66,1.38c-0.8,1.71-1.59,3.42-2.4,5.13c-0.17,0.35-0.47,0.57-0.87,0.4
			c-0.36-0.16-0.32-0.5-0.23-0.82c0.02-0.08,0.04-0.15,0.07-0.23c0.18-0.41,0.03-0.66-0.35-0.85c-0.76-0.38-1.5-0.79-2.25-1.17
			c-0.57-0.29-0.61-0.27-0.57,0.4c0.1,1.53,0.25,3.06,0.13,4.59c-0.03,0.42,0.2,0.61,0.55,0.72c1.46,0.49,2.79,1.27,4.18,1.9
			c1.18,0.53,2.37,1.08,3.7,1.12c0.96,0.03,1.09-0.06,1.26-0.99c0.51-2.71,1.17-5.38,1.76-8.06c0.29-1.36,0.87-2.66,0.83-4.09
			c-0.01-0.4,0.18-0.75,0.51-1.02c0.97-0.84,1.01-2.01,0.98-3.14C41.32,31.33,41.18,30.85,41.72,30.32z M56.91,61.11
			c0-0.43-0.01-0.87,0-1.3c0.02-0.46-0.21-0.64-0.64-0.66c-0.92-0.05-1.84-0.13-2.77-0.14c-5-0.1-9.98,0.2-14.97,0.36
			c-0.27,0.01-0.46,0.07-0.54,0.35c-0.14,0.52,0.17,1.19,0.65,1.46c1.37,0.79,2.41,1.84,2.6,3.5c0.08,0.72,0.08,0.7,0.77,0.52
			c1.8-0.48,3.51-0.47,4.91,1c0.21,0.22,0.37,0.15,0.52-0.07c0.24-0.34,0.58-0.52,0.96-0.65c1.02-0.35,2.07-0.43,3.14-0.38
			c1.3,0.07,2.45,0.53,3.42,1.41c0.51,0.46,0.52,0.47,0.82-0.15C56.61,64.7,56.98,62.95,56.91,61.11z M42.6,80.8
			c1.11-0.17,2.26-0.06,3.4-0.2c0.62-0.08,0.78-0.31,0.77-0.89c-0.04-1.67-0.02-3.34-0.08-5.01c-0.07-2.06-0.13-4.13,0.07-6.19
			c0.09-0.88-0.35-1.49-1.05-1.89c-1.24-0.71-2.52-0.66-3.76,0c-0.41,0.22-0.66,0.59-0.73,1.08c-0.13,0.93-0.32,1.86-0.46,2.79
			c-0.25,1.79-0.48,3.59-1,5.33c-0.06,0.21-0.06,0.43,0.02,0.64c0.42,1.12,0.88,2.23,1.27,3.36C41.31,80.59,41.75,80.98,42.6,80.8z
			 M47.88,77.13c0.03,0,0.07,0,0.1,0c0,0.83,0.01,1.65-0.01,2.48c-0.01,0.45,0.16,0.65,0.63,0.63c1.16-0.06,2.32-0.11,3.47-0.16
			c0.23-0.01,0.38-0.08,0.46-0.35c0.89-2.9,1.5-5.86,2.23-8.8c0.12-0.49,0.18-1.01,0.21-1.52c0.04-0.81-0.29-1.52-0.87-2.05
			c-1.18-1.09-4.01-1.39-5.43-0.59c-0.34,0.19-0.71,0.4-0.7,0.87c0.03,1.59-0.15,3.18-0.11,4.78
			C47.92,73.99,47.88,75.56,47.88,77.13z M43.01,48.3c-0.06,0.69,0.12,1.44,0.27,2.19c0.24,1.17,0.71,2.21,1.91,2.64
			c1.62,0.58,3.28,0.62,4.89-0.09c0.53-0.23,0.9-0.63,1.16-1.19c0.54-1.17,0.54-2.41,0.56-3.64c0.01-0.71-0.25-1.37-0.85-1.87
			c-0.57-0.48-1.09-1.02-1.62-1.54c-0.16-0.15-0.33-0.28-0.56-0.3c-1.71-0.13-3.32,0.21-4.8,1.08c-0.43,0.25-0.66,0.66-0.82,1.11
			C42.99,47.19,42.99,47.7,43.01,48.3z M60.33,58.01c1.75,0,3.21,0.01,4.67,0c0.28,0,0.61,0.05,0.73-0.34
			c0.23-0.75-0.02-1.09-0.78-1.06c-0.24,0.01-0.47,0.01-0.71,0c-2.46-0.09-4.92-0.22-7.37-0.05c-2.97,0.2-5.94,0.26-8.9,0.16
			c-2.32-0.08-4.63-0.16-6.95-0.28c-3.22-0.17-6.46-0.07-9.68,0.08c-0.35,0.02-0.71,0-1.06,0.02c-0.21,0.01-0.38,0.05-0.42,0.31
			c-0.11,0.77,0.14,1.1,0.91,1.04c1.4-0.11,2.79,0.06,4.18,0.11c1.43,0.04,2.85,0.36,4.29,0.24c3.64-0.32,7.3-0.31,10.96-0.43
			C53.68,57.68,57.14,58.21,60.33,58.01z M38.54,65.36c0,0.29,0.01,0.59,0,0.88c-0.04,1.93-0.45,3.82-0.78,5.71
			c-0.2,1.16-0.42,2.32-0.66,3.47c-0.37,1.77-0.78,3.53-1.13,5.3c-0.19,0.95-0.35,1.9-0.68,2.8c-0.2,0.55-0.06,0.84,0.42,1.08
			c1.23,0.62,2.46,1.24,3.67,1.89c0.87,0.47,1.76,0.93,2.72,1.1c0.71,0.13,1.04,0.47,1.16,1.11c0.05,0.25,0.09,0.5,0.11,0.76
			c0.02,0.25,0.1,0.44,0.38,0.41c0.3-0.02,0.66,0.12,0.85-0.24c0.45-0.89-0.1-2.2-1.04-2.55c-1.95-0.73-3.94-1.34-5.87-2.14
			c-0.53-0.22-0.78-0.59-0.75-1.13c0.02-0.39,0.06-0.79,0.15-1.17c0.34-1.42,0.62-2.84,0.89-4.27c0.51-2.64,1.13-5.26,1.54-7.92
			c0.26-1.69,0.57-3.37,0.62-5.08c0.03-1.16-0.54-1.97-1.41-2.64c-0.09-0.07-0.19-0.18-0.31-0.1c-0.13,0.08-0.05,0.21-0.03,0.32
			C38.55,63.75,38.56,64.56,38.54,65.36z M52.73,55.55c0.82-0.04,1.65-0.08,2.47-0.13c0.52-0.03,0.59-0.18,0.3-0.61
			c-0.68-1.01-1.67-1.58-2.78-2c-0.3-0.11-0.53-0.02-0.72,0.23c-0.28,0.36-0.56,0.71-0.97,0.94c-2.61,1.47-5.94,1.01-8.06-1.12
			c-0.2-0.2-0.38-0.25-0.63-0.16c-1.09,0.4-1.92,1.13-2.63,2.02c-0.23,0.3-0.16,0.46,0.23,0.47c0.73,0.01,1.45,0.05,2.18,0.1
			C45.65,55.52,49.19,55.51,52.73,55.55z M49.47,83.65c0.65,0.03,1.29-0.07,1.94-0.11c1.46-0.08,1.36,0.1,1.39-1.47
			c0.01-0.56-0.19-0.79-0.75-0.75c-1.29,0.09-2.58,0.15-3.87,0.22c-0.16,0.01-0.36,0.03-0.38,0.21c-0.07,0.56-0.19,1.16,0.06,1.67
			c0.19,0.39,0.68,0.18,1.03,0.22C49.08,83.67,49.28,83.65,49.47,83.65z M43.93,83.77C43.93,83.77,43.93,83.77,43.93,83.77
			c0.49,0,0.98,0.02,1.47,0c1.15-0.04,1.15-0.05,1.13-1.15c0-0.1-0.01-0.2,0-0.29c0.03-0.42-0.15-0.54-0.57-0.5
			c-1.19,0.12-2.39,0.19-3.59,0.17c-1.08-0.01-1.08-0.02-0.88,1.08c0.08,0.44,0.28,0.71,0.78,0.69
			C42.83,83.75,43.38,83.77,43.93,83.77z M39.23,78.46c-0.34,1.63-0.68,3.26-1.02,4.89c-0.05,0.22,0.01,0.39,0.21,0.5
			c0.83,0.45,1.75,0.63,2.66,0.94c-0.7-0.68-0.95-1.57-0.84-2.39C40.44,80.92,39.61,79.76,39.23,78.46z M27.59,58.38
			c1.18,0.01,1.16,0.01,1.13-1.08c-0.02-0.52-0.23-0.7-0.72-0.67c-0.35,0.02-0.71,0.01-1.06,0.01c-0.28,0-0.41,0.13-0.45,0.42
			C26.35,58.24,26.45,58.37,27.59,58.38z M33.76,59.15c1.04,0.37,1.9,0.69,2.69,1.2c0.12,0.08,0.35,0.23,0.41,0.07
			c0.09-0.26,0.07-0.58,0.05-0.87c-0.01-0.22-0.23-0.26-0.4-0.27C35.65,59.23,34.8,59.05,33.76,59.15z"/>
		<path d="M15.08,32.79c-1.84-0.04-3.56-0.27-5.17-1.06c-0.18-0.09-0.36-0.17-0.52-0.28c-0.64-0.47-0.6-0.96,0.14-1.26
			c0.59-0.23,0.91-0.67,1.1-1.22c0.24-0.69,0.48-1.37,0.61-2.09c0.32-1.67,0.82-3.29,1.42-4.86c0.77-2.02,2.18-3.4,4.42-3.82
			c1.59-0.29,3.17-0.24,4.65,0.32c2.53,0.96,3.6,3.1,4.04,5.61c0.3,1.73-0.1,3.42-0.76,5.01c-0.44,1.05-1.44,1.72-2.49,2.04
			c-1.99,0.61-4.01,1.14-6.06,1.5C15.98,32.76,15.5,32.83,15.08,32.79z M14.43,31.47c0.49-0.02,0.98,0.01,1.47-0.06
			c2.23-0.31,4.35-1.04,6.5-1.65c0.77-0.22,1.39-0.75,1.69-1.59c0.79-2.17,0.79-4.28-0.4-6.3c-0.63-1.08-1.54-1.93-2.73-2.31
			c-0.93-0.3-1.94-0.31-2.92-0.2c-2.05,0.23-3.61,1.2-4.35,3.2c-0.63,1.7-1.11,3.44-1.49,5.21c-0.19,0.87-0.4,1.75-0.9,2.48
			c-0.36,0.53-0.13,0.66,0.29,0.83C12.51,31.43,13.47,31.45,14.43,31.47z"/>
		<path d="M48.77,19.28c-0.25-2.3,1.38-4.67,3.78-5.73c1.68-0.74,3.43-1.11,5.27-1.09c0.36,0,0.71,0.05,1.05,0.15
			c0.43,0.12,0.7,0.39,0.82,0.84c0.95,3.71,2.26,7.31,3.54,10.92c0.41,1.15,0.14,1.91-0.99,2.34c-2.08,0.79-4.26,1.16-6.47,1.06
			c-3.07-0.14-6.5-3.12-6.85-6.75C48.85,20.41,48.7,19.81,48.77,19.28z M56.35,26.41c1.76-0.01,3.46-0.37,5.14-0.9
			c0.57-0.18,0.65-0.42,0.46-0.93c-0.48-1.29-0.99-2.57-1.38-3.88c-0.64-2.14-1.57-4.19-2.01-6.4c-0.06-0.28-0.16-0.51-0.53-0.5
			c-2.1,0.04-4.1,0.47-5.91,1.55c-1.02,0.61-1.79,1.46-2.05,2.68c-0.22,1.07,0.05,2.11,0.18,3.16
			C50.59,24.08,53.89,26.8,56.35,26.41z"/>
		<path d="M44.02,19.72c0-0.23,0.11-0.41,0.28-0.56c0.48-0.41,0.95-0.82,1.43-1.21c0.31-0.25,0.64-0.2,0.9,0.06
			c0.29,0.28,0.15,0.62-0.08,0.83c-0.52,0.48-1.02,0.98-1.63,1.33C44.43,20.45,44.01,20.23,44.02,19.72z"/>
		<path d="M44.77,11.2c0.08,0.04,0.23,0.07,0.32,0.15c0.54,0.46,1.07,0.92,1.59,1.4c0.23,0.21,0.28,0.47,0.08,0.74
			c-0.2,0.28-0.48,0.38-0.77,0.19c-0.65-0.44-1.26-0.94-1.71-1.59C44.05,11.72,44.33,11.2,44.77,11.2z"/>
		<path d="M45.09,16.61c-0.64-0.09-1.24-0.17-1.84-0.27c-0.38-0.06-0.54-0.3-0.48-0.67c0.06-0.35,0.29-0.51,0.63-0.47
			c0.6,0.06,1.21,0.13,1.81,0.21c0.37,0.05,0.73,0.2,0.68,0.65C45.84,16.51,45.45,16.61,45.09,16.61z"/>
		<path d="M29.28,18.73c-0.33,0.01-0.5-0.08-0.6-0.27c-0.12-0.23-0.11-0.49,0.06-0.66c0.57-0.56,1.27-0.92,2.02-1.13
			c0.42-0.12,0.73,0.37,0.48,0.72C30.74,18.11,29.95,18.42,29.28,18.73z"/>
		<path d="M27.05,16.25c0-0.23,0.09-0.42,0.21-0.6c0.28-0.45,0.56-0.9,0.83-1.35c0.18-0.29,0.42-0.43,0.74-0.26
			c0.32,0.17,0.27,0.44,0.14,0.71c-0.28,0.62-0.53,1.27-0.99,1.79c-0.16,0.18-0.36,0.31-0.62,0.22
			C27.12,16.68,27.05,16.48,27.05,16.25z"/>
		<path d="M30.55,21.68c-0.1-0.01-0.36-0.02-0.61-0.05c-0.36-0.06-0.56-0.25-0.55-0.64c0.02-0.39,0.27-0.57,0.62-0.57
			c0.51,0,1.02,0.04,1.53,0.08c0.3,0.02,0.46,0.21,0.47,0.5c0.01,0.28-0.09,0.5-0.38,0.6C31.34,21.7,31.02,21.67,30.55,21.68z"/>
	</g>
</g>
</svg>
