<?xml version="1.0" encoding="utf-8"?>
<!-- Generator: Adobe Illustrator 27.1.1, SVG Export Plug-In . SVG Version: 6.00 Build 0)  -->
<svg version="1.1" id="Layer_1" xmlns="http://www.w3.org/2000/svg" xmlns:xlink="http://www.w3.org/1999/xlink" x="0px" y="0px"
	 viewBox="0 0 400 300" style="enable-background:new 0 0 400 300;" xml:space="preserve">
<style type="text/css">
	.st0{fill:none;stroke:#000000;stroke-miterlimit:10;}
	.st1{stroke:#000000;stroke-miterlimit:10;}
	.st2{fill:#FFFFFF;stroke:#000000;stroke-miterlimit:10;}
	.st3{fill:#010101;stroke:#000000;stroke-miterlimit:10;}
	.st4{fill:none;stroke:#D1D3D4;stroke-miterlimit:10;}
</style>
<g>
	<g>
		<g>
			<path class="st0" d="M62.6,40.9c0-1.5,0.4-2.6,0.7-3.2c0.4-0.9,0.8-1.2,1-1.3c0.6-0.4,1.2-0.4,1.9-0.4c0.6,0,1.1,0,1.4,0.1
				l2.9,2.9c1-0.9,2.1-1.8,3.1-2.6c0.6-0.1,1.5-0.3,2.6-0.1c0.4,0.1,0.7,0.2,0.8,0.2c1.8,0.7,1.8,6.4,1.7,7.8
				c-0.1,2.8-0.2,6.4-0.6,10.6c-1.5,0.4-3.3,0.6-4.5,0.4c-1.2-0.1-1.8-0.7-1.7-1.7c0.1-1,2.6-2.6,2.6-2.6c0.2,0.3,0.5,0.6,0.7,0.9
				c0.3-1.8,0.4-4.2,0.2-6.8c-0.2-1.8-0.5-3.3-0.8-4.7"/>
			<polyline class="st0" points="73,65.2 73,73.5 79.2,76.4 79.2,77.8 70,77.8 70,74.2 			"/>
			<polyline class="st0" points="66.7,65.2 66.7,73.5 60.4,76.4 60.4,77.8 69.7,77.8 69.7,74.2 			"/>
			<path class="st0" d="M64.1,42.6c0.1,0.1,0.1,0.2,0.2,0.2c0.1,0,0.2,0.1,0.3,0.1c1.3,0,2.5,0.1,3.8,0c0-0.7,0-1.4,0-2.1
				c0-0.1,0-0.2-0.1-0.3c-0.1-0.1-0.2-0.2-0.4-0.2c-0.5-0.1-0.9-0.1-1.4-0.1s-0.9,0-1.4,0c-0.4,0-1.3,0-1.3,0.5
				C63.7,41.4,63.8,42.1,64.1,42.6z"/>
			<path class="st0" d="M63.5,55.3l-1.8,9.4c0,0,6.8,1.2,9.7-0.2c0,0,5.6,0.6,6.4-0.3c0.8-0.8-1.6-8.9-1.6-8.9"/>
			<line class="st0" x1="69.7" y1="72.4" x2="69.7" y2="66.5"/>
			<path class="st1" d="M68.4,34.4c-0.3,0.1-3.8,0.6-4.6-0.5c-0.1-0.2-0.3-0.5-0.1-2.3c0.2-1.8,0.3-2.8,0.6-3.5
				c0.3-0.6,1.1-2.3,2.9-2.6c1.6-0.3,2.8,0.8,3.1,1c0.6-0.1,1.4-0.2,2.4-0.5c1.5-0.4,1.6-0.8,2.5-0.9c1.7-0.3,4,0.7,4.5,2.4
				c0.2,0.7,0.2,1.7-0.3,2.5c-0.5,0.7-1.2,1.1-1.4,1.2c0.1,0.2,0.2,0.4,0.3,0.7c0.3,1.1,0,2.9-1.4,3.4c-1,0.4-2.3-0.1-3-1.1"/>
			<path class="st2" d="M68,28.8l0.4,5.4c0.1,0.2,0.3,0.7,0.8,1.2c0.6,0.5,1.3,0.5,1.5,0.5c0.3,0,1,0.1,1.8-0.4
				c1.2-0.7,1.4-2,1.5-2.2c0.1-1.5,0.3-3,0.4-4.5C74.4,28.8,70.8,30.4,68,28.8z"/>
			<path class="st0" d="M63.3,40.9c-1,0-2,0-3,0v14.5h10.8V40.9h-2.6"/>
			<polygon class="st1" points="64.9,45.6 66.5,45.6 66.5,47.7 68.8,47.7 68.8,49.2 66.5,49.2 66.5,51.7 64.9,51.7 64.9,49.3 
				62.7,49.3 62.7,47.7 64.9,47.7 			"/>
		</g>
		<g>
			<g>
				<path class="st0" d="M46.6,38.5c0.6-0.9,1.2-1.9,1.8-2.8c1.2,0,2.5-0.1,3.8-0.1c0.4,0,0.9,0,1.4,0.3c0.7,0.4,0.8,1.2,0.8,1.6
					c0.7,5.5,0.3,7.8,0.3,7.8c-0.4,2.2-0.6,5.3-0.2,9.3c-0.9,0.1-3.9,0.5-6,0.2c-0.7-0.1-1.3-0.2-1.7-0.7c-0.2-0.3-0.3-0.6-0.2-1
					c0.1-1,2.9-2.6,2.9-2.6c0.3,0.3,0.5,0.6,0.8,0.9c0.3-1.8,0.5-4.2,0.2-6.9c-0.2-1.8-0.5-3.4-0.9-4.7"/>
				<path class="st0" d="M34.8,40.2c0.2-0.7,0.5-1.8,1-3.2c0.2-0.7,0.3-1.1,0.8-1.4c0.6-0.4,1.6-0.4,3.3-0.4c0.8,0,1.4,0.1,1.9,0.1
					c0.5,1,1,2,1.6,3.1"/>
				<path class="st0" d="M37.7,54.8c0,6.4,0,12.8,0,19.2c-1.6,0.7-3.2,1.4-4.7,2.2c-0.1,0.4-0.1,0.8-0.2,1.2c3.8,0,7.7,0,11.5,0.1
					c0-1.2,0-2.4,0-3.6"/>
				<path class="st0" d="M38.6,41.9c0.1,0.1,0.1,0.2,0.2,0.2c0.1,0,0.2,0.1,0.3,0.1c1.3,0,2.6,0.1,3.8,0c0-0.7,0-1.4,0-2.1
					c0-0.1,0-0.2-0.1-0.3c-0.1-0.1-0.2-0.2-0.4-0.2c-0.5-0.1-0.9-0.1-1.4-0.1s-0.9,0-1.4,0c-0.4,0-1.3,0-1.3,0.5
					C38.2,40.7,38.3,41.4,38.6,41.9z"/>
				<path class="st0" d="M44.2,72c0-3.7-0.1-7.5-0.1-11.2"/>
				<path class="st0" d="M37.8,40.2c-1,0-2,0-3,0v14.6h10.9V40.2h-2.6"/>
				<path class="st3" d="M43.8,35.3h2.2c-0.2,0.4-0.4,1-0.6,1.8c-0.3,1.2-0.3,2.1-0.5,2.1c-0.1,0-0.2-0.8-0.5-2.1
					C44.2,36.4,44,35.7,43.8,35.3z"/>
				<path class="st0" d="M50.8,55.1c0,6.3,0.1,12.6,0.1,18.9c1.6,0.7,3.2,1.4,4.8,2.2c0.1,0.4,0.1,0.8,0.2,1.2
					c-3.9,0-7.7,0-11.6,0.1c0-1.2,0-2.4,0-3.6"/>
				<polygon class="st3" points="39.5,45 41.1,45 41.1,47.1 43.3,47.1 43.3,48.7 41.1,48.7 41.1,51.2 39.5,51.2 39.5,48.7 
					37.2,48.7 37.2,47.1 39.5,47.1 				"/>
			</g>
			<path class="st0" d="M45.9,34.3h-2c-0.4-0.3-0.9-0.7-1.4-1.2c-0.6-0.6-1-1.1-1.3-1.6v-3.4c0-1.5,1.2-2.8,2.8-2.8h2
				c1.5,0,2.8,1.2,2.8,2.8v3.4c-0.3,0.4-0.6,0.9-1.1,1.4C47,33.5,46.4,34,45.9,34.3z"/>
		</g>
	</g>
	<g>
		<g>
			<path class="st0" d="M134.7,40.6c0-1.5,0.4-2.6,0.7-3.2c0.4-0.9,0.8-1.2,0.9-1.3c0.6-0.4,1.2-0.4,1.9-0.4c0.6,0,1,0,1.3,0.1
				l2.9,2.9c1-0.9,2-1.8,3-2.6c0.6-0.1,1.5-0.3,2.6-0.1c0.4,0.1,0.7,0.2,0.8,0.2c1.8,0.7,1.7,6.4,1.7,7.8c0,2.8-0.2,6.4-0.5,10.6
				c-1.4,0.4-3.2,0.6-4.4,0.4c-1.2-0.1-1.7-0.7-1.6-1.7s2.5-2.6,2.5-2.6c0.2,0.3,0.5,0.6,0.7,0.9c0.3-1.8,0.4-4.2,0.2-6.8
				c-0.2-1.8-0.5-3.3-0.8-4.7"/>
			<polyline class="st0" points="144.8,64.9 144.8,73.1 150.9,76.1 150.9,77.4 141.9,77.4 141.9,73.8 			"/>
			<polyline class="st0" points="138.6,64.9 138.6,73.1 132.6,76.1 132.6,77.4 141.6,77.4 141.6,73.8 			"/>
			<path class="st0" d="M136.2,42.3c0,0.1,0.1,0.2,0.2,0.2c0.1,0,0.2,0.1,0.2,0.1c1.2,0,2.5,0.1,3.7,0c0-0.7,0-1.4,0-2.1
				c0-0.1,0-0.2-0.1-0.3c-0.1-0.1-0.2-0.2-0.4-0.2c-0.4-0.1-0.9-0.1-1.4-0.1s-0.9,0-1.4,0c-0.4,0-1.2,0-1.3,0.5
				C135.7,41.1,135.9,41.8,136.2,42.3z"/>
			<path class="st0" d="M135.5,55l-1.8,9.4c0,0,6.6,1.2,9.5-0.2c0,0,5.5,0.6,6.2-0.3c0.8-0.8-1.6-8.9-1.6-8.9"/>
			<line class="st0" x1="141.6" y1="72.1" x2="141.6" y2="66.2"/>
			<path class="st1" d="M140.3,34.1c-0.3,0.1-3.8,0.6-4.5-0.5c-0.1-0.2-0.3-0.5-0.1-2.3c0.2-1.8,0.3-2.8,0.6-3.5
				c0.3-0.6,1.1-2.3,2.9-2.6c1.6-0.3,2.8,0.8,3,1c0.5-0.1,1.4-0.2,2.3-0.5c1.5-0.4,1.6-0.8,2.4-0.9c1.6-0.3,3.9,0.7,4.4,2.4
				c0.2,0.7,0.2,1.7-0.3,2.5c-0.5,0.7-1.1,1.1-1.4,1.2c0.1,0.2,0.2,0.4,0.3,0.7c0.3,1.1,0,2.9-1.4,3.4c-1,0.4-2.2-0.1-3-1.1"/>
			<path class="st2" d="M140,28.5l0.4,5.4c0.1,0.2,0.3,0.7,0.8,1.2c0.6,0.5,1.3,0.5,1.5,0.5c0.3,0,1,0.1,1.7-0.4
				c1.2-0.7,1.4-2,1.4-2.2c0.1-1.5,0.3-3,0.4-4.5C146.2,28.5,142.7,30.1,140,28.5z"/>
			<path class="st0" d="M135.3,40.6c-1,0-1.9,0-2.9,0V55H143V40.6h-2.5"/>
			<polygon class="st1" points="137,45.3 138.5,45.3 138.5,47.4 140.7,47.4 140.7,48.9 138.5,48.9 138.5,51.4 137,51.4 137,49 
				134.8,49 134.8,47.4 137,47.4 			"/>
		</g>
		<g>
			<g>
				<path class="st0" d="M119,38.2c0.6-0.9,1.2-1.9,1.8-2.8c1.2,0,2.4-0.1,3.7-0.1c0.4,0,0.9,0,1.3,0.3c0.7,0.4,0.8,1.2,0.8,1.6
					c0.7,5.5,0.3,7.8,0.3,7.8c-0.4,2.2-0.6,5.3-0.2,9.3c-0.9,0.1-3.8,0.5-5.9,0.2c-0.6-0.1-1.3-0.2-1.6-0.7c-0.2-0.3-0.3-0.6-0.2-1
					c0.1-1,2.8-2.6,2.8-2.6c0.3,0.3,0.5,0.6,0.8,0.9c0.3-1.8,0.5-4.2,0.2-6.9c-0.2-1.8-0.5-3.4-0.9-4.7"/>
				<path class="st0" d="M107.5,39.9c0.2-0.7,0.5-1.8,0.9-3.2c0.2-0.7,0.3-1.1,0.8-1.4c0.6-0.4,1.6-0.4,3.2-0.4
					c0.8,0,1.4,0.1,1.9,0.1c0.5,1,1,2,1.5,3.1"/>
				<path class="st0" d="M110.3,54.5c0,6.4,0,12.8,0,19.2c-1.5,0.7-3.1,1.4-4.6,2.2c-0.1,0.4-0.1,0.8-0.2,1.2c3.8,0,7.5,0,11.2,0.1
					c0-1.2,0-2.4,0-3.6"/>
				<path class="st0" d="M111.2,41.6c0.1,0.1,0.1,0.2,0.2,0.2c0.1,0,0.2,0.1,0.2,0.1c1.2,0,2.5,0.1,3.8,0c0-0.7,0-1.4,0-2.1
					c0-0.1,0-0.2-0.1-0.3c-0.1-0.1-0.2-0.2-0.4-0.2c-0.4-0.1-0.9-0.1-1.4-0.1c-0.5,0-0.9,0-1.4,0c-0.4,0-1.2,0-1.3,0.5
					C110.8,40.4,111,41.1,111.2,41.6z"/>
				<path class="st0" d="M116.7,71.7c0-3.7-0.1-7.5-0.1-11.2"/>
				<path class="st0" d="M110.4,39.9c-1,0-1.9,0-2.9,0v14.6h10.7V39.9h-2.6"/>
				<path class="st3" d="M116.3,35h2.2c-0.2,0.4-0.4,1-0.6,1.8c-0.3,1.2-0.3,2.1-0.5,2.1s-0.2-0.8-0.5-2.1
					C116.7,36.1,116.5,35.4,116.3,35z"/>
				<path class="st0" d="M123.2,54.8c0,6.3,0.1,12.6,0.1,18.9c1.6,0.7,3.1,1.4,4.7,2.2c0.1,0.4,0.1,0.8,0.2,1.2
					c-3.8,0-7.6,0-11.3,0.1c0-1.2,0-2.4,0-3.6"/>
				<polygon class="st3" points="112.1,44.7 113.6,44.7 113.6,46.8 115.9,46.8 115.9,48.4 113.6,48.4 113.6,50.8 112.1,50.8 
					112.1,48.4 109.8,48.4 109.8,46.8 112.1,46.8 				"/>
			</g>
			<path class="st0" d="M118.4,33.9h-1.9c-0.4-0.3-0.9-0.7-1.4-1.2c-0.5-0.6-1-1.1-1.3-1.6v-3.4c0-1.5,1.2-2.8,2.7-2.8h1.9
				c1.5,0,2.7,1.2,2.7,2.8v3.4c-0.3,0.4-0.6,0.9-1.1,1.4C119.4,33.2,118.9,33.6,118.4,33.9z"/>
		</g>
	</g>
	<g>
		<g>
			<path class="st0" d="M206.9,40.8c0-1.5,0.4-2.6,0.7-3.2c0.4-0.9,0.8-1.2,1-1.3c0.6-0.4,1.2-0.4,2-0.4c0.6,0,1,0,1.4,0.1l2.9,2.9
				c1-0.9,2-1.8,3.1-2.6c0.6-0.1,1.5-0.3,2.6-0.1c0.4,0.1,0.7,0.2,0.8,0.2c1.8,0.7,1.8,6.4,1.7,7.8c0,2.8-0.2,6.4-0.5,10.6
				c-1.5,0.4-3.3,0.6-4.5,0.4s-1.8-0.7-1.7-1.7s2.5-2.6,2.5-2.6c0.2,0.3,0.5,0.6,0.7,0.9c0.3-1.8,0.4-4.2,0.2-6.8
				c-0.2-1.8-0.5-3.3-0.8-4.7"/>
			<polyline class="st0" points="217.3,65.1 217.3,73.4 223.5,76.3 223.5,77.7 214.3,77.7 214.3,74.1 			"/>
			<polyline class="st0" points="211,65.1 211,73.4 204.7,76.3 204.7,77.7 214,77.7 214,74.1 			"/>
			<path class="st0" d="M208.4,42.5c0,0.1,0.1,0.2,0.2,0.2c0.1,0,0.2,0.1,0.3,0.1c1.3,0,2.5,0.1,3.8,0c0-0.7,0-1.4,0-2.1
				c0-0.1,0-0.2-0.1-0.3c-0.1-0.1-0.2-0.2-0.4-0.2c-0.5-0.1-0.9-0.1-1.4-0.1s-0.9,0-1.4,0c-0.4,0-1.3,0-1.3,0.5
				C208,41.3,208.1,42,208.4,42.5z"/>
			<path class="st0" d="M207.8,55.2l-1.8,9.4c0,0,6.8,1.2,9.7-0.2c0,0,5.6,0.6,6.4-0.3c0.8-0.8-1.6-8.9-1.6-8.9"/>
			<line class="st0" x1="214" y1="72.3" x2="214" y2="66.4"/>
			<path class="st1" d="M212.7,34.3c-0.3,0.1-3.8,0.6-4.6-0.5c-0.1-0.2-0.3-0.5-0.1-2.3c0.2-1.8,0.3-2.8,0.6-3.5
				c0.3-0.6,1.1-2.3,2.9-2.6c1.6-0.3,2.8,0.8,3.1,1c0.5-0.1,1.4-0.2,2.4-0.5c1.5-0.4,1.6-0.8,2.5-0.9c1.7-0.3,4,0.7,4.5,2.4
				c0.2,0.7,0.2,1.7-0.3,2.5c-0.5,0.7-1.2,1.1-1.5,1.2c0.1,0.2,0.2,0.4,0.3,0.7c0.3,1.1,0,2.9-1.4,3.4c-1,0.4-2.3-0.1-3-1.1"/>
			<path class="st2" d="M212.3,28.7l0.4,5.4c0.1,0.2,0.3,0.7,0.8,1.2c0.6,0.5,1.3,0.5,1.5,0.5c0.3,0,1,0.1,1.8-0.4
				c1.2-0.7,1.4-2,1.5-2.2c0.1-1.5,0.3-3,0.4-4.5C218.7,28.7,215.1,30.3,212.3,28.7z"/>
			<path class="st0" d="M207.6,40.8c-1,0-2,0-3,0v14.4h10.8V40.8h-2.6"/>
			<polygon class="st1" points="209.2,45.5 210.8,45.5 210.8,47.6 213.1,47.6 213.1,49.1 210.8,49.1 210.8,51.6 209.2,51.6 
				209.2,49.2 207,49.2 207,47.6 209.2,47.6 			"/>
		</g>
		<g>
			<g>
				<path class="st0" d="M190.9,38.4c0.6-0.9,1.2-1.9,1.8-2.8c1.2,0,2.5-0.1,3.8-0.1c0.4,0,0.9,0,1.4,0.3c0.7,0.4,0.8,1.2,0.8,1.6
					c0.7,5.5,0.3,7.8,0.3,7.8c-0.4,2.2-0.6,5.3-0.2,9.3c-0.9,0.1-3.9,0.5-6,0.2c-0.7-0.1-1.3-0.2-1.7-0.7c-0.2-0.3-0.3-0.6-0.2-1
					c0.1-1,2.9-2.6,2.9-2.6c0.3,0.3,0.5,0.6,0.8,0.9c0.3-1.8,0.5-4.2,0.2-6.9c-0.2-1.8-0.5-3.4-0.9-4.7"/>
				<path class="st0" d="M179.1,40.1c0.2-0.7,0.5-1.8,1-3.2c0.2-0.7,0.3-1.1,0.8-1.4c0.6-0.4,1.6-0.4,3.3-0.4c0.8,0,1.5,0.1,1.9,0.1
					c0.5,1,1,2,1.5,3.1"/>
				<path class="st0" d="M182,54.7c0,6.4,0,12.8,0,19.2c-1.6,0.7-3.2,1.4-4.7,2.2c-0.1,0.4-0.1,0.8-0.2,1.2c3.8,0,7.7,0,11.5,0.1
					c0-1.2,0-2.4,0-3.6"/>
				<path class="st0" d="M182.9,41.8c0,0.1,0.1,0.2,0.2,0.2c0.1,0,0.2,0.1,0.3,0.1c1.3,0,2.6,0.1,3.8,0c0-0.7,0-1.4,0-2.1
					c0-0.1,0-0.2-0.1-0.3c-0.1-0.1-0.2-0.2-0.4-0.2c-0.5-0.1-0.9-0.1-1.4-0.1s-0.9,0-1.4,0c-0.5,0-1.3,0-1.3,0.5
					C182.5,40.6,182.6,41.3,182.9,41.8z"/>
				<path class="st0" d="M188.5,71.9c0-3.7-0.1-7.5-0.1-11.2"/>
				<path class="st0" d="M182.1,40.1c-1,0-2,0-3,0v14.6h11V40.1h-2.6"/>
				<path class="st3" d="M188.1,35.2h2.2c-0.2,0.4-0.4,1-0.6,1.8c-0.3,1.2-0.3,2.1-0.5,2.1s-0.2-0.8-0.5-2.1
					C188.5,36.3,188.3,35.6,188.1,35.2z"/>
				<path class="st0" d="M195.1,55c0,6.3,0.1,12.6,0.1,18.9c1.6,0.7,3.2,1.4,4.8,2.2c0.1,0.4,0.1,0.8,0.2,1.2c-3.9,0-7.7,0-11.6,0.1
					c0-1.2,0-2.4,0-3.6"/>
				<polygon class="st3" points="183.8,44.9 185.4,44.9 185.4,47 187.6,47 187.6,48.6 185.4,48.6 185.4,51.1 183.8,51.1 183.8,48.6 
					181.5,48.6 181.5,47 183.8,47 				"/>
			</g>
			<path class="st0" d="M190.2,34.2h-2c-0.4-0.3-0.9-0.7-1.4-1.2c-0.6-0.6-1-1.1-1.3-1.6V28c0-1.5,1.2-2.8,2.8-2.8h2
				c1.5,0,2.8,1.2,2.8,2.8v3.4c-0.3,0.4-0.6,0.9-1.1,1.4C191.3,33.4,190.7,33.9,190.2,34.2z"/>
		</g>
	</g>
	<g>
		<g>
			<path class="st0" d="M279,40.8c0-1.5,0.4-2.6,0.7-3.2c0.4-0.9,0.8-1.2,1-1.3c0.6-0.4,1.2-0.4,2-0.4c0.6,0,1,0,1.4,0.1l2.9,2.9
				c1-0.9,2-1.8,3.1-2.6c0.6-0.1,1.5-0.3,2.6-0.1c0.4,0.1,0.7,0.2,0.8,0.2c1.8,0.7,1.8,6.4,1.7,7.8c0,2.8-0.2,6.4-0.5,10.6
				c-1.5,0.4-3.3,0.6-4.5,0.4s-1.8-0.7-1.7-1.7S291,51,291,51c0.2,0.3,0.5,0.6,0.7,0.9c0.3-1.8,0.4-4.2,0.2-6.8
				c-0.2-1.8-0.5-3.3-0.8-4.7"/>
			<polyline class="st0" points="289.3,65.1 289.3,73.4 295.6,76.3 295.6,77.7 286.3,77.7 286.3,74.1 			"/>
			<polyline class="st0" points="283,65.1 283,73.4 276.8,76.3 276.8,77.7 286,77.7 286,74.1 			"/>
			<path class="st0" d="M280.5,42.5c0,0.1,0.1,0.2,0.2,0.2c0.1,0,0.2,0.1,0.3,0.1c1.3,0,2.5,0.1,3.8,0c0-0.7,0-1.4,0-2.1
				c0-0.1,0-0.2-0.1-0.3c-0.1-0.1-0.2-0.2-0.4-0.2c-0.5-0.1-0.9-0.1-1.4-0.1s-0.9,0-1.4,0c-0.4,0-1.3,0-1.3,0.5
				C280,41.3,280.2,42,280.5,42.5z"/>
			<path class="st0" d="M279.8,55.2l-1.8,9.4c0,0,6.8,1.2,9.7-0.2c0,0,5.6,0.6,6.4-0.3c0.8-0.8-1.6-8.9-1.6-8.9"/>
			<line class="st0" x1="286" y1="72.3" x2="286" y2="66.4"/>
			<path class="st1" d="M284.7,34.3c-0.3,0.1-3.8,0.6-4.6-0.5c-0.1-0.2-0.3-0.5-0.1-2.3c0.2-1.8,0.3-2.8,0.6-3.5
				c0.3-0.6,1.1-2.3,2.9-2.6c1.6-0.3,2.8,0.8,3.1,1c0.5-0.1,1.4-0.2,2.4-0.5c1.5-0.4,1.6-0.8,2.5-0.9c1.7-0.3,4,0.7,4.5,2.4
				c0.2,0.7,0.2,1.7-0.3,2.5c-0.5,0.7-1.2,1.1-1.5,1.2c0.1,0.2,0.2,0.4,0.3,0.7c0.3,1.1,0,2.9-1.4,3.4c-1,0.4-2.3-0.1-3-1.1"/>
			<path class="st2" d="M284.4,28.7l0.4,5.4c0.1,0.2,0.3,0.7,0.9,1.2c0.6,0.5,1.3,0.5,1.5,0.5c0.3,0,1,0.1,1.8-0.4
				c1.2-0.7,1.4-2,1.5-2.2c0.1-1.5,0.3-3,0.4-4.5C290.7,28.7,287.2,30.3,284.4,28.7z"/>
			<path class="st0" d="M279.6,40.8c-1,0-2,0-3,0v14.4h10.8V40.8h-2.6"/>
			<polygon class="st1" points="281.3,45.5 282.9,45.5 282.9,47.6 285.1,47.6 285.1,49.1 282.9,49.1 282.9,51.6 281.3,51.6 
				281.3,49.2 279,49.2 279,47.6 281.3,47.6 			"/>
		</g>
		<g>
			<g>
				<path class="st0" d="M262.9,38.4c0.6-0.9,1.2-1.9,1.8-2.8c1.2,0,2.5-0.1,3.8-0.1c0.4,0,0.9,0,1.4,0.3c0.7,0.4,0.8,1.2,0.8,1.6
					c0.7,5.5,0.3,7.8,0.3,7.8c-0.4,2.2-0.6,5.3-0.2,9.3c-0.9,0.1-3.9,0.5-6,0.2c-0.7-0.1-1.3-0.2-1.7-0.7c-0.2-0.3-0.3-0.6-0.2-1
					c0.1-1,2.9-2.6,2.9-2.6c0.3,0.3,0.5,0.6,0.8,0.9c0.3-1.8,0.5-4.2,0.2-6.9c-0.2-1.8-0.5-3.4-0.9-4.7"/>
				<path class="st0" d="M251.1,40.1c0.2-0.7,0.5-1.8,1-3.2c0.2-0.7,0.3-1.1,0.8-1.4c0.6-0.4,1.6-0.4,3.3-0.4c0.8,0,1.5,0.1,1.9,0.1
					c0.5,1,1,2,1.5,3.1"/>
				<path class="st0" d="M254,54.7c0,6.4,0,12.8,0,19.2c-1.6,0.7-3.2,1.4-4.7,2.2c-0.1,0.4-0.1,0.8-0.2,1.2c3.8,0,7.7,0,11.5,0.1
					c0-1.2,0-2.4,0-3.6"/>
				<path class="st0" d="M255,41.8c0,0.1,0.1,0.2,0.2,0.2c0.1,0,0.2,0.1,0.3,0.1c1.3,0,2.6,0.1,3.8,0c0-0.7,0-1.4,0-2.1
					c0-0.1,0-0.2-0.1-0.3c-0.1-0.1-0.2-0.2-0.4-0.2c-0.5-0.1-0.9-0.1-1.4-0.1s-0.9,0-1.4,0c-0.5,0-1.3,0-1.3,0.5
					C254.5,40.6,254.7,41.3,255,41.8z"/>
				<path class="st0" d="M260.6,71.9c0-3.7-0.1-7.5-0.1-11.2"/>
				<path class="st0" d="M254.1,40.1c-1,0-2,0-3,0v14.6h10.9V40.1h-2.6"/>
				<path class="st3" d="M260.2,35.2h2.2c-0.2,0.4-0.4,1-0.6,1.8c-0.3,1.2-0.3,2.1-0.5,2.1s-0.2-0.8-0.5-2.1
					C260.6,36.3,260.3,35.6,260.2,35.2z"/>
				<path class="st0" d="M267.2,55c0,6.3,0.1,12.6,0.1,18.9c1.6,0.7,3.2,1.4,4.8,2.2c0.1,0.4,0.1,0.8,0.2,1.2c-3.9,0-7.7,0-11.6,0.1
					c0-1.2,0-2.4,0-3.6"/>
				<polygon class="st3" points="255.8,44.9 257.4,44.9 257.4,47 259.7,47 259.7,48.6 257.4,48.6 257.4,51.1 255.8,51.1 255.8,48.6 
					253.5,48.6 253.5,47 255.8,47 				"/>
			</g>
			<path class="st0" d="M262.3,34.2h-2c-0.4-0.3-0.9-0.7-1.4-1.2c-0.6-0.6-1-1.1-1.3-1.6V28c0-1.5,1.2-2.8,2.8-2.8h2
				c1.5,0,2.8,1.2,2.8,2.8v3.4c-0.3,0.4-0.6,0.9-1.1,1.4C263.3,33.4,262.8,33.9,262.3,34.2z"/>
		</g>
	</g>
	<g>
		<g>
			<path class="st0" d="M351.1,40.6c0-1.5,0.4-2.6,0.7-3.2c0.4-0.9,0.8-1.2,1-1.3c0.6-0.4,1.2-0.4,2-0.4c0.6,0,1,0,1.4,0.1l2.9,2.9
				c1-0.9,2-1.8,3.1-2.6c0.6-0.1,1.5-0.3,2.6-0.1c0.4,0.1,0.7,0.2,0.8,0.2c1.8,0.7,1.8,6.4,1.7,7.8c0,2.8-0.2,6.4-0.5,10.6
				c-1.5,0.4-3.3,0.6-4.5,0.4s-1.8-0.7-1.7-1.7s2.5-2.6,2.5-2.6c0.2,0.3,0.5,0.6,0.7,0.9c0.3-1.8,0.4-4.2,0.2-6.8
				c-0.2-1.8-0.5-3.3-0.8-4.7"/>
			<polyline class="st0" points="361.4,64.9 361.4,73.1 367.6,76.1 367.6,77.4 358.4,77.4 358.4,73.8 			"/>
			<polyline class="st0" points="355.1,64.9 355.1,73.1 348.9,76.1 348.9,77.4 358.1,77.4 358.1,73.8 			"/>
			<path class="st0" d="M352.6,42.3c0,0.1,0.1,0.2,0.2,0.2c0.1,0,0.2,0.1,0.3,0.1c1.3,0,2.5,0.1,3.8,0c0-0.7,0-1.4,0-2.1
				c0-0.1,0-0.2-0.1-0.3c-0.1-0.1-0.2-0.2-0.4-0.2c-0.5-0.1-0.9-0.1-1.4-0.1s-0.9,0-1.4,0c-0.4,0-1.3,0-1.3,0.5
				C352.1,41.1,352.3,41.8,352.6,42.3z"/>
			<path class="st0" d="M351.9,55l-1.8,9.4c0,0,6.8,1.2,9.7-0.2c0,0,5.6,0.6,6.4-0.3c0.8-0.8-1.6-8.9-1.6-8.9"/>
			<line class="st0" x1="358.1" y1="72.1" x2="358.1" y2="66.2"/>
			<path class="st1" d="M356.8,34.1c-0.3,0.1-3.8,0.6-4.6-0.5c-0.1-0.2-0.3-0.5-0.1-2.3c0.2-1.8,0.3-2.8,0.6-3.5
				c0.3-0.6,1.1-2.3,2.9-2.6c1.6-0.3,2.8,0.8,3.1,1c0.5-0.1,1.4-0.2,2.4-0.5c1.5-0.4,1.6-0.8,2.5-0.9c1.7-0.3,4,0.7,4.5,2.4
				c0.2,0.7,0.2,1.7-0.3,2.5c-0.5,0.7-1.2,1.1-1.5,1.2c0.1,0.2,0.2,0.4,0.3,0.7c0.3,1.1,0,2.9-1.4,3.4c-1,0.4-2.3-0.1-3-1.1"/>
			<path class="st2" d="M356.4,28.5l0.4,5.4c0.1,0.2,0.3,0.7,0.9,1.2c0.6,0.5,1.3,0.5,1.5,0.5c0.3,0,1,0.1,1.8-0.4
				c1.2-0.7,1.4-2,1.5-2.2c0.1-1.5,0.3-3,0.4-4.5C362.8,28.5,359.3,30.1,356.4,28.5z"/>
			<path class="st0" d="M351.7,40.6c-1,0-2,0-3,0V55h10.8V40.6H357"/>
			<polygon class="st1" points="353.4,45.3 355,45.3 355,47.4 357.2,47.4 357.2,48.9 355,48.9 355,51.4 353.4,51.4 353.4,49 
				351.1,49 351.1,47.4 353.4,47.4 			"/>
		</g>
		<g>
			<g>
				<path class="st0" d="M335,38.2c0.6-0.9,1.2-1.9,1.8-2.8c1.2,0,2.5-0.1,3.8-0.1c0.4,0,0.9,0,1.4,0.3c0.7,0.4,0.8,1.2,0.8,1.6
					c0.7,5.5,0.3,7.8,0.3,7.8c-0.4,2.2-0.6,5.3-0.2,9.3c-0.9,0.1-3.9,0.5-6,0.2c-0.7-0.1-1.3-0.2-1.7-0.7c-0.2-0.3-0.3-0.6-0.2-1
					c0.1-1,2.9-2.6,2.9-2.6c0.3,0.3,0.5,0.6,0.8,0.9c0.3-1.8,0.5-4.2,0.2-6.9c-0.2-1.8-0.5-3.4-0.9-4.7"/>
				<path class="st0" d="M323.2,39.9c0.2-0.7,0.5-1.8,1-3.2c0.2-0.7,0.3-1.1,0.8-1.4c0.6-0.4,1.6-0.4,3.3-0.4c0.8,0,1.5,0.1,1.9,0.1
					c0.5,1,1,2,1.5,3.1"/>
				<path class="st0" d="M326.1,54.5c0,6.4,0,12.8,0,19.2c-1.6,0.7-3.2,1.4-4.7,2.2c-0.1,0.4-0.1,0.8-0.2,1.2c3.8,0,7.7,0,11.5,0.1
					c0-1.2,0-2.4,0-3.6"/>
				<path class="st0" d="M327,41.6c0,0.1,0.1,0.2,0.2,0.2c0.1,0,0.2,0.1,0.3,0.1c1.3,0,2.6,0.1,3.8,0c0-0.7,0-1.4,0-2.1
					c0-0.1,0-0.2-0.1-0.3c-0.1-0.1-0.2-0.2-0.4-0.2c-0.5-0.1-0.9-0.1-1.4-0.1s-0.9,0-1.4,0c-0.5,0-1.3,0-1.3,0.5
					C326.6,40.4,326.8,41.1,327,41.6z"/>
				<path class="st0" d="M332.6,71.7c0-3.7-0.1-7.5-0.1-11.2"/>
				<path class="st0" d="M326.2,39.9c-1,0-2,0-3,0v14.6h11V39.9h-2.6"/>
				<path class="st3" d="M332.2,35h2.2c-0.2,0.4-0.4,1-0.6,1.8c-0.3,1.2-0.3,2.1-0.5,2.1s-0.2-0.8-0.5-2.1
					C332.7,36.1,332.4,35.4,332.2,35z"/>
				<path class="st0" d="M339.3,54.8c0,6.3,0.1,12.6,0.1,18.9c1.6,0.7,3.2,1.4,4.8,2.2c0.1,0.4,0.1,0.8,0.2,1.2
					c-3.9,0-7.7,0-11.6,0.1c0-1.2,0-2.4,0-3.6"/>
				<polygon class="st3" points="327.9,44.7 329.5,44.7 329.5,46.8 331.8,46.8 331.8,48.4 329.5,48.4 329.5,50.8 327.9,50.8 
					327.9,48.4 325.6,48.4 325.6,46.8 327.9,46.8 				"/>
			</g>
			<path class="st0" d="M334.4,33.9h-2c-0.4-0.3-0.9-0.7-1.4-1.2c-0.6-0.6-1-1.1-1.3-1.6v-3.4c0-1.5,1.2-2.8,2.8-2.8h2
				c1.5,0,2.8,1.2,2.8,2.8v3.4c-0.3,0.4-0.6,0.9-1.1,1.4C335.4,33.2,334.8,33.6,334.4,33.9z"/>
		</g>
	</g>
	<g>
		<g>
			<path class="st0" d="M62.6,106.8c0-1.5,0.4-2.6,0.7-3.2c0.4-0.9,0.8-1.2,1-1.3c0.6-0.4,1.2-0.4,1.9-0.4c0.6,0,1.1,0,1.4,0.1
				l2.9,2.9c1-0.9,2.1-1.8,3.1-2.6c0.6-0.1,1.5-0.3,2.6-0.1c0.4,0.1,0.7,0.2,0.8,0.2c1.8,0.7,1.8,6.4,1.7,7.8
				c-0.1,2.8-0.2,6.4-0.6,10.6c-1.5,0.4-3.3,0.6-4.5,0.4c-1.2-0.1-1.8-0.7-1.7-1.7c0.1-1,2.6-2.6,2.6-2.6c0.2,0.3,0.5,0.6,0.7,0.9
				c0.3-1.8,0.4-4.2,0.2-6.8c-0.2-1.8-0.5-3.4-0.8-4.7"/>
			<polyline class="st0" points="73,131.1 73,139.3 79.2,142.3 79.2,143.6 70,143.6 70,140 			"/>
			<polyline class="st0" points="66.7,131.1 66.7,139.3 60.4,142.3 60.4,143.6 69.7,143.6 69.7,140 			"/>
			<path class="st0" d="M64.1,108.5c0.1,0.1,0.1,0.2,0.2,0.2c0.1,0,0.2,0.1,0.3,0.1c1.3,0,2.5,0.1,3.8,0c0-0.7,0-1.4,0-2.1
				c0-0.1,0-0.2-0.1-0.3c-0.1-0.1-0.2-0.2-0.4-0.2c-0.5-0.1-0.9-0.1-1.4-0.1s-0.9,0-1.4,0c-0.4,0-1.3,0-1.3,0.5
				C63.7,107.3,63.8,108,64.1,108.5z"/>
			<path class="st0" d="M63.5,121.2l-1.8,9.4c0,0,6.8,1.2,9.7-0.2c0,0,5.6,0.6,6.4-0.3s-1.6-8.9-1.6-8.9"/>
			<line class="st0" x1="69.7" y1="138.3" x2="69.7" y2="132.3"/>
			<path class="st1" d="M68.4,100.3c-0.3,0.1-3.8,0.6-4.6-0.5c-0.1-0.2-0.3-0.5-0.1-2.3c0.2-1.8,0.3-2.8,0.6-3.5
				c0.3-0.6,1.1-2.3,2.9-2.6c1.6-0.3,2.8,0.8,3.1,1c0.6-0.1,1.4-0.2,2.4-0.5c1.5-0.4,1.6-0.8,2.5-0.9c1.7-0.3,4,0.6,4.5,2.4
				c0.2,0.7,0.2,1.7-0.3,2.5c-0.5,0.7-1.2,1.1-1.4,1.1c0.1,0.2,0.2,0.4,0.3,0.7c0.3,1.1,0,2.9-1.4,3.4c-1,0.4-2.3-0.1-3-1.1"/>
			<path class="st2" d="M68,94.7l0.4,5.4c0.1,0.2,0.3,0.7,0.8,1.1c0.6,0.5,1.3,0.5,1.5,0.5c0.3,0,1,0.1,1.8-0.4
				c1.2-0.7,1.4-2,1.5-2.2c0.1-1.5,0.3-3,0.4-4.5C74.4,94.7,70.8,96.3,68,94.7z"/>
			<path class="st0" d="M63.3,106.8c-1,0-2,0-3,0v14.4h10.8v-14.4h-2.6"/>
			<polygon class="st1" points="64.9,111.5 66.5,111.5 66.5,113.6 68.8,113.6 68.8,115.1 66.5,115.1 66.5,117.6 64.9,117.6 
				64.9,115.2 62.7,115.2 62.7,113.6 64.9,113.6 			"/>
		</g>
		<g>
			<g>
				<path class="st0" d="M46.6,104.3c0.6-0.9,1.2-1.9,1.8-2.8c1.2,0,2.5-0.1,3.8-0.1c0.4,0,0.9,0,1.4,0.3c0.7,0.4,0.8,1.2,0.8,1.6
					c0.7,5.5,0.3,7.8,0.3,7.8c-0.4,2.2-0.6,5.3-0.2,9.3c-0.9,0.1-3.9,0.5-6,0.2c-0.7-0.1-1.3-0.2-1.7-0.7c-0.2-0.3-0.3-0.6-0.2-1
					c0.1-1,2.9-2.6,2.9-2.6c0.3,0.3,0.5,0.6,0.8,0.9c0.3-1.9,0.5-4.2,0.2-6.9c-0.2-1.8-0.5-3.4-0.9-4.7"/>
				<path class="st0" d="M34.8,106.1c0.2-0.7,0.5-1.8,1-3.2c0.2-0.7,0.3-1.1,0.8-1.4c0.6-0.4,1.6-0.4,3.3-0.4c0.8,0,1.4,0.1,1.9,0.1
					c0.5,1,1,2,1.6,3.1"/>
				<path class="st0" d="M37.7,120.7c0,6.4,0,12.8,0,19.2c-1.6,0.7-3.2,1.4-4.7,2.2c-0.1,0.4-0.1,0.8-0.2,1.2c3.8,0,7.7,0,11.5,0.1
					c0-1.2,0-2.4,0-3.6"/>
				<path class="st0" d="M38.6,107.8c0.1,0.1,0.1,0.2,0.2,0.2c0.1,0,0.2,0.1,0.3,0.1c1.3,0,2.6,0.1,3.8,0c0-0.7,0-1.4,0-2.1
					c0-0.1,0-0.2-0.1-0.3c-0.1-0.1-0.2-0.2-0.4-0.2c-0.5-0.1-0.9-0.1-1.4-0.1s-0.9,0-1.4,0c-0.4,0-1.3,0-1.3,0.5
					C38.2,106.6,38.3,107.3,38.6,107.8z"/>
				<path class="st0" d="M44.2,137.9c0-3.7-0.1-7.5-0.1-11.2"/>
				<path class="st0" d="M37.8,106.1c-1,0-2,0-3,0v14.6h10.9v-14.6h-2.6"/>
				<path class="st3" d="M43.8,101.2h2.2c-0.2,0.4-0.4,1-0.6,1.8c-0.3,1.2-0.3,2.1-0.5,2.1c-0.1,0-0.2-0.8-0.5-2.1
					C44.2,102.3,44,101.6,43.8,101.2z"/>
				<path class="st0" d="M50.8,121c0,6.3,0.1,12.6,0.1,18.9c1.6,0.7,3.2,1.4,4.8,2.2c0.1,0.4,0.1,0.8,0.2,1.2c-3.9,0-7.7,0-11.6,0.1
					c0-1.2,0-2.4,0-3.6"/>
				<polygon class="st3" points="39.5,110.9 41.1,110.9 41.1,113 43.3,113 43.3,114.6 41.1,114.6 41.1,117 39.5,117 39.5,114.6 
					37.2,114.6 37.2,113 39.5,113 				"/>
			</g>
			<path class="st0" d="M45.9,100.1h-2c-0.4-0.3-0.9-0.7-1.4-1.2c-0.6-0.6-1-1.1-1.3-1.6V94c0-1.5,1.2-2.8,2.8-2.8h2
				c1.5,0,2.8,1.2,2.8,2.8v3.4c-0.3,0.4-0.6,0.9-1.1,1.4C47,99.4,46.4,99.8,45.9,100.1z"/>
		</g>
	</g>
	<g>
		<g>
			<path class="st0" d="M134.5,106.4c0-1.5,0.4-2.6,0.7-3.2c0.4-0.9,0.8-1.2,0.9-1.3c0.6-0.4,1.2-0.4,1.9-0.4c0.6,0,1,0,1.3,0.1
				l2.9,2.9c1-0.9,2-1.8,3-2.6c0.6-0.1,1.5-0.3,2.6-0.1c0.4,0.1,0.7,0.2,0.8,0.2c1.8,0.7,1.7,6.4,1.7,7.8c0,2.8-0.2,6.4-0.5,10.6
				c-1.4,0.4-3.2,0.6-4.4,0.4c-1.2-0.1-1.7-0.7-1.6-1.7s2.5-2.6,2.5-2.6c0.2,0.3,0.5,0.6,0.7,0.9c0.3-1.8,0.4-4.2,0.2-6.8
				c-0.2-1.8-0.5-3.4-0.8-4.7"/>
			<polyline class="st0" points="144.6,130.8 144.6,139 150.7,141.9 150.7,143.3 141.7,143.3 141.7,139.7 			"/>
			<polyline class="st0" points="138.4,130.8 138.4,139 132.3,141.9 132.3,143.3 141.3,143.3 141.3,139.7 			"/>
			<path class="st0" d="M135.9,108.2c0,0.1,0.1,0.2,0.2,0.2c0.1,0,0.2,0.1,0.2,0.1c1.2,0,2.5,0.1,3.7,0c0-0.7,0-1.4,0-2.1
				c0-0.1,0-0.2-0.1-0.3c-0.1-0.1-0.2-0.2-0.4-0.2c-0.4-0.1-0.9-0.1-1.4-0.1s-0.9,0-1.4,0c-0.4,0-1.2,0-1.3,0.5
				C135.5,107,135.7,107.7,135.9,108.2z"/>
			<path class="st0" d="M135.3,120.9l-1.8,9.4c0,0,6.6,1.2,9.5-0.2c0,0,5.5,0.6,6.2-0.3c0.8-0.8-1.6-8.9-1.6-8.9"/>
			<line class="st0" x1="141.3" y1="137.9" x2="141.3" y2="132"/>
			<path class="st1" d="M140.1,100c-0.3,0.1-3.8,0.6-4.5-0.5c-0.1-0.2-0.3-0.5-0.1-2.3c0.2-1.8,0.3-2.8,0.6-3.5
				c0.3-0.6,1.1-2.3,2.9-2.6c1.6-0.3,2.8,0.8,3,1c0.5-0.1,1.4-0.2,2.3-0.5c1.4-0.4,1.6-0.8,2.4-0.9c1.6-0.3,3.9,0.6,4.4,2.4
				c0.2,0.7,0.2,1.7-0.3,2.5c-0.5,0.7-1.1,1.1-1.4,1.1c0.1,0.2,0.2,0.4,0.3,0.7c0.3,1.1,0,2.9-1.4,3.4c-1,0.4-2.2-0.1-3-1.1"/>
			<path class="st2" d="M139.7,94.4l0.4,5.4c0.1,0.2,0.3,0.7,0.8,1.1c0.6,0.5,1.3,0.5,1.5,0.5c0.3,0,1,0.1,1.7-0.4
				c1.2-0.7,1.4-2,1.4-2.2c0.1-1.5,0.3-3,0.4-4.5C146,94.4,142.5,96,139.7,94.4z"/>
			<path class="st0" d="M135.1,106.4c-1,0-1.9,0-2.9,0v14.4h10.6v-14.4h-2.5"/>
			<polygon class="st1" points="136.8,111.1 138.3,111.1 138.3,113.3 140.5,113.3 140.5,114.8 138.3,114.8 138.3,117.2 136.8,117.2 
				136.8,114.9 134.5,114.9 134.5,113.3 136.8,113.3 			"/>
		</g>
		<g>
			<g>
				<path class="st0" d="M118.8,104c0.6-0.9,1.2-1.9,1.8-2.8c1.2,0,2.4-0.1,3.7-0.1c0.4,0,0.9,0,1.3,0.3c0.7,0.4,0.8,1.2,0.8,1.6
					c0.7,5.5,0.3,7.8,0.3,7.8c-0.4,2.2-0.6,5.3-0.2,9.3c-0.9,0.1-3.8,0.5-5.9,0.2c-0.6-0.1-1.3-0.2-1.6-0.7c-0.2-0.3-0.3-0.6-0.2-1
					c0.1-1,2.8-2.6,2.8-2.6c0.3,0.3,0.5,0.6,0.8,0.9c0.3-1.9,0.5-4.2,0.2-6.9c-0.2-1.8-0.5-3.4-0.9-4.7"/>
				<path class="st0" d="M107.3,105.7c0.2-0.7,0.5-1.8,0.9-3.2c0.2-0.7,0.3-1.1,0.8-1.4c0.6-0.4,1.6-0.4,3.2-0.4
					c0.8,0,1.4,0.1,1.9,0.1c0.5,1,1,2,1.5,3.1"/>
				<path class="st0" d="M110.1,120.3c0,6.4,0,12.8,0,19.2c-1.5,0.7-3.1,1.4-4.6,2.2c-0.1,0.4-0.1,0.8-0.2,1.2c3.8,0,7.5,0,11.2,0.1
					c0-1.2,0-2.4,0-3.6"/>
				<path class="st0" d="M111,107.5c0.1,0.1,0.1,0.2,0.2,0.2c0.1,0,0.2,0.1,0.2,0.1c1.2,0,2.5,0.1,3.8,0c0-0.7,0-1.4,0-2.1
					c0-0.1,0-0.2-0.1-0.3c-0.1-0.1-0.2-0.2-0.4-0.2c-0.4-0.1-0.9-0.1-1.4-0.1c-0.5,0-0.9,0-1.4,0c-0.4,0-1.2,0-1.3,0.5
					C110.6,106.3,110.8,107,111,107.5z"/>
				<path class="st0" d="M116.5,137.6c0-3.7-0.1-7.5-0.1-11.2"/>
				<path class="st0" d="M110.2,105.7c-1,0-1.9,0-2.9,0v14.6H118v-14.6h-2.6"/>
				<path class="st3" d="M116.1,100.9h2.2c-0.2,0.4-0.4,1-0.6,1.8c-0.3,1.2-0.3,2.1-0.5,2.1s-0.2-0.8-0.5-2.1
					C116.5,101.9,116.3,101.3,116.1,100.9z"/>
				<path class="st0" d="M123,120.7c0,6.3,0.1,12.6,0.1,18.9c1.6,0.7,3.1,1.4,4.7,2.2c0.1,0.4,0.1,0.8,0.2,1.2
					c-3.8,0-7.6,0-11.3,0.1c0-1.2,0-2.4,0-3.6"/>
				<polygon class="st3" points="111.8,110.5 113.4,110.5 113.4,112.7 115.6,112.7 115.6,114.3 113.4,114.3 113.4,116.7 
					111.8,116.7 111.8,114.3 109.6,114.3 109.6,112.7 111.8,112.7 				"/>
			</g>
			<path class="st0" d="M118.2,99.8h-1.9c-0.4-0.3-0.9-0.7-1.4-1.2c-0.5-0.6-1-1.1-1.3-1.6v-3.4c0-1.5,1.2-2.8,2.7-2.8h1.9
				c1.5,0,2.7,1.2,2.7,2.8v3.4c-0.3,0.4-0.6,0.9-1.1,1.4C119.2,99.1,118.6,99.5,118.2,99.8z"/>
		</g>
	</g>
	<g>
		<g>
			<path class="st0" d="M206.9,106.7c0-1.5,0.4-2.6,0.7-3.2c0.4-0.9,0.8-1.2,1-1.3c0.6-0.4,1.2-0.4,2-0.4c0.6,0,1,0,1.4,0.1l2.9,2.9
				c1-0.9,2-1.8,3.1-2.6c0.6-0.1,1.5-0.3,2.6-0.1c0.4,0.1,0.7,0.2,0.8,0.2c1.8,0.7,1.8,6.4,1.7,7.8c0,2.8-0.2,6.4-0.5,10.6
				c-1.5,0.4-3.3,0.6-4.5,0.4s-1.8-0.7-1.7-1.7s2.5-2.6,2.5-2.6c0.2,0.3,0.5,0.6,0.7,0.9c0.3-1.8,0.4-4.2,0.2-6.8
				c-0.2-1.8-0.5-3.4-0.8-4.7"/>
			<polyline class="st0" points="217.3,131 217.3,139.2 223.5,142.2 223.5,143.5 214.3,143.5 214.3,139.9 			"/>
			<polyline class="st0" points="211,131 211,139.2 204.7,142.2 204.7,143.5 214,143.5 214,139.9 			"/>
			<path class="st0" d="M208.4,108.4c0,0.1,0.1,0.2,0.2,0.2c0.1,0,0.2,0.1,0.3,0.1c1.3,0,2.5,0.1,3.8,0c0-0.7,0-1.4,0-2.1
				c0-0.1,0-0.2-0.1-0.3c-0.1-0.1-0.2-0.2-0.4-0.2c-0.5-0.1-0.9-0.1-1.4-0.1s-0.9,0-1.4,0c-0.4,0-1.3,0-1.3,0.5
				C208,107.2,208.1,107.9,208.4,108.4z"/>
			<path class="st0" d="M207.8,121.1l-1.8,9.4c0,0,6.8,1.2,9.7-0.2c0,0,5.6,0.6,6.4-0.3c0.8-0.8-1.6-8.9-1.6-8.9"/>
			<line class="st0" x1="214" y1="138.2" x2="214" y2="132.2"/>
			<path class="st1" d="M212.7,100.2c-0.3,0.1-3.8,0.6-4.6-0.5c-0.1-0.2-0.3-0.5-0.1-2.3c0.2-1.8,0.3-2.8,0.6-3.5
				c0.3-0.6,1.1-2.3,2.9-2.6c1.6-0.3,2.8,0.8,3.1,1c0.5-0.1,1.4-0.2,2.4-0.5c1.5-0.4,1.6-0.8,2.5-0.9c1.7-0.3,4,0.6,4.5,2.4
				c0.2,0.7,0.2,1.7-0.3,2.5c-0.5,0.7-1.2,1.1-1.5,1.1c0.1,0.2,0.2,0.4,0.3,0.7c0.3,1.1,0,2.9-1.4,3.4c-1,0.4-2.3-0.1-3-1.1"/>
			<path class="st2" d="M212.3,94.6l0.4,5.4c0.1,0.2,0.3,0.7,0.8,1.1c0.6,0.5,1.3,0.5,1.5,0.5c0.3,0,1,0.1,1.8-0.4
				c1.2-0.7,1.4-2,1.5-2.2c0.1-1.5,0.3-3,0.4-4.5C218.7,94.6,215.1,96.2,212.3,94.6z"/>
			<path class="st0" d="M207.6,106.7c-1,0-2,0-3,0v14.4h10.8v-14.4h-2.6"/>
			<polygon class="st1" points="209.2,111.4 210.8,111.4 210.8,113.5 213.1,113.5 213.1,115 210.8,115 210.8,117.5 209.2,117.5 
				209.2,115.1 207,115.1 207,113.5 209.2,113.5 			"/>
		</g>
		<g>
			<g>
				<path class="st0" d="M190.9,104.2c0.6-0.9,1.2-1.9,1.8-2.8c1.2,0,2.5-0.1,3.8-0.1c0.4,0,0.9,0,1.4,0.3c0.7,0.4,0.8,1.2,0.8,1.6
					c0.7,5.5,0.3,7.8,0.3,7.8c-0.4,2.2-0.6,5.3-0.2,9.3c-0.9,0.1-3.9,0.5-6,0.2c-0.7-0.1-1.3-0.2-1.7-0.7c-0.2-0.3-0.3-0.6-0.2-1
					c0.1-1,2.9-2.6,2.9-2.6c0.3,0.3,0.5,0.6,0.8,0.9c0.3-1.9,0.5-4.2,0.2-6.9c-0.2-1.8-0.5-3.4-0.9-4.7"/>
				<path class="st0" d="M179.1,106c0.2-0.7,0.5-1.8,1-3.2c0.2-0.7,0.3-1.1,0.8-1.4c0.6-0.4,1.6-0.4,3.3-0.4c0.8,0,1.5,0.1,1.9,0.1
					c0.5,1,1,2,1.5,3.1"/>
				<path class="st0" d="M182,120.6c0,6.4,0,12.8,0,19.2c-1.6,0.7-3.2,1.4-4.7,2.2c-0.1,0.4-0.1,0.8-0.2,1.2c3.8,0,7.7,0,11.5,0.1
					c0-1.2,0-2.4,0-3.6"/>
				<path class="st0" d="M182.9,107.7c0,0.1,0.1,0.2,0.2,0.2c0.1,0,0.2,0.1,0.3,0.1c1.3,0,2.6,0.1,3.8,0c0-0.7,0-1.4,0-2.1
					c0-0.1,0-0.2-0.1-0.3c-0.1-0.1-0.2-0.2-0.4-0.2c-0.5-0.1-0.9-0.1-1.4-0.1s-0.9,0-1.4,0c-0.5,0-1.3,0-1.3,0.5
					C182.5,106.5,182.6,107.2,182.9,107.7z"/>
				<path class="st0" d="M188.5,137.8c0-3.7-0.1-7.5-0.1-11.2"/>
				<path class="st0" d="M182.1,106c-1,0-2,0-3,0v14.6h11V106h-2.6"/>
				<path class="st3" d="M188.1,101.1h2.2c-0.2,0.4-0.4,1-0.6,1.8c-0.3,1.2-0.3,2.1-0.5,2.1s-0.2-0.8-0.5-2.1
					C188.5,102.2,188.3,101.5,188.1,101.1z"/>
				<path class="st0" d="M195.1,120.9c0,6.3,0.1,12.6,0.1,18.9c1.6,0.7,3.2,1.4,4.8,2.2c0.1,0.4,0.1,0.8,0.2,1.2
					c-3.9,0-7.7,0-11.6,0.1c0-1.2,0-2.4,0-3.6"/>
				<polygon class="st3" points="183.8,110.8 185.4,110.8 185.4,112.9 187.6,112.9 187.6,114.5 185.4,114.5 185.4,116.9 
					183.8,116.9 183.8,114.5 181.5,114.5 181.5,112.9 183.8,112.9 				"/>
			</g>
			<path class="st0" d="M190.2,100h-2c-0.4-0.3-0.9-0.7-1.4-1.2c-0.6-0.6-1-1.1-1.3-1.6v-3.4c0-1.5,1.2-2.8,2.8-2.8h2
				c1.5,0,2.8,1.2,2.8,2.8v3.4c-0.3,0.4-0.6,0.9-1.1,1.4C191.3,99.3,190.7,99.7,190.2,100z"/>
		</g>
	</g>
	<g>
		<g>
			<path class="st0" d="M278.9,107c0-1.5,0.4-2.6,0.7-3.2c0.4-0.9,0.8-1.2,1-1.3c0.6-0.4,1.2-0.4,2-0.4c0.6,0,1,0,1.4,0.1l2.9,2.9
				c1-0.9,2-1.8,3.1-2.6c0.6-0.1,1.5-0.3,2.6-0.1c0.4,0.1,0.7,0.2,0.8,0.2c1.8,0.7,1.8,6.4,1.7,7.8c0,2.8-0.2,6.4-0.5,10.6
				c-1.5,0.4-3.3,0.6-4.5,0.4c-1.2-0.1-1.8-0.7-1.7-1.7s2.5-2.6,2.5-2.6c0.2,0.3,0.5,0.6,0.7,0.9c0.3-1.8,0.4-4.2,0.2-6.8
				c-0.2-1.8-0.5-3.4-0.8-4.7"/>
			<polyline class="st0" points="289.3,131.3 289.3,139.6 295.5,142.5 295.5,143.9 286.3,143.9 286.3,140.3 			"/>
			<polyline class="st0" points="283,131.3 283,139.6 276.7,142.5 276.7,143.9 286,143.9 286,140.3 			"/>
			<path class="st0" d="M280.4,108.8c0,0.1,0.1,0.2,0.2,0.2c0.1,0,0.2,0.1,0.3,0.1c1.3,0,2.5,0.1,3.8,0c0-0.7,0-1.4,0-2.1
				c0-0.1,0-0.2-0.1-0.3c-0.1-0.1-0.2-0.2-0.4-0.2c-0.5-0.1-0.9-0.1-1.4-0.1s-0.9,0-1.4,0c-0.4,0-1.3,0-1.3,0.5
				C280,107.6,280.1,108.3,280.4,108.8z"/>
			<path class="st0" d="M279.8,121.5l-1.8,9.4c0,0,6.8,1.2,9.7-0.2c0,0,5.6,0.6,6.4-0.3c0.8-0.8-1.6-8.9-1.6-8.9"/>
			<line class="st0" x1="286" y1="138.5" x2="286" y2="132.6"/>
			<path class="st1" d="M284.7,100.6c-0.3,0.1-3.8,0.6-4.6-0.5c-0.1-0.2-0.3-0.5-0.1-2.3c0.2-1.8,0.3-2.8,0.6-3.5
				c0.3-0.6,1.1-2.3,2.9-2.6c1.6-0.3,2.8,0.8,3.1,1c0.5-0.1,1.4-0.2,2.4-0.5c1.5-0.4,1.6-0.8,2.5-0.9c1.7-0.3,4,0.6,4.5,2.4
				c0.2,0.7,0.2,1.7-0.3,2.5c-0.5,0.7-1.2,1.1-1.5,1.1c0.1,0.2,0.2,0.4,0.3,0.7c0.3,1.1,0,2.9-1.4,3.4c-1,0.4-2.3-0.1-3-1.1"/>
			<path class="st2" d="M284.3,95l0.4,5.4c0.1,0.2,0.3,0.7,0.9,1.1c0.6,0.5,1.3,0.5,1.5,0.5c0.3,0,1,0.1,1.8-0.4
				c1.2-0.7,1.4-2,1.5-2.2c0.1-1.5,0.3-3,0.4-4.5C290.7,95,287.1,96.6,284.3,95z"/>
			<path class="st0" d="M279.6,107c-1,0-2,0-3,0v14.4h10.8V107h-2.6"/>
			<polygon class="st1" points="281.3,111.7 282.8,111.7 282.8,113.9 285.1,113.9 285.1,115.4 282.8,115.4 282.8,117.8 281.3,117.8 
				281.3,115.4 279,115.4 279,113.9 281.3,113.9 			"/>
		</g>
		<g>
			<g>
				<path class="st0" d="M262.9,104.6c0.6-0.9,1.2-1.9,1.8-2.8c1.2,0,2.5-0.1,3.8-0.1c0.4,0,0.9,0,1.4,0.3c0.7,0.4,0.8,1.2,0.8,1.6
					c0.7,5.5,0.3,7.8,0.3,7.8c-0.4,2.2-0.6,5.3-0.2,9.3c-0.9,0.1-3.9,0.5-6,0.2c-0.7-0.1-1.3-0.2-1.7-0.7c-0.2-0.3-0.3-0.6-0.2-1
					c0.1-1,2.9-2.6,2.9-2.6c0.3,0.3,0.5,0.6,0.8,0.9c0.3-1.9,0.5-4.2,0.2-6.9c-0.2-1.8-0.5-3.4-0.9-4.7"/>
				<path class="st0" d="M251.1,106.3c0.2-0.7,0.5-1.8,1-3.2c0.2-0.7,0.3-1.1,0.8-1.4c0.6-0.4,1.6-0.4,3.3-0.4
					c0.8,0,1.5,0.1,1.9,0.1c0.5,1,1,2,1.5,3.1"/>
				<path class="st0" d="M254,120.9c0,6.4,0,12.8,0,19.2c-1.6,0.7-3.2,1.4-4.7,2.2c-0.1,0.4-0.1,0.8-0.2,1.2c3.8,0,7.7,0,11.5,0.1
					c0-1.2,0-2.4,0-3.6"/>
				<path class="st0" d="M254.9,108.1c0,0.1,0.1,0.2,0.2,0.2c0.1,0,0.2,0.1,0.3,0.1c1.3,0,2.6,0.1,3.8,0c0-0.7,0-1.4,0-2.1
					c0-0.1,0-0.2-0.1-0.3c-0.1-0.1-0.2-0.2-0.4-0.2c-0.5-0.1-0.9-0.1-1.4-0.1s-0.9,0-1.4,0c-0.5,0-1.3,0-1.3,0.5
					C254.5,106.9,254.6,107.6,254.9,108.1z"/>
				<path class="st0" d="M260.5,138.2c0-3.7-0.1-7.5-0.1-11.2"/>
				<path class="st0" d="M254.1,106.3c-1,0-2,0-3,0v14.6H262v-14.6h-2.6"/>
				<path class="st3" d="M260.1,101.5h2.2c-0.2,0.4-0.4,1-0.6,1.8c-0.3,1.2-0.3,2.1-0.5,2.1s-0.2-0.8-0.5-2.1
					C260.5,102.5,260.3,101.9,260.1,101.5z"/>
				<path class="st0" d="M267.1,121.3c0,6.3,0.1,12.6,0.1,18.9c1.6,0.7,3.2,1.4,4.8,2.2c0.1,0.4,0.1,0.8,0.2,1.2
					c-3.9,0-7.7,0-11.6,0.1c0-1.2,0-2.4,0-3.6"/>
				<polygon class="st3" points="255.8,111.1 257.4,111.1 257.4,113.3 259.6,113.3 259.6,114.8 257.4,114.8 257.4,117.3 
					255.8,117.3 255.8,114.9 253.5,114.9 253.5,113.3 255.8,113.3 				"/>
			</g>
			<path class="st0" d="M262.2,100.4h-2c-0.4-0.3-0.9-0.7-1.4-1.2c-0.6-0.6-1-1.1-1.3-1.6v-3.4c0-1.5,1.2-2.8,2.8-2.8h2
				c1.5,0,2.8,1.2,2.8,2.8v3.4c-0.3,0.4-0.6,0.9-1.1,1.4C263.3,99.7,262.7,100.1,262.2,100.4z"/>
		</g>
	</g>
	<g>
		<g>
			<path class="st0" d="M350.7,107c0-1.5,0.4-2.6,0.7-3.2c0.4-0.9,0.8-1.2,1-1.3c0.6-0.4,1.2-0.4,2-0.4c0.6,0,1,0,1.4,0.1l2.9,2.9
				c1-0.9,2-1.8,3.1-2.6c0.6-0.1,1.5-0.3,2.6-0.1c0.4,0.1,0.7,0.2,0.8,0.2c1.8,0.7,1.8,6.4,1.7,7.8c0,2.8-0.2,6.4-0.5,10.6
				c-1.5,0.4-3.3,0.6-4.5,0.4c-1.2-0.1-1.8-0.7-1.7-1.7s2.5-2.6,2.5-2.6c0.2,0.3,0.5,0.6,0.7,0.9c0.3-1.8,0.4-4.2,0.2-6.8
				c-0.2-1.8-0.5-3.4-0.8-4.7"/>
			<polyline class="st0" points="361.1,131.3 361.1,139.5 367.3,142.5 367.3,143.8 358.1,143.8 358.1,140.2 			"/>
			<polyline class="st0" points="354.7,131.3 354.7,139.5 348.5,142.5 348.5,143.8 357.7,143.8 357.7,140.2 			"/>
			<path class="st0" d="M352.2,108.7c0,0.1,0.1,0.2,0.2,0.2c0.1,0,0.2,0.1,0.3,0.1c1.3,0,2.5,0.1,3.8,0c0-0.7,0-1.4,0-2.1
				c0-0.1,0-0.2-0.1-0.3c-0.1-0.1-0.2-0.2-0.4-0.2c-0.5-0.1-0.9-0.1-1.4-0.1s-0.9,0-1.4,0c-0.4,0-1.3,0-1.3,0.5
				C351.8,107.5,351.9,108.2,352.2,108.7z"/>
			<path class="st0" d="M351.6,121.4l-1.8,9.4c0,0,6.8,1.2,9.7-0.2c0,0,5.6,0.6,6.4-0.3c0.8-0.8-1.6-8.9-1.6-8.9"/>
			<line class="st0" x1="357.7" y1="138.5" x2="357.7" y2="132.6"/>
			<path class="st1" d="M356.5,100.5c-0.3,0.1-3.8,0.6-4.6-0.5c-0.1-0.2-0.3-0.5-0.1-2.3c0.2-1.8,0.3-2.8,0.6-3.5
				c0.3-0.6,1.1-2.3,2.9-2.6c1.6-0.3,2.8,0.8,3.1,1c0.5-0.1,1.4-0.2,2.4-0.5c1.5-0.4,1.6-0.8,2.5-0.9c1.7-0.3,4,0.6,4.5,2.4
				c0.2,0.7,0.2,1.7-0.3,2.5c-0.5,0.7-1.2,1.1-1.5,1.1c0.1,0.2,0.2,0.4,0.3,0.7c0.3,1.1,0,2.9-1.4,3.4c-1,0.4-2.3-0.1-3-1.1"/>
			<path class="st2" d="M356.1,94.9l0.4,5.4c0.1,0.2,0.3,0.7,0.9,1.1c0.6,0.5,1.3,0.5,1.5,0.5c0.3,0,1,0.1,1.8-0.4
				c1.2-0.7,1.4-2,1.5-2.2c0.1-1.5,0.3-3,0.4-4.5C362.5,94.9,358.9,96.5,356.1,94.9z"/>
			<path class="st0" d="M351.4,107c-1,0-2,0-3,0v14.4h10.8V107h-2.6"/>
			<polygon class="st1" points="353,111.7 354.6,111.7 354.6,113.8 356.9,113.8 356.9,115.3 354.6,115.3 354.6,117.8 353,117.8 
				353,115.4 350.8,115.4 350.8,113.8 353,113.8 			"/>
		</g>
		<g>
			<g>
				<path class="st0" d="M334.7,104.6c0.6-0.9,1.2-1.9,1.8-2.8c1.2,0,2.5-0.1,3.8-0.1c0.4,0,0.9,0,1.4,0.3c0.7,0.4,0.8,1.2,0.8,1.6
					c0.7,5.5,0.3,7.8,0.3,7.8c-0.4,2.2-0.6,5.3-0.2,9.3c-0.9,0.1-3.9,0.5-6,0.2c-0.7-0.1-1.3-0.2-1.7-0.7c-0.2-0.3-0.3-0.6-0.2-1
					c0.1-1,2.9-2.6,2.9-2.6c0.3,0.3,0.5,0.6,0.8,0.9c0.3-1.9,0.5-4.2,0.2-6.9c-0.2-1.8-0.5-3.4-0.9-4.7"/>
				<path class="st0" d="M322.9,106.3c0.2-0.7,0.5-1.8,1-3.2c0.2-0.7,0.3-1.1,0.8-1.4c0.6-0.4,1.6-0.4,3.3-0.4
					c0.8,0,1.5,0.1,1.9,0.1c0.5,1,1,2,1.5,3.1"/>
				<path class="st0" d="M325.7,120.9c0,6.4,0,12.8,0,19.2c-1.6,0.7-3.2,1.4-4.7,2.2c-0.1,0.4-0.1,0.8-0.2,1.2c3.8,0,7.7,0,11.5,0.1
					c0-1.2,0-2.4,0-3.6"/>
				<path class="st0" d="M326.7,108c0,0.1,0.1,0.2,0.2,0.2c0.1,0,0.2,0.1,0.3,0.1c1.3,0,2.6,0.1,3.8,0c0-0.7,0-1.4,0-2.1
					c0-0.1,0-0.2-0.1-0.3c-0.1-0.1-0.2-0.2-0.4-0.2c-0.5-0.1-0.9-0.1-1.4-0.1s-0.9,0-1.4,0c-0.5,0-1.3,0-1.3,0.5
					C326.3,106.8,326.4,107.5,326.7,108z"/>
				<path class="st0" d="M332.3,138.1c0-3.7-0.1-7.5-0.1-11.2"/>
				<path class="st0" d="M325.9,106.3c-1,0-2,0-3,0v14.6h11v-14.6h-2.6"/>
				<path class="st3" d="M331.9,101.4h2.2c-0.2,0.4-0.4,1-0.6,1.8c-0.3,1.2-0.3,2.1-0.5,2.1s-0.2-0.8-0.5-2.1
					C332.3,102.5,332.1,101.8,331.9,101.4z"/>
				<path class="st0" d="M338.9,121.2c0,6.3,0.1,12.6,0.1,18.9c1.6,0.7,3.2,1.4,4.8,2.2c0.1,0.4,0.1,0.8,0.2,1.2
					c-3.9,0-7.7,0-11.6,0.1c0-1.2,0-2.4,0-3.6"/>
				<polygon class="st3" points="327.5,111.1 329.1,111.1 329.1,113.2 331.4,113.2 331.4,114.8 329.1,114.8 329.1,117.2 
					327.5,117.2 327.5,114.8 325.3,114.8 325.3,113.2 327.5,113.2 				"/>
			</g>
			<path class="st0" d="M334,100.3h-2c-0.4-0.3-0.9-0.7-1.4-1.2c-0.6-0.6-1-1.1-1.3-1.6v-3.4c0-1.5,1.2-2.8,2.8-2.8h2
				c1.5,0,2.8,1.2,2.8,2.8v3.4c-0.3,0.4-0.6,0.9-1.1,1.4C335.1,99.6,334.5,100,334,100.3z"/>
		</g>
	</g>
	<g>
		<g>
			<path class="st0" d="M63.1,172.1c0-1.5,0.4-2.6,0.7-3.2c0.4-0.9,0.8-1.2,1-1.3c0.6-0.4,1.2-0.4,1.9-0.4c0.6,0,1.1,0,1.4,0.1
				l2.9,2.9c1-0.9,2.1-1.8,3.1-2.6c0.6-0.1,1.5-0.3,2.6-0.1c0.4,0.1,0.7,0.2,0.8,0.2c1.8,0.7,1.8,6.4,1.7,7.8
				c-0.1,2.8-0.2,6.4-0.6,10.6c-1.5,0.4-3.3,0.5-4.5,0.4c-1.2-0.1-1.8-0.7-1.7-1.7c0.1-1,2.6-2.5,2.6-2.5c0.2,0.3,0.5,0.6,0.7,0.9
				c0.3-1.8,0.4-4.2,0.2-6.8c-0.2-1.8-0.5-3.4-0.8-4.7"/>
			<polyline class="st0" points="73.5,196.4 73.5,204.7 79.7,207.6 79.7,209 70.5,209 70.5,205.4 			"/>
			<polyline class="st0" points="67.1,196.4 67.1,204.7 60.9,207.6 60.9,209 70.1,209 70.1,205.4 			"/>
			<path class="st0" d="M64.6,173.8c0.1,0.1,0.1,0.2,0.2,0.2c0.1,0,0.2,0.1,0.3,0.1c1.3,0,2.5,0.1,3.8,0c0-0.7,0-1.4,0-2.1
				c0-0.1,0-0.2-0.1-0.3c-0.1-0.1-0.2-0.2-0.4-0.2c-0.5-0.1-0.9-0.1-1.4-0.1s-0.9,0-1.4,0c-0.4,0-1.3,0-1.3,0.5
				C64.2,172.6,64.3,173.3,64.6,173.8z"/>
			<path class="st0" d="M63.9,186.5l-1.8,9.4c0,0,6.8,1.2,9.7-0.2c0,0,5.6,0.6,6.4-0.3s-1.6-8.9-1.6-8.9"/>
			<line class="st0" x1="70.1" y1="203.6" x2="70.1" y2="197.7"/>
			<path class="st1" d="M68.9,165.6c-0.3,0.1-3.8,0.6-4.6-0.5c-0.1-0.2-0.3-0.5-0.1-2.3c0.2-1.8,0.3-2.8,0.6-3.5
				c0.3-0.6,1.1-2.3,2.9-2.6c1.6-0.3,2.8,0.8,3.1,1c0.6-0.1,1.4-0.2,2.4-0.5c1.5-0.4,1.6-0.8,2.5-0.9c1.7-0.3,4,0.6,4.5,2.4
				c0.2,0.7,0.2,1.7-0.3,2.5c-0.5,0.7-1.2,1.1-1.4,1.1c0.1,0.2,0.2,0.4,0.3,0.7c0.3,1.1,0,2.9-1.4,3.4c-1,0.4-2.3-0.1-3-1.1"/>
			<path class="st2" d="M68.5,160l0.4,5.4c0.1,0.2,0.3,0.7,0.9,1.1c0.6,0.5,1.3,0.5,1.5,0.5c0.3,0,1,0.1,1.8-0.4
				c1.2-0.7,1.4-2,1.5-2.2c0.1-1.5,0.3-3,0.4-4.5C74.9,160,71.3,161.6,68.5,160z"/>
			<path class="st0" d="M63.8,172.1c-1,0-2,0-3,0v14.5h10.8v-14.4H69"/>
			<polygon class="st1" points="65.4,176.8 67,176.8 67,178.9 69.3,178.9 69.3,180.5 67,180.5 67,182.9 65.4,182.9 65.4,180.5 
				63.2,180.5 63.2,178.9 65.4,178.9 			"/>
		</g>
		<g>
			<path class="st4" d="M47.1,169.7c0.6-0.9,1.2-1.9,1.8-2.8c1.2,0,2.5-0.1,3.8-0.1c0.4,0,0.9,0,1.4,0.3c0.7,0.4,0.8,1.2,0.8,1.6
				c0.7,5.5,0.3,7.8,0.3,7.8c-0.4,2.2-0.6,5.3-0.2,9.3c-0.9,0.1-3.9,0.5-6,0.2c-0.7-0.1-1.3-0.2-1.7-0.7c-0.2-0.3-0.3-0.6-0.2-1
				c0.1-1,2.9-2.6,2.9-2.6c0.3,0.3,0.5,0.6,0.8,1c0.3-1.9,0.5-4.2,0.2-6.9c-0.2-1.8-0.5-3.4-0.9-4.7"/>
			<path class="st4" d="M35.3,171.4c0.2-0.7,0.5-1.8,1-3.2c0.2-0.7,0.3-1.1,0.8-1.4c0.6-0.4,1.6-0.4,3.3-0.4c0.8,0,1.4,0.1,1.9,0.1
				c0.5,1,1,2,1.6,3.1"/>
			<path class="st4" d="M38.1,186c0,6.4,0,12.8,0,19.2c-1.6,0.7-3.2,1.5-4.7,2.2c-0.1,0.4-0.1,0.8-0.2,1.2c3.8,0,7.7,0,11.5,0.1
				c0-1.2,0-2.4,0-3.6"/>
			<path class="st4" d="M39.1,173.2c0.1,0.1,0.1,0.2,0.2,0.2c0.1,0,0.2,0.1,0.3,0.1c1.3,0,2.6,0.1,3.8,0c0-0.7,0-1.4,0-2.1
				c0-0.1,0-0.2-0.1-0.3c-0.1-0.1-0.2-0.2-0.4-0.2c-0.5-0.1-0.9-0.1-1.4-0.1s-0.9,0-1.4,0c-0.4,0-1.3,0-1.3,0.5
				C38.6,171.9,38.8,172.6,39.1,173.2z"/>
			<path class="st4" d="M44.7,203.2c0-3.7-0.1-7.5-0.1-11.2"/>
			<path class="st4" d="M38.3,171.4c-1,0-2,0-3,0V186h10.9v-14.6h-2.6"/>
			<path class="st4" d="M44.3,166.5h2.2c-0.2,0.4-0.4,1-0.6,1.8c-0.3,1.2-0.3,2.1-0.5,2.1c-0.1,0-0.2-0.8-0.5-2.1
				C44.7,167.6,44.5,167,44.3,166.5z"/>
			<path class="st4" d="M51.3,186.3c0,6.3,0.1,12.6,0.1,18.9c1.6,0.7,3.2,1.5,4.8,2.2c0.1,0.4,0.1,0.8,0.2,1.2
				c-3.9,0-7.7,0-11.6,0.1c0-1.2,0-2.4,0-3.6"/>
			<polygon class="st4" points="39.9,176.2 41.5,176.2 41.5,178.3 43.8,178.3 43.8,179.9 41.5,179.9 41.5,182.4 39.9,182.4 
				39.9,180 37.6,180 37.6,178.3 39.9,178.3 			"/>
			<path class="st4" d="M46.4,165.5h-2c-0.4-0.3-0.9-0.7-1.4-1.2c-0.6-0.6-1-1.1-1.3-1.6v-3.4c0-1.5,1.2-2.8,2.8-2.8h2
				c1.5,0,2.8,1.2,2.8,2.8v3.4c-0.3,0.4-0.6,0.9-1.1,1.4C47.5,164.7,46.9,165.2,46.4,165.5z"/>
		</g>
	</g>
	<g>
		<g>
			<path class="st0" d="M133.1,172.9c0-1.5,0.4-2.6,0.7-3.2c0.4-0.9,0.8-1.2,0.9-1.3c0.6-0.4,1.2-0.4,1.9-0.4c0.6,0,1,0,1.3,0.1
				l2.9,2.9c1-0.9,2-1.8,3-2.6c0.6-0.1,1.5-0.3,2.6-0.1c0.4,0.1,0.7,0.2,0.8,0.2c1.8,0.7,1.7,6.4,1.7,7.8c0,2.8-0.2,6.4-0.5,10.6
				c-1.4,0.4-3.2,0.5-4.4,0.4c-1.2-0.1-1.7-0.7-1.6-1.7s2.5-2.5,2.5-2.5c0.2,0.3,0.5,0.6,0.7,0.9c0.3-1.8,0.4-4.2,0.2-6.8
				c-0.2-1.8-0.5-3.4-0.8-4.7"/>
			<polyline class="st0" points="143.2,197.2 143.2,205.5 149.3,208.4 149.3,209.8 140.3,209.8 140.3,206.2 			"/>
			<polyline class="st0" points="137,197.2 137,205.5 131,208.4 131,209.8 140,209.8 140,206.2 			"/>
			<path class="st0" d="M134.6,174.7c0,0.1,0.1,0.2,0.2,0.2c0.1,0,0.2,0.1,0.2,0.1c1.2,0,2.5,0.1,3.7,0c0-0.7,0-1.4,0-2.1
				c0-0.1,0-0.2-0.1-0.3c-0.1-0.1-0.2-0.2-0.4-0.2c-0.4-0.1-0.9-0.1-1.4-0.1s-0.9,0-1.4,0c-0.4,0-1.2,0-1.3,0.5
				C134.1,173.4,134.3,174.1,134.6,174.7z"/>
			<path class="st0" d="M133.9,187.4l-1.8,9.4c0,0,6.6,1.2,9.5-0.2c0,0,5.5,0.6,6.2-0.3s-1.6-8.9-1.6-8.9"/>
			<line class="st0" x1="140" y1="204.4" x2="140" y2="198.5"/>
			<path class="st1" d="M138.7,166.4c-0.3,0.1-3.8,0.6-4.5-0.5c-0.1-0.2-0.3-0.5-0.1-2.3c0.2-1.8,0.3-2.8,0.6-3.5
				c0.3-0.6,1.1-2.3,2.9-2.6c1.6-0.3,2.8,0.8,3,1c0.5-0.1,1.4-0.2,2.3-0.5c1.4-0.4,1.6-0.8,2.4-0.9c1.6-0.3,3.9,0.6,4.4,2.4
				c0.2,0.7,0.2,1.7-0.3,2.5c-0.5,0.7-1.1,1.1-1.4,1.1c0.1,0.2,0.2,0.4,0.3,0.7c0.3,1.1,0,2.9-1.4,3.4c-1,0.4-2.2-0.1-3-1.1"/>
			<path class="st2" d="M138.4,160.9l0.4,5.4c0.1,0.2,0.3,0.7,0.8,1.1c0.6,0.5,1.3,0.5,1.5,0.5c0.3,0,1,0.1,1.7-0.4
				c1.2-0.7,1.4-2,1.4-2.2c0.1-1.5,0.3-3,0.4-4.5C144.6,160.9,141.1,162.4,138.4,160.9z"/>
			<path class="st0" d="M133.8,172.9c-1,0-1.9,0-2.9,0v14.5h10.6v-14.4h-2.5"/>
			<polygon class="st1" points="135.4,177.6 136.9,177.6 136.9,179.7 139.1,179.7 139.1,181.3 136.9,181.3 136.9,183.7 135.4,183.7 
				135.4,181.3 133.2,181.3 133.2,179.7 135.4,179.7 			"/>
		</g>
		<g>
			<g>
				<path class="st4" d="M117.4,170.5c0.6-0.9,1.2-1.9,1.8-2.8c1.2,0,2.4-0.1,3.7-0.1c0.4,0,0.9,0,1.3,0.3c0.7,0.4,0.8,1.2,0.8,1.6
					c0.7,5.5,0.3,7.8,0.3,7.8c-0.4,2.2-0.6,5.3-0.2,9.3c-0.9,0.1-3.8,0.5-5.9,0.2c-0.6-0.1-1.3-0.2-1.6-0.7c-0.2-0.3-0.3-0.6-0.2-1
					c0.1-1,2.8-2.6,2.8-2.6c0.3,0.3,0.5,0.6,0.8,1c0.3-1.9,0.5-4.2,0.2-6.9c-0.2-1.8-0.5-3.4-0.9-4.7"/>
				<path class="st4" d="M105.9,172.2c0.2-0.7,0.5-1.8,0.9-3.2c0.2-0.7,0.3-1.1,0.8-1.4c0.6-0.4,1.6-0.4,3.2-0.4
					c0.8,0,1.4,0.1,1.9,0.1c0.5,1,1,2,1.5,3.1"/>
				<path class="st4" d="M108.7,186.8c0,6.4,0,12.8,0,19.2c-1.5,0.7-3.1,1.5-4.6,2.2c-0.1,0.4-0.1,0.8-0.2,1.2c3.8,0,7.5,0,11.2,0.1
					c0-1.2,0-2.4,0-3.6"/>
				<path class="st4" d="M109.7,174c0.1,0.1,0.1,0.2,0.2,0.2c0.1,0,0.2,0.1,0.2,0.1c1.2,0,2.5,0.1,3.8,0c0-0.7,0-1.4,0-2.1
					c0-0.1,0-0.2-0.1-0.3c-0.1-0.1-0.2-0.2-0.4-0.2c-0.4-0.1-0.9-0.1-1.4-0.1c-0.5,0-0.9,0-1.4,0c-0.4,0-1.2,0-1.3,0.5
					C109.2,172.7,109.4,173.4,109.7,174z"/>
				<path class="st4" d="M115.1,204c0-3.7-0.1-7.5-0.1-11.2"/>
				<path class="st4" d="M108.8,172.2c-1,0-1.9,0-2.9,0v14.6h10.7v-14.6H114"/>
				<path class="st4" d="M114.7,167.4h2.2c-0.2,0.4-0.4,1-0.6,1.8c-0.3,1.2-0.3,2.1-0.5,2.1s-0.2-0.8-0.5-2.1
					C115.1,168.4,114.9,167.8,114.7,167.4z"/>
				<path class="st4" d="M121.6,187.1c0,6.3,0.1,12.6,0.1,18.9c1.6,0.7,3.1,1.5,4.7,2.2c0.1,0.4,0.1,0.8,0.2,1.2
					c-3.8,0-7.6,0-11.3,0.1c0-1.2,0-2.4,0-3.6"/>
				<polygon class="st4" points="110.5,177 112,177 112,179.2 114.3,179.2 114.3,180.7 112,180.7 112,183.2 110.5,183.2 
					110.5,180.8 108.2,180.8 108.2,179.2 110.5,179.2 				"/>
			</g>
			<path class="st4" d="M116.8,166.3h-1.9c-0.4-0.3-0.9-0.7-1.4-1.2c-0.5-0.6-1-1.1-1.3-1.6v-3.4c0-1.5,1.2-2.8,2.7-2.8h1.9
				c1.5,0,2.7,1.2,2.7,2.8v3.4c-0.3,0.4-0.6,0.9-1.1,1.4C117.8,165.5,117.3,166,116.8,166.3z"/>
		</g>
	</g>
	<g>
		<g>
			<path class="st0" d="M206.6,172.6c0-1.5,0.4-2.6,0.7-3.2c0.4-0.9,0.8-1.2,1-1.3c0.6-0.4,1.2-0.4,2-0.4c0.6,0,1,0,1.4,0.1l2.9,2.9
				c1-0.9,2-1.8,3.1-2.6c0.6-0.1,1.5-0.3,2.6-0.1c0.4,0.1,0.7,0.2,0.8,0.2c1.8,0.7,1.8,6.4,1.7,7.8c0,2.8-0.2,6.4-0.5,10.6
				c-1.5,0.4-3.3,0.5-4.5,0.4c-1.2-0.1-1.8-0.7-1.7-1.7s2.5-2.5,2.5-2.5c0.2,0.3,0.5,0.6,0.7,0.9c0.3-1.8,0.4-4.2,0.2-6.8
				c-0.2-1.8-0.5-3.4-0.8-4.7"/>
			<polyline class="st0" points="216.9,196.9 216.9,205.2 223.2,208.1 223.2,209.5 213.9,209.5 213.9,205.9 			"/>
			<polyline class="st0" points="210.6,196.9 210.6,205.2 204.4,208.1 204.4,209.5 213.6,209.5 213.6,205.9 			"/>
			<path class="st0" d="M208.1,174.3c0,0.1,0.1,0.2,0.2,0.2c0.1,0,0.2,0.1,0.3,0.1c1.3,0,2.5,0.1,3.8,0c0-0.7,0-1.4,0-2.1
				c0-0.1,0-0.2-0.1-0.3c-0.1-0.1-0.2-0.2-0.4-0.2c-0.5-0.1-0.9-0.1-1.4-0.1s-0.9,0-1.4,0c-0.4,0-1.3,0-1.3,0.5
				C207.6,173.1,207.8,173.8,208.1,174.3z"/>
			<path class="st0" d="M207.4,187l-1.8,9.4c0,0,6.8,1.2,9.7-0.2c0,0,5.6,0.6,6.4-0.3s-1.6-8.9-1.6-8.9"/>
			<line class="st0" x1="213.6" y1="204.1" x2="213.6" y2="198.2"/>
			<path class="st1" d="M212.3,166.1c-0.3,0.1-3.8,0.6-4.6-0.5c-0.1-0.2-0.3-0.5-0.1-2.3c0.2-1.8,0.3-2.8,0.6-3.5
				c0.3-0.6,1.1-2.3,2.9-2.6c1.6-0.3,2.8,0.8,3.1,1c0.5-0.1,1.4-0.2,2.4-0.5c1.5-0.4,1.6-0.8,2.5-0.9c1.7-0.3,4,0.6,4.5,2.4
				c0.2,0.7,0.2,1.7-0.3,2.5c-0.5,0.7-1.2,1.1-1.5,1.1c0.1,0.2,0.2,0.4,0.3,0.7c0.3,1.1,0,2.9-1.4,3.4c-1,0.4-2.3-0.1-3-1.1"/>
			<path class="st2" d="M212,160.5l0.4,5.4c0.1,0.2,0.3,0.7,0.9,1.1c0.6,0.5,1.3,0.5,1.5,0.5c0.3,0,1,0.1,1.8-0.4
				c1.2-0.7,1.4-2,1.5-2.2c0.1-1.5,0.3-3,0.4-4.5C218.3,160.5,214.8,162.1,212,160.5z"/>
			<path class="st0" d="M207.2,172.6c-1,0-2,0-3,0V187h10.8v-14.4h-2.6"/>
			<polygon class="st1" points="208.9,177.3 210.5,177.3 210.5,179.4 212.7,179.4 212.7,181 210.5,181 210.5,183.4 208.9,183.4 
				208.9,181 206.6,181 206.6,179.4 208.9,179.4 			"/>
		</g>
		<g>
			<g>
				<path class="st4" d="M190.5,170.2c0.6-0.9,1.2-1.9,1.8-2.8c1.2,0,2.5-0.1,3.8-0.1c0.4,0,0.9,0,1.4,0.3c0.7,0.4,0.8,1.2,0.8,1.6
					c0.7,5.5,0.3,7.8,0.3,7.8c-0.4,2.2-0.6,5.3-0.2,9.3c-0.9,0.1-3.9,0.5-6,0.2c-0.7-0.1-1.3-0.2-1.7-0.7c-0.2-0.3-0.3-0.6-0.2-1
					c0.1-1,2.9-2.6,2.9-2.6c0.3,0.3,0.5,0.6,0.8,1c0.3-1.9,0.5-4.2,0.2-6.9c-0.2-1.8-0.5-3.4-0.9-4.7"/>
				<path class="st4" d="M178.7,171.9c0.2-0.7,0.5-1.8,1-3.2c0.2-0.7,0.3-1.1,0.8-1.4c0.6-0.4,1.6-0.4,3.3-0.4
					c0.8,0,1.5,0.1,1.9,0.1c0.5,1,1,2,1.5,3.1"/>
				<path class="st4" d="M181.6,186.5c0,6.4,0,12.8,0,19.2c-1.6,0.7-3.2,1.5-4.7,2.2c-0.1,0.4-0.1,0.8-0.2,1.2c3.8,0,7.7,0,11.5,0.1
					c0-1.2,0-2.4,0-3.6"/>
				<path class="st4" d="M182.6,173.6c0,0.1,0.1,0.2,0.2,0.2c0.1,0,0.2,0.1,0.3,0.1c1.3,0,2.6,0.1,3.8,0c0-0.7,0-1.4,0-2.1
					c0-0.1,0-0.2-0.1-0.3c-0.1-0.1-0.2-0.2-0.4-0.2c-0.5-0.1-0.9-0.1-1.4-0.1s-0.9,0-1.4,0c-0.5,0-1.3,0-1.3,0.5
					C182.1,172.4,182.3,173.1,182.6,173.6z"/>
				<path class="st4" d="M188.2,203.7c0-3.7-0.1-7.5-0.1-11.2"/>
				<path class="st4" d="M181.7,171.9c-1,0-2,0-3,0v14.6h11v-14.6h-2.6"/>
				<path class="st4" d="M187.8,167h2.2c-0.2,0.4-0.4,1-0.6,1.8c-0.3,1.2-0.3,2.1-0.5,2.1s-0.2-0.8-0.5-2.1
					C188.2,168.1,187.9,167.5,187.8,167z"/>
				<path class="st4" d="M194.8,186.8c0,6.3,0.1,12.6,0.1,18.9c1.6,0.7,3.2,1.5,4.8,2.2c0.1,0.4,0.1,0.8,0.2,1.2
					c-3.9,0-7.7,0-11.6,0.1c0-1.2,0-2.4,0-3.6"/>
				<polygon class="st4" points="183.4,176.7 185,176.7 185,178.8 187.3,178.8 187.3,180.4 185,180.4 185,182.9 183.4,182.9 
					183.4,180.5 181.1,180.5 181.1,178.8 183.4,178.8 				"/>
			</g>
			<path class="st4" d="M189.9,166h-2c-0.4-0.3-0.9-0.7-1.4-1.2c-0.6-0.6-1-1.1-1.3-1.6v-3.4c0-1.5,1.2-2.8,2.8-2.8h2
				c1.5,0,2.8,1.2,2.8,2.8v3.4c-0.3,0.4-0.6,0.9-1.1,1.4C190.9,165.2,190.4,165.7,189.9,166z"/>
		</g>
	</g>
	<g>
		<g>
			<path class="st0" d="M278.1,172.6c0-1.5,0.4-2.6,0.7-3.2c0.4-0.9,0.8-1.2,1-1.3c0.6-0.4,1.2-0.4,2-0.4c0.6,0,1,0,1.4,0.1l2.9,2.9
				c1-0.9,2-1.8,3.1-2.6c0.6-0.1,1.5-0.3,2.6-0.1c0.4,0.1,0.7,0.2,0.8,0.2c1.8,0.7,1.8,6.4,1.7,7.8c0,2.8-0.2,6.4-0.5,10.6
				c-1.5,0.4-3.3,0.5-4.5,0.4c-1.2-0.1-1.8-0.7-1.7-1.7s2.5-2.5,2.5-2.5c0.2,0.3,0.5,0.6,0.7,0.9c0.3-1.8,0.4-4.2,0.2-6.8
				c-0.2-1.8-0.5-3.4-0.8-4.7"/>
			<polyline class="st0" points="288.4,196.9 288.4,205.2 294.7,208.1 294.7,209.5 285.4,209.5 285.4,205.9 			"/>
			<polyline class="st0" points="282.1,196.9 282.1,205.2 275.9,208.1 275.9,209.5 285.1,209.5 285.1,205.9 			"/>
			<path class="st0" d="M279.6,174.3c0,0.1,0.1,0.2,0.2,0.2c0.1,0,0.2,0.1,0.3,0.1c1.3,0,2.5,0.1,3.8,0c0-0.7,0-1.4,0-2.1
				c0-0.1,0-0.2-0.1-0.3c-0.1-0.1-0.2-0.2-0.4-0.2c-0.5-0.1-0.9-0.1-1.4-0.1s-0.9,0-1.4,0c-0.4,0-1.3,0-1.3,0.5
				C279.1,173.1,279.3,173.8,279.6,174.3z"/>
			<path class="st0" d="M278.9,187l-1.8,9.4c0,0,6.8,1.2,9.7-0.2c0,0,5.6,0.6,6.4-0.3s-1.6-8.9-1.6-8.9"/>
			<line class="st0" x1="285.1" y1="204.1" x2="285.1" y2="198.2"/>
			<path class="st1" d="M283.8,166.1c-0.3,0.1-3.8,0.6-4.6-0.5c-0.1-0.2-0.3-0.5-0.1-2.3c0.2-1.8,0.3-2.8,0.6-3.5
				c0.3-0.6,1.1-2.3,2.9-2.6c1.6-0.3,2.8,0.8,3.1,1c0.5-0.1,1.4-0.2,2.4-0.5c1.5-0.4,1.6-0.8,2.5-0.9c1.7-0.3,4,0.6,4.5,2.4
				c0.2,0.7,0.2,1.7-0.3,2.5c-0.5,0.7-1.2,1.1-1.5,1.1c0.1,0.2,0.2,0.4,0.3,0.7c0.3,1.1,0,2.9-1.4,3.4c-1,0.4-2.3-0.1-3-1.1"/>
			<path class="st2" d="M283.5,160.5l0.4,5.4c0.1,0.2,0.3,0.7,0.9,1.1c0.6,0.5,1.3,0.5,1.5,0.5c0.3,0,1,0.1,1.8-0.4
				c1.2-0.7,1.4-2,1.5-2.2c0.1-1.5,0.3-3,0.4-4.5C289.8,160.5,286.3,162.1,283.5,160.5z"/>
			<path class="st0" d="M278.8,172.6c-1,0-2,0-3,0V187h10.8v-14.4H284"/>
			<polygon class="st1" points="280.4,177.3 282,177.3 282,179.4 284.3,179.4 284.3,181 282,181 282,183.4 280.4,183.4 280.4,181 
				278.2,181 278.2,179.4 280.4,179.4 			"/>
		</g>
		<g>
			<g>
				<path class="st4" d="M262,170.2c0.6-0.9,1.2-1.9,1.8-2.8c1.2,0,2.5-0.1,3.8-0.1c0.4,0,0.9,0,1.4,0.3c0.7,0.4,0.8,1.2,0.8,1.6
					c0.7,5.5,0.3,7.8,0.3,7.8c-0.4,2.2-0.6,5.3-0.2,9.3c-0.9,0.1-3.9,0.5-6,0.2c-0.7-0.1-1.3-0.2-1.7-0.7c-0.2-0.3-0.3-0.6-0.2-1
					c0.1-1,2.9-2.6,2.9-2.6c0.3,0.3,0.5,0.6,0.8,1c0.3-1.9,0.5-4.2,0.2-6.9c-0.2-1.8-0.5-3.4-0.9-4.7"/>
				<path class="st4" d="M250.2,171.9c0.2-0.7,0.5-1.8,1-3.2c0.2-0.7,0.3-1.1,0.8-1.4c0.6-0.4,1.6-0.4,3.3-0.4
					c0.8,0,1.4,0.1,1.9,0.1c0.5,1,1,2,1.5,3.1"/>
				<path class="st4" d="M253.1,186.5c0,6.4,0,12.8,0,19.2c-1.6,0.7-3.2,1.5-4.7,2.2c-0.1,0.4-0.1,0.8-0.2,1.2c3.8,0,7.7,0,11.5,0.1
					c0-1.2,0-2.4,0-3.6"/>
				<path class="st4" d="M254.1,173.6c0,0.1,0.1,0.2,0.2,0.2c0.1,0,0.2,0.1,0.3,0.1c1.3,0,2.6,0.1,3.8,0c0-0.7,0-1.4,0-2.1
					c0-0.1,0-0.2-0.1-0.3c-0.1-0.1-0.2-0.2-0.4-0.2c-0.5-0.1-0.9-0.1-1.4-0.1s-0.9,0-1.4,0c-0.5,0-1.3,0-1.3,0.5
					C253.6,172.4,253.8,173.1,254.1,173.6z"/>
				<path class="st4" d="M259.7,203.7c0-3.7-0.1-7.5-0.1-11.2"/>
				<path class="st4" d="M253.2,171.9c-1,0-2,0-3,0v14.6h10.9v-14.6h-2.6"/>
				<path class="st4" d="M259.3,167h2.2c-0.2,0.4-0.4,1-0.6,1.8c-0.3,1.2-0.3,2.1-0.5,2.1s-0.2-0.8-0.5-2.1
					C259.7,168.1,259.5,167.5,259.3,167z"/>
				<path class="st4" d="M266.3,186.8c0,6.3,0.1,12.6,0.1,18.9c1.6,0.7,3.2,1.5,4.8,2.2c0.1,0.4,0.1,0.8,0.2,1.2
					c-3.9,0-7.7,0-11.6,0.1c0-1.2,0-2.4,0-3.6"/>
				<polygon class="st4" points="254.9,176.7 256.5,176.7 256.5,178.8 258.8,178.8 258.8,180.4 256.5,180.4 256.5,182.9 
					254.9,182.9 254.9,180.5 252.6,180.5 252.6,178.8 254.9,178.8 				"/>
			</g>
			<path class="st4" d="M261.4,166h-2c-0.4-0.3-0.9-0.7-1.4-1.2c-0.6-0.6-1-1.1-1.3-1.6v-3.4c0-1.5,1.2-2.8,2.8-2.8h2
				c1.5,0,2.8,1.2,2.8,2.8v3.4c-0.3,0.4-0.6,0.9-1.1,1.4C262.4,165.2,261.9,165.7,261.4,166z"/>
		</g>
	</g>
	<g>
		<g>
			<path class="st0" d="M350.4,173.1c0-1.5,0.4-2.6,0.7-3.2c0.4-0.9,0.8-1.2,1-1.3c0.6-0.4,1.2-0.4,2-0.4c0.6,0,1,0,1.4,0.1l2.9,2.9
				c1-0.9,2-1.8,3.1-2.6c0.6-0.1,1.5-0.3,2.6-0.1c0.4,0.1,0.7,0.2,0.8,0.2c1.8,0.7,1.8,6.4,1.7,7.8c0,2.8-0.2,6.4-0.5,10.6
				c-1.5,0.4-3.3,0.5-4.5,0.4c-1.2-0.1-1.8-0.7-1.7-1.7s2.5-2.5,2.5-2.5c0.2,0.3,0.5,0.6,0.7,0.9c0.3-1.8,0.4-4.2,0.2-6.8
				c-0.2-1.8-0.5-3.4-0.8-4.7"/>
			<polyline class="st0" points="360.7,197.4 360.7,205.7 366.9,208.6 366.9,210 357.7,210 357.7,206.4 			"/>
			<polyline class="st0" points="354.4,197.4 354.4,205.7 348.2,208.6 348.2,210 357.4,210 357.4,206.4 			"/>
			<path class="st0" d="M351.9,174.9c0,0.1,0.1,0.2,0.2,0.2c0.1,0,0.2,0.1,0.3,0.1c1.3,0,2.5,0.1,3.8,0c0-0.7,0-1.4,0-2.1
				c0-0.1,0-0.2-0.1-0.3c-0.1-0.1-0.2-0.2-0.4-0.2c-0.5-0.1-0.9-0.1-1.4-0.1s-0.9,0-1.4,0c-0.4,0-1.3,0-1.3,0.5
				C351.4,173.7,351.6,174.3,351.9,174.9z"/>
			<path class="st0" d="M351.2,187.6l-1.8,9.4c0,0,6.8,1.2,9.7-0.2c0,0,5.6,0.6,6.4-0.3s-1.6-8.9-1.6-8.9"/>
			<line class="st0" x1="357.4" y1="204.6" x2="357.4" y2="198.7"/>
			<path class="st1" d="M356.1,166.7c-0.3,0.1-3.8,0.6-4.6-0.5c-0.1-0.2-0.3-0.5-0.1-2.3c0.2-1.8,0.3-2.8,0.6-3.5
				c0.3-0.6,1.1-2.3,2.9-2.6c1.6-0.3,2.8,0.8,3.1,1c0.5-0.1,1.4-0.2,2.4-0.5c1.5-0.4,1.6-0.8,2.5-0.9c1.7-0.3,4,0.6,4.5,2.4
				c0.2,0.7,0.2,1.7-0.3,2.5c-0.5,0.7-1.2,1.1-1.5,1.1c0.1,0.2,0.2,0.4,0.3,0.7c0.3,1.1,0,2.9-1.4,3.4c-1,0.4-2.3-0.1-3-1.1"/>
			<path class="st2" d="M355.7,161.1l0.4,5.4c0.1,0.2,0.3,0.7,0.9,1.1c0.6,0.5,1.3,0.5,1.5,0.5c0.3,0,1,0.1,1.8-0.4
				c1.2-0.7,1.4-2,1.5-2.2c0.1-1.5,0.3-3,0.4-4.5C362.1,161.1,358.6,162.7,355.7,161.1z"/>
			<path class="st0" d="M351,173.1c-1,0-2,0-3,0v14.5h10.8v-14.4h-2.6"/>
			<polygon class="st1" points="352.7,177.8 354.3,177.8 354.3,179.9 356.5,179.9 356.5,181.5 354.3,181.5 354.3,183.9 352.7,183.9 
				352.7,181.5 350.4,181.5 350.4,179.9 352.7,179.9 			"/>
		</g>
		<g>
			<path class="st4" d="M334.3,170.7c0.6-0.9,1.2-1.9,1.8-2.8c1.2,0,2.5-0.1,3.8-0.1c0.4,0,0.9,0,1.4,0.3c0.7,0.4,0.8,1.2,0.8,1.6
				c0.7,5.5,0.3,7.8,0.3,7.8c-0.4,2.2-0.6,5.3-0.2,9.3c-0.9,0.1-3.9,0.5-6,0.2c-0.7-0.1-1.3-0.2-1.7-0.7c-0.2-0.3-0.3-0.6-0.2-1
				c0.1-1,2.9-2.6,2.9-2.6c0.3,0.3,0.5,0.6,0.8,1c0.3-1.9,0.5-4.2,0.2-6.9c-0.2-1.8-0.5-3.4-0.9-4.7"/>
			<path class="st4" d="M322.5,172.4c0.2-0.7,0.5-1.8,1-3.2c0.2-0.7,0.3-1.1,0.8-1.4c0.6-0.4,1.6-0.4,3.3-0.4c0.8,0,1.5,0.1,1.9,0.1
				c0.5,1,1,2,1.5,3.1"/>
			<path class="st4" d="M325.4,187c0,6.4,0,12.8,0,19.2c-1.6,0.7-3.2,1.5-4.7,2.2c-0.1,0.4-0.1,0.8-0.2,1.2c3.8,0,7.7,0,11.5,0.1
				c0-1.2,0-2.4,0-3.6"/>
			<path class="st4" d="M326.4,174.2c0,0.1,0.1,0.2,0.2,0.2c0.1,0,0.2,0.1,0.3,0.1c1.3,0,2.6,0.1,3.8,0c0-0.7,0-1.4,0-2.1
				c0-0.1,0-0.2-0.1-0.3c-0.1-0.1-0.2-0.2-0.4-0.2c-0.5-0.1-0.9-0.1-1.4-0.1s-0.9,0-1.4,0c-0.5,0-1.3,0-1.3,0.5
				C325.9,173,326.1,173.6,326.4,174.2z"/>
			<path class="st4" d="M332,204.3c0-3.7-0.1-7.5-0.1-11.2"/>
			<path class="st4" d="M325.5,172.4c-1,0-2,0-3,0V187h11v-14.6h-2.6"/>
			<path class="st4" d="M331.6,167.6h2.2c-0.2,0.4-0.4,1-0.6,1.8c-0.3,1.2-0.3,2.1-0.5,2.1s-0.2-0.8-0.5-2.1
				C332,168.6,331.7,168,331.6,167.6z"/>
			<path class="st4" d="M338.6,187.4c0,6.3,0.1,12.6,0.1,18.9c1.6,0.7,3.2,1.5,4.8,2.2c0.1,0.4,0.1,0.8,0.2,1.2
				c-3.9,0-7.7,0-11.6,0.1c0-1.2,0-2.4,0-3.6"/>
			<polygon class="st4" points="327.2,177.2 328.8,177.2 328.8,179.4 331.1,179.4 331.1,180.9 328.8,180.9 328.8,183.4 327.2,183.4 
				327.2,181 324.9,181 324.9,179.4 327.2,179.4 			"/>
			<path class="st4" d="M333.7,166.5h-2c-0.4-0.3-0.9-0.7-1.4-1.2c-0.6-0.6-1-1.1-1.3-1.6v-3.4c0-1.5,1.2-2.8,2.8-2.8h2
				c1.5,0,2.8,1.2,2.8,2.8v3.4c-0.3,0.4-0.6,0.9-1.1,1.4C334.7,165.8,334.1,166.2,333.7,166.5z"/>
		</g>
	</g>
	<g>
		<g>
			<path class="st0" d="M61.7,237.9c0-1.5,0.4-2.6,0.7-3.2c0.4-0.9,0.8-1.2,1-1.3c0.6-0.4,1.2-0.4,2-0.4c0.6,0,1.1,0,1.4,0.1
				l2.9,2.9c1-0.9,2.1-1.8,3.1-2.6c0.6-0.1,1.5-0.3,2.6-0.1c0.4,0.1,0.7,0.2,0.8,0.2c1.8,0.7,1.8,6.4,1.7,7.8
				c-0.1,2.8-0.2,6.4-0.6,10.6c-1.5,0.4-3.3,0.5-4.5,0.4c-1.2-0.1-1.8-0.7-1.7-1.7c0.1-1,2.6-2.5,2.6-2.5c0.2,0.3,0.5,0.6,0.7,0.9
				c0.3-1.8,0.4-4.2,0.2-6.8c-0.2-1.8-0.5-3.4-0.8-4.7"/>
			<polyline class="st0" points="72.1,262.2 72.1,270.5 78.3,273.4 78.3,274.8 69.1,274.8 69.1,271.2 			"/>
			<polyline class="st0" points="65.7,262.2 65.7,270.5 59.5,273.4 59.5,274.8 68.7,274.8 68.7,271.2 			"/>
			<path class="st0" d="M63.2,239.7c0.1,0.1,0.1,0.2,0.2,0.2c0.1,0,0.2,0,0.3,0c1.3,0,2.5,0,3.8,0c0-0.7,0-1.4,0-2.1
				c0-0.1,0-0.2-0.1-0.3c-0.1-0.1-0.2-0.2-0.4-0.2c-0.5-0.1-0.9-0.1-1.4-0.1s-0.9,0-1.4,0c-0.4,0-1.3,0-1.3,0.5
				C62.8,238.5,62.9,239.2,63.2,239.7z"/>
			<path class="st0" d="M62.5,252.4l-1.8,9.4c0,0,6.8,1.2,9.7-0.2c0,0,5.6,0.6,6.4-0.3c0.8-0.8-1.6-8.9-1.6-8.9"/>
			<line class="st0" x1="68.7" y1="269.4" x2="68.7" y2="263.5"/>
			<path class="st1" d="M67.5,231.5c-0.3,0.1-3.8,0.6-4.6-0.5c-0.1-0.2-0.3-0.5-0.1-2.3c0.2-1.8,0.3-2.8,0.6-3.5
				c0.3-0.6,1.1-2.3,2.9-2.6c1.6-0.3,2.8,0.8,3.1,1c0.6,0,1.4-0.2,2.4-0.5c1.5-0.4,1.6-0.8,2.5-0.9c1.7-0.3,4,0.6,4.5,2.4
				c0.2,0.7,0.2,1.7-0.3,2.5c-0.5,0.7-1.2,1-1.4,1.1c0.1,0.2,0.2,0.4,0.3,0.7c0.3,1.1,0,2.9-1.4,3.4c-1,0.4-2.3,0-3-1.1"/>
			<path class="st2" d="M67.1,225.9l0.4,5.4c0.1,0.2,0.3,0.7,0.9,1.1c0.6,0.5,1.3,0.5,1.5,0.5c0.3,0,1,0.1,1.8-0.4
				c1.2-0.7,1.4-2,1.5-2.2c0.1-1.5,0.3-3,0.4-4.5C73.4,225.9,69.9,227.5,67.1,225.9z"/>
			<path class="st0" d="M62.4,237.9c-1,0-2,0-3,0v14.5h10.8v-14.5h-2.6"/>
			<polygon class="st1" points="64,242.6 65.6,242.6 65.6,244.8 67.9,244.8 67.9,246.3 65.6,246.3 65.6,248.7 64,248.7 64,246.4 
				61.8,246.4 61.8,244.8 64,244.8 			"/>
		</g>
		<g>
			<g>
				<path class="st4" d="M45.7,235.5c0.6-1,1.2-1.9,1.8-2.8c1.2,0,2.5,0,3.8-0.1c0.4,0,0.9,0,1.4,0.3c0.7,0.4,0.8,1.2,0.8,1.6
					c0.7,5.5,0.3,7.8,0.3,7.8c-0.4,2.2-0.6,5.3-0.2,9.3c-0.9,0.1-3.9,0.5-6,0.2c-0.7-0.1-1.3-0.2-1.7-0.7c-0.2-0.3-0.3-0.6-0.2-1
					c0.1-1,2.9-2.6,2.9-2.6c0.3,0.3,0.5,0.6,0.8,1c0.3-1.9,0.5-4.2,0.2-6.9c-0.2-1.8-0.5-3.4-0.9-4.7"/>
				<path class="st4" d="M33.9,237.2c0.2-0.7,0.5-1.8,1-3.2c0.2-0.7,0.3-1.1,0.8-1.4c0.6-0.4,1.6-0.4,3.3-0.4c0.8,0,1.4,0,1.9,0.1
					c0.5,1,1,2,1.6,3.1"/>
				<path class="st4" d="M36.7,251.8c0,6.4,0,12.8,0,19.2c-1.6,0.7-3.2,1.5-4.7,2.2c-0.1,0.4-0.1,0.8-0.2,1.2c3.8,0,7.7,0,11.5,0.1
					c0-1.2,0-2.4,0-3.6"/>
				<path class="st4" d="M37.7,239c0.1,0.1,0.1,0.2,0.2,0.2c0.1,0,0.2,0,0.3,0c1.3,0,2.6,0,3.8,0c0-0.7,0-1.4,0-2.1
					c0-0.1,0-0.2-0.1-0.3c-0.1-0.1-0.2-0.2-0.4-0.2c-0.5-0.1-0.9-0.1-1.4-0.1s-0.9,0-1.4,0c-0.4,0-1.3,0-1.3,0.5
					C37.2,237.8,37.4,238.5,37.7,239z"/>
				<path class="st4" d="M43.3,269.1c0-3.7-0.1-7.5-0.1-11.2"/>
				<path class="st4" d="M36.8,237.2c-1,0-2,0-3,0v14.6h10.9v-14.6h-2.6"/>
				<path class="st4" d="M42.9,232.4h2.2c-0.2,0.4-0.4,1-0.6,1.8c-0.3,1.2-0.3,2.1-0.5,2.1c-0.1,0-0.2-0.8-0.5-2.1
					C43.3,233.4,43.1,232.8,42.9,232.4z"/>
				<path class="st4" d="M49.9,252.2c0,6.3,0.1,12.6,0.1,18.9c1.6,0.7,3.2,1.5,4.8,2.2c0.1,0.4,0.1,0.8,0.2,1.2
					c-3.9,0-7.7,0-11.6,0.1c0-1.2,0-2.4,0-3.6"/>
				<polygon class="st4" points="38.5,242 40.1,242 40.1,244.2 42.4,244.2 42.4,245.7 40.1,245.7 40.1,248.2 38.5,248.2 38.5,245.8 
					36.2,245.8 36.2,244.2 38.5,244.2 				"/>
			</g>
			<path class="st4" d="M45,231.3h-2c-0.4-0.3-0.9-0.7-1.4-1.2c-0.6-0.5-1-1.1-1.3-1.6v-3.4c0-1.5,1.2-2.8,2.8-2.8h2
				c1.5,0,2.8,1.2,2.8,2.8v3.4c-0.3,0.4-0.6,0.9-1.1,1.4C46.1,230.6,45.5,231,45,231.3z"/>
		</g>
	</g>
	<g>
		<g>
			<path class="st0" d="M134.2,238.3c0-1.5,0.4-2.6,0.7-3.2c0.4-0.9,0.8-1.2,0.9-1.3c0.6-0.4,1.2-0.4,1.9-0.4c0.6,0,1,0,1.3,0.1
				l2.9,2.9c1-0.9,2-1.8,3-2.6c0.6-0.1,1.5-0.3,2.6-0.1c0.4,0.1,0.7,0.2,0.8,0.2c1.8,0.7,1.7,6.4,1.7,7.8c0,2.8-0.2,6.4-0.5,10.6
				c-1.4,0.4-3.2,0.5-4.4,0.4c-1.2-0.1-1.7-0.7-1.6-1.7s2.5-2.5,2.5-2.5c0.2,0.3,0.5,0.6,0.7,0.9c0.3-1.8,0.4-4.2,0.2-6.8
				c-0.2-1.8-0.5-3.4-0.8-4.7"/>
			<polyline class="st0" points="144.3,262.6 144.3,270.8 150.3,273.7 150.3,275.1 141.3,275.1 141.3,271.5 			"/>
			<polyline class="st0" points="138.1,262.6 138.1,270.8 132,273.7 132,275.1 141,275.1 141,271.5 			"/>
			<path class="st0" d="M135.6,240c0,0.1,0.1,0.2,0.2,0.2c0.1,0,0.2,0,0.2,0c1.2,0,2.5,0,3.7,0c0-0.7,0-1.4,0-2.1
				c0-0.1,0-0.2-0.1-0.3c-0.1-0.1-0.2-0.2-0.4-0.2c-0.4-0.1-0.9-0.1-1.4-0.1s-0.9,0-1.4,0c-0.4,0-1.2,0-1.3,0.5
				C135.2,238.8,135.3,239.5,135.6,240z"/>
			<path class="st0" d="M135,252.7l-1.8,9.4c0,0,6.6,1.2,9.5-0.2c0,0,5.5,0.6,6.3-0.3s-1.6-8.9-1.6-8.9"/>
			<line class="st0" x1="141" y1="269.7" x2="141" y2="263.8"/>
			<path class="st1" d="M139.8,231.8c-0.3,0.1-3.8,0.6-4.5-0.5c-0.1-0.2-0.3-0.5-0.1-2.3c0.2-1.8,0.3-2.8,0.6-3.5
				c0.3-0.6,1.1-2.3,2.9-2.6c1.6-0.3,2.8,0.8,3,1c0.5,0,1.4-0.2,2.3-0.5c1.4-0.4,1.6-0.8,2.4-0.9c1.6-0.3,3.9,0.6,4.4,2.4
				c0.2,0.7,0.2,1.7-0.3,2.5c-0.5,0.7-1.1,1-1.4,1.1c0.1,0.2,0.2,0.4,0.3,0.7c0.3,1.1,0,2.9-1.4,3.4c-1,0.4-2.2,0-3-1.1"/>
			<path class="st2" d="M139.4,226.2l0.4,5.4c0.1,0.2,0.3,0.7,0.8,1.1c0.6,0.5,1.3,0.5,1.5,0.5c0.3,0,1,0.1,1.7-0.4
				c1.2-0.7,1.4-2,1.4-2.2c0.1-1.5,0.3-3,0.4-4.5C145.6,226.2,142.2,227.8,139.4,226.2z"/>
			<path class="st0" d="M134.8,238.3c-1,0-1.9,0-2.9,0v14.5h10.6v-14.5h-2.5"/>
			<polygon class="st1" points="136.4,242.9 138,242.9 138,245.1 140.2,245.1 140.2,246.6 138,246.6 138,249 136.4,249 136.4,246.7 
				134.2,246.7 134.2,245.1 136.4,245.1 			"/>
		</g>
		<g>
			<g>
				<path class="st4" d="M118.5,235.8c0.6-1,1.2-1.9,1.8-2.8c1.2,0,2.4,0,3.7-0.1c0.4,0,0.9,0,1.3,0.3c0.7,0.4,0.8,1.2,0.8,1.6
					c0.7,5.5,0.3,7.8,0.3,7.8c-0.4,2.2-0.6,5.3-0.2,9.3c-0.9,0.1-3.8,0.5-5.9,0.2c-0.6-0.1-1.3-0.2-1.6-0.7c-0.2-0.3-0.3-0.6-0.2-1
					c0.1-1,2.8-2.6,2.8-2.6c0.3,0.3,0.5,0.6,0.8,1c0.3-1.9,0.5-4.2,0.2-6.9c-0.2-1.8-0.5-3.4-0.9-4.7"/>
				<path class="st4" d="M106.9,237.5c0.2-0.7,0.5-1.8,0.9-3.2c0.2-0.7,0.3-1.1,0.8-1.4c0.6-0.4,1.6-0.4,3.2-0.4
					c0.8,0,1.4,0,1.9,0.1c0.5,1,1,2,1.5,3.1"/>
				<path class="st4" d="M109.8,252.2c0,6.4,0,12.8,0,19.2c-1.5,0.7-3.1,1.5-4.6,2.2c-0.1,0.4-0.1,0.8-0.2,1.2c3.8,0,7.5,0,11.2,0.1
					c0-1.2,0-2.4,0-3.6"/>
				<path class="st4" d="M110.7,239.3c0.1,0.1,0.1,0.2,0.2,0.2c0.1,0,0.2,0,0.2,0c1.2,0,2.5,0,3.8,0c0-0.7,0-1.4,0-2.1
					c0-0.1,0-0.2-0.1-0.3c-0.1-0.1-0.2-0.2-0.4-0.2c-0.4-0.1-0.9-0.1-1.4-0.1c-0.5,0-0.9,0-1.4,0c-0.4,0-1.2,0-1.3,0.5
					C110.3,238.1,110.4,238.8,110.7,239.3z"/>
				<path class="st4" d="M116.2,269.4c0-3.7-0.1-7.5-0.1-11.2"/>
				<path class="st4" d="M109.9,237.5c-1,0-1.9,0-2.9,0v14.6h10.7v-14.6h-2.6"/>
				<path class="st4" d="M115.8,232.7h2.2c-0.2,0.4-0.4,1-0.6,1.8c-0.3,1.2-0.3,2.1-0.5,2.1s-0.2-0.8-0.5-2.1
					C116.2,233.7,115.9,233.1,115.8,232.7z"/>
				<path class="st4" d="M122.6,252.5c0,6.3,0.1,12.6,0.1,18.9c1.6,0.7,3.1,1.5,4.7,2.2c0.1,0.4,0.1,0.8,0.2,1.2
					c-3.8,0-7.6,0-11.3,0.1c0-1.2,0-2.4,0-3.6"/>
				<polygon class="st4" points="111.5,242.4 113.1,242.4 113.1,244.5 115.3,244.5 115.3,246.1 113.1,246.1 113.1,248.5 
					111.5,248.5 111.5,246.1 109.3,246.1 109.3,244.5 111.5,244.5 				"/>
			</g>
			<path class="st4" d="M117.8,231.6h-1.9c-0.4-0.3-0.9-0.7-1.4-1.2c-0.5-0.5-1-1.1-1.3-1.6v-3.4c0-1.5,1.2-2.8,2.7-2.8h1.9
				c1.5,0,2.7,1.2,2.7,2.8v3.4c-0.3,0.4-0.6,0.9-1.1,1.4C118.9,230.9,118.3,231.3,117.8,231.6z"/>
		</g>
	</g>
	<g>
		<g>
			<path class="st0" d="M206.3,237.6c0-1.5,0.4-2.6,0.7-3.2c0.4-0.9,0.8-1.2,1-1.3c0.6-0.4,1.2-0.4,2-0.4c0.6,0,1,0,1.4,0.1l2.9,2.9
				c1-0.9,2-1.8,3.1-2.6c0.6-0.1,1.5-0.3,2.6-0.1c0.4,0.1,0.7,0.2,0.8,0.2c1.8,0.7,1.8,6.4,1.7,7.8c0,2.8-0.2,6.4-0.5,10.6
				c-1.5,0.4-3.3,0.5-4.5,0.4c-1.2-0.1-1.8-0.7-1.7-1.7s2.5-2.5,2.5-2.5c0.2,0.3,0.5,0.6,0.7,0.9c0.3-1.8,0.4-4.2,0.2-6.8
				c-0.2-1.8-0.5-3.4-0.8-4.7"/>
			<polyline class="st0" points="216.6,261.9 216.6,270.2 222.8,273.1 222.8,274.5 213.6,274.5 213.6,270.9 			"/>
			<polyline class="st0" points="210.3,261.9 210.3,270.2 204.1,273.1 204.1,274.5 213.3,274.5 213.3,270.9 			"/>
			<path class="st0" d="M207.7,239.4c0,0.1,0.1,0.2,0.2,0.2c0.1,0,0.2,0,0.3,0c1.3,0,2.5,0,3.8,0c0-0.7,0-1.4,0-2.1
				c0-0.1,0-0.2-0.1-0.3c-0.1-0.1-0.2-0.2-0.4-0.2c-0.5-0.1-0.9-0.1-1.4-0.1s-0.9,0-1.4,0c-0.4,0-1.3,0-1.3,0.5
				C207.3,238.2,207.5,238.8,207.7,239.4z"/>
			<path class="st0" d="M207.1,252.1l-1.8,9.4c0,0,6.8,1.2,9.7-0.2c0,0,5.6,0.6,6.4-0.3s-1.6-8.9-1.6-8.9"/>
			<line class="st0" x1="213.3" y1="269.1" x2="213.3" y2="263.2"/>
			<path class="st1" d="M212,231.2c-0.3,0.1-3.8,0.6-4.6-0.5c-0.1-0.2-0.3-0.5-0.1-2.3c0.2-1.8,0.3-2.8,0.6-3.5
				c0.3-0.6,1.1-2.3,2.9-2.6c1.6-0.3,2.8,0.8,3.1,1c0.5,0,1.4-0.2,2.4-0.5c1.5-0.4,1.6-0.8,2.5-0.9c1.7-0.3,4,0.6,4.5,2.4
				c0.2,0.7,0.2,1.7-0.3,2.5c-0.5,0.7-1.2,1-1.5,1.1c0.1,0.2,0.2,0.4,0.3,0.7c0.3,1.1,0,2.9-1.4,3.4c-1,0.4-2.3,0-3-1.1"/>
			<path class="st2" d="M211.6,225.6l0.4,5.4c0.1,0.2,0.3,0.7,0.9,1.1c0.6,0.5,1.3,0.5,1.5,0.5c0.3,0,1,0.1,1.8-0.4
				c1.2-0.7,1.4-2,1.5-2.2c0.1-1.5,0.3-3,0.4-4.5C218,225.6,214.5,227.2,211.6,225.6z"/>
			<path class="st0" d="M206.9,237.6c-1,0-2,0-3,0v14.5h10.8v-14.5h-2.6"/>
			<polygon class="st1" points="208.6,242.3 210.2,242.3 210.2,244.4 212.4,244.4 212.4,246 210.2,246 210.2,248.4 208.6,248.4 
				208.6,246 206.3,246 206.3,244.4 208.6,244.4 			"/>
		</g>
		<g>
			<g>
				<path class="st4" d="M190.2,235.2c0.6-1,1.2-1.9,1.8-2.8c1.2,0,2.5,0,3.8-0.1c0.4,0,0.9,0,1.4,0.3c0.7,0.4,0.8,1.2,0.8,1.6
					c0.7,5.5,0.3,7.8,0.3,7.8c-0.4,2.2-0.6,5.3-0.2,9.3c-0.9,0.1-3.9,0.5-6,0.2c-0.7-0.1-1.3-0.2-1.7-0.7c-0.2-0.3-0.3-0.6-0.2-1
					c0.1-1,2.9-2.6,2.9-2.6c0.3,0.3,0.5,0.6,0.8,1c0.3-1.9,0.5-4.2,0.2-6.9c-0.2-1.8-0.5-3.4-0.9-4.7"/>
				<path class="st4" d="M178.4,236.9c0.2-0.7,0.5-1.8,1-3.2c0.2-0.7,0.3-1.1,0.8-1.4c0.6-0.4,1.6-0.4,3.3-0.4c0.8,0,1.5,0,1.9,0.1
					c0.5,1,1,2,1.5,3.1"/>
				<path class="st4" d="M181.3,251.5c0,6.4,0,12.8,0,19.2c-1.6,0.7-3.2,1.5-4.7,2.2c-0.1,0.4-0.1,0.8-0.2,1.2c3.8,0,7.7,0,11.5,0.1
					c0-1.2,0-2.4,0-3.6"/>
				<path class="st4" d="M182.2,238.7c0,0.1,0.1,0.2,0.2,0.2c0.1,0,0.2,0,0.3,0c1.3,0,2.6,0,3.8,0c0-0.7,0-1.4,0-2.1
					c0-0.1,0-0.2-0.1-0.3c-0.1-0.1-0.2-0.2-0.4-0.2c-0.5-0.1-0.9-0.1-1.4-0.1s-0.9,0-1.4,0c-0.5,0-1.3,0-1.3,0.5
					C181.8,237.5,182,238.2,182.2,238.7z"/>
				<path class="st4" d="M187.8,268.8c0-3.7-0.1-7.5-0.1-11.2"/>
				<path class="st4" d="M181.4,236.9c-1,0-2,0-3,0v14.6h11v-14.6h-2.6"/>
				<path class="st4" d="M187.4,232.1h2.2c-0.2,0.4-0.4,1-0.6,1.8c-0.3,1.2-0.3,2.1-0.5,2.1s-0.2-0.8-0.5-2.1
					C187.9,233.1,187.6,232.5,187.4,232.1z"/>
				<path class="st4" d="M194.4,251.9c0,6.3,0.1,12.6,0.1,18.9c1.6,0.7,3.2,1.5,4.8,2.2c0.1,0.4,0.1,0.8,0.2,1.2
					c-3.9,0-7.7,0-11.6,0.1c0-1.2,0-2.4,0-3.6"/>
				<polygon class="st4" points="183.1,241.7 184.7,241.7 184.7,243.9 187,243.9 187,245.4 184.7,245.4 184.7,247.9 183.1,247.9 
					183.1,245.5 180.8,245.5 180.8,243.9 183.1,243.9 				"/>
			</g>
			<path class="st4" d="M189.5,231h-2c-0.4-0.3-0.9-0.7-1.4-1.2c-0.6-0.5-1-1.1-1.3-1.6v-3.4c0-1.5,1.2-2.8,2.8-2.8h2
				c1.5,0,2.8,1.2,2.8,2.8v3.4c-0.3,0.4-0.6,0.9-1.1,1.4C190.6,230.3,190,230.7,189.5,231z"/>
		</g>
	</g>
	<g>
		<g>
			<path class="st0" d="M278.1,237.5c0-1.5,0.4-2.6,0.7-3.2c0.4-0.9,0.8-1.2,1-1.3c0.6-0.4,1.2-0.4,2-0.4c0.6,0,1,0,1.4,0.1l2.9,2.9
				c1-0.9,2-1.8,3.1-2.6c0.6-0.1,1.5-0.3,2.6-0.1c0.4,0.1,0.7,0.2,0.8,0.2c1.8,0.7,1.8,6.4,1.7,7.8c0,2.8-0.2,6.4-0.5,10.6
				c-1.5,0.4-3.3,0.5-4.5,0.4c-1.2-0.1-1.8-0.7-1.7-1.7s2.5-2.5,2.5-2.5c0.2,0.3,0.5,0.6,0.7,0.9c0.3-1.8,0.4-4.2,0.2-6.8
				c-0.2-1.8-0.5-3.4-0.8-4.7"/>
			<polyline class="st0" points="288.5,261.8 288.5,270 294.7,272.9 294.7,274.3 285.5,274.3 285.5,270.7 			"/>
			<polyline class="st0" points="282.2,261.8 282.2,270 275.9,272.9 275.9,274.3 285.2,274.3 285.2,270.7 			"/>
			<path class="st0" d="M279.6,239.2c0,0.1,0.1,0.2,0.2,0.2c0.1,0,0.2,0,0.3,0c1.3,0,2.5,0,3.8,0c0-0.7,0-1.4,0-2.1
				c0-0.1,0-0.2-0.1-0.3c-0.1-0.1-0.2-0.2-0.4-0.2c-0.5-0.1-0.9-0.1-1.4-0.1s-0.9,0-1.4,0c-0.4,0-1.3,0-1.3,0.5
				C279.2,238,279.4,238.7,279.6,239.2z"/>
			<path class="st0" d="M279,251.9l-1.8,9.4c0,0,6.8,1.2,9.7-0.2c0,0,5.6,0.6,6.4-0.3s-1.6-8.9-1.6-8.9"/>
			<line class="st0" x1="285.2" y1="268.9" x2="285.2" y2="263"/>
			<path class="st1" d="M283.9,231c-0.3,0.1-3.8,0.6-4.6-0.5c-0.1-0.2-0.3-0.5-0.1-2.3c0.2-1.8,0.3-2.8,0.6-3.5
				c0.3-0.6,1.1-2.3,2.9-2.6c1.6-0.3,2.8,0.8,3.1,1c0.5,0,1.4-0.2,2.4-0.5c1.5-0.4,1.6-0.8,2.5-0.9c1.7-0.3,4,0.6,4.5,2.4
				c0.2,0.7,0.2,1.7-0.3,2.5c-0.5,0.7-1.2,1-1.5,1.1c0.1,0.2,0.2,0.4,0.3,0.7c0.3,1.1,0,2.9-1.4,3.4c-1,0.4-2.3,0-3-1.1"/>
			<path class="st2" d="M283.5,225.4l0.4,5.4c0.1,0.2,0.3,0.7,0.9,1.1c0.6,0.5,1.3,0.5,1.5,0.5c0.3,0,1,0.1,1.8-0.4
				c1.2-0.7,1.4-2,1.5-2.2c0.1-1.5,0.3-3,0.4-4.5C289.9,225.4,286.4,227,283.5,225.4z"/>
			<path class="st0" d="M278.8,237.5c-1,0-2,0-3,0v14.5h10.8v-14.5h-2.6"/>
			<polygon class="st1" points="280.5,242.1 282,242.1 282,244.3 284.3,244.3 284.3,245.8 282,245.8 282,248.2 280.5,248.2 
				280.5,245.9 278.2,245.9 278.2,244.3 280.5,244.3 			"/>
		</g>
		<g>
			<g>
				<path class="st4" d="M262.1,235c0.6-1,1.2-1.9,1.8-2.8c1.2,0,2.5,0,3.8-0.1c0.4,0,0.9,0,1.4,0.3c0.7,0.4,0.8,1.2,0.8,1.6
					c0.7,5.5,0.3,7.8,0.3,7.8c-0.4,2.2-0.6,5.3-0.2,9.3c-0.9,0.1-3.9,0.5-6,0.2c-0.7-0.1-1.3-0.2-1.7-0.7c-0.2-0.3-0.3-0.6-0.2-1
					c0.1-1,2.9-2.6,2.9-2.6c0.3,0.3,0.5,0.6,0.8,1c0.3-1.9,0.5-4.2,0.2-6.9c-0.2-1.8-0.5-3.4-0.9-4.7"/>
				<path class="st4" d="M250.3,236.7c0.2-0.7,0.5-1.8,1-3.2c0.2-0.7,0.3-1.1,0.8-1.4c0.6-0.4,1.6-0.4,3.3-0.4c0.8,0,1.4,0,1.9,0.1
					c0.5,1,1,2,1.5,3.1"/>
				<path class="st4" d="M253.2,251.3c0,6.4,0,12.8,0,19.2c-1.6,0.7-3.2,1.5-4.7,2.2c-0.1,0.4-0.1,0.8-0.2,1.2c3.8,0,7.7,0,11.5,0.1
					c0-1.2,0-2.4,0-3.6"/>
				<path class="st4" d="M254.1,238.5c0,0.1,0.1,0.2,0.2,0.2c0.1,0,0.2,0,0.3,0c1.3,0,2.6,0,3.8,0c0-0.7,0-1.4,0-2.1
					c0-0.1,0-0.2-0.1-0.3c-0.1-0.1-0.2-0.2-0.4-0.2c-0.5-0.1-0.9-0.1-1.4-0.1s-0.9,0-1.4,0c-0.5,0-1.3,0-1.3,0.5
					C253.7,237.3,253.8,238,254.1,238.5z"/>
				<path class="st4" d="M259.7,268.6c0-3.7-0.1-7.5-0.1-11.2"/>
				<path class="st4" d="M253.3,236.7c-1,0-2,0-3,0v14.6h10.9v-14.6h-2.6"/>
				<path class="st4" d="M259.3,231.9h2.2c-0.2,0.4-0.4,1-0.6,1.8c-0.3,1.2-0.3,2.1-0.5,2.1s-0.2-0.8-0.5-2.1
					C259.7,232.9,259.5,232.3,259.3,231.9z"/>
				<path class="st4" d="M266.3,251.7c0,6.3,0.1,12.6,0.1,18.9c1.6,0.7,3.2,1.5,4.8,2.2c0.1,0.4,0.1,0.8,0.2,1.2
					c-3.9,0-7.7,0-11.6,0.1c0-1.2,0-2.4,0-3.6"/>
				<polygon class="st4" points="255,241.5 256.6,241.5 256.6,243.7 258.8,243.7 258.8,245.3 256.6,245.3 256.6,247.7 255,247.7 
					255,245.3 252.7,245.3 252.7,243.7 255,243.7 				"/>
			</g>
			<path class="st4" d="M261.4,230.8h-2c-0.4-0.3-0.9-0.7-1.4-1.2c-0.6-0.5-1-1.1-1.3-1.6v-3.4c0-1.5,1.2-2.8,2.8-2.8h2
				c1.5,0,2.8,1.2,2.8,2.8v3.4c-0.3,0.4-0.6,0.9-1.1,1.4C262.5,230.1,261.9,230.5,261.4,230.8z"/>
		</g>
	</g>
	<g>
		<g>
			<path class="st0" d="M349.3,237.3c0-1.5,0.4-2.6,0.7-3.2c0.4-0.9,0.8-1.2,1-1.3c0.6-0.4,1.2-0.4,2-0.4c0.6,0,1,0,1.4,0.1l2.9,2.9
				c1-0.9,2-1.8,3.1-2.6c0.6-0.1,1.5-0.3,2.6-0.1c0.4,0.1,0.7,0.2,0.8,0.2c1.8,0.7,1.8,6.4,1.7,7.8c0,2.8-0.2,6.4-0.5,10.6
				c-1.5,0.4-3.3,0.5-4.5,0.4c-1.2-0.1-1.8-0.7-1.7-1.7s2.5-2.5,2.5-2.5c0.2,0.3,0.5,0.6,0.7,0.9c0.3-1.8,0.4-4.2,0.2-6.8
				c-0.2-1.8-0.5-3.4-0.8-4.7"/>
			<polyline class="st0" points="359.7,261.6 359.7,269.9 365.9,272.8 365.9,274.2 356.7,274.2 356.7,270.6 			"/>
			<polyline class="st0" points="353.3,261.6 353.3,269.9 347.1,272.8 347.1,274.2 356.3,274.2 356.3,270.6 			"/>
			<path class="st0" d="M350.8,239.1c0,0.1,0.1,0.2,0.2,0.2c0.1,0,0.2,0,0.3,0c1.3,0,2.5,0,3.8,0c0-0.7,0-1.4,0-2.1
				c0-0.1,0-0.2-0.1-0.3c-0.1-0.1-0.2-0.2-0.4-0.2c-0.5-0.1-0.9-0.1-1.4-0.1s-0.9,0-1.4,0c-0.4,0-1.3,0-1.3,0.5
				C350.4,237.8,350.5,238.5,350.8,239.1z"/>
			<path class="st0" d="M350.2,251.8l-1.8,9.4c0,0,6.8,1.2,9.7-0.2c0,0,5.6,0.6,6.4-0.3s-1.6-8.9-1.6-8.9"/>
			<line class="st0" x1="356.3" y1="268.8" x2="356.3" y2="262.9"/>
			<path class="st1" d="M355.1,230.8c-0.3,0.1-3.8,0.6-4.6-0.5c-0.1-0.2-0.3-0.5-0.1-2.3c0.2-1.8,0.3-2.8,0.6-3.5
				c0.3-0.6,1.1-2.3,2.9-2.6c1.6-0.3,2.8,0.8,3.1,1c0.5,0,1.4-0.2,2.4-0.5c1.5-0.4,1.6-0.8,2.5-0.9c1.7-0.3,4,0.6,4.5,2.4
				c0.2,0.7,0.2,1.7-0.3,2.5c-0.5,0.7-1.2,1-1.5,1.1c0.1,0.2,0.2,0.4,0.3,0.7c0.3,1.1,0,2.9-1.4,3.4c-1,0.4-2.3,0-3-1.1"/>
			<path class="st2" d="M354.7,225.3l0.4,5.4c0.1,0.2,0.3,0.7,0.9,1.1c0.6,0.5,1.3,0.5,1.5,0.5c0.3,0,1,0.1,1.8-0.4
				c1.2-0.7,1.4-2,1.5-2.2c0.1-1.5,0.3-3,0.4-4.5C361.1,225.3,357.5,226.9,354.7,225.3z"/>
			<path class="st0" d="M350,237.3c-1,0-2,0-3,0v14.5h10.8v-14.5h-2.6"/>
			<polygon class="st1" points="351.6,242 353.2,242 353.2,244.1 355.5,244.1 355.5,245.7 353.2,245.7 353.2,248.1 351.6,248.1 
				351.6,245.7 349.4,245.7 349.4,244.1 351.6,244.1 			"/>
		</g>
		<g>
			<path class="st4" d="M333.3,234.9c0.6-1,1.2-1.9,1.8-2.8c1.2,0,2.5,0,3.8-0.1c0.4,0,0.9,0,1.4,0.3c0.7,0.4,0.8,1.2,0.8,1.6
				c0.7,5.5,0.3,7.8,0.3,7.8c-0.4,2.2-0.6,5.3-0.2,9.3c-0.9,0.1-3.9,0.5-6,0.2c-0.7-0.1-1.3-0.2-1.7-0.7c-0.2-0.3-0.3-0.6-0.2-1
				c0.1-1,2.9-2.6,2.9-2.6c0.3,0.3,0.5,0.6,0.8,1c0.3-1.9,0.5-4.2,0.2-6.9c-0.2-1.8-0.5-3.4-0.9-4.7"/>
			<path class="st4" d="M321.5,236.6c0.2-0.7,0.5-1.8,1-3.2c0.2-0.7,0.3-1.1,0.8-1.4c0.6-0.4,1.6-0.4,3.3-0.4c0.8,0,1.5,0,1.9,0.1
				c0.5,1,1,2,1.5,3.1"/>
			<path class="st4" d="M324.3,251.2c0,6.4,0,12.8,0,19.2c-1.6,0.7-3.2,1.5-4.7,2.2c-0.1,0.4-0.1,0.8-0.2,1.2c3.8,0,7.7,0,11.5,0.1
				c0-1.2,0-2.4,0-3.6"/>
			<path class="st4" d="M325.3,238.4c0,0.1,0.1,0.2,0.2,0.2c0.1,0,0.2,0,0.3,0c1.3,0,2.6,0,3.8,0c0-0.7,0-1.4,0-2.1
				c0-0.1,0-0.2-0.1-0.3c-0.1-0.1-0.2-0.2-0.4-0.2c-0.5-0.1-0.9-0.1-1.4-0.1s-0.9,0-1.4,0c-0.5,0-1.3,0-1.3,0.5
				C324.9,237.1,325,237.8,325.3,238.4z"/>
			<path class="st4" d="M330.9,268.5c0-3.7-0.1-7.5-0.1-11.2"/>
			<path class="st4" d="M324.5,236.6c-1,0-2,0-3,0v14.6h11v-14.6h-2.6"/>
			<path class="st4" d="M330.5,231.8h2.2c-0.2,0.4-0.4,1-0.6,1.8c-0.3,1.2-0.3,2.1-0.5,2.1s-0.2-0.8-0.5-2.1
				C330.9,232.8,330.7,232.2,330.5,231.8z"/>
			<path class="st4" d="M337.5,251.5c0,6.3,0.1,12.6,0.1,18.9c1.6,0.7,3.2,1.5,4.8,2.2c0.1,0.4,0.1,0.8,0.2,1.2
				c-3.9,0-7.7,0-11.6,0.1c0-1.2,0-2.4,0-3.6"/>
			<polygon class="st4" points="326.1,241.4 327.7,241.4 327.7,243.6 330,243.6 330,245.1 327.7,245.1 327.7,247.6 326.1,247.6 
				326.1,245.2 323.9,245.2 323.9,243.6 326.1,243.6 			"/>
			<path class="st4" d="M332.6,230.7h-2c-0.4-0.3-0.9-0.7-1.4-1.2c-0.6-0.5-1-1.1-1.3-1.6v-3.4c0-1.5,1.2-2.8,2.8-2.8h2
				c1.5,0,2.8,1.2,2.8,2.8v3.4c-0.3,0.4-0.6,0.9-1.1,1.4C333.7,230,333.1,230.4,332.6,230.7z"/>
		</g>
	</g>
</g>
</svg>
