<?xml version="1.0" encoding="utf-8"?>
<!-- Generator: Adobe Illustrator 27.1.1, SVG Export Plug-In . SVG Version: 6.00 Build 0)  -->
<svg version="1.1" id="Layer_1" xmlns="http://www.w3.org/2000/svg" xmlns:xlink="http://www.w3.org/1999/xlink" x="0px" y="0px"
	 viewBox="0 0 100 100" style="enable-background:new 0 0 100 100;" xml:space="preserve">
<style type="text/css">
	.st0{fill:none;stroke:#878787;stroke-width:0.25;stroke-miterlimit:10;}
</style>
<path d="M30.14,53.28c0,0.3,0,0.6,0,0.9c-0.01,0.48-0.31,0.83-0.8,0.94c-0.4,0.09-0.86-0.15-1.05-0.55
	c-0.11-0.23-0.13-0.48-0.1-0.73c0.05-0.48,0.01-0.95,0.01-1.43c0-0.48-0.2-0.79-0.57-1.03c-0.13-0.08-0.24-0.29-0.38-0.21
	c-0.13,0.07-0.04,0.29-0.03,0.44c0.19,2.1,0.11,4.19-0.28,6.26c-0.1,0.51-0.29,0.65-0.81,0.57c-0.52-0.08-1.04-0.19-1.54-0.38
	c-0.33-0.12-0.45,0.1-0.61,0.28c-0.16,0.19,0.01,0.31,0.11,0.43c0.45,0.56,0.93,1.09,1.47,1.57c0.4,0.34,0.55,0.4,0.44,0.91
	c-0.19,0.82-1.17,1.57-1.82,1.02c-0.93-0.79-1.76-1.68-2.4-2.72c-0.48-0.77-0.45-1.53,0.06-2.27c0.06-0.09,0.22-0.19,0.08-0.32
	c-0.13-0.11-0.28-0.23-0.48-0.15c-0.35,0.15-0.65,0.34-0.83,0.71c-0.56,1.15-0.99,2.35-1.4,3.56c-0.08,0.24-0.14,0.48-0.25,0.7
	c-0.26,0.57-0.87,0.52-1.45,0.33c-0.58-0.19-0.93-0.48-0.76-1.08c0.48-1.62,1.03-3.22,1.83-4.73c0.15-0.28,0.32-0.56,0.54-0.8
	c0.14-0.15,0.12-0.26-0.05-0.37c-0.33-0.23-0.65-0.49-0.97-0.73c-0.18-0.13-0.42-0.3-0.38-0.53c0.04-0.23,0.33-0.35,0.54-0.42
	c1.1-0.36,2.15-0.83,3.05-1.58c0.43-0.36,1.09-0.77,1.38-1.25c0.13-0.22-0.22-0.32-0.45-0.42c-0.88-0.4-1.66-0.94-2.34-1.63
	c-0.45-0.45-0.68-0.97-0.67-1.62c0.02-0.96-0.02-1.93,0.06-2.89c0.05-0.57,0.46-1,1-0.99c0.56,0.01,0.98,0.44,0.97,1.04
	c-0.01,0.84-0.03,1.68-0.06,2.52c-0.01,0.36,0.09,0.65,0.4,0.85c0.12,0.08,0.23,0.17,0.34,0.27c0.71,0.58,1.48,0.91,2.43,0.81
	c0.56-0.06,1.14,0,1.71-0.01c0.35-0.01,0.68,0.06,0.99,0.21c0.84,0.4,1.58,0.95,2.25,1.59c0.58,0.54,0.72,1.24,0.76,1.98
	C30.14,52.66,30.13,52.97,30.14,53.28C30.13,53.28,30.14,53.28,30.14,53.28z"/>
<path d="M8.76,57.07c-0.05,0.13-0.09,0.27-0.14,0.4c-0.26,0.77-0.72,1.42-1.22,2.05C6.81,60.25,6.23,61,5.64,61.74
	c-0.48,0.61-1.23,0.29-1.81-0.17c-0.53-0.42-0.6-0.77-0.16-1.35c0.66-0.84,1.32-1.69,1.99-2.52c0.36-0.45,0.6-0.94,0.73-1.5
	c0.1-0.45,0.19-0.89,0.31-1.33c0.06-0.21,0.03-0.36-0.12-0.51c-0.13-0.14-0.24-0.29-0.34-0.44c-0.4-0.65-0.45-1.32-0.14-2.02
	c0.42-0.95,0.83-1.9,1.24-2.86c0.04-0.08,0.1-0.16,0.08-0.29c-0.41,0.03-0.75,0.2-1.02,0.5c-0.51,0.56-1.02,1.12-1.54,1.67
	c-0.49,0.52-1.04,0.56-1.54,0.12c-0.46-0.4-0.51-1.06-0.07-1.56c0.59-0.67,1.2-1.32,1.82-1.97c0.38-0.39,0.86-0.66,1.39-0.8
	c0.85-0.22,1.71-0.44,2.58-0.59c0.53-0.09,1.03-0.03,1.52,0.17c0.57,0.23,1.11,0.51,1.72,0.63c1.17,0.23,2.27,0.15,3.24-0.65
	c0.26-0.22,0.56-0.4,0.85-0.58c0.2-0.12,0.25-0.25,0.19-0.49c-0.44-1.75-0.87-3.5-1.3-5.26c-0.02-0.09-0.05-0.18-0.06-0.27
	c-0.06-0.3,0.1-0.57,0.36-0.63c0.29-0.08,0.56,0.07,0.64,0.39c0.22,0.83,0.42,1.67,0.62,2.51c0.25,1.01,0.5,2.01,0.74,3.02
	c0.05,0.2,0.13,0.34,0.33,0.45c0.55,0.31,0.71,0.97,0.37,1.5c-0.11,0.17-0.14,0.33-0.08,0.52c0.05,0.15,0.07,0.3,0.08,0.46
	c0.02,0.25-0.08,0.46-0.34,0.53c-0.26,0.07-0.49-0.05-0.57-0.31c-0.09-0.31-0.22-0.27-0.42-0.11c-0.81,0.6-1.68,1.07-2.7,1.2
	c-0.55,0.07-1.1,0.07-1.65,0c-0.22-0.03-0.32,0.03-0.42,0.21c-0.8,1.49-1.6,2.98-2.4,4.47c-0.08,0.14-0.07,0.25,0.04,0.36
	c0.2,0.23,0.38,0.47,0.58,0.69c0.9,1.03,1.37,2.23,1.52,3.58c0.08,0.72,0.19,1.44,0.29,2.16c0.1,0.67-0.11,0.75-0.58,1.02
	c-0.73,0.42-1.7,0.42-1.86-0.44c-0.16-0.88-0.26-1.76-0.38-2.65c-0.06-0.46-0.17-0.9-0.4-1.3C8.93,57.22,8.91,57.11,8.76,57.07z"/>
<path d="M9.75,43.75c-0.02-1.13,0.44-1.55,1.41-1.54c0.96,0.01,1.43,0.45,1.36,1.34c-0.04,0.55-0.12,1.1-0.24,1.63
	c-0.12,0.55-0.5,0.77-1.17,0.76c-0.67-0.01-1.03-0.24-1.15-0.79C9.85,44.6,9.8,44.05,9.75,43.75z"/>
<path d="M23.98,45.86c-0.02-1.13,0.51-1.55,1.62-1.54c1.1,0.01,1.65,0.45,1.57,1.34c-0.05,0.55-0.14,1.1-0.27,1.63
	c-0.14,0.55-0.58,0.77-1.36,0.76c-0.77-0.01-1.19-0.24-1.32-0.79C24.1,46.72,24.04,46.17,23.98,45.86z"/>
<path class="st0" d="M63.57,53.09c0,0.3,0,0.6,0,0.9c-0.01,0.48-0.31,0.83-0.8,0.94c-0.4,0.09-0.86-0.15-1.05-0.55
	c-0.11-0.23-0.13-0.48-0.1-0.73c0.05-0.48,0.01-0.95,0.01-1.43c0-0.48-0.2-0.79-0.57-1.03c-0.13-0.08-0.24-0.29-0.38-0.21
	c-0.13,0.07-0.04,0.29-0.03,0.44c0.19,2.1,0.11,4.19-0.28,6.26c-0.1,0.51-0.29,0.65-0.81,0.57c-0.52-0.08-1.04-0.19-1.54-0.38
	c-0.33-0.12-0.45,0.1-0.61,0.28c-0.16,0.19,0.01,0.31,0.11,0.43c0.45,0.56,0.93,1.09,1.47,1.57c0.4,0.34,0.55,0.4,0.44,0.91
	c-0.19,0.82-1.17,1.57-1.82,1.02c-0.93-0.79-1.76-1.68-2.4-2.72c-0.48-0.77-0.45-1.53,0.06-2.27c0.06-0.09,0.22-0.19,0.08-0.32
	c-0.13-0.11-0.28-0.23-0.48-0.15c-0.35,0.15-0.65,0.34-0.83,0.71c-0.56,1.15-0.99,2.35-1.4,3.56c-0.08,0.24-0.14,0.48-0.25,0.7
	c-0.26,0.57-0.87,0.52-1.45,0.33c-0.58-0.19-0.93-0.48-0.76-1.08c0.48-1.62,1.03-3.22,1.83-4.73c0.15-0.28,0.32-0.56,0.54-0.8
	c0.14-0.15,0.12-0.26-0.05-0.37c-0.33-0.23-0.65-0.49-0.97-0.73c-0.18-0.13-0.42-0.3-0.38-0.53c0.04-0.23,0.33-0.35,0.54-0.42
	c1.1-0.36,2.15-0.83,3.05-1.58c0.43-0.36,1.09-0.77,1.38-1.25c0.13-0.22-0.22-0.32-0.45-0.42c-0.88-0.4-1.66-0.94-2.34-1.63
	c-0.45-0.45-0.68-0.97-0.67-1.62c0.02-0.96-0.02-1.93,0.06-2.89c0.05-0.57,0.46-1,1-0.99c0.56,0.01,0.98,0.44,0.97,1.04
	c-0.01,0.84-0.03,1.68-0.06,2.52c-0.01,0.36,0.09,0.65,0.4,0.85c0.12,0.08,0.23,0.17,0.34,0.27c0.71,0.58,1.48,0.91,2.43,0.81
	c0.56-0.06,1.14,0,1.71-0.01c0.35-0.01,0.68,0.06,0.99,0.21c0.84,0.4,1.58,0.95,2.25,1.59c0.58,0.54,0.72,1.24,0.76,1.98
	C63.58,52.47,63.57,52.78,63.57,53.09C63.57,53.09,63.57,53.09,63.57,53.09z"/>
<path class="st0" d="M42.2,56.88c-0.05,0.13-0.09,0.27-0.14,0.4c-0.26,0.77-0.72,1.42-1.22,2.05c-0.59,0.74-1.17,1.48-1.76,2.22
	c-0.48,0.61-1.23,0.29-1.81-0.17c-0.53-0.42-0.6-0.77-0.16-1.35c0.66-0.84,1.32-1.69,1.99-2.52c0.36-0.45,0.6-0.94,0.73-1.5
	c0.1-0.45,0.19-0.89,0.31-1.33c0.06-0.21,0.03-0.36-0.12-0.51c-0.13-0.14-0.24-0.29-0.34-0.44c-0.4-0.65-0.45-1.32-0.14-2.02
	c0.42-0.95,0.83-1.9,1.24-2.86c0.04-0.08,0.1-0.16,0.08-0.29c-0.41,0.03-0.75,0.2-1.02,0.5c-0.51,0.56-1.02,1.12-1.54,1.67
	c-0.49,0.52-1.04,0.56-1.54,0.12c-0.46-0.4-0.51-1.06-0.07-1.56c0.59-0.67,1.2-1.32,1.82-1.97c0.38-0.39,0.86-0.66,1.39-0.8
	c0.85-0.22,1.71-0.44,2.58-0.59c0.53-0.09,1.03-0.03,1.52,0.17c0.57,0.23,1.11,0.51,1.72,0.63c1.17,0.23,2.27,0.15,3.24-0.65
	c0.26-0.22,0.56-0.4,0.85-0.58c0.2-0.12,0.25-0.25,0.19-0.49c-0.44-1.75-0.87-3.5-1.3-5.26c-0.02-0.09-0.05-0.18-0.06-0.27
	c-0.06-0.3,0.1-0.57,0.36-0.63c0.29-0.08,0.56,0.07,0.64,0.39c0.22,0.83,0.42,1.67,0.62,2.51c0.25,1.01,0.5,2.01,0.74,3.02
	c0.05,0.2,0.13,0.34,0.33,0.45c0.55,0.31,0.71,0.97,0.37,1.5c-0.11,0.17-0.14,0.33-0.08,0.52c0.05,0.15,0.07,0.3,0.08,0.46
	c0.02,0.25-0.08,0.46-0.34,0.53c-0.26,0.07-0.49-0.05-0.57-0.31c-0.09-0.31-0.22-0.27-0.42-0.11c-0.81,0.6-1.68,1.07-2.7,1.2
	c-0.55,0.07-1.1,0.07-1.65,0c-0.22-0.03-0.32,0.03-0.42,0.21c-0.8,1.49-1.6,2.98-2.4,4.47c-0.08,0.14-0.07,0.25,0.04,0.36
	c0.2,0.23,0.38,0.47,0.58,0.69c0.9,1.03,1.37,2.23,1.52,3.58c0.08,0.72,0.19,1.44,0.29,2.16c0.1,0.67-0.11,0.75-0.58,1.02
	c-0.73,0.42-1.7,0.42-1.86-0.44c-0.16-0.88-0.26-1.76-0.38-2.65c-0.06-0.46-0.17-0.9-0.4-1.3C42.36,57.03,42.34,56.92,42.2,56.88z"
	/>
<path class="st0" d="M43.19,43.56c-0.02-1.13,0.44-1.55,1.41-1.54c0.96,0.01,1.43,0.45,1.36,1.34c-0.04,0.55-0.12,1.1-0.24,1.63
	c-0.12,0.55-0.5,0.77-1.17,0.76c-0.67-0.01-1.03-0.24-1.15-0.79C43.29,44.41,43.23,43.86,43.19,43.56z"/>
<path class="st0" d="M57.42,45.67c-0.02-1.13,0.51-1.55,1.62-1.54c1.1,0.01,1.65,0.45,1.57,1.34c-0.05,0.55-0.14,1.1-0.27,1.63
	c-0.14,0.55-0.58,0.77-1.36,0.76c-0.77-0.01-1.19-0.24-1.32-0.79C57.53,46.52,57.47,45.97,57.42,45.67z"/>
<path class="st0" d="M96.44,52.54c0,0.3,0,0.6,0,0.9c-0.01,0.48-0.31,0.83-0.8,0.94c-0.4,0.09-0.86-0.15-1.05-0.55
	c-0.11-0.23-0.13-0.48-0.1-0.73c0.05-0.48,0.01-0.95,0.01-1.43c0-0.48-0.2-0.79-0.57-1.03c-0.13-0.08-0.24-0.29-0.38-0.21
	c-0.13,0.07-0.04,0.29-0.03,0.44c0.19,2.1,0.11,4.19-0.28,6.26c-0.1,0.51-0.29,0.65-0.81,0.57c-0.52-0.08-1.04-0.19-1.54-0.38
	c-0.33-0.12-0.45,0.1-0.61,0.28c-0.16,0.19,0.01,0.31,0.11,0.43c0.45,0.56,0.93,1.09,1.47,1.57c0.4,0.34,0.55,0.4,0.44,0.91
	c-0.19,0.82-1.17,1.57-1.82,1.02c-0.93-0.79-1.76-1.68-2.4-2.72c-0.48-0.77-0.45-1.53,0.06-2.27c0.06-0.09,0.22-0.19,0.08-0.32
	c-0.13-0.11-0.28-0.23-0.48-0.15c-0.35,0.15-0.65,0.34-0.83,0.71c-0.56,1.15-0.99,2.35-1.4,3.56c-0.08,0.24-0.14,0.48-0.25,0.7
	c-0.26,0.57-0.87,0.52-1.45,0.33c-0.58-0.19-0.93-0.48-0.76-1.08c0.48-1.62,1.03-3.22,1.83-4.73c0.15-0.28,0.32-0.56,0.54-0.8
	c0.14-0.15,0.12-0.26-0.05-0.37c-0.33-0.23-0.65-0.49-0.97-0.73c-0.18-0.13-0.42-0.3-0.38-0.53c0.04-0.23,0.33-0.35,0.54-0.42
	c1.1-0.36,2.15-0.83,3.05-1.58c0.43-0.36,1.09-0.77,1.38-1.25c0.13-0.22-0.22-0.32-0.45-0.42c-0.88-0.4-1.66-0.94-2.34-1.63
	c-0.45-0.45-0.68-0.97-0.67-1.62c0.02-0.96-0.02-1.93,0.06-2.89c0.05-0.57,0.46-1,1-0.99c0.56,0.01,0.98,0.44,0.97,1.04
	c-0.01,0.84-0.03,1.68-0.06,2.52c-0.01,0.36,0.09,0.65,0.4,0.85c0.12,0.08,0.23,0.17,0.34,0.27c0.71,0.58,1.48,0.91,2.43,0.81
	c0.56-0.06,1.14,0,1.71-0.01c0.35-0.01,0.68,0.06,0.99,0.21c0.84,0.4,1.58,0.95,2.25,1.59c0.58,0.54,0.72,1.24,0.76,1.98
	C96.44,51.92,96.43,52.23,96.44,52.54C96.43,52.54,96.43,52.54,96.44,52.54z"/>
<path class="st0" d="M75.06,56.33c-0.05,0.13-0.09,0.27-0.14,0.4c-0.26,0.77-0.72,1.42-1.22,2.05c-0.59,0.74-1.17,1.48-1.76,2.22
	c-0.48,0.61-1.23,0.29-1.81-0.17c-0.53-0.42-0.6-0.77-0.16-1.35c0.66-0.84,1.32-1.69,1.99-2.52c0.36-0.45,0.6-0.94,0.73-1.5
	c0.1-0.45,0.19-0.89,0.31-1.33c0.06-0.21,0.03-0.36-0.12-0.51c-0.13-0.14-0.24-0.29-0.34-0.44c-0.4-0.65-0.45-1.32-0.14-2.02
	c0.42-0.95,0.83-1.9,1.24-2.86c0.04-0.08,0.1-0.16,0.08-0.29c-0.41,0.03-0.75,0.2-1.02,0.5c-0.51,0.56-1.02,1.12-1.54,1.67
	c-0.49,0.52-1.04,0.56-1.54,0.12c-0.46-0.4-0.51-1.06-0.07-1.56c0.59-0.67,1.2-1.32,1.82-1.97c0.38-0.39,0.86-0.66,1.39-0.8
	c0.85-0.22,1.71-0.44,2.58-0.59c0.53-0.09,1.03-0.03,1.52,0.17c0.57,0.23,1.11,0.51,1.72,0.63c1.17,0.23,2.27,0.15,3.24-0.65
	c0.26-0.22,0.56-0.4,0.85-0.58c0.2-0.12,0.25-0.25,0.19-0.49c-0.44-1.75-0.87-3.5-1.3-5.26c-0.02-0.09-0.05-0.18-0.06-0.27
	c-0.06-0.3,0.1-0.57,0.36-0.63c0.29-0.08,0.56,0.07,0.64,0.39c0.22,0.83,0.42,1.67,0.62,2.51c0.25,1.01,0.5,2.01,0.74,3.02
	c0.05,0.2,0.13,0.34,0.33,0.45c0.55,0.31,0.71,0.97,0.37,1.5c-0.11,0.17-0.14,0.33-0.08,0.52c0.05,0.15,0.07,0.3,0.08,0.46
	c0.02,0.25-0.08,0.46-0.34,0.53c-0.26,0.07-0.49-0.05-0.57-0.31c-0.09-0.31-0.22-0.27-0.42-0.11c-0.81,0.6-1.68,1.07-2.7,1.2
	c-0.55,0.07-1.1,0.07-1.65,0c-0.22-0.03-0.32,0.03-0.42,0.21c-0.8,1.49-1.6,2.98-2.4,4.47c-0.08,0.14-0.07,0.25,0.04,0.36
	c0.2,0.23,0.38,0.47,0.58,0.69c0.9,1.03,1.37,2.23,1.52,3.58c0.08,0.72,0.19,1.44,0.29,2.16c0.1,0.67-0.11,0.75-0.58,1.02
	c-0.73,0.42-1.7,0.42-1.86-0.44c-0.16-0.88-0.26-1.76-0.38-2.65c-0.06-0.46-0.17-0.9-0.4-1.3C75.22,56.48,75.2,56.37,75.06,56.33z"
	/>
<path class="st0" d="M76.05,43.01c-0.02-1.13,0.44-1.55,1.41-1.54c0.96,0.01,1.43,0.45,1.36,1.34c-0.04,0.55-0.12,1.1-0.24,1.63
	c-0.12,0.55-0.5,0.77-1.17,0.76c-0.67-0.01-1.03-0.24-1.15-0.79C76.15,43.86,76.1,43.31,76.05,43.01z"/>
<path class="st0" d="M90.28,45.12c-0.02-1.13,0.51-1.55,1.62-1.54c1.1,0.01,1.65,0.45,1.57,1.34c-0.05,0.55-0.14,1.1-0.27,1.63
	c-0.14,0.55-0.58,0.77-1.36,0.76c-0.77-0.01-1.19-0.24-1.32-0.79C90.4,45.98,90.33,45.43,90.28,45.12z"/>
</svg>
